/* XPM */
static const char * SpiralIcon_xpm[] = {
"36 36 307 2",
"  	c None",
". 	c #8B889B",
"+ 	c #9C99AA",
"@ 	c #ADAAB9",
"# 	c #837F94",
"$ 	c #7D7990",
"% 	c #9995A7",
"& 	c #67627C",
"* 	c #CDCBD4",
"= 	c #FCFCFC",
"- 	c #D1D0D8",
"; 	c #FFFFFF",
"> 	c #F1F1F3",
", 	c #848095",
"' 	c #2A2248",
") 	c #CFCED6",
"! 	c #68637D",
"~ 	c #ABA8B6",
"{ 	c #D5D3DB",
"] 	c #9490A2",
"^ 	c #C4C4C4",
"/ 	c #1D1C1D",
"( 	c #313134",
"_ 	c #EEEFEE",
": 	c #FBFBFB",
"< 	c #EFEFEF",
"[ 	c #7B768D",
"} 	c #464060",
"| 	c #DEDEE1",
"1 	c #CBCACC",
"2 	c #EEEEF1",
"3 	c #79758C",
"4 	c #FBFBFC",
"5 	c #A2A2A2",
"6 	c #000000",
"7 	c #F5F6F5",
"8 	c #747474",
"9 	c #2A2A2B",
"0 	c #403958",
"a 	c #7D788F",
"b 	c #C0BEC8",
"c 	c #BCBAC6",
"d 	c #BCBAC5",
"e 	c #625C79",
"f 	c #2B2932",
"g 	c #191919",
"h 	c #CCCCCC",
"i 	c #807B91",
"j 	c #3B3556",
"k 	c #F2F2F4",
"l 	c #929292",
"m 	c #0E0E0E",
"n 	c #BFBFBF",
"o 	c #111111",
"p 	c #100E15",
"q 	c #868689",
"r 	c #FEFDFE",
"s 	c #D9D7DE",
"t 	c #9C98AA",
"u 	c #FDFCFD",
"v 	c #DDDDDD",
"w 	c #575755",
"x 	c #5E5E5E",
"y 	c #C4C2CD",
"z 	c #423C5C",
"A 	c #F0F0F2",
"B 	c #939393",
"C 	c #555555",
"D 	c #4A4A4A",
"E 	c #010101",
"F 	c #282828",
"G 	c #C2C2C2",
"H 	c #DBDAE0",
"I 	c #615C78",
"J 	c #F6F6F7",
"K 	c #DADADA",
"L 	c #545454",
"M 	c #0F0F0F",
"N 	c #B8B8B8",
"O 	c #48445C",
"P 	c #2B2B2C",
"Q 	c #D3D3D3",
"R 	c #C1BEC9",
"S 	c #474060",
"T 	c #31294D",
"U 	c #716C85",
"V 	c #65607A",
"W 	c #625D78",
"X 	c #D5D4DB",
"Y 	c #F7F7F7",
"Z 	c #8B8B8B",
"` 	c #161616",
" .	c #0C0C0C",
"..	c #060606",
"+.	c #393643",
"@.	c #47415F",
"#.	c #9692A4",
"$.	c #D9D8DE",
"%.	c #F7F7F8",
"&.	c #918DA0",
"*.	c #B8B5C1",
"=.	c #D1D1D1",
"-.	c #252525",
";.	c #727175",
">.	c #FEFEFF",
",.	c #9D99AA",
"'.	c #DBD9E0",
").	c #E9E9E9",
"!.	c #CBCBCB",
"~.	c #E0E0E0",
"{.	c #6C6C6C",
"].	c #181900",
"^.	c #C9D100",
"/.	c #DFE800",
"(.	c #AAB100",
"_.	c #515151",
":.	c #A6A6A7",
"<.	c #827E93",
"[.	c #615C77",
"}.	c #EAEAED",
"|.	c #DFDFE1",
"1.	c #BEC500",
"2.	c #EAF300",
"3.	c #E9F200",
"4.	c #F4FD00",
"5.	c #1E1D24",
"6.	c #9894A7",
"7.	c #B1AEBB",
"8.	c #69686F",
"9.	c #000001",
"0.	c #E0E900",
"a.	c #8C9200",
"b.	c #615C76",
"c.	c #5F5A75",
"d.	c #413E4D",
"e.	c #020203",
"f.	c #BAC100",
"g.	c #F5FE00",
"h.	c #8E9400",
"i.	c #1A1A1C",
"j.	c #C3C1CB",
"k.	c #9D9D9D",
"l.	c #202020",
"m.	c #383838",
"n.	c #4C4C4C",
"o.	c #E6EF00",
"p.	c #F2FB00",
"q.	c #DCE500",
"r.	c #C8D000",
"s.	c #A0A600",
"t.	c #909600",
"u.	c #EBF400",
"v.	c #ECF500",
"w.	c #111112",
"x.	c #C9C7D0",
"y.	c #F1F1F1",
"z.	c #F8F8F8",
"A.	c #232323",
"B.	c #585C00",
"C.	c #7E8300",
"D.	c #E1EA00",
"E.	c #ABB200",
"F.	c #F6FF00",
"G.	c #6E7300",
"H.	c #525600",
"I.	c #050408",
"J.	c #AEACB9",
"K.	c #FEFEFE",
"L.	c #1D1D1D",
"M.	c #DDE600",
"N.	c #666A00",
"O.	c #414400",
"P.	c #B7B5C1",
"Q.	c #9390A2",
"R.	c #BBBBBB",
"S.	c #414141",
"T.	c #030303",
"U.	c #C3CA00",
"V.	c #D9E100",
"W.	c #505300",
"X.	c #28272A",
"Y.	c #F4F4F6",
"Z.	c #605B76",
"`.	c #736E86",
" +	c #D8D8D8",
".+	c #727272",
"++	c #101010",
"@+	c #848486",
"#+	c #CCCBD3",
"$+	c #747087",
"%+	c #6D6881",
"&+	c #1C1C1C",
"*+	c #242424",
"=+	c #050600",
"-+	c #8B9100",
";+	c #888E00",
">+	c #1C1E00",
",+	c #656566",
"'+	c #F6F6F6",
")+	c #E8E6EA",
"!+	c #706B84",
"~+	c #E3E1E6",
"{+	c #474746",
"]+	c #151515",
"^+	c #C8C8C8",
"/+	c #AEAEAE",
"(+	c #080808",
"_+	c #373639",
":+	c #FDFCFE",
"<+	c #ABA8B7",
"[+	c #F1F0F3",
"}+	c #6D6980",
"|+	c #0A090E",
"1+	c #95929E",
"2+	c #0A0810",
"3+	c #050505",
"4+	c #5B5A5C",
"5+	c #F7F6F7",
"6+	c #F4F3F5",
"7+	c #908C9F",
"8+	c #C8C6D0",
"9+	c #837E96",
"0+	c #86868A",
"a+	c #070608",
"b+	c #ECEBEE",
"c+	c #5B5571",
"d+	c #646078",
"e+	c #AFAFB0",
"f+	c #454545",
"g+	c #363636",
"h+	c #7A7A7A",
"i+	c #C8C8C9",
"j+	c #212025",
"k+	c #060607",
"l+	c #969699",
"m+	c #FAFAFA",
"n+	c #F8F8F9",
"o+	c #A29EAF",
"p+	c #F7F6F8",
"q+	c #F0F0F1",
"r+	c #B8B7B9",
"s+	c #E4E4E4",
"t+	c #FDFDFD",
"u+	c #A5A2B2",
"v+	c #3B3456",
"w+	c #A8A5B4",
"x+	c #525252",
"y+	c #848387",
"z+	c #CDCDCD",
"A+	c #8D899C",
"B+	c #494262",
"C+	c #68627C",
"D+	c #40395A",
"E+	c #ECECEC",
"F+	c #020202",
"G+	c #B4B5B5",
"H+	c #0B0B0B",
"I+	c #313232",
"J+	c #E3E3E3",
"K+	c #B1AEBC",
"L+	c #BDBBC6",
"M+	c #3C3556",
"N+	c #898599",
"O+	c #EDEDED",
"P+	c #39393A",
"Q+	c #040404",
"R+	c #333333",
"S+	c #F5F5F5",
"T+	c #2B2B2B",
"U+	c #2D2A3D",
"V+	c #B6B4C1",
"W+	c #F5F5F6",
"X+	c #605A76",
"Y+	c #DAD8DF",
"Z+	c #F5F4F6",
"`+	c #615B76",
" @	c #524D6A",
".@	c #E4E3E8",
"+@	c #D5D5D5",
"@@	c #1B1B1B",
"#@	c #303030",
"$@	c #AAABAB",
"%@	c #585464",
"&@	c #B0AEBB",
"*@	c #A29FAF",
"=@	c #E9E8E9",
"-@	c #787779",
";@	c #0F0E15",
">@	c #2D2D2E",
",@	c #595959",
"'@	c #FAFAFB",
")@	c #807B92",
"!@	c #B0ADBB",
"~@	c #E8E7EB",
"{@	c #3A3258",
"]@	c #E6E5EA",
"^@	c #DFDEE3",
"/@	c #443E5E",
"(@	c #BAB8C4",
"_@	c #C1BFCA",
":@	c #E0E0E5",
"<@	c #D0CED6",
"[@	c #362F52",
"}@	c #CECCD5",
"|@	c #413A5B",
"1@	c #6A657F",
"2@	c #9793A6",
"                                                                        ",
"                                                                        ",
"                                                                        ",
"                      .   + @ #     $ %                                 ",
"                & * = *   - ; > , ' ; ; ; ) !                           ",
"                ~ ; ; {   ] ; ^ / ( _ ; : < [                           ",
"                } | 1 2   3 4 5 6 6 7 : 8 9 0 a b                       ",
"          c : d e f g h i j k l 6 m ; n o 6 p q r s                     ",
"        t u ; v w 6 6 x y z A B 6 C ; D E 6 F G ; H                     ",
"      I J ; ; K L 6 6 M N O P E 6 6 6 6 6 M Q R S T U V                 ",
"    W X ; ; ; ; Y Z ` 6  .6 6 6 6 6 6 6 6 ..+.@.#.$.%.&.                ",
"    *.; ; ; ; ; ; = =.-.6 6 6 6 6 6 6 6 6 6 E ;.>.; ; ,.                ",
"    '.; ; ).Q h !.~.{.6 ].^././././././.(.6 6 E _.:.4 <.                ",
"  [.}.; |. .6 6 6 6 6 6 1.2./././././.3.4.6 6 6 6 5.6.                  ",
"  U @ 7.8.9.6 6 6 6 6 6 0.0.6 6 6 6 6 a.4.6 6 6 6                       ",
"    b.c.d.6 e.6 6 6 6 6 0.0.f.g.h.6 6 a.4.6 6 6 6 i.                    ",
"  j.; ; k.l.l.m.n.l.o.p.o.q.r.p./.s.t.a.4.u.g.v.6 w.                    ",
"  x.; ; y.z.; ; ; A.B.C.D./.].E.g.F.s.a.4.G.H.6 6 I.                    ",
"  J.; ; ; ; K.; ; L.6 6 M.M.6 6 N.O.6 a.4.6 6 6 6 6 P.,                 ",
"  Q.; ; K.; : R.S.T.6 6 U.V.W.6 6 6 6 a.4.6 6 6 6 X.K.Y.Z.              ",
"  `.; ; ;  +.+++6 6 6 6 s.4.F.4.4.4.4.F.g.6 6 6 6 @+; ; #+$+            ",
"  %+J ; : &+6 6 6 6 *+ .6 6 =+C.-+-+;+>+6 6 6 6 6 ,+'+; ; )+!+          ",
"    ~+; ; {+6 E 6 ]+^+/+(+6 6 6 6 6 6 6 6 6 6 6 6 6 _+:+; ; > !+        ",
"    <+; [+}+|+6 6 /+K.; 1+2+6 6 6 6 6 6 6 6 m 3+6 6 6 4+5+; ; 6+7+      ",
"    !+8+! 9+0+a+x ; ; b+c+d+e+l f+6 6 6 g+h+i+j+6 6 6 k+l+m+; ; n+@     ",
"        o+p+q+r+s+t+; u+v+w+; '+f+6 6 E x+; ; y+6 6 E 6 o z+; ; = A+    ",
"      B+> ; ; ; ; ; ; C+D+; ; E+m.6 6 F+D ; ; G+H+6 6 6 I+J+; ; K+      ",
"          > ; ; ; ; L+M+N+; ; O+P+6 6 Q+R+; ; S+T+6 6 U+V+; W+3         ",
"          X+Y+= ; Z+`+ @.@; ; +@@@6 6 F+#@; ; ; $@x+%@                  ",
"              &@4 *@  W ; ; ; =@-@#@;@>@,@; ; ; K.'@)@                  ",
"                      !@; ; ; ; ; ~@{@]@; ; ; ; = ^@/@                  ",
"                      (@_@:@4 ; ; <@[@}@; ; ; s N+S                     ",
"                          |@          1@2@N+                            ",
"                                                                        ",
"                                                                        ",
"                                                                        "};
