/* XPM */
static const char * SpiralIcon_xpm[] = {
"36 36 324 2",
"  	c None",
". 	c #8B889B",
"+ 	c #9C99AA",
"@ 	c #ADAAB9",
"# 	c #837F94",
"$ 	c #7D7990",
"% 	c #9995A7",
"& 	c #67627C",
"* 	c #CDCBD4",
"= 	c #FCFCFC",
"- 	c #D1D0D8",
"; 	c #FFFFFF",
"> 	c #F1F1F3",
", 	c #848095",
"' 	c #2A2248",
") 	c #CFCED6",
"! 	c #68637D",
"~ 	c #ABA8B6",
"{ 	c #D5D3DB",
"] 	c #9490A2",
"^ 	c #C4C4C4",
"/ 	c #1D1C1D",
"( 	c #313134",
"_ 	c #EEEFEE",
": 	c #FBFBFB",
"< 	c #EFEFEF",
"[ 	c #7B768D",
"} 	c #464060",
"| 	c #DEDEE1",
"1 	c #CBCACC",
"2 	c #EEEEF1",
"3 	c #79758C",
"4 	c #FBFBFC",
"5 	c #A2A2A2",
"6 	c #000000",
"7 	c #F5F6F5",
"8 	c #747474",
"9 	c #2A2A2B",
"0 	c #403958",
"a 	c #7D788F",
"b 	c #C0BEC8",
"c 	c #BCBAC6",
"d 	c #BCBAC5",
"e 	c #625C79",
"f 	c #2B2932",
"g 	c #191919",
"h 	c #CCCCCC",
"i 	c #807B91",
"j 	c #3B3556",
"k 	c #F2F2F4",
"l 	c #929292",
"m 	c #0E0E0E",
"n 	c #BFBFBF",
"o 	c #111111",
"p 	c #100E15",
"q 	c #868689",
"r 	c #FEFDFE",
"s 	c #D9D7DE",
"t 	c #9C98AA",
"u 	c #FDFCFD",
"v 	c #DDDDDD",
"w 	c #575755",
"x 	c #5E5E5E",
"y 	c #C4C2CD",
"z 	c #423C5C",
"A 	c #F0F0F2",
"B 	c #939393",
"C 	c #555555",
"D 	c #4A4A4A",
"E 	c #010101",
"F 	c #282828",
"G 	c #C2C2C2",
"H 	c #DBDAE0",
"I 	c #615C78",
"J 	c #F6F6F7",
"K 	c #DADADA",
"L 	c #545454",
"M 	c #0F0F0F",
"N 	c #B8B8B8",
"O 	c #48445C",
"P 	c #2B2B2C",
"Q 	c #181900",
"R 	c #D3D3D3",
"S 	c #C1BEC9",
"T 	c #474060",
"U 	c #31294D",
"V 	c #716C85",
"W 	c #65607A",
"X 	c #625D78",
"Y 	c #D5D4DB",
"Z 	c #F7F7F7",
"` 	c #8B8B8B",
" .	c #161616",
"..	c #0A0A0A",
"+.	c #151700",
"@.	c #1A1B00",
"#.	c #060600",
"$.	c #191A00",
"%.	c #393643",
"&.	c #47415F",
"*.	c #9692A4",
"=.	c #D9D8DE",
"-.	c #F7F7F8",
";.	c #918DA0",
">.	c #B8B5C1",
",.	c #D1D1D1",
"'.	c #212121",
").	c #282900",
"!.	c #030300",
"~.	c #070700",
"{.	c #020200",
"].	c #727175",
"^.	c #FEFEFF",
"/.	c #9D99AA",
"(.	c #DBD9E0",
"_.	c #E9E9E9",
":.	c #CBCBCB",
"<.	c #E0E0E0",
"[.	c #6C6C6C",
"}.	c #807A00",
"|.	c #AAA100",
"1.	c #343100",
"2.	c #444000",
"3.	c #E6DA00",
"4.	c #D5CA00",
"5.	c #060500",
"6.	c #515151",
"7.	c #A6A6A7",
"8.	c #827E93",
"9.	c #615C77",
"0.	c #EAEAED",
"a.	c #DFDFE1",
"b.	c #0C0C0C",
"c.	c #191700",
"d.	c #D6CB00",
"e.	c #FEF100",
"f.	c #FDF000",
"g.	c #645E00",
"h.	c #F8EB00",
"i.	c #D1C600",
"j.	c #1E1D24",
"k.	c #9894A7",
"l.	c #B1AEBB",
"m.	c #69686F",
"n.	c #000001",
"o.	c #C2B800",
"p.	c #948C00",
"q.	c #F6E900",
"r.	c #E9DD00",
"s.	c #FFF200",
"t.	c #615C76",
"u.	c #5F5A75",
"v.	c #413E4D",
"w.	c #020203",
"x.	c #EADE00",
"y.	c #BCB200",
"z.	c #322F00",
"A.	c #1A1A1C",
"B.	c #C3C1CB",
"C.	c #9D9D9D",
"D.	c #202020",
"E.	c #383838",
"F.	c #4C4C4C",
"G.	c #111112",
"H.	c #C9C7D0",
"I.	c #F1F1F1",
"J.	c #F8F8F8",
"K.	c #232323",
"L.	c #050408",
"M.	c #AEACB9",
"N.	c #FEFEFE",
"O.	c #1D1D1D",
"P.	c #534E00",
"Q.	c #E5D900",
"R.	c #E8DC00",
"S.	c #8E8700",
"T.	c #F3E600",
"U.	c #353200",
"V.	c #B7B5C1",
"W.	c #9390A2",
"X.	c #BBBBBB",
"Y.	c #414141",
"Z.	c #030303",
"`.	c #D0C500",
" +	c #F1E400",
".+	c #F9EC00",
"++	c #FBEE00",
"@+	c #171600",
"#+	c #363400",
"$+	c #999100",
"%+	c #FCEF00",
"&+	c #E2D600",
"*+	c #28272A",
"=+	c #F4F4F6",
"-+	c #605B76",
";+	c #736E86",
">+	c #D8D8D8",
",+	c #727272",
"'+	c #101010",
")+	c #C7BC00",
"!+	c #8C8400",
"~+	c #302D00",
"{+	c #7E7700",
"]+	c #848486",
"^+	c #CCCBD3",
"/+	c #747087",
"(+	c #6D6881",
"_+	c #1C1C1C",
":+	c #242424",
"<+	c #8E8600",
"[+	c #807900",
"}+	c #1E1C00",
"|+	c #656566",
"1+	c #F6F6F6",
"2+	c #E8E6EA",
"3+	c #706B84",
"4+	c #E3E1E6",
"5+	c #474746",
"6+	c #151515",
"7+	c #C8C8C8",
"8+	c #AEAEAE",
"9+	c #070707",
"0+	c #010100",
"a+	c #373639",
"b+	c #FDFCFE",
"c+	c #ABA8B7",
"d+	c #F1F0F3",
"e+	c #6D6980",
"f+	c #0A090E",
"g+	c #95929E",
"h+	c #0A0810",
"i+	c #0D0D0D",
"j+	c #050505",
"k+	c #5B5A5C",
"l+	c #F7F6F7",
"m+	c #F4F3F5",
"n+	c #908C9F",
"o+	c #C8C6D0",
"p+	c #837E96",
"q+	c #86868A",
"r+	c #070608",
"s+	c #ECEBEE",
"t+	c #5B5571",
"u+	c #646078",
"v+	c #AFAFB0",
"w+	c #454545",
"x+	c #363636",
"y+	c #7A7A7A",
"z+	c #C8C8C9",
"A+	c #212025",
"B+	c #060607",
"C+	c #969699",
"D+	c #FAFAFA",
"E+	c #F8F8F9",
"F+	c #A29EAF",
"G+	c #F7F6F8",
"H+	c #F0F0F1",
"I+	c #B8B7B9",
"J+	c #E4E4E4",
"K+	c #FDFDFD",
"L+	c #A5A2B2",
"M+	c #3B3456",
"N+	c #A8A5B4",
"O+	c #525252",
"P+	c #848387",
"Q+	c #CDCDCD",
"R+	c #8D899C",
"S+	c #494262",
"T+	c #68627C",
"U+	c #40395A",
"V+	c #ECECEC",
"W+	c #020202",
"X+	c #B4B5B5",
"Y+	c #0B0B0B",
"Z+	c #313232",
"`+	c #E3E3E3",
" @	c #B1AEBC",
".@	c #BDBBC6",
"+@	c #3C3556",
"@@	c #898599",
"#@	c #EDEDED",
"$@	c #39393A",
"%@	c #040404",
"&@	c #333333",
"*@	c #F5F5F5",
"=@	c #2B2B2B",
"-@	c #2D2A3D",
";@	c #B6B4C1",
">@	c #F5F5F6",
",@	c #605A76",
"'@	c #DAD8DF",
")@	c #F5F4F6",
"!@	c #615B76",
"~@	c #524D6A",
"{@	c #E4E3E8",
"]@	c #D5D5D5",
"^@	c #1B1B1B",
"/@	c #303030",
"(@	c #AAABAB",
"_@	c #585464",
":@	c #B0AEBB",
"<@	c #A29FAF",
"[@	c #E9E8E9",
"}@	c #787779",
"|@	c #0F0E15",
"1@	c #2D2D2E",
"2@	c #595959",
"3@	c #FAFAFB",
"4@	c #807B92",
"5@	c #B0ADBB",
"6@	c #E8E7EB",
"7@	c #3A3258",
"8@	c #E6E5EA",
"9@	c #DFDEE3",
"0@	c #443E5E",
"a@	c #BAB8C4",
"b@	c #C1BFCA",
"c@	c #E0E0E5",
"d@	c #D0CED6",
"e@	c #362F52",
"f@	c #CECCD5",
"g@	c #413A5B",
"h@	c #6A657F",
"i@	c #9793A6",
"                                                                        ",
"                                                                        ",
"                                                                        ",
"                      .   + @ #     $ %                                 ",
"                & * = *   - ; > , ' ; ; ; ) !                           ",
"                ~ ; ; {   ] ; ^ / ( _ ; : < [                           ",
"                } | 1 2   3 4 5 6 6 7 : 8 9 0 a b                       ",
"          c : d e f g h i j k l 6 m ; n o 6 p q r s                     ",
"        t u ; v w 6 6 x y z A B 6 C ; D E 6 F G ; H                     ",
"      I J ; ; K L 6 6 M N O P E 6 6 6 Q Q M R S T U V W                 ",
"    X Y ; ; ; ; Z `  .6 ..6 6 6 6 6 +.@.#.$.%.&.*.=.-.;.                ",
"    >.; ; ; ; ; ; = ,.'.).!.6 6 6 ~.{.6 6 6 E ].^.; ; /.                ",
"    (.; ; _.R h :.<.[.6 6 }.|.1.6 6 2.3.4.5.6 E 6.7.4 8.                ",
"  9.0.; a.b.6 6 6 6 6 c.d.e.f.e.5.g.e.h.e.i.6 c.6 j.k.                  ",
"  V @ l.m.n.6 6 6 6 6 o.e.p.5.e.q.e.r.5.i.s.6 c.6                       ",
"    t.u.v.6 w.6 6 6 6 6 6 6 6 g.x.y.6 6 6 z.6 6 6 A.                    ",
"  B.; ; C.D.D.E.F.D.6 6 6 6 6 6 6 6 6 6 6 6 6 6 6 G.                    ",
"  H.; ; I.J.; ; ; K.6 6 6 6 6 6 6 6 6 6 6 {.{.6 6 L.                    ",
"  M.; ; ; ; N.; ; O.6 6 P.Q.R.g.6 6 S.T.f.f.U.6 6 6 V.,                 ",
"  W.; ; N.; : X.Y.Z.6 `.s. +.+++@+#+e.q.$+%+&+6 6 *+N.=+-+              ",
"  ;+; ; ; >+,+'+6 6 6 )+!+6 ~+s.%+f.f.5.6 {+{+6 6 ]+; ; ^+/+            ",
"  (+J ; : _+6 6 6 6 :+6 6 6 6 U.<+[+}+6 6 6 6 6 6 |+1+; ; 2+3+          ",
"    4+; ; 5+6 E 6 6+7+8+9+6 6 6 6 6 6 6 6 0+6 6 6 6 a+b+; ; > 3+        ",
"    c+; d+e+f+6 6 8+N.; g+h+6 6 6 6 6 6 6 6 i+j+6 6 6 k+l+; ; m+n+      ",
"    3+o+! p+q+r+x ; ; s+t+u+v+l w+6 6 6 x+y+z+A+6 6 6 B+C+D+; ; E+@     ",
"        F+G+H+I+J+K+; L+M+N+; 1+w+6 6 E O+; ; P+6 6 E 6 o Q+; ; = R+    ",
"      S+> ; ; ; ; ; ; T+U+; ; V+E.6 6 W+D ; ; X+Y+6 6 6 Z+`+; ;  @      ",
"          > ; ; ; ; .@+@@@; ; #@$@6 6 %@&@; ; *@=@6 6 -@;@; >@3         ",
"          ,@'@= ; )@!@~@{@; ; ]@^@6 6 W+/@; ; ; (@O+_@                  ",
"              :@4 <@  X ; ; ; [@}@/@|@1@2@; ; ; N.3@4@                  ",
"                      5@; ; ; ; ; 6@7@8@; ; ; ; = 9@0@                  ",
"                      a@b@c@4 ; ; d@e@f@; ; ; s @@T                     ",
"                          g@          h@i@@@                            ",
"                                                                        ",
"                                                                        ",
"                                                                        "};
