/* XPM */
static const char * SpiralIcon_xpm[] = {
"36 36 303 2",
"  	c None",
". 	c #8B889B",
"+ 	c #9C99AA",
"@ 	c #ADAAB9",
"# 	c #837F94",
"$ 	c #7D7990",
"% 	c #9995A7",
"& 	c #67627C",
"* 	c #CDCBD4",
"= 	c #FCFCFC",
"- 	c #D1D0D8",
"; 	c #FFFFFF",
"> 	c #F1F1F3",
", 	c #848095",
"' 	c #2A2248",
") 	c #CFCED6",
"! 	c #68637D",
"~ 	c #ABA8B6",
"{ 	c #D5D3DB",
"] 	c #9490A2",
"^ 	c #C4C4C4",
"/ 	c #1D1C1D",
"( 	c #313134",
"_ 	c #EEEFEE",
": 	c #FBFBFB",
"< 	c #EFEFEF",
"[ 	c #7B768D",
"} 	c #464060",
"| 	c #DEDEE1",
"1 	c #CBCACC",
"2 	c #EEEEF1",
"3 	c #79758C",
"4 	c #FBFBFC",
"5 	c #A2A2A2",
"6 	c #000000",
"7 	c #F5F6F5",
"8 	c #747474",
"9 	c #2A2A2B",
"0 	c #403958",
"a 	c #7D788F",
"b 	c #C0BEC8",
"c 	c #BCBAC6",
"d 	c #BCBAC5",
"e 	c #625C79",
"f 	c #2B2932",
"g 	c #191919",
"h 	c #CCCCCC",
"i 	c #807B91",
"j 	c #3B3556",
"k 	c #F2F2F4",
"l 	c #929292",
"m 	c #0E0E0E",
"n 	c #BFBFBF",
"o 	c #111111",
"p 	c #100E15",
"q 	c #868689",
"r 	c #FEFDFE",
"s 	c #D9D7DE",
"t 	c #9C98AA",
"u 	c #FDFCFD",
"v 	c #DDDDDD",
"w 	c #575755",
"x 	c #5E5E5E",
"y 	c #C4C2CD",
"z 	c #423C5C",
"A 	c #F0F0F2",
"B 	c #939393",
"C 	c #555555",
"D 	c #4A4A4A",
"E 	c #010101",
"F 	c #282828",
"G 	c #C2C2C2",
"H 	c #DBDAE0",
"I 	c #615C78",
"J 	c #F6F6F7",
"K 	c #DADADA",
"L 	c #545454",
"M 	c #0F0F0F",
"N 	c #B8B8B8",
"O 	c #48445C",
"P 	c #2B2B2C",
"Q 	c #D3D3D3",
"R 	c #C1BEC9",
"S 	c #474060",
"T 	c #31294D",
"U 	c #716C85",
"V 	c #65607A",
"W 	c #625D78",
"X 	c #D5D4DB",
"Y 	c #F7F7F7",
"Z 	c #8B8B8B",
"` 	c #161616",
" .	c #0C0C0C",
"..	c #060606",
"+.	c #393643",
"@.	c #47415F",
"#.	c #9692A4",
"$.	c #D9D8DE",
"%.	c #F7F7F8",
"&.	c #918DA0",
"*.	c #B8B5C1",
"=.	c #D1D1D1",
"-.	c #252525",
";.	c #727175",
">.	c #FEFEFF",
",.	c #9D99AA",
"'.	c #DBD9E0",
").	c #E9E9E9",
"!.	c #CBCBCB",
"~.	c #E0E0E0",
"{.	c #6C6C6C",
"].	c #1C1E00",
"^.	c #898F00",
"/.	c #414400",
"(.	c #515151",
"_.	c #A6A6A7",
":.	c #827E93",
"<.	c #615C77",
"[.	c #EAEAED",
"}.	c #DFDFE1",
"|.	c #E1EA00",
"1.	c #F6FF00",
"2.	c #F4FD00",
"3.	c #F5FE00",
"4.	c #2E3000",
"5.	c #1E1D24",
"6.	c #9894A7",
"7.	c #B1AEBB",
"8.	c #69686F",
"9.	c #000001",
"0.	c #A2A800",
"a.	c #EFF800",
"b.	c #DAE300",
"c.	c #615C76",
"d.	c #5F5A75",
"e.	c #413E4D",
"f.	c #020203",
"g.	c #919700",
"h.	c #E5EE00",
"i.	c #1A1A1C",
"j.	c #C3C1CB",
"k.	c #9D9D9D",
"l.	c #202020",
"m.	c #383838",
"n.	c #4C4C4C",
"o.	c #F0F900",
"p.	c #E9F200",
"q.	c #D9E100",
"r.	c #EAF300",
"s.	c #5C6000",
"t.	c #111112",
"u.	c #C9C7D0",
"v.	c #F1F1F1",
"w.	c #F8F8F8",
"x.	c #232323",
"y.	c #CED600",
"z.	c #797E00",
"A.	c #929800",
"B.	c #F3FC00",
"C.	c #999F00",
"D.	c #7B8000",
"E.	c #050408",
"F.	c #AEACB9",
"G.	c #FEFEFE",
"H.	c #1D1D1D",
"I.	c #181900",
"J.	c #939900",
"K.	c #F1FA00",
"L.	c #E6EF00",
"M.	c #B7B5C1",
"N.	c #9390A2",
"O.	c #BBBBBB",
"P.	c #414141",
"Q.	c #030303",
"R.	c #333500",
"S.	c #656900",
"T.	c #28272A",
"U.	c #F4F4F6",
"V.	c #605B76",
"W.	c #736E86",
"X.	c #D8D8D8",
"Y.	c #727272",
"Z.	c #101010",
"`.	c #ECF500",
" +	c #848486",
".+	c #CCCBD3",
"++	c #747087",
"@+	c #6D6881",
"#+	c #1C1C1C",
"$+	c #242424",
"%+	c #8E9400",
"&+	c #E8F100",
"*+	c #323400",
"=+	c #656566",
"-+	c #F6F6F6",
";+	c #E8E6EA",
">+	c #706B84",
",+	c #E3E1E6",
"'+	c #474746",
")+	c #151515",
"!+	c #C8C8C8",
"~+	c #AEAEAE",
"{+	c #080808",
"]+	c #373639",
"^+	c #FDFCFE",
"/+	c #ABA8B7",
"(+	c #F1F0F3",
"_+	c #6D6980",
":+	c #0A090E",
"<+	c #95929E",
"[+	c #0A0810",
"}+	c #050505",
"|+	c #5B5A5C",
"1+	c #F7F6F7",
"2+	c #F4F3F5",
"3+	c #908C9F",
"4+	c #C8C6D0",
"5+	c #837E96",
"6+	c #86868A",
"7+	c #070608",
"8+	c #ECEBEE",
"9+	c #5B5571",
"0+	c #646078",
"a+	c #AFAFB0",
"b+	c #454545",
"c+	c #363636",
"d+	c #7A7A7A",
"e+	c #C8C8C9",
"f+	c #212025",
"g+	c #060607",
"h+	c #969699",
"i+	c #FAFAFA",
"j+	c #F8F8F9",
"k+	c #A29EAF",
"l+	c #F7F6F8",
"m+	c #F0F0F1",
"n+	c #B8B7B9",
"o+	c #E4E4E4",
"p+	c #FDFDFD",
"q+	c #A5A2B2",
"r+	c #3B3456",
"s+	c #A8A5B4",
"t+	c #525252",
"u+	c #848387",
"v+	c #CDCDCD",
"w+	c #8D899C",
"x+	c #494262",
"y+	c #68627C",
"z+	c #40395A",
"A+	c #ECECEC",
"B+	c #020202",
"C+	c #B4B5B5",
"D+	c #0B0B0B",
"E+	c #313232",
"F+	c #E3E3E3",
"G+	c #B1AEBC",
"H+	c #BDBBC6",
"I+	c #3C3556",
"J+	c #898599",
"K+	c #EDEDED",
"L+	c #39393A",
"M+	c #040404",
"N+	c #333333",
"O+	c #F5F5F5",
"P+	c #2B2B2B",
"Q+	c #2D2A3D",
"R+	c #B6B4C1",
"S+	c #F5F5F6",
"T+	c #605A76",
"U+	c #DAD8DF",
"V+	c #F5F4F6",
"W+	c #615B76",
"X+	c #524D6A",
"Y+	c #E4E3E8",
"Z+	c #D5D5D5",
"`+	c #1B1B1B",
" @	c #303030",
".@	c #AAABAB",
"+@	c #585464",
"@@	c #B0AEBB",
"#@	c #A29FAF",
"$@	c #E9E8E9",
"%@	c #787779",
"&@	c #0F0E15",
"*@	c #2D2D2E",
"=@	c #595959",
"-@	c #FAFAFB",
";@	c #807B92",
">@	c #B0ADBB",
",@	c #E8E7EB",
"'@	c #3A3258",
")@	c #E6E5EA",
"!@	c #DFDEE3",
"~@	c #443E5E",
"{@	c #BAB8C4",
"]@	c #C1BFCA",
"^@	c #E0E0E5",
"/@	c #D0CED6",
"(@	c #362F52",
"_@	c #CECCD5",
":@	c #413A5B",
"<@	c #6A657F",
"[@	c #9793A6",
"                                                                        ",
"                                                                        ",
"                                                                        ",
"                      .   + @ #     $ %                                 ",
"                & * = *   - ; > , ' ; ; ; ) !                           ",
"                ~ ; ; {   ] ; ^ / ( _ ; : < [                           ",
"                } | 1 2   3 4 5 6 6 7 : 8 9 0 a b                       ",
"          c : d e f g h i j k l 6 m ; n o 6 p q r s                     ",
"        t u ; v w 6 6 x y z A B 6 C ; D E 6 F G ; H                     ",
"      I J ; ; K L 6 6 M N O P E 6 6 6 6 6 M Q R S T U V                 ",
"    W X ; ; ; ; Y Z ` 6  .6 6 6 6 6 6 6 6 ..+.@.#.$.%.&.                ",
"    *.; ; ; ; ; ; = =.-.6 6 6 6 6 6 6 6 6 6 E ;.>.; ; ,.                ",
"    '.; ; ).Q h !.~.{.6 6 6 ].^./.6 6 6 6 6 6 E (._.4 :.                ",
"  <.[.; }. .6 6 6 6 6 6 6 |.1.2.3.4.6 6 6 6 6 6 6 5.6.                  ",
"  U @ 7.8.9.6 6 6 6 6 6 ].1.0.6 a.b.6 6 6 6 6 6 6                       ",
"    c.d.e.6 f.6 6 6 6 6 g.3.6 6 h.h.6 6 6 6 6 6 6 i.                    ",
"  j.; ; k.l.l.m.n.l.6 4.o.p.6 6 q.r.6 6 6 s./.6 6 t.                    ",
"  u.; ; v.w.; ; ; x.6 y.o.z.6 6 A.B.6 6 C.1.D.6 6 E.                    ",
"  F.; ; ; ; G.; ; H.6 I.I.6 6 6 J.1.6 6 K.L.6 6 6 6 M.,                 ",
"  N.; ; G.; : O.P.Q.6 6 6 6 6 6 ].3.R.S.3./.6 6 6 T.G.U.V.              ",
"  W.; ; ; X.Y.Z.6 6 6 6 6 6 6 6 6 3.`.2.a.6 6 6 6  +; ; .+++            ",
"  @+J ; : #+6 6 6 6 $+ .6 6 6 6 6 %+`.&+*+6 6 6 6 =+-+; ; ;+>+          ",
"    ,+; ; '+6 E 6 )+!+~+{+6 6 6 6 6 6 6 6 6 6 6 6 6 ]+^+; ; > >+        ",
"    /+; (+_+:+6 6 ~+G.; <+[+6 6 6 6 6 6 6 6 m }+6 6 6 |+1+; ; 2+3+      ",
"    >+4+! 5+6+7+x ; ; 8+9+0+a+l b+6 6 6 c+d+e+f+6 6 6 g+h+i+; ; j+@     ",
"        k+l+m+n+o+p+; q+r+s+; -+b+6 6 E t+; ; u+6 6 E 6 o v+; ; = w+    ",
"      x+> ; ; ; ; ; ; y+z+; ; A+m.6 6 B+D ; ; C+D+6 6 6 E+F+; ; G+      ",
"          > ; ; ; ; H+I+J+; ; K+L+6 6 M+N+; ; O+P+6 6 Q+R+; S+3         ",
"          T+U+= ; V+W+X+Y+; ; Z+`+6 6 B+ @; ; ; .@t++@                  ",
"              @@4 #@  W ; ; ; $@%@ @&@*@=@; ; ; G.-@;@                  ",
"                      >@; ; ; ; ; ,@'@)@; ; ; ; = !@~@                  ",
"                      {@]@^@4 ; ; /@(@_@; ; ; s J+S                     ",
"                          :@          <@[@J+                            ",
"                                                                        ",
"                                                                        ",
"                                                                        "};
