/* XPM */
static const char * SpiralIcon_xpm[] = {
"36 36 277 2",
"  	c None",
". 	c #8B889B",
"+ 	c #9C99AA",
"@ 	c #ADAAB9",
"# 	c #837F94",
"$ 	c #7D7990",
"% 	c #9995A7",
"& 	c #67627C",
"* 	c #CDCBD4",
"= 	c #FCFCFC",
"- 	c #D1D0D8",
"; 	c #FFFFFF",
"> 	c #F1F1F3",
", 	c #848095",
"' 	c #2A2248",
") 	c #CFCED6",
"! 	c #68637D",
"~ 	c #ABA8B6",
"{ 	c #D5D3DB",
"] 	c #9490A2",
"^ 	c #C4C4C4",
"/ 	c #1D1C1D",
"( 	c #313134",
"_ 	c #EEEFEE",
": 	c #FBFBFB",
"< 	c #EFEFEF",
"[ 	c #7B768D",
"} 	c #464060",
"| 	c #DEDEE1",
"1 	c #CBCACC",
"2 	c #EEEEF1",
"3 	c #79758C",
"4 	c #FBFBFC",
"5 	c #A2A2A2",
"6 	c #000000",
"7 	c #F5F6F5",
"8 	c #747474",
"9 	c #2A2A2B",
"0 	c #403958",
"a 	c #7D788F",
"b 	c #C0BEC8",
"c 	c #BCBAC6",
"d 	c #BCBAC5",
"e 	c #625C79",
"f 	c #2B2932",
"g 	c #191919",
"h 	c #CCCCCC",
"i 	c #807B91",
"j 	c #3B3556",
"k 	c #F2F2F4",
"l 	c #929292",
"m 	c #0E0E0E",
"n 	c #BFBFBF",
"o 	c #111111",
"p 	c #100E15",
"q 	c #868689",
"r 	c #FEFDFE",
"s 	c #D9D7DE",
"t 	c #9C98AA",
"u 	c #FDFCFD",
"v 	c #DDDDDD",
"w 	c #575755",
"x 	c #5E5E5E",
"y 	c #C4C2CD",
"z 	c #423C5C",
"A 	c #F0F0F2",
"B 	c #939393",
"C 	c #555555",
"D 	c #4A4A4A",
"E 	c #010101",
"F 	c #282828",
"G 	c #C2C2C2",
"H 	c #DBDAE0",
"I 	c #615C78",
"J 	c #F6F6F7",
"K 	c #DADADA",
"L 	c #545454",
"M 	c #0F0F0F",
"N 	c #B8B8B8",
"O 	c #48445C",
"P 	c #2B2B2C",
"Q 	c #181900",
"R 	c #D3D3D3",
"S 	c #C1BEC9",
"T 	c #474060",
"U 	c #31294D",
"V 	c #716C85",
"W 	c #65607A",
"X 	c #625D78",
"Y 	c #D5D4DB",
"Z 	c #F7F7F7",
"` 	c #8B8B8B",
" .	c #161616",
"..	c #0C0C0C",
"+.	c #161800",
"@.	c #1A1B00",
"#.	c #060600",
"$.	c #191A00",
"%.	c #393643",
"&.	c #47415F",
"*.	c #9692A4",
"=.	c #D9D8DE",
"-.	c #F7F7F8",
";.	c #918DA0",
">.	c #B8B5C1",
",.	c #D1D1D1",
"'.	c #252525",
").	c #040400",
"!.	c #FFF200",
"~.	c #727175",
"{.	c #FEFEFF",
"].	c #9D99AA",
"^.	c #DBD9E0",
"/.	c #E9E9E9",
"(.	c #CBCBCB",
"_.	c #E0E0E0",
":.	c #6C6C6C",
"<.	c #515151",
"[.	c #A6A6A7",
"}.	c #827E93",
"|.	c #615C77",
"1.	c #EAEAED",
"2.	c #DFDFE1",
"3.	c #050500",
"4.	c #1E1D24",
"5.	c #9894A7",
"6.	c #B1AEBB",
"7.	c #69686F",
"8.	c #000001",
"9.	c #020200",
"0.	c #615C76",
"a.	c #5F5A75",
"b.	c #413E4D",
"c.	c #020203",
"d.	c #1A1A1C",
"e.	c #C3C1CB",
"f.	c #9D9D9D",
"g.	c #202020",
"h.	c #383838",
"i.	c #4C4C4C",
"j.	c #111112",
"k.	c #C9C7D0",
"l.	c #F1F1F1",
"m.	c #F8F8F8",
"n.	c #050408",
"o.	c #AEACB9",
"p.	c #FEFEFE",
"q.	c #B7B5C1",
"r.	c #9390A2",
"s.	c #BBBBBB",
"t.	c #414141",
"u.	c #28272A",
"v.	c #F4F4F6",
"w.	c #605B76",
"x.	c #736E86",
"y.	c #D8D8D8",
"z.	c #727272",
"A.	c #101010",
"B.	c #848486",
"C.	c #CCCBD3",
"D.	c #747087",
"E.	c #6D6881",
"F.	c #1C1C1C",
"G.	c #242424",
"H.	c #0A0A00",
"I.	c #656566",
"J.	c #F6F6F6",
"K.	c #E8E6EA",
"L.	c #706B84",
"M.	c #E3E1E6",
"N.	c #474746",
"O.	c #151515",
"P.	c #C8C8C8",
"Q.	c #AEAEAE",
"R.	c #080808",
"S.	c #010100",
"T.	c #373639",
"U.	c #FDFCFE",
"V.	c #ABA8B7",
"W.	c #F1F0F3",
"X.	c #6D6980",
"Y.	c #0A090E",
"Z.	c #95929E",
"`.	c #0A0810",
" +	c #0D0D0D",
".+	c #050505",
"++	c #5B5A5C",
"@+	c #F7F6F7",
"#+	c #F4F3F5",
"$+	c #908C9F",
"%+	c #C8C6D0",
"&+	c #837E96",
"*+	c #86868A",
"=+	c #070608",
"-+	c #ECEBEE",
";+	c #5B5571",
">+	c #646078",
",+	c #AFAFB0",
"'+	c #454545",
")+	c #363636",
"!+	c #7A7A7A",
"~+	c #C8C8C9",
"{+	c #212025",
"]+	c #060607",
"^+	c #969699",
"/+	c #FAFAFA",
"(+	c #F8F8F9",
"_+	c #A29EAF",
":+	c #F7F6F8",
"<+	c #F0F0F1",
"[+	c #B8B7B9",
"}+	c #E4E4E4",
"|+	c #FDFDFD",
"1+	c #A5A2B2",
"2+	c #3B3456",
"3+	c #A8A5B4",
"4+	c #525252",
"5+	c #848387",
"6+	c #CDCDCD",
"7+	c #8D899C",
"8+	c #494262",
"9+	c #68627C",
"0+	c #40395A",
"a+	c #ECECEC",
"b+	c #020202",
"c+	c #B4B5B5",
"d+	c #0B0B0B",
"e+	c #313232",
"f+	c #E3E3E3",
"g+	c #B1AEBC",
"h+	c #BDBBC6",
"i+	c #3C3556",
"j+	c #898599",
"k+	c #EDEDED",
"l+	c #39393A",
"m+	c #040404",
"n+	c #333333",
"o+	c #F5F5F5",
"p+	c #2B2B2B",
"q+	c #2D2A3D",
"r+	c #B6B4C1",
"s+	c #F5F5F6",
"t+	c #605A76",
"u+	c #DAD8DF",
"v+	c #F5F4F6",
"w+	c #615B76",
"x+	c #524D6A",
"y+	c #E4E3E8",
"z+	c #D5D5D5",
"A+	c #1B1B1B",
"B+	c #303030",
"C+	c #AAABAB",
"D+	c #585464",
"E+	c #B0AEBB",
"F+	c #A29FAF",
"G+	c #E9E8E9",
"H+	c #787779",
"I+	c #0F0E15",
"J+	c #2D2D2E",
"K+	c #595959",
"L+	c #FAFAFB",
"M+	c #807B92",
"N+	c #B0ADBB",
"O+	c #E8E7EB",
"P+	c #3A3258",
"Q+	c #E6E5EA",
"R+	c #DFDEE3",
"S+	c #443E5E",
"T+	c #BAB8C4",
"U+	c #C1BFCA",
"V+	c #E0E0E5",
"W+	c #D0CED6",
"X+	c #362F52",
"Y+	c #CECCD5",
"Z+	c #413A5B",
"`+	c #6A657F",
" @	c #9793A6",
"                                                                        ",
"                                                                        ",
"                                                                        ",
"                      .   + @ #     $ %                                 ",
"                & * = *   - ; > , ' ; ; ; ) !                           ",
"                ~ ; ; {   ] ; ^ / ( _ ; : < [                           ",
"                } | 1 2   3 4 5 6 6 7 : 8 9 0 a b                       ",
"          c : d e f g h i j k l 6 m ; n o 6 p q r s                     ",
"        t u ; v w 6 6 x y z A B 6 C ; D E 6 F G ; H                     ",
"      I J ; ; K L 6 6 M N O P E 6 6 6 Q Q M R S T U V W                 ",
"    X Y ; ; ; ; Z `  .6 ..6 6 6 6 6 +.@.#.$.%.&.*.=.-.;.                ",
"    >.; ; ; ; ; ; = ,.'.6 6 ).6 6 6 !.6 6 6 E ~.{.; ; ].                ",
"    ^.; ; /.R h (._.:.6 6 6 6 6 !.!.6 !.6 6 6 6 <.[.4 }.                ",
"  |.1.; 2...6 6 6 6 6 6 6 6 !.!.3.!.6 6 !.6 6 6 6 4.5.                  ",
"  V @ 6.7.8.6 6 6 6 6 6 6 !.!.6 9.!.!.6 6 !.6 6 6                       ",
"    0.a.b.6 c.6 6 6 6 6 6 !.6 !.6 6 !.6 6 !.!.6 6 d.                    ",
"  e.; ; f.g.g.h.i.g.6 6 !.6 6 6 !.6 6 !.!.6 !.6 6 j.                    ",
"  k.; ; l.m.; ; ; 6 6 6 !.6 6 6 6 !.!.6 6 6 !.6 6 n.                    ",
"  o.; ; ; ; p.; ; 6 6 !.!.6 6 6 6 6 6 6 6 6 6 !.6 6 q.,                 ",
"  r.; ; p.; : s.t.6 6 6 !.!.6 6 6 6 6 6 6 6 6 !.6 u.p.v.w.              ",
"  x.; ; ; y.z.A.6 6 6 6 6 !.!.6 6 6 6 6 6 6 !.6 6 B.; ; C.D.            ",
"  E.J ; : F.6 6 6 6 G...6 6 6 !.6 6 H.6 !.!.6 6 6 I.J.; ; K.L.          ",
"    M.; ; N.6 E 6 O.P.Q.R.6 6 6 !.!.!.!.6 S.6 6 6 6 T.U.; ; > L.        ",
"    V.; W.X.Y.6 6 Q.p.; Z.`.6 6 6 6 6 6 6 6  +.+6 6 6 ++@+; ; #+$+      ",
"    L.%+! &+*+=+x ; ; -+;+>+,+l '+6 6 6 )+!+~+{+6 6 6 ]+^+/+; ; (+@     ",
"        _+:+<+[+}+|+; 1+2+3+; J.'+6 6 E 4+; ; 5+6 6 E 6 o 6+; ; = 7+    ",
"      8+> ; ; ; ; ; ; 9+0+; ; a+h.6 6 b+D ; ; c+d+6 6 6 e+f+; ; g+      ",
"          > ; ; ; ; h+i+j+; ; k+l+6 6 m+n+; ; o+p+6 6 q+r+; s+3         ",
"          t+u+= ; v+w+x+y+; ; z+A+6 6 b+B+; ; ; C+4+D+                  ",
"              E+4 F+  X ; ; ; G+H+B+I+J+K+; ; ; p.L+M+                  ",
"                      N+; ; ; ; ; O+P+Q+; ; ; ; = R+S+                  ",
"                      T+U+V+4 ; ; W+X+Y+; ; ; s j+T                     ",
"                          Z+          `+ @j+                            ",
"                                                                        ",
"                                                                        ",
"                                                                        "};
