/* XPM */
static const char * SpiralIcon_xpm[] = {
"36 36 308 2",
"  	c None",
". 	c #8B889B",
"+ 	c #9C99AA",
"@ 	c #ADAAB9",
"# 	c #837F94",
"$ 	c #7D7990",
"% 	c #9995A7",
"& 	c #67627C",
"* 	c #CDCBD4",
"= 	c #FCFCFC",
"- 	c #D1D0D8",
"; 	c #FFFFFF",
"> 	c #F1F1F3",
", 	c #848095",
"' 	c #2A2248",
") 	c #CFCED6",
"! 	c #68637D",
"~ 	c #ABA8B6",
"{ 	c #D5D3DB",
"] 	c #9490A2",
"^ 	c #C4C4C4",
"/ 	c #1D1C1D",
"( 	c #313134",
"_ 	c #EEEFEE",
": 	c #FBFBFB",
"< 	c #EFEFEF",
"[ 	c #7B768D",
"} 	c #464060",
"| 	c #DEDEE1",
"1 	c #CBCACC",
"2 	c #EEEEF1",
"3 	c #79758C",
"4 	c #FBFBFC",
"5 	c #A2A2A2",
"6 	c #000000",
"7 	c #F5F6F5",
"8 	c #747474",
"9 	c #2A2A2B",
"0 	c #403958",
"a 	c #7D788F",
"b 	c #C0BEC8",
"c 	c #BCBAC6",
"d 	c #BCBAC5",
"e 	c #625C79",
"f 	c #2B2932",
"g 	c #191919",
"h 	c #CCCCCC",
"i 	c #807B91",
"j 	c #3B3556",
"k 	c #F2F2F4",
"l 	c #929292",
"m 	c #0E0E0E",
"n 	c #BFBFBF",
"o 	c #111111",
"p 	c #100E15",
"q 	c #868689",
"r 	c #FEFDFE",
"s 	c #D9D7DE",
"t 	c #9C98AA",
"u 	c #FDFCFD",
"v 	c #DDDDDD",
"w 	c #575755",
"x 	c #5E5E5E",
"y 	c #C4C2CD",
"z 	c #423C5C",
"A 	c #F0F0F2",
"B 	c #939393",
"C 	c #555555",
"D 	c #4A4A4A",
"E 	c #010101",
"F 	c #282828",
"G 	c #C2C2C2",
"H 	c #DBDAE0",
"I 	c #615C78",
"J 	c #F6F6F7",
"K 	c #DADADA",
"L 	c #545454",
"M 	c #0F0F0F",
"N 	c #B8B8B8",
"O 	c #48445C",
"P 	c #2B2B2C",
"Q 	c #181900",
"R 	c #D3D3D3",
"S 	c #C1BEC9",
"T 	c #474060",
"U 	c #31294D",
"V 	c #716C85",
"W 	c #65607A",
"X 	c #625D78",
"Y 	c #D5D4DB",
"Z 	c #F7F7F7",
"` 	c #8B8B8B",
" .	c #161616",
"..	c #0C0C0C",
"+.	c #1C1E00",
"@.	c #EBF400",
"#.	c #F3FC00",
"$.	c #5C5F03",
"%.	c #393643",
"&.	c #47415F",
"*.	c #9692A4",
"=.	c #D9D8DE",
"-.	c #F7F7F8",
";.	c #918DA0",
">.	c #B8B5C1",
",.	c #D1D1D1",
"'.	c #252525",
").	c #2E3000",
"!.	c #F0F900",
"~.	c #F2FB00",
"{.	c #F4FD00",
"].	c #8C9200",
"^.	c #727175",
"/.	c #FEFEFF",
"(.	c #9D99AA",
"_.	c #DBD9E0",
":.	c #E9E9E9",
"<.	c #CBCBCB",
"[.	c #E0E0E0",
"}.	c #6C6C6C",
"|.	c #050600",
"1.	c #EDF600",
"2.	c #515151",
"3.	c #A6A6A7",
"4.	c #827E93",
"5.	c #615C77",
"6.	c #EAEAED",
"7.	c #DFDFE1",
"8.	c #E3EC00",
"9.	c #F1FA00",
"0.	c #1E1D24",
"a.	c #9894A7",
"b.	c #B1AEBB",
"c.	c #69686F",
"d.	c #000001",
"e.	c #0A0A00",
"f.	c #C7CF00",
"g.	c #606400",
"h.	c #A4AB00",
"i.	c #615C76",
"j.	c #5F5A75",
"k.	c #413E4D",
"l.	c #020203",
"m.	c #F6FF00",
"n.	c #8B9100",
"o.	c #666A00",
"p.	c #DAE200",
"q.	c #E5EE00",
"r.	c #DDE600",
"s.	c #1A1A1C",
"t.	c #C3C1CB",
"u.	c #9D9D9D",
"v.	c #202020",
"w.	c #383838",
"x.	c #4C4C4C",
"y.	c #E1EA00",
"z.	c #E0E900",
"A.	c #111112",
"B.	c #C9C7D0",
"C.	c #F1F1F1",
"D.	c #F8F8F8",
"E.	c #232323",
"F.	c #010100",
"G.	c #DCE500",
"H.	c #050408",
"I.	c #AEACB9",
"J.	c #FEFEFE",
"K.	c #1D1D1D",
"L.	c #020200",
"M.	c #E1E900",
"N.	c #E8F000",
"O.	c #B7B5C1",
"P.	c #9390A2",
"Q.	c #BBBBBB",
"R.	c #414141",
"S.	c #030303",
"T.	c #797E00",
"U.	c #F5FE00",
"V.	c #3A3D00",
"W.	c #28272A",
"X.	c #F4F4F6",
"Y.	c #605B76",
"Z.	c #736E86",
"`.	c #D8D8D8",
" +	c #727272",
".+	c #101010",
"++	c #757A00",
"@+	c #848486",
"#+	c #CCCBD3",
"$+	c #747087",
"%+	c #6D6881",
"&+	c #1C1C1C",
"*+	c #242424",
"=+	c #B3BA00",
"-+	c #EAF300",
";+	c #656566",
">+	c #F6F6F6",
",+	c #E8E6EA",
"'+	c #706B84",
")+	c #E3E1E6",
"!+	c #474746",
"~+	c #151515",
"{+	c #C8C8C8",
"]+	c #AEAEAE",
"^+	c #080808",
"/+	c #D9E100",
"(+	c #DAE100",
"_+	c #373639",
":+	c #FDFCFE",
"<+	c #ABA8B7",
"[+	c #F1F0F3",
"}+	c #6D6980",
"|+	c #0A090E",
"1+	c #95929E",
"2+	c #0A0810",
"3+	c #515400",
"4+	c #050505",
"5+	c #5B5A5C",
"6+	c #F7F6F7",
"7+	c #F4F3F5",
"8+	c #908C9F",
"9+	c #C8C6D0",
"0+	c #837E96",
"a+	c #86868A",
"b+	c #070608",
"c+	c #ECEBEE",
"d+	c #5B5571",
"e+	c #646078",
"f+	c #AFAFB0",
"g+	c #454545",
"h+	c #333408",
"i+	c #7A7A7A",
"j+	c #C8C8C9",
"k+	c #212025",
"l+	c #060607",
"m+	c #969699",
"n+	c #FAFAFA",
"o+	c #F8F8F9",
"p+	c #A29EAF",
"q+	c #F7F6F8",
"r+	c #F0F0F1",
"s+	c #B8B7B9",
"t+	c #E4E4E4",
"u+	c #FDFDFD",
"v+	c #A5A2B2",
"w+	c #3B3456",
"x+	c #A8A5B4",
"y+	c #525252",
"z+	c #848387",
"A+	c #CDCDCD",
"B+	c #8D899C",
"C+	c #494262",
"D+	c #68627C",
"E+	c #40395A",
"F+	c #ECECEC",
"G+	c #020202",
"H+	c #B4B5B5",
"I+	c #0B0B0B",
"J+	c #313232",
"K+	c #E3E3E3",
"L+	c #B1AEBC",
"M+	c #BDBBC6",
"N+	c #3C3556",
"O+	c #898599",
"P+	c #EDEDED",
"Q+	c #39393A",
"R+	c #040404",
"S+	c #333333",
"T+	c #F5F5F5",
"U+	c #2B2B2B",
"V+	c #2D2A3D",
"W+	c #B6B4C1",
"X+	c #F5F5F6",
"Y+	c #605A76",
"Z+	c #DAD8DF",
"`+	c #F5F4F6",
" @	c #615B76",
".@	c #524D6A",
"+@	c #E4E3E8",
"@@	c #D5D5D5",
"#@	c #1B1B1B",
"$@	c #303030",
"%@	c #AAABAB",
"&@	c #585464",
"*@	c #B0AEBB",
"=@	c #A29FAF",
"-@	c #E9E8E9",
";@	c #787779",
">@	c #0F0E15",
",@	c #2D2D2E",
"'@	c #595959",
")@	c #FAFAFB",
"!@	c #807B92",
"~@	c #B0ADBB",
"{@	c #E8E7EB",
"]@	c #3A3258",
"^@	c #E6E5EA",
"/@	c #DFDEE3",
"(@	c #443E5E",
"_@	c #BAB8C4",
":@	c #C1BFCA",
"<@	c #E0E0E5",
"[@	c #D0CED6",
"}@	c #362F52",
"|@	c #CECCD5",
"1@	c #413A5B",
"2@	c #6A657F",
"3@	c #9793A6",
"                                                                        ",
"                                                                        ",
"                                                                        ",
"                      .   + @ #     $ %                                 ",
"                & * = *   - ; > , ' ; ; ; ) !                           ",
"                ~ ; ; {   ] ; ^ / ( _ ; : < [                           ",
"                } | 1 2   3 4 5 6 6 7 : 8 9 0 a b                       ",
"          c : d e f g h i j k l 6 m ; n o 6 p q r s                     ",
"        t u ; v w 6 6 x y z A B 6 C ; D E 6 F G ; H                     ",
"      I J ; ; K L 6 6 M N O P E 6 6 6 Q Q M R S T U V W                 ",
"    X Y ; ; ; ; Z `  .6 ..6 6 6 6 6 +.@.#.$.%.&.*.=.-.;.                ",
"    >.; ; ; ; ; ; = ,.'.6 6 6 6 6 ).!.~.{.].E ^./.; ; (.                ",
"    _.; ; :.R h <.[.}.6 6 6 6 6 |.!.1.).{.].6 E 2.3.4 4.                ",
"  5.6.; 7...6 6 6 6 6 6 6 6 6 |.8.9.+.6 {.].6 6 6 0.a.                  ",
"  V @ b.c.d.6 6 6 6 6 e.#.{.1.f.{.g.6 6 #.h.6 6 6                       ",
"    i.j.k.6 l.6 6 6 6 6 m.n.o.p.p.6 6 6 q.r.6 6 6 s.                    ",
"  t.; ; u.v.v.w.x.v.6 6 m.6 6 y.y.6 6 6 z.z.6 6 6 A.                    ",
"  B.; ; C.D.; ; ; E.6 F.m.6 6 G.G.6 6 6 z.z.6 6 6 H.                    ",
"  I.; ; ; ; J.; ; K.6 L.m.m.m.M.N.6 6 6 z.z.6 6 6 6 O.,                 ",
"  P.; ; J.; : Q.R.S.6 6 6 6 6 T.U.q.V.6 z.z.6 6 6 W.J.X.Y.              ",
"  Z.; ; ; `. +.+6 6 6 6 6 6 6 6 T.1.r.++z.z.6 6 6 @+; ; #+$+            ",
"  %+J ; : &+6 6 6 6 *+..6 6 6 6 6 6 =+U.-+z.6 6 6 ;+>+; ; ,+'+          ",
"    )+; ; !+6 E 6 ~+{+]+^+6 6 6 6 6 6 /+9.(+6 6 6 6 _+:+; ; > '+        ",
"    <+; [+}+|+6 6 ]+J.; 1+2+6 6 6 6 6 6 3+T.m 4+6 6 6 5+6+; ; 7+8+      ",
"    '+9+! 0+a+b+x ; ; c+d+e+f+l g+6 6 6 h+i+j+k+6 6 6 l+m+n+; ; o+@     ",
"        p+q+r+s+t+u+; v+w+x+; >+g+6 6 E y+; ; z+6 6 E 6 o A+; ; = B+    ",
"      C+> ; ; ; ; ; ; D+E+; ; F+w.6 6 G+D ; ; H+I+6 6 6 J+K+; ; L+      ",
"          > ; ; ; ; M+N+O+; ; P+Q+6 6 R+S+; ; T+U+6 6 V+W+; X+3         ",
"          Y+Z+= ; `+ @.@+@; ; @@#@6 6 G+$@; ; ; %@y+&@                  ",
"              *@4 =@  X ; ; ; -@;@$@>@,@'@; ; ; J.)@!@                  ",
"                      ~@; ; ; ; ; {@]@^@; ; ; ; = /@(@                  ",
"                      _@:@<@4 ; ; [@}@|@; ; ; s O+T                     ",
"                          1@          2@3@O+                            ",
"                                                                        ",
"                                                                        ",
"                                                                        "};
