/* XPM */
static const char *SpiralIcon_xpm []={
"36 36 289 2",
"Qt c None",
".G c #000000",
"aa c #000001",
"aV c #010100",
"#d c #010101",
"#Z c #010200",
"aH c #020200",
"bQ c #020202",
"ah c #020203",
"aG c #030303",
"#Q c #040400",
"b1 c #040404",
"ai c #040500",
"ax c #050408",
"ak c #050500",
"bd c #050505",
"#F c #060600",
"bv c #060607",
"bl c #070608",
"a5 c #080808",
"bb c #0a0810",
"b# c #0a090e",
"ab c #0a0a00",
"bS c #0b0b0b",
"#B c #0c0c0c",
"bc c #0d0d0d",
".X c #0e0e0e",
"cl c #0f0e15",
"#l c #0f0f0f",
".0 c #100e15",
"aO c #101010",
"aB c #101100",
".Z c #111111",
"as c #111112",
"ar c #121300",
"aw c #141500",
"a2 c #151515",
"#A c #161616",
"#D c #161800",
"ac c #171800",
"#p c #181900",
".R c #191919",
"#G c #191a00",
"al c #1a1a1c",
"#E c #1a1b00",
"cd c #1b1b1b",
"aT c #1c1c1c",
".t c #1d1c1d",
"aA c #1d1d1d",
"#8 c #1e1d24",
"ao c #202020",
"bu c #212025",
"aU c #242424",
"#P c #252525",
"aI c #28272a",
"#e c #282828",
".m c #2a2248",
".J c #2a2a2b",
".Q c #2b2932",
"b4 c #2b2b2b",
"#o c #2b2b2c",
"b5 c #2d2a3d",
"cm c #2d2d2e",
"ce c #303030",
"#t c #31294d",
".u c #313134",
"bT c #313232",
"b2 c #333333",
"cA c #362f52",
"br c #363636",
"a6 c #373639",
"ap c #383838",
"#H c #393643",
"b0 c #39393a",
"cs c #3a3258",
"bG c #3b3456",
".U c #3b3556",
"bX c #3c3556",
".K c #403958",
"bO c #40395a",
"ad c #404000",
"cC c #413a5b",
"ag c #413e4d",
"aF c #414141",
"#. c #423c5c",
"cv c #443e5e",
"bq c #454545",
".z c #464060",
"#s c #474060",
"#I c #47415f",
"a1 c #474746",
"#n c #48445c",
"bM c #494262",
"#c c #4a4a4a",
"aq c #4c4c4c",
"#0 c #515151",
"ca c #524d6a",
"bI c #525252",
"#k c #545454",
"#b c #555555",
".7 c #575755",
"cg c #585464",
"cn c #595959",
"bn c #5b5571",
"be c #5b5a5c",
".8 c #5e5e5e",
"af c #5f5a75",
"b8 c #605a76",
"aK c #605b76",
"c# c #615b76",
"ae c #615c76",
"#3 c #615c77",
"#h c #615c78",
".P c #625c79",
"#w c #625d78",
"bo c #646078",
"#v c #65607a",
"aW c #656566",
".f c #67627c",
"bN c #68627c",
".o c #68637d",
"a# c #69686f",
"cD c #6a657f",
"#Y c #6c6c6c",
"aS c #6d6881",
"b. c #6d6980",
"aZ c #706b84",
"#u c #716c85",
"#R c #727175",
"aN c #727272",
"aL c #736e86",
"aR c #747087",
".I c #747474",
"ck c #787779",
".D c #79758c",
"bs c #7a7a7a",
".y c #7b768d",
".L c #7d788f",
".d c #7d7990",
".T c #807b91",
"cp c #807b92",
"#6 c #808000",
"#7 c #808080",
"#2 c #827e93",
"bj c #837e96",
".c c #837f94",
".l c #848095",
"bJ c #848387",
"aP c #848486",
".1 c #868689",
"bk c #86868a",
"bY c #898599",
".# c #8b889b",
"#z c #8b8b8b",
"bL c #8d899c",
"bh c #908c9f",
"#M c #918da0",
".W c #929292",
"aD c #9390a2",
"#a c #939393",
".r c #9490a2",
"ba c #95929e",
"#J c #9692a4",
"bw c #969699",
"cE c #9793a6",
"#9 c #9894a7",
".e c #9995a7",
".4 c #9c98aa",
".a c #9c99aa",
"#T c #9d99aa",
"an c #9d9d9d",
"bz c #a29eaf",
"ci c #a29faf",
".F c #a2a2a2",
"bF c #a5a2b2",
"#1 c #a6a6a7",
"bH c #a8a5b4",
"cf c #aaabab",
".p c #aba8b6",
"a8 c #aba8b7",
".b c #adaab9",
"ay c #aeacb9",
"a4 c #aeaeae",
"bp c #afafb0",
"cq c #b0adbb",
"ch c #b0aebb",
"a. c #b1aebb",
"bV c #b1aebc",
"bR c #b4b5b5",
"b6 c #b6b4c1",
"aC c #b7b5c1",
"#N c #b8b5c1",
"bC c #b8b7b9",
"#m c #b8b8b8",
"cw c #bab8c4",
"aE c #bbbbbb",
".O c #bcbac5",
".N c #bcbac6",
"bW c #bdbbc6",
".Y c #bfbfbf",
".M c #c0bec8",
"aj c #c0c000",
"#r c #c1bec9",
"cx c #c1bfca",
"#f c #c2c2c2",
"am c #c3c1cb",
".9 c #c4c2cd",
".s c #c4c4c4",
"bi c #c8c6d0",
"a3 c #c8c8c8",
"bt c #c8c8c9",
"at c #c9c7d0",
".B c #cbcacc",
"#W c #cbcbcb",
"aQ c #cccbd3",
".S c #cccccc",
".g c #cdcbd4",
"bK c #cdcdcd",
"cB c #ceccd5",
".n c #cfced6",
"cz c #d0ced6",
".i c #d1d0d8",
"#O c #d1d1d1",
"#q c #d3d3d3",
".q c #d5d3db",
"#x c #d5d4db",
"cc c #d5d5d5",
"aM c #d8d8d8",
".3 c #d9d7de",
"#K c #d9d8de",
"b9 c #dad8df",
"#j c #dadada",
"#U c #dbd9e0",
"#g c #dbdae0",
".6 c #dddddd",
".A c #dedee1",
"cu c #dfdee3",
"#5 c #dfdfe1",
"#X c #e0e0e0",
"cy c #e0e0e5",
"a0 c #e3e1e6",
"bU c #e3e3e3",
"cb c #e4e3e8",
"bD c #e4e4e4",
"ct c #e6e5ea",
"aY c #e8e6ea",
"cr c #e8e7eb",
"cj c #e9e8e9",
"#V c #e9e9e9",
"#4 c #eaeaed",
"bm c #ecebee",
"bP c #ececec",
"bZ c #ededed",
".C c #eeeef1",
".v c #eeefee",
".x c #efefef",
"bB c #f0f0f1",
"## c #f0f0f2",
"a9 c #f1f0f3",
"au c #f1f1f1",
".k c #f1f1f3",
".V c #f2f2f4",
"bg c #f4f3f5",
"aJ c #f4f4f6",
"c. c #f5f4f6",
"b3 c #f5f5f5",
"b7 c #f5f5f6",
".H c #f5f6f5",
"aX c #f6f6f6",
"#i c #f6f6f7",
"bf c #f7f6f7",
"bA c #f7f6f8",
"#y c #f7f7f7",
"#L c #f7f7f8",
"av c #f8f8f8",
"by c #f8f8f9",
"bx c #fafafa",
"co c #fafafb",
".w c #fbfbfb",
".E c #fbfbfc",
".h c #fcfcfc",
".5 c #fdfcfd",
"a7 c #fdfcfe",
"bE c #fdfdfd",
".2 c #fefdfe",
"az c #fefefe",
"#S c #fefeff",
"#C c #ffff00",
".j c #ffffff",
"QtQtQtQtQtQtQtQtQtQtQtQtQtQtQtQtQtQtQtQtQtQtQtQtQtQtQtQtQtQtQtQtQtQtQtQt",
"QtQtQtQtQtQtQtQtQtQtQtQtQtQtQtQtQtQtQtQtQtQtQtQtQtQtQtQtQtQtQtQtQtQtQtQt",
"QtQtQtQtQtQtQtQtQtQtQtQtQtQtQtQtQtQtQtQtQtQtQtQtQtQtQtQtQtQtQtQtQtQtQtQt",
"QtQtQtQtQtQtQtQtQtQtQt.#Qt.a.b.cQtQt.d.eQtQtQtQtQtQtQtQtQtQtQtQtQtQtQtQt",
"QtQtQtQtQtQtQtQt.f.g.h.gQt.i.j.k.l.m.j.j.j.n.oQtQtQtQtQtQtQtQtQtQtQtQtQt",
"QtQtQtQtQtQtQtQt.p.j.j.qQt.r.j.s.t.u.v.j.w.x.yQtQtQtQtQtQtQtQtQtQtQtQtQt",
"QtQtQtQtQtQtQtQt.z.A.B.CQt.D.E.F.G.G.H.w.I.J.K.L.MQtQtQtQtQtQtQtQtQtQtQt",
"QtQtQtQtQt.N.w.O.P.Q.R.S.T.U.V.W.G.X.j.Y.Z.G.0.1.2.3QtQtQtQtQtQtQtQtQtQt",
"QtQtQtQt.4.5.j.6.7.G.G.8.9#.###a.G#b.j#c#d.G#e#f.j#gQtQtQtQtQtQtQtQtQtQt",
"QtQtQt#h#i.j.j#j#k.G.G#l#m#n#o#d.G.G.G#p#p#l#q#r#s#t#u#vQtQtQtQtQtQtQtQt",
"QtQt#w#x.j.j.j.j#y#z#A.G#B.G.G.G#C#C#D#E#F#G#H#I#J#K#L#MQtQtQtQtQtQtQtQt",
"QtQt#N.j.j.j.j.j.j.h#O#P.G.G#Q.G#C#C#Q.G.G.G#d#R#S.j.j#TQtQtQtQtQtQtQtQt",
"QtQt#U.j.j#V#q.S#W#X#Y.G.G.G#Z.G.G.G.G.G.G.G.G#d#0#1.E#2QtQtQtQtQtQtQtQt",
"Qt#3#4.j#5#B.G.G.G.G.G.G.G.G#Z.G.G.G.G#6#C#7.G.G.G#8#9QtQtQtQtQtQtQtQtQt",
"Qt#u.ba.a#aa.G.G.G.G.Gabac.G#Z.G.Gad#6#C#6#7#7.G.GQtQtQtQtQtQtQtQtQtQtQt",
"QtQtaeafag.Gah.G.G.G.G.Gai.G#Z.G#6aj#C#6.Gakaj#C.GalQtQtQtQtQtQtQtQtQtQt",
"Qtam.j.janaoaoapaqao#C#C.G.G.G#6aj#Cajad.Gar#Caj.GasQtQtQtQtQtQtQtQtQtQt",
"Qtat.j.jauav.j.j.j.G#C#Caw.G.Gaj#Caj#6.G.Gar#7#7.GaxQtQtQtQtQtQtQtQtQtQt",
"Qtay.j.j.j.jaz.j.jaA.G.GaB.G.G#6aj#6.G.G.Gar#7#7.G.GaC.lQtQtQtQtQtQtQtQt",
"QtaD.j.jaz.j.waEaFaG.G.G.G.G.G.G.G.G.G.G.GaH#7.G.GaIazaJaKQtQtQtQtQtQtQt",
"QtaL.j.j.jaMaNaO.G.G.G.G.G.G.G.G.G.G.G.G.G.G.G.G.GaP.j.jaQaRQtQtQtQtQtQt",
"QtaS#i.j.waT.G.G.G.GaU#B.G.G.G.G#C#Cab.G.GaV.G.G.GaWaX.j.jaYaZQtQtQtQtQt",
"QtQta0.j.ja1.G#d.Ga2a3a4a5.G.G.G#C#C.G.G.GaV.G.G.G.Ga6a7.j.j.kaZQtQtQtQt",
"QtQta8.ja9b.b#.G.Ga4az.jbabb.G.G.G.G.G.G.G.Gbcbd.G.G.Gbebf.j.jbgbhQtQtQt",
"QtQtaZbi.objbkbl.8.j.jbmbnbobp.Wbq.G.G.Gbrbsbtbu.G.G.Gbvbwbx.j.jby.bQtQt",
"QtQtQtQtbzbAbBbCbDbE.jbFbGbH.jaXbq.G.G#dbI.j.jbJ.G.G#d.G.ZbK.j.j.hbLQtQt",
"QtQtQtbM.k.j.j.j.j.j.jbNbO.j.jbPap.G.GbQ#c.j.jbRbS.G.G.GbTbU.j.jbVQtQtQt",
"QtQtQtQtQt.k.j.j.j.jbWbXbY.j.jbZb0.G.Gb1b2.j.jb3b4.G.Gb5b6.jb7.DQtQtQtQt",
"QtQtQtQtQtb8b9.h.jc.c#cacb.j.jcccd.G.GbQce.j.j.jcfbIcgQtQtQtQtQtQtQtQtQt",
"QtQtQtQtQtQtQtch.EciQt#w.j.j.jcjckceclcmcn.j.j.jazcocpQtQtQtQtQtQtQtQtQt",
"QtQtQtQtQtQtQtQtQtQtQtcq.j.j.j.j.jcrcsct.j.j.j.j.hcucvQtQtQtQtQtQtQtQtQt",
"QtQtQtQtQtQtQtQtQtQtQtcwcxcy.E.j.jczcAcB.j.j.j.3bY#sQtQtQtQtQtQtQtQtQtQt",
"QtQtQtQtQtQtQtQtQtQtQtQtQtcCQtQtQtQtQtcDcEbYQtQtQtQtQtQtQtQtQtQtQtQtQtQt",
"QtQtQtQtQtQtQtQtQtQtQtQtQtQtQtQtQtQtQtQtQtQtQtQtQtQtQtQtQtQtQtQtQtQtQtQt",
"QtQtQtQtQtQtQtQtQtQtQtQtQtQtQtQtQtQtQtQtQtQtQtQtQtQtQtQtQtQtQtQtQtQtQtQt",
"QtQtQtQtQtQtQtQtQtQtQtQtQtQtQtQtQtQtQtQtQtQtQtQtQtQtQtQtQtQtQtQtQtQtQtQt"};
