/* XPM */
static char * SpiralIcon_xpm[] = {
"36 36 275 2",
"  	c None",
". 	c #8B889B",
"+ 	c #9C99AA",
"@ 	c #ADAAB9",
"# 	c #837F94",
"$ 	c #7D7990",
"% 	c #9995A7",
"& 	c #67627C",
"* 	c #CDCBD4",
"= 	c #FCFCFC",
"- 	c #D1D0D8",
"; 	c #FFFFFF",
"> 	c #F1F1F3",
", 	c #848095",
"' 	c #2A2248",
") 	c #CFCED6",
"! 	c #68637D",
"~ 	c #ABA8B6",
"{ 	c #D5D3DB",
"] 	c #9490A2",
"^ 	c #C4C4C4",
"/ 	c #1D1C1D",
"( 	c #313134",
"_ 	c #EEEFEE",
": 	c #FBFBFB",
"< 	c #EFEFEF",
"[ 	c #7B768D",
"} 	c #464060",
"| 	c #DEDEE1",
"1 	c #CBCACC",
"2 	c #EEEEF1",
"3 	c #79758C",
"4 	c #FBFBFC",
"5 	c #A2A2A2",
"6 	c #000000",
"7 	c #F5F6F5",
"8 	c #747474",
"9 	c #2A2A2B",
"0 	c #403958",
"a 	c #7D788F",
"b 	c #C0BEC8",
"c 	c #BCBAC6",
"d 	c #BCBAC5",
"e 	c #625C79",
"f 	c #2B2932",
"g 	c #191919",
"h 	c #CCCCCC",
"i 	c #807B91",
"j 	c #3B3556",
"k 	c #F2F2F4",
"l 	c #929292",
"m 	c #0E0E0E",
"n 	c #BFBFBF",
"o 	c #111111",
"p 	c #100E15",
"q 	c #868689",
"r 	c #FEFDFE",
"s 	c #D9D7DE",
"t 	c #9C98AA",
"u 	c #FDFCFD",
"v 	c #DDDDDD",
"w 	c #575755",
"x 	c #5E5E5E",
"y 	c #C4C2CD",
"z 	c #423C5C",
"A 	c #F0F0F2",
"B 	c #939393",
"C 	c #555555",
"D 	c #4A4A4A",
"E 	c #010101",
"F 	c #282828",
"G 	c #C2C2C2",
"H 	c #DBDAE0",
"I 	c #615C78",
"J 	c #F6F6F7",
"K 	c #DADADA",
"L 	c #545454",
"M 	c #0F0F0F",
"N 	c #B8B8B8",
"O 	c #48445C",
"P 	c #2B2B2C",
"Q 	c #181900",
"R 	c #D3D3D3",
"S 	c #C1BEC9",
"T 	c #474060",
"U 	c #31294D",
"V 	c #716C85",
"W 	c #65607A",
"X 	c #625D78",
"Y 	c #D5D4DB",
"Z 	c #F7F7F7",
"` 	c #8B8B8B",
" .	c #161616",
"..	c #0C0C0C",
"+.	c #161800",
"@.	c #1A1B00",
"#.	c #060600",
"$.	c #191A00",
"%.	c #393643",
"&.	c #47415F",
"*.	c #9692A4",
"=.	c #D9D8DE",
"-.	c #F7F7F8",
";.	c #918DA0",
">.	c #B8B5C1",
",.	c #D1D1D1",
"'.	c #212121",
").	c #2D2F00",
"!.	c #111200",
"~.	c #0B0C00",
"{.	c #FFF200",
"].	c #727175",
"^.	c #FEFEFF",
"/.	c #9D99AA",
"(.	c #DBD9E0",
"_.	c #E9E9E9",
":.	c #CBCBCB",
"<.	c #E0E0E0",
"[.	c #6C6C6C",
"}.	c #050500",
"|.	c #515151",
"1.	c #A6A6A7",
"2.	c #827E93",
"3.	c #615C77",
"4.	c #EAEAED",
"5.	c #DFDFE1",
"6.	c #1E1D24",
"7.	c #9894A7",
"8.	c #B1AEBB",
"9.	c #69686F",
"0.	c #000001",
"a.	c #615C76",
"b.	c #5F5A75",
"c.	c #413E4D",
"d.	c #020203",
"e.	c #1A1A1C",
"f.	c #C3C1CB",
"g.	c #9D9D9D",
"h.	c #202020",
"i.	c #383838",
"j.	c #4C4C4C",
"k.	c #C9C7D0",
"l.	c #F1F1F1",
"m.	c #F8F8F8",
"n.	c #232323",
"o.	c #AEACB9",
"p.	c #FEFEFE",
"q.	c #1D1D1D",
"r.	c #B7B5C1",
"s.	c #9390A2",
"t.	c #BBBBBB",
"u.	c #414141",
"v.	c #030303",
"w.	c #F4F4F6",
"x.	c #605B76",
"y.	c #736E86",
"z.	c #D8D8D8",
"A.	c #727272",
"B.	c #101010",
"C.	c #CCCBD3",
"D.	c #747087",
"E.	c #6D6881",
"F.	c #1C1C1C",
"G.	c #242424",
"H.	c #656566",
"I.	c #F6F6F6",
"J.	c #E8E6EA",
"K.	c #706B84",
"L.	c #E3E1E6",
"M.	c #474746",
"N.	c #151515",
"O.	c #C8C8C8",
"P.	c #AEAEAE",
"Q.	c #010100",
"R.	c #373639",
"S.	c #FDFCFE",
"T.	c #ABA8B7",
"U.	c #F1F0F3",
"V.	c #6D6980",
"W.	c #0A090E",
"X.	c #95929E",
"Y.	c #0A0810",
"Z.	c #0D0D0D",
"`.	c #050505",
" +	c #5B5A5C",
".+	c #F7F6F7",
"++	c #F4F3F5",
"@+	c #908C9F",
"#+	c #C8C6D0",
"$+	c #837E96",
"%+	c #86868A",
"&+	c #070608",
"*+	c #ECEBEE",
"=+	c #5B5571",
"-+	c #646078",
";+	c #AFAFB0",
">+	c #454545",
",+	c #363636",
"'+	c #7A7A7A",
")+	c #C8C8C9",
"!+	c #212025",
"~+	c #060607",
"{+	c #969699",
"]+	c #FAFAFA",
"^+	c #F8F8F9",
"/+	c #A29EAF",
"(+	c #F7F6F8",
"_+	c #F0F0F1",
":+	c #B8B7B9",
"<+	c #E4E4E4",
"[+	c #FDFDFD",
"}+	c #A5A2B2",
"|+	c #3B3456",
"1+	c #A8A5B4",
"2+	c #525252",
"3+	c #848387",
"4+	c #CDCDCD",
"5+	c #8D899C",
"6+	c #494262",
"7+	c #68627C",
"8+	c #40395A",
"9+	c #ECECEC",
"0+	c #020202",
"a+	c #B4B5B5",
"b+	c #0B0B0B",
"c+	c #313232",
"d+	c #E3E3E3",
"e+	c #B1AEBC",
"f+	c #BDBBC6",
"g+	c #3C3556",
"h+	c #898599",
"i+	c #EDEDED",
"j+	c #39393A",
"k+	c #040404",
"l+	c #333333",
"m+	c #F5F5F5",
"n+	c #2B2B2B",
"o+	c #2D2A3D",
"p+	c #B6B4C1",
"q+	c #F5F5F6",
"r+	c #605A76",
"s+	c #DAD8DF",
"t+	c #F5F4F6",
"u+	c #615B76",
"v+	c #524D6A",
"w+	c #E4E3E8",
"x+	c #D5D5D5",
"y+	c #1B1B1B",
"z+	c #303030",
"A+	c #AAABAB",
"B+	c #585464",
"C+	c #B0AEBB",
"D+	c #A29FAF",
"E+	c #E9E8E9",
"F+	c #787779",
"G+	c #0F0E15",
"H+	c #2D2D2E",
"I+	c #595959",
"J+	c #FAFAFB",
"K+	c #807B92",
"L+	c #B0ADBB",
"M+	c #E8E7EB",
"N+	c #3A3258",
"O+	c #E6E5EA",
"P+	c #DFDEE3",
"Q+	c #443E5E",
"R+	c #BAB8C4",
"S+	c #C1BFCA",
"T+	c #E0E0E5",
"U+	c #D0CED6",
"V+	c #362F52",
"W+	c #CECCD5",
"X+	c #413A5B",
"Y+	c #6A657F",
"Z+	c #9793A6",
"                                                                        ",
"                                                                        ",
"                                                                        ",
"                      .   + @ #     $ %                                 ",
"                & * = *   - ; > , ' ; ; ; ) !                           ",
"                ~ ; ; {   ] ; ^ / ( _ ; : < [                           ",
"                } | 1 2   3 4 5 6 6 7 : 8 9 0 a b                       ",
"          c : d e f g h i j k l 6 m ; n o 6 p q r s                     ",
"        t u ; v w 6 6 x y z A B 6 C ; D E 6 F G ; H                     ",
"      I J ; ; K L 6 6 M N O P E 6 6 6 Q Q M R S T U V W                 ",
"    X Y ; ; ; ; Z `  .6 ..6 6 6 6 6 +.@.#.$.%.&.*.=.-.;.                ",
"    >.; ; ; ; ; ; = ,.'.).!.~.6 {.{.6 6 6 6 E ].^.; ; /.                ",
"    (.; ; _.R h :.<.[.6 }.6 6 6 {.{.6 6 6 6 6 E |.1.4 2.                ",
"  3.4.; 5...6 6 6 6 6 6 6 6 6 6 {.{.6 6 6 6 6 6 6 6.7.                  ",
"  V @ 8.9.0.6 6 6 6 6 6 6 6 6 6 {.{.6 6 6 6 6 6 6                       ",
"    a.b.c.6 d.6 6 6 6 6 6 6 {.{.6 {.{.6 6 6 6 6 6 e.                    ",
"  f.; ; g.h.h.i.j.h.6 6 6 6 {.6 6 6 {.{.6 6 6 6 6 6                     ",
"  k.; ; l.m.; ; ; n.6 {.{.{.6 6 6 6 6 {.{.{.{.{.6 6                     ",
"  o.; ; ; ; p.; ; q.6 6 6 6 6 6 6 6 6 6 6 6 6 6 6 6 r.,                 ",
"  s.; ; p.; : t.u.v.6 6 6 {.6 {.6 {.6 {.{.{.6 6 6 6 p.w.x.              ",
"  y.; ; ; z.A.B.6 6 6 6 {.6 6 {.6 {.6 {.6 6 6 6 6 6 ; ; C.D.            ",
"  E.J ; : F.6 6 6 6 G...6 {.6 {.6 {.6 {.{.{.6 6 6 H.I.; ; J.K.          ",
"    L.; ; M.6 E 6 N.O.P.{.6 6 6 {.6 6 {.6 Q.6 6 6 6 R.S.; ; > K.        ",
"    T.; U.V.W.6 6 P.p.; X.Y.6 6 6 6 6 6 6 6 Z.`.6 6 6  +.+; ; ++@+      ",
"    K.#+! $+%+&+x ; ; *+=+-+;+l >+6 6 6 ,+'+)+!+6 6 6 ~+{+]+; ; ^+@     ",
"        /+(+_+:+<+[+; }+|+1+; I.>+6 6 E 2+; ; 3+6 6 E 6 o 4+; ; = 5+    ",
"      6+> ; ; ; ; ; ; 7+8+; ; 9+i.6 6 0+D ; ; a+b+6 6 6 c+d+; ; e+      ",
"          > ; ; ; ; f+g+h+; ; i+j+6 6 k+l+; ; m+n+6 6 o+p+; q+3         ",
"          r+s+= ; t+u+v+w+; ; x+y+6 6 0+z+; ; ; A+2+B+                  ",
"              C+4 D+  X ; ; ; E+F+z+G+H+I+; ; ; p.J+K+                  ",
"                      L+; ; ; ; ; M+N+O+; ; ; ; = P+Q+                  ",
"                      R+S+T+4 ; ; U+V+W+; ; ; s h+T                     ",
"                          X+          Y+Z+h+                            ",
"                                                                        ",
"                                                                        ",
"                                                                        "};
