/* XPM */
static char * SpiralIcon_xpm[] = {
"36 36 326 2",
"  	c None",
". 	c #8B889B",
"+ 	c #9C99AA",
"@ 	c #ADAAB9",
"# 	c #837F94",
"$ 	c #7D7990",
"% 	c #9995A7",
"& 	c #67627C",
"* 	c #CDCBD4",
"= 	c #FCFCFC",
"- 	c #D1D0D8",
"; 	c #FFFFFF",
"> 	c #F1F1F3",
", 	c #848095",
"' 	c #2A2248",
") 	c #CFCED6",
"! 	c #68637D",
"~ 	c #ABA8B6",
"{ 	c #D5D3DB",
"] 	c #9490A2",
"^ 	c #C4C4C4",
"/ 	c #1D1C1D",
"( 	c #313134",
"_ 	c #EEEFEE",
": 	c #FBFBFB",
"< 	c #EFEFEF",
"[ 	c #7B768D",
"} 	c #464060",
"| 	c #DEDEE1",
"1 	c #CBCACC",
"2 	c #EEEEF1",
"3 	c #79758C",
"4 	c #FBFBFC",
"5 	c #A2A2A2",
"6 	c #000000",
"7 	c #F5F6F5",
"8 	c #747474",
"9 	c #2A2A2B",
"0 	c #403958",
"a 	c #7D788F",
"b 	c #C0BEC8",
"c 	c #BCBAC6",
"d 	c #BCBAC5",
"e 	c #625C79",
"f 	c #2B2932",
"g 	c #191919",
"h 	c #CCCCCC",
"i 	c #807B91",
"j 	c #3B3556",
"k 	c #F2F2F4",
"l 	c #929292",
"m 	c #0E0E0E",
"n 	c #BFBFBF",
"o 	c #111111",
"p 	c #100E15",
"q 	c #868689",
"r 	c #FEFDFE",
"s 	c #D9D7DE",
"t 	c #9C98AA",
"u 	c #FDFCFD",
"v 	c #DDDDDD",
"w 	c #575755",
"x 	c #5E5E5E",
"y 	c #C4C2CD",
"z 	c #423C5C",
"A 	c #F0F0F2",
"B 	c #939393",
"C 	c #555555",
"D 	c #4A4A4A",
"E 	c #010101",
"F 	c #282828",
"G 	c #C2C2C2",
"H 	c #DBDAE0",
"I 	c #615C78",
"J 	c #F6F6F7",
"K 	c #DADADA",
"L 	c #545454",
"M 	c #0F0F0F",
"N 	c #B8B8B8",
"O 	c #48445C",
"P 	c #2B2B2C",
"Q 	c #181900",
"R 	c #D3D3D3",
"S 	c #C1BEC9",
"T 	c #474060",
"U 	c #31294D",
"V 	c #716C85",
"W 	c #65607A",
"X 	c #625D78",
"Y 	c #D5D4DB",
"Z 	c #F7F7F7",
"` 	c #8B8B8B",
" .	c #161616",
"..	c #0A0A0A",
"+.	c #151700",
"@.	c #1A1B00",
"#.	c #060600",
"$.	c #191A00",
"%.	c #393643",
"&.	c #47415F",
"*.	c #9692A4",
"=.	c #D9D8DE",
"-.	c #F7F7F8",
";.	c #918DA0",
">.	c #B8B5C1",
",.	c #D1D1D1",
"'.	c #212121",
").	c #282900",
"!.	c #030300",
"~.	c #655F00",
"{.	c #E5D900",
"].	c #FFF200",
"^.	c #FEF100",
"/.	c #E8DC00",
"(.	c #978F00",
"_.	c #2A2700",
":.	c #727175",
"<.	c #FEFEFF",
"[.	c #9D99AA",
"}.	c #DBD9E0",
"|.	c #E9E9E9",
"1.	c #CBCBCB",
"2.	c #E0E0E0",
"3.	c #6C6C6C",
"4.	c #030200",
"5.	c #867F00",
"6.	c #FDF000",
"7.	c #F9EC00",
"8.	c #756F00",
"9.	c #515151",
"0.	c #A6A6A7",
"a.	c #827E93",
"b.	c #615C77",
"c.	c #EAEAED",
"d.	c #DFDFE1",
"e.	c #0C0C0C",
"f.	c #6B6600",
"g.	c #F7EA00",
"h.	c #F2E500",
"i.	c #262300",
"j.	c #1E1D24",
"k.	c #9894A7",
"l.	c #B1AEBB",
"m.	c #69686F",
"n.	c #000001",
"o.	c #ADA400",
"p.	c #CEC300",
"q.	c #847D00",
"r.	c #C7BC00",
"s.	c #898200",
"t.	c #615C76",
"u.	c #5F5A75",
"v.	c #413E4D",
"w.	c #020203",
"x.	c #EBDF00",
"y.	c #F5E800",
"z.	c #0F0E00",
"A.	c #020200",
"B.	c #FAED00",
"C.	c #D8CC00",
"D.	c #1A1A1C",
"E.	c #C3C1CB",
"F.	c #9D9D9D",
"G.	c #202020",
"H.	c #383838",
"I.	c #4C4C4C",
"J.	c #CABF00",
"K.	c #F0E300",
"L.	c #E9DD00",
"M.	c #111112",
"N.	c #C9C7D0",
"O.	c #F1F1F1",
"P.	c #F8F8F8",
"Q.	c #232323",
"R.	c #FBEE00",
"S.	c #C5BB00",
"T.	c #F8EB00",
"U.	c #D5CA00",
"V.	c #050408",
"W.	c #AEACB9",
"X.	c #FEFEFE",
"Y.	c #1D1D1D",
"Z.	c #EEE100",
"`.	c #F3E600",
" +	c #373400",
".+	c #1C1B00",
"++	c #BBB100",
"@+	c #B7B5C1",
"#+	c #9390A2",
"$+	c #BBBBBB",
"%+	c #414141",
"&+	c #030303",
"*+	c #050500",
"=+	c #B7AD00",
"-+	c #F1E400",
";+	c #1D1B00",
">+	c #28272A",
",+	c #F4F4F6",
"'+	c #605B76",
")+	c #736E86",
"!+	c #D8D8D8",
"~+	c #727272",
"{+	c #101010",
"]+	c #4B4700",
"^+	c #FCEF00",
"/+	c #848486",
"(+	c #CCCBD3",
"_+	c #747087",
":+	c #6D6881",
"<+	c #1C1C1C",
"[+	c #242424",
"}+	c #7B7400",
"|+	c #EFE200",
"1+	c #F4E700",
"2+	c #656566",
"3+	c #F6F6F6",
"4+	c #E8E6EA",
"5+	c #706B84",
"6+	c #E3E1E6",
"7+	c #474746",
"8+	c #151515",
"9+	c #C8C8C8",
"0+	c #AEAEAE",
"a+	c #070707",
"b+	c #010100",
"c+	c #373639",
"d+	c #FDFCFE",
"e+	c #ABA8B7",
"f+	c #F1F0F3",
"g+	c #6D6980",
"h+	c #0A090E",
"i+	c #95929E",
"j+	c #0A0810",
"k+	c #0D0D0D",
"l+	c #050505",
"m+	c #5B5A5C",
"n+	c #F7F6F7",
"o+	c #F4F3F5",
"p+	c #908C9F",
"q+	c #C8C6D0",
"r+	c #837E96",
"s+	c #86868A",
"t+	c #070608",
"u+	c #ECEBEE",
"v+	c #5B5571",
"w+	c #646078",
"x+	c #AFAFB0",
"y+	c #454545",
"z+	c #363636",
"A+	c #7A7A7A",
"B+	c #C8C8C9",
"C+	c #212025",
"D+	c #060607",
"E+	c #969699",
"F+	c #FAFAFA",
"G+	c #F8F8F9",
"H+	c #A29EAF",
"I+	c #F7F6F8",
"J+	c #F0F0F1",
"K+	c #B8B7B9",
"L+	c #E4E4E4",
"M+	c #FDFDFD",
"N+	c #A5A2B2",
"O+	c #3B3456",
"P+	c #A8A5B4",
"Q+	c #525252",
"R+	c #848387",
"S+	c #CDCDCD",
"T+	c #8D899C",
"U+	c #494262",
"V+	c #68627C",
"W+	c #40395A",
"X+	c #ECECEC",
"Y+	c #020202",
"Z+	c #B4B5B5",
"`+	c #0B0B0B",
" @	c #313232",
".@	c #E3E3E3",
"+@	c #B1AEBC",
"@@	c #BDBBC6",
"#@	c #3C3556",
"$@	c #898599",
"%@	c #EDEDED",
"&@	c #39393A",
"*@	c #040404",
"=@	c #333333",
"-@	c #F5F5F5",
";@	c #2B2B2B",
">@	c #2D2A3D",
",@	c #B6B4C1",
"'@	c #F5F5F6",
")@	c #605A76",
"!@	c #DAD8DF",
"~@	c #F5F4F6",
"{@	c #615B76",
"]@	c #524D6A",
"^@	c #E4E3E8",
"/@	c #D5D5D5",
"(@	c #1B1B1B",
"_@	c #303030",
":@	c #AAABAB",
"<@	c #585464",
"[@	c #B0AEBB",
"}@	c #A29FAF",
"|@	c #E9E8E9",
"1@	c #787779",
"2@	c #0F0E15",
"3@	c #2D2D2E",
"4@	c #595959",
"5@	c #FAFAFB",
"6@	c #807B92",
"7@	c #B0ADBB",
"8@	c #E8E7EB",
"9@	c #3A3258",
"0@	c #E6E5EA",
"a@	c #DFDEE3",
"b@	c #443E5E",
"c@	c #BAB8C4",
"d@	c #C1BFCA",
"e@	c #E0E0E5",
"f@	c #D0CED6",
"g@	c #362F52",
"h@	c #CECCD5",
"i@	c #413A5B",
"j@	c #6A657F",
"k@	c #9793A6",
"                                                                        ",
"                                                                        ",
"                                                                        ",
"                      .   + @ #     $ %                                 ",
"                & * = *   - ; > , ' ; ; ; ) !                           ",
"                ~ ; ; {   ] ; ^ / ( _ ; : < [                           ",
"                } | 1 2   3 4 5 6 6 7 : 8 9 0 a b                       ",
"          c : d e f g h i j k l 6 m ; n o 6 p q r s                     ",
"        t u ; v w 6 6 x y z A B 6 C ; D E 6 F G ; H                     ",
"      I J ; ; K L 6 6 M N O P E 6 6 6 Q Q M R S T U V W                 ",
"    X Y ; ; ; ; Z `  .6 ..6 6 6 6 6 +.@.#.$.%.&.*.=.-.;.                ",
"    >.; ; ; ; ; ; = ,.'.).!.~.{.].].^./.(._.E :.<.; ; [.                ",
"    }.; ; |.R h 1.2.3.6 4.5.6.].].].].].].7.8.E 9.0.4 a.                ",
"  b.c.; d.e.6 6 6 6 6 6 f.g.].].].].].].].].h.i.6 j.k.                  ",
"  V @ l.m.n.6 6 6 6 6 6 o.].].].p.q.r.g.].].].s.6                       ",
"    t.u.v.6 w.6 6 6 6 6 x.].].y.z.6 A.z.B.].].C.6 D.                    ",
"  E.; ; F.G.G.H.I.G.6 6 B.].].J.6 6 6 6 K.].].L.6 M.                    ",
"  N.; ; O.P.; ; ; Q.6 6 R.].].S.6 6 6 z.T.].].U.6 V.                    ",
"  W.; ; ; ; X.; ; Y.6 6 Z.].].`. +6 .+++].].].q.6 6 @+,                 ",
"  #+; ; X.; : $+%+&+6 *+=+].].].].].].].].].-+;+6 >+X.,+'+              ",
"  )+; ; ; !+~+{+6 6 6 6 ]+T.].].].].].].].^+~.6 6 /+; ; (+_+            ",
"  :+J ; : <+6 6 6 6 [+6 4.}+|+^.^.].].].1+q.6 6 6 2+3+; ; 4+5+          ",
"    6+; ; 7+6 E 6 8+9+0+a+6 6 6 6 6 6 6 6 b+6 6 6 6 c+d+; ; > 5+        ",
"    e+; f+g+h+6 6 0+X.; i+j+6 6 6 6 6 6 6 6 k+l+6 6 6 m+n+; ; o+p+      ",
"    5+q+! r+s+t+x ; ; u+v+w+x+l y+6 6 6 z+A+B+C+6 6 6 D+E+F+; ; G+@     ",
"        H+I+J+K+L+M+; N+O+P+; 3+y+6 6 E Q+; ; R+6 6 E 6 o S+; ; = T+    ",
"      U+> ; ; ; ; ; ; V+W+; ; X+H.6 6 Y+D ; ; Z+`+6 6 6  @.@; ; +@      ",
"          > ; ; ; ; @@#@$@; ; %@&@6 6 *@=@; ; -@;@6 6 >@,@; '@3         ",
"          )@!@= ; ~@{@]@^@; ; /@(@6 6 Y+_@; ; ; :@Q+<@                  ",
"              [@4 }@  X ; ; ; |@1@_@2@3@4@; ; ; X.5@6@                  ",
"                      7@; ; ; ; ; 8@9@0@; ; ; ; = a@b@                  ",
"                      c@d@e@4 ; ; f@g@h@; ; ; s $@T                     ",
"                          i@          j@k@$@                            ",
"                                                                        ",
"                                                                        ",
"                                                                        "};
