/* XPM */
static char * SpiralIcon_xpm[] = {
"36 36 227 2",
"  	c None",
". 	c #8D8D8D",
"+ 	c #9C9C9C",
"@ 	c #ADADAD",
"# 	c #828282",
"$ 	c #808080",
"% 	c #989898",
"& 	c #5F5F5F",
"* 	c #CDCDCD",
"= 	c #FCFCFC",
"- 	c #4D4D4D",
"; 	c #CFCFCF",
"> 	c #FFFFFF",
", 	c #F1F1F1",
"' 	c #777777",
") 	c #353535",
"! 	c #666666",
"~ 	c #B3B3B3",
"{ 	c #D4D4D4",
"] 	c #343434",
"^ 	c #949494",
"/ 	c #C4C4C4",
"( 	c #1F1F1F",
"_ 	c #323232",
": 	c #EEEEEE",
"< 	c #FBFBFB",
"[ 	c #EFEFEF",
"} 	c #747474",
"| 	c #959595",
"1 	c #575757",
"2 	c #4B4B4B",
"3 	c #DEDEDE",
"4 	c #CBCBCB",
"5 	c #F3F3F3",
"6 	c #787878",
"7 	c #A2A2A2",
"8 	c #000000",
"9 	c #F5F5F5",
"0 	c #2B2B2B",
"a 	c #474747",
"b 	c #7A7A7A",
"c 	c #C2C2C2",
"d 	c #B8B8B8",
"e 	c #BBBBBB",
"f 	c #636363",
"g 	c #2A2A2A",
"h 	c #191919",
"i 	c #CCCCCC",
"j 	c #7F7F7F",
"k 	c #393939",
"l 	c #F2F2F2",
"m 	c #929292",
"n 	c #0E0E0E",
"o 	c #BFBFBF",
"p 	c #111111",
"q 	c #0F0F0F",
"r 	c #868686",
"s 	c #FDFDFD",
"t 	c #D5D5D5",
"u 	c #979797",
"v 	c #DDDDDD",
"w 	c #5E5E5E",
"x 	c #414141",
"y 	c #F0F0F0",
"z 	c #939393",
"A 	c #555555",
"B 	c #4A4A4A",
"C 	c #010101",
"D 	c #282828",
"E 	c #D7D7D7",
"F 	c #6D6D6D",
"G 	c #606060",
"H 	c #F6F6F6",
"I 	c #DADADA",
"J 	c #545454",
"K 	c #5A5A5A",
"L 	c #1E1E1E",
"M 	c #0B0B0B",
"N 	c #040404",
"O 	c #D3D3D3",
"P 	c #C0C0C0",
"Q 	c #454545",
"R 	c #2F2F2F",
"S 	c #707070",
"T 	c #656565",
"U 	c #646464",
"V 	c #F7F7F7",
"W 	c #8B8B8B",
"X 	c #181818",
"Y 	c #0D0D0D",
"Z 	c #030303",
"` 	c #141414",
" .	c #6E6E6E",
"..	c #D9D9D9",
"+.	c #909090",
"@.	c #B6B6B6",
"#.	c #1D1D1D",
"$.	c #181800",
"%.	c #B6B600",
"&.	c #BFBF00",
"*.	c #333300",
"=.	c #101010",
"-.	c #080808",
";.	c #D0D0D0",
">.	c #FEFEFE",
",.	c #E9E9E9",
"'.	c #E0E0E0",
").	c #B1B1B1",
"!.	c #090909",
"~.	c #646400",
"{.	c #C7C700",
"].	c #B9B900",
"^.	c #606000",
"/.	c #9E9E00",
"(.	c #D6D600",
"_.	c #818100",
":.	c #686868",
"<.	c #A9A9A9",
"[.	c #EAEAEA",
"}.	c #DFDFDF",
"|.	c #0C0C0C",
"1.	c #050505",
"2.	c #404000",
"3.	c #282800",
"4.	c #303000",
"5.	c #8C8C8C",
"6.	c #B0B0B0",
"7.	c #3C3C00",
"8.	c #898900",
"9.	c #E6E600",
"0.	c #404040",
"a.	c #020202",
"b.	c #BCBC00",
"c.	c #4B4B00",
"d.	c #EFEF00",
"e.	c #C3C3C3",
"f.	c #9D9D9D",
"g.	c #202020",
"h.	c #383838",
"i.	c #4C4C4C",
"j.	c #1E1E00",
"k.	c #B8B800",
"l.	c #494900",
"m.	c #121212",
"n.	c #C8C8C8",
"o.	c #F8F8F8",
"p.	c #373737",
"q.	c #1C1C00",
"r.	c #C4C400",
"s.	c #3F3F00",
"t.	c #070707",
"u.	c #383800",
"v.	c #F6F600",
"w.	c #FFFF00",
"x.	c #5F5F00",
"y.	c #6F6F00",
"z.	c #B7B7B7",
"A.	c #7D7D7D",
"B.	c #DFDF00",
"C.	c #7A7A00",
"D.	c #202000",
"E.	c #BEBE00",
"F.	c #E8E800",
"G.	c #545400",
"H.	c #060606",
"I.	c #616161",
"J.	c #727272",
"K.	c #D8D8D8",
"L.	c #A8A800",
"M.	c #262626",
"N.	c #DCDCDC",
"O.	c #1C1C1C",
"P.	c #E7E7E7",
"Q.	c #464646",
"R.	c #151515",
"S.	c #A7A7A7",
"T.	c #6C6C6C",
"U.	c #0A0A0A",
"V.	c #AEAEAE",
"W.	c #242424",
"X.	c #161616",
"Y.	c #8E8E8E",
"Z.	c #6F6F6F",
"`.	c #676767",
" +	c #818181",
".+	c #EBEBEB",
"++	c #D6D6D6",
"@+	c #535353",
"#+	c #DBDBDB",
"$+	c #222222",
"%+	c #969696",
"&+	c #FAFAFA",
"*+	c #ACACAC",
"=+	c #A1A1A1",
"-+	c #E4E4E4",
";+	c #A5A5A5",
">+	c #3A3A3A",
",+	c #525252",
"'+	c #838383",
")+	c #3E3E3E",
"!+	c #ECECEC",
"~+	c #B4B4B4",
"{+	c #313131",
"]+	c #E3E3E3",
"^+	c #BCBCBC",
"/+	c #888888",
"(+	c #EDEDED",
"_+	c #333333",
":+	c #B2B2B2",
"<+	c #F4F4F4",
"[+	c #1B1B1B",
"}+	c #303030",
"|+	c #AAAAAA",
"1+	c #AFAFAF",
"2+	c #F9F9F9",
"3+	c #A3A3A3",
"4+	c #E8E8E8",
"5+	c #2D2D2D",
"6+	c #595959",
"7+	c #7E7E7E",
"8+	c #E6E6E6",
"9+	c #C9C9C9",
"0+	c #3F3F3F",
"a+	c #CECECE",
"b+	c #848484",
"c+	c #585858",
"d+	c #898989",
"                                                                        ",
"                                                                        ",
"                                                                        ",
"                      .   + @ #     $ %                                 ",
"                & * = * - ; > , ' ) > > > ; !                           ",
"                ~ > > { ] ^ > / ( _ : > < [ }                           ",
"            | 1 2 3 4 5 $ 6 < 7 8 8 9 < } 0 a b c                       ",
"          d < e f g h i j k l m 8 n > o p 8 q r s t                     ",
"        u s > v 1 8 8 w / x y z 8 A > B C 8 D c > E F                   ",
"      G H > > I J 8 8 q d K L 8 8 8 8 M N L O P Q R S T                 ",
"    U t > > > > V W ( q X Y 8 8 8 8 8 8 Z `  .a | ..V +.                ",
"    d > > > > > > = @.#.8 $.%.&.&.&.&.*.=.-.p ;.>.> > +                 ",
"    t > > ,.O i 4 '.).!.~.{.].^.^.^./.(._.8 8 :.U <.< $                 ",
"  G [.> }.|.8 8 8 8 1.$.{.2.8 8 8 8 8 3.{.4.8 8 q x 5.                  ",
"  S @ 6.:.8 8 8 8 8 8 %.].4.7.8 8 8 8 8 8.9.8 8 8 q                     ",
"    & w 0.8 a.8 8 Z 8 &.^.$.b.c.8 8 8 8 4.d.8 8 8 =.                    ",
"  e.> > f.g.g.h.i.X 8 &.^.8 j.k.l.8 8 8 4.d.8 8 8 m.                    ",
"  n.> > , o.> > > p.a.&.^.8 8 q.r.s.8 8 4.d.8 8 8 t.                    ",
"  @ > > > > >.> > h.Z &./.u.v.w.w.w.w.x.y.d.8 8 C L z.A.                ",
"  m > > >.> < e x p C *.B.{.C.D.D.D.x.E.F.G.8 H.m.).>.y I.              ",
"  J.> > > K.J.=.8 8 Z C _.{.8.4.4.4.y.r.L.8 8 a.M.N.> > i }             ",
"  F 9 > < O.8 8 8 8 M.X H.4.9.d.d.d.d.G.8 8 8 8 C T H > > P.S           ",
"    }.> > Q.8 C 8 R.n.> S.8 8 8 8 8 8 8 8 8 C C 8 8 p.= > > ,  .        ",
"    S.> , T.U.8 8 V.>.> 6.W.X.R.n N a.N -.=.#.U.8 8 8 K H > > 5 Y.      ",
"    Z.n.`. +r t.w > > .+K F ++K.@+C 8 C S E #+$+8 8 8 H.%+&+> > o.*+    ",
"      2 =+H y d -+s > ;+>+S.> H Q 8 8 C ,+> > '+8 8 C 8 p * > > = 5.    ",
"      a , > > > > > > `.)+> > !+h.8 8 a.B > > ~+M 8 8 8 {+]+> > 6.      ",
"          , > > > > ^+>+/+> > (+k 8 8 N _+> > 9 0 8 8 _ :+> 9 6         ",
"          & #+= > <+& J ]+> > t [+8 8 a.}+> > > |+,+1                   ",
"            I.1+2+3+1 G > > > 4+' }+q 5+6+> > > >.&+7+                  ",
"                      *+> > > > > 4+h.8+> > > > = }.Q                   ",
"                      e P '.< > > 9+0+a+> > > { b+a                     ",
"                          0+c+        :.^ d+Z.                          ",
"                                                                        ",
"                                                                        ",
"                                                                        "};
