/* XPM */
static char * SpiralIcon_xpm[] = {
"36 36 308 2",
"  	c None",
". 	c #8B889B",
"+ 	c #9C99AA",
"@ 	c #ADAAB9",
"# 	c #837F94",
"$ 	c #7D7990",
"% 	c #9995A7",
"& 	c #67627C",
"* 	c #CDCBD4",
"= 	c #FCFCFC",
"- 	c #D1D0D8",
"; 	c #FFFFFF",
"> 	c #F1F1F3",
", 	c #848095",
"' 	c #2A2248",
") 	c #CFCED6",
"! 	c #68637D",
"~ 	c #ABA8B6",
"{ 	c #D5D3DB",
"] 	c #9490A2",
"^ 	c #C4C4C4",
"/ 	c #1D1C1D",
"( 	c #313134",
"_ 	c #EEEFEE",
": 	c #FBFBFB",
"< 	c #EFEFEF",
"[ 	c #7B768D",
"} 	c #464060",
"| 	c #DEDEE1",
"1 	c #CBCACC",
"2 	c #EEEEF1",
"3 	c #79758C",
"4 	c #FBFBFC",
"5 	c #A2A2A2",
"6 	c #000000",
"7 	c #F5F6F5",
"8 	c #747474",
"9 	c #2A2A2B",
"0 	c #403958",
"a 	c #7D788F",
"b 	c #C0BEC8",
"c 	c #BCBAC6",
"d 	c #BCBAC5",
"e 	c #625C79",
"f 	c #2B2932",
"g 	c #191919",
"h 	c #CCCCCC",
"i 	c #807B91",
"j 	c #3B3556",
"k 	c #F2F2F4",
"l 	c #929292",
"m 	c #0E0E0E",
"n 	c #BFBFBF",
"o 	c #111111",
"p 	c #100E15",
"q 	c #868689",
"r 	c #FEFDFE",
"s 	c #D9D7DE",
"t 	c #9C98AA",
"u 	c #FDFCFD",
"v 	c #DDDDDD",
"w 	c #575755",
"x 	c #5E5E5E",
"y 	c #C4C2CD",
"z 	c #423C5C",
"A 	c #F0F0F2",
"B 	c #939393",
"C 	c #555555",
"D 	c #4A4A4A",
"E 	c #010101",
"F 	c #282828",
"G 	c #C2C2C2",
"H 	c #DBDAE0",
"I 	c #615C78",
"J 	c #F6F6F7",
"K 	c #DADADA",
"L 	c #545454",
"M 	c #0F0F0F",
"N 	c #B8B8B8",
"O 	c #48445C",
"P 	c #2B2B2C",
"Q 	c #181900",
"R 	c #D3D3D3",
"S 	c #C1BEC9",
"T 	c #474060",
"U 	c #31294D",
"V 	c #716C85",
"W 	c #65607A",
"X 	c #625D78",
"Y 	c #D5D4DB",
"Z 	c #F7F7F7",
"` 	c #8B8B8B",
" .	c #161616",
"..	c #0C0C0C",
"+.	c #161800",
"@.	c #1A1B00",
"#.	c #060600",
"$.	c #191A00",
"%.	c #393643",
"&.	c #47415F",
"*.	c #9692A4",
"=.	c #D9D8DE",
"-.	c #F7F7F8",
";.	c #918DA0",
">.	c #B8B5C1",
",.	c #D1D1D1",
"'.	c #212121",
").	c #2D2F00",
"!.	c #111200",
"~.	c #0B0C00",
"{.	c #0F0F00",
"].	c #090A00",
"^.	c #040400",
"/.	c #727175",
"(.	c #FEFEFF",
"_.	c #9D99AA",
":.	c #DBD9E0",
"<.	c #E9E9E9",
"[.	c #CBCBCB",
"}.	c #E0E0E0",
"|.	c #6C6C6C",
"1.	c #726C00",
"2.	c #FEF100",
"3.	c #FCEF00",
"4.	c #322F00",
"5.	c #515151",
"6.	c #A6A6A7",
"7.	c #827E93",
"8.	c #615C77",
"9.	c #EAEAED",
"0.	c #DFDFE1",
"a.	c #302D00",
"b.	c #DCD000",
"c.	c #FFF200",
"d.	c #1E1C00",
"e.	c #1E1D24",
"f.	c #9894A7",
"g.	c #B1AEBB",
"h.	c #69686F",
"i.	c #000001",
"j.	c #EFE200",
"k.	c #F6E900",
"l.	c #C6BB00",
"m.	c #060500",
"n.	c #615C76",
"o.	c #5F5A75",
"p.	c #413E4D",
"q.	c #020203",
"r.	c #7E7700",
"s.	c #E5D900",
"t.	c #F8EB00",
"u.	c #1A1A1C",
"v.	c #C3C1CB",
"w.	c #9D9D9D",
"x.	c #202020",
"y.	c #383838",
"z.	c #4C4C4C",
"A.	c #B1A800",
"B.	c #A9A000",
"C.	c #111112",
"D.	c #C9C7D0",
"E.	c #F1F1F1",
"F.	c #F8F8F8",
"G.	c #232323",
"H.	c #191700",
"I.	c #827B00",
"J.	c #ACA300",
"K.	c #F2E500",
"L.	c #050408",
"M.	c #AEACB9",
"N.	c #FEFEFE",
"O.	c #1D1D1D",
"P.	c #444000",
"Q.	c #F1E400",
"R.	c #B7B5C1",
"S.	c #9390A2",
"T.	c #BBBBBB",
"U.	c #414141",
"V.	c #030303",
"W.	c #948C00",
"X.	c #756F00",
"Y.	c #28272A",
"Z.	c #F4F4F6",
"`.	c #605B76",
" +	c #736E86",
".+	c #D8D8D8",
"++	c #727272",
"@+	c #101010",
"#+	c #645E00",
"$+	c #F5E800",
"%+	c #848486",
"&+	c #CCCBD3",
"*+	c #747087",
"=+	c #6D6881",
"-+	c #1C1C1C",
";+	c #242424",
">+	c #656566",
",+	c #F6F6F6",
"'+	c #E8E6EA",
")+	c #706B84",
"!+	c #E3E1E6",
"~+	c #474746",
"{+	c #151515",
"]+	c #C8C8C8",
"^+	c #AEAEAE",
"/+	c #080808",
"(+	c #010100",
"_+	c #373639",
":+	c #FDFCFE",
"<+	c #ABA8B7",
"[+	c #F1F0F3",
"}+	c #6D6980",
"|+	c #0A090E",
"1+	c #95929E",
"2+	c #0A0810",
"3+	c #0D0D0D",
"4+	c #050505",
"5+	c #5B5A5C",
"6+	c #F7F6F7",
"7+	c #F4F3F5",
"8+	c #908C9F",
"9+	c #C8C6D0",
"0+	c #837E96",
"a+	c #86868A",
"b+	c #070608",
"c+	c #ECEBEE",
"d+	c #5B5571",
"e+	c #646078",
"f+	c #AFAFB0",
"g+	c #454545",
"h+	c #363636",
"i+	c #7A7A7A",
"j+	c #C8C8C9",
"k+	c #212025",
"l+	c #060607",
"m+	c #969699",
"n+	c #FAFAFA",
"o+	c #F8F8F9",
"p+	c #A29EAF",
"q+	c #F7F6F8",
"r+	c #F0F0F1",
"s+	c #B8B7B9",
"t+	c #E4E4E4",
"u+	c #FDFDFD",
"v+	c #A5A2B2",
"w+	c #3B3456",
"x+	c #A8A5B4",
"y+	c #525252",
"z+	c #848387",
"A+	c #CDCDCD",
"B+	c #8D899C",
"C+	c #494262",
"D+	c #68627C",
"E+	c #40395A",
"F+	c #ECECEC",
"G+	c #020202",
"H+	c #B4B5B5",
"I+	c #0B0B0B",
"J+	c #313232",
"K+	c #E3E3E3",
"L+	c #B1AEBC",
"M+	c #BDBBC6",
"N+	c #3C3556",
"O+	c #898599",
"P+	c #EDEDED",
"Q+	c #39393A",
"R+	c #040404",
"S+	c #333333",
"T+	c #F5F5F5",
"U+	c #2B2B2B",
"V+	c #2D2A3D",
"W+	c #B6B4C1",
"X+	c #F5F5F6",
"Y+	c #605A76",
"Z+	c #DAD8DF",
"`+	c #F5F4F6",
" @	c #615B76",
".@	c #524D6A",
"+@	c #E4E3E8",
"@@	c #D5D5D5",
"#@	c #1B1B1B",
"$@	c #303030",
"%@	c #AAABAB",
"&@	c #585464",
"*@	c #B0AEBB",
"=@	c #A29FAF",
"-@	c #E9E8E9",
";@	c #787779",
">@	c #0F0E15",
",@	c #2D2D2E",
"'@	c #595959",
")@	c #FAFAFB",
"!@	c #807B92",
"~@	c #B0ADBB",
"{@	c #E8E7EB",
"]@	c #3A3258",
"^@	c #E6E5EA",
"/@	c #DFDEE3",
"(@	c #443E5E",
"_@	c #BAB8C4",
":@	c #C1BFCA",
"<@	c #E0E0E5",
"[@	c #D0CED6",
"}@	c #362F52",
"|@	c #CECCD5",
"1@	c #413A5B",
"2@	c #6A657F",
"3@	c #9793A6",
"                                                                        ",
"                                                                        ",
"                                                                        ",
"                      .   + @ #     $ %                                 ",
"                & * = *   - ; > , ' ; ; ; ) !                           ",
"                ~ ; ; {   ] ; ^ / ( _ ; : < [                           ",
"                } | 1 2   3 4 5 6 6 7 : 8 9 0 a b                       ",
"          c : d e f g h i j k l 6 m ; n o 6 p q r s                     ",
"        t u ; v w 6 6 x y z A B 6 C ; D E 6 F G ; H                     ",
"      I J ; ; K L 6 6 M N O P E 6 6 6 Q Q M R S T U V W                 ",
"    X Y ; ; ; ; Z `  .6 ..6 6 6 6 6 +.@.#.$.%.&.*.=.-.;.                ",
"    >.; ; ; ; ; ; = ,.'.).!.~.{.].6 ^.6 6 6 E /.(.; ; _.                ",
"    :.; ; <.R h [.}.|.6 6 6 6 6 6 6 6 1.2.3.4.E 5.6.4 7.                ",
"  8.9.; 0...6 6 6 6 6 6 6 6 6 6 a.b.2.c.3.d.6 6 6 e.f.                  ",
"  V @ g.h.i.6 6 6 6 6 6 6 6 a.j.c.k.l.m.6 6 6 6 6                       ",
"    n.o.p.6 q.6 6 6 6 r.s.3.c.t.r.6 6 6 6 6 6 6 6 u.                    ",
"  v.; ; w.x.x.y.z.x.6 A.2.2.k.B.6 6 6 6 6 6 6 6 6 C.                    ",
"  D.; ; E.F.; ; ; G.6 H.I.J.K.2.k.r.6 6 6 6 6 6 6 L.                    ",
"  M.; ; ; ; N.; ; O.6 6 6 6 6 P.Q.c.l.6 6 6 6 6 6 6 R.,                 ",
"  S.; ; N.; : T.U.V.6 6 6 6 6 6 6 W.2.t.X.6 6 6 6 Y.N.Z.`.              ",
"   +; ; ; .+++@+6 6 6 6 6 6 6 6 6 6 #+j.$+6 6 6 Q %+; ; &+*+            ",
"  =+J ; : -+6 6 6 6 ;+..6 6 6 6 6 6 6 6 6 6 6 6 6 >+,+; ; '+)+          ",
"    !+; ; ~+6 E 6 {+]+^+/+6 6 6 6 6 6 6 6 (+6 6 6 6 _+:+; ; > )+        ",
"    <+; [+}+|+6 6 ^+N.; 1+2+6 6 6 6 6 6 6 6 3+4+6 6 6 5+6+; ; 7+8+      ",
"    )+9+! 0+a+b+x ; ; c+d+e+f+l g+6 6 6 h+i+j+k+6 6 6 l+m+n+; ; o+@     ",
"        p+q+r+s+t+u+; v+w+x+; ,+g+6 6 E y+; ; z+6 6 E 6 o A+; ; = B+    ",
"      C+> ; ; ; ; ; ; D+E+; ; F+y.6 6 G+D ; ; H+I+6 6 6 J+K+; ; L+      ",
"          > ; ; ; ; M+N+O+; ; P+Q+6 6 R+S+; ; T+U+6 6 V+W+; X+3         ",
"          Y+Z+= ; `+ @.@+@; ; @@#@6 6 G+$@; ; ; %@y+&@                  ",
"              *@4 =@  X ; ; ; -@;@$@>@,@'@; ; ; N.)@!@                  ",
"                      ~@; ; ; ; ; {@]@^@; ; ; ; = /@(@                  ",
"                      _@:@<@4 ; ; [@}@|@; ; ; s O+T                     ",
"                          1@          2@3@O+                            ",
"                                                                        ",
"                                                                        ",
"                                                                        "};
