/* XPM */
static const char * SpiralIcon_xpm[] = {
"36 36 319 2",
"  	c None",
". 	c #8B889B",
"+ 	c #9C99AA",
"@ 	c #ADAAB9",
"# 	c #837F94",
"$ 	c #7D7990",
"% 	c #9995A7",
"& 	c #67627C",
"* 	c #CDCBD4",
"= 	c #FCFCFC",
"- 	c #D1D0D8",
"; 	c #FFFFFF",
"> 	c #F1F1F3",
", 	c #848095",
"' 	c #2A2248",
") 	c #CFCED6",
"! 	c #68637D",
"~ 	c #ABA8B6",
"{ 	c #D5D3DB",
"] 	c #9490A2",
"^ 	c #C4C4C4",
"/ 	c #1D1C1D",
"( 	c #313134",
"_ 	c #EEEFEE",
": 	c #FBFBFB",
"< 	c #EFEFEF",
"[ 	c #7B768D",
"} 	c #464060",
"| 	c #DEDEE1",
"1 	c #CBCACC",
"2 	c #EEEEF1",
"3 	c #79758C",
"4 	c #FBFBFC",
"5 	c #A2A2A2",
"6 	c #000000",
"7 	c #F5F6F5",
"8 	c #747474",
"9 	c #2A2A2B",
"0 	c #403958",
"a 	c #7D788F",
"b 	c #C0BEC8",
"c 	c #BCBAC6",
"d 	c #BCBAC5",
"e 	c #625C79",
"f 	c #2B2932",
"g 	c #191919",
"h 	c #CCCCCC",
"i 	c #807B91",
"j 	c #3B3556",
"k 	c #F2F2F4",
"l 	c #929292",
"m 	c #0E0E0E",
"n 	c #BFBFBF",
"o 	c #111111",
"p 	c #100E15",
"q 	c #868689",
"r 	c #FEFDFE",
"s 	c #D9D7DE",
"t 	c #9C98AA",
"u 	c #FDFCFD",
"v 	c #DDDDDD",
"w 	c #575755",
"x 	c #5E5E5E",
"y 	c #C4C2CD",
"z 	c #423C5C",
"A 	c #F0F0F2",
"B 	c #939393",
"C 	c #555555",
"D 	c #4A4A4A",
"E 	c #010101",
"F 	c #282828",
"G 	c #C2C2C2",
"H 	c #DBDAE0",
"I 	c #615C78",
"J 	c #F6F6F7",
"K 	c #DADADA",
"L 	c #545454",
"M 	c #0F0F0F",
"N 	c #B8B8B8",
"O 	c #48445C",
"P 	c #2B2B2C",
"Q 	c #D3D3D3",
"R 	c #C1BEC9",
"S 	c #474060",
"T 	c #31294D",
"U 	c #716C85",
"V 	c #65607A",
"W 	c #625D78",
"X 	c #D5D4DB",
"Y 	c #F7F7F7",
"Z 	c #8B8B8B",
"` 	c #161616",
" .	c #0C0C0C",
"..	c #060606",
"+.	c #393643",
"@.	c #47415F",
"#.	c #9692A4",
"$.	c #D9D8DE",
"%.	c #F7F7F8",
"&.	c #918DA0",
"*.	c #B8B5C1",
"=.	c #D1D1D1",
"-.	c #252525",
";.	c #1F2200",
">.	c #747D00",
",.	c #AAB700",
"'.	c #BDCC00",
").	c #727175",
"!.	c #FEFEFF",
"~.	c #9D99AA",
"{.	c #DBD9E0",
"].	c #E9E9E9",
"^.	c #CBCBCB",
"/.	c #E0E0E0",
"(.	c #6C6C6C",
"_.	c #414600",
":.	c #C5D400",
"<.	c #D9EA00",
"[.	c #E7F900",
"}.	c #ECFE00",
"|.	c #515151",
"1.	c #A6A6A7",
"2.	c #827E93",
"3.	c #615C77",
"4.	c #EAEAED",
"5.	c #DFDFE1",
"6.	c #CDDD00",
"7.	c #8F9A00",
"8.	c #262900",
"9.	c #1E1D24",
"0.	c #9894A7",
"a.	c #B1AEBB",
"b.	c #69686F",
"c.	c #000001",
"d.	c #2C3000",
"e.	c #333700",
"f.	c #4C5200",
"g.	c #7B8500",
"h.	c #615C76",
"i.	c #5F5A75",
"j.	c #413E4D",
"k.	c #020203",
"l.	c #030300",
"m.	c #131400",
"n.	c #212300",
"o.	c #626900",
"p.	c #ADBB00",
"q.	c #7F8900",
"r.	c #171900",
"s.	c #C5D500",
"t.	c #1A1A1C",
"u.	c #C3C1CB",
"v.	c #9D9D9D",
"w.	c #202020",
"x.	c #383838",
"y.	c #4C4C4C",
"z.	c #8E9900",
"A.	c #EDFF00",
"B.	c #EBFD00",
"C.	c #E8FA00",
"D.	c #DAEB00",
"E.	c #2A2E00",
"F.	c #A0AD00",
"G.	c #111112",
"H.	c #C9C7D0",
"I.	c #F1F1F1",
"J.	c #F8F8F8",
"K.	c #232323",
"L.	c #676F00",
"M.	c #101200",
"N.	c #E1F200",
"O.	c #0B0C00",
"P.	c #050408",
"Q.	c #AEACB9",
"R.	c #FEFEFE",
"S.	c #1D1D1D",
"T.	c #0E1000",
"U.	c #5B6200",
"V.	c #191B00",
"W.	c #010200",
"X.	c #9EAA00",
"Y.	c #B7B5C1",
"Z.	c #9390A2",
"`.	c #BBBBBB",
" +	c #414141",
".+	c #030303",
"++	c #3B4000",
"@+	c #28272A",
"#+	c #F4F4F6",
"$+	c #605B76",
"%+	c #736E86",
"&+	c #D8D8D8",
"*+	c #727272",
"=+	c #101010",
"-+	c #070800",
";+	c #6F7800",
">+	c #848486",
",+	c #CCCBD3",
"'+	c #747087",
")+	c #6D6881",
"!+	c #1C1C1C",
"~+	c #242424",
"{+	c #0F1100",
"]+	c #4E5400",
"^+	c #A2AF00",
"/+	c #D8E900",
"(+	c #656566",
"_+	c #F6F6F6",
":+	c #E8E6EA",
"<+	c #706B84",
"[+	c #E3E1E6",
"}+	c #474746",
"|+	c #151515",
"1+	c #C8C8C8",
"2+	c #AEAEAE",
"3+	c #080808",
"4+	c #1B1E00",
"5+	c #292D00",
"6+	c #2E3200",
"7+	c #373639",
"8+	c #FDFCFE",
"9+	c #ABA8B7",
"0+	c #F1F0F3",
"a+	c #6D6980",
"b+	c #0A090E",
"c+	c #95929E",
"d+	c #0A0810",
"e+	c #050505",
"f+	c #5B5A5C",
"g+	c #F7F6F7",
"h+	c #F4F3F5",
"i+	c #908C9F",
"j+	c #C8C6D0",
"k+	c #837E96",
"l+	c #86868A",
"m+	c #070608",
"n+	c #ECEBEE",
"o+	c #5B5571",
"p+	c #646078",
"q+	c #AFAFB0",
"r+	c #454545",
"s+	c #363636",
"t+	c #7A7A7A",
"u+	c #C8C8C9",
"v+	c #212025",
"w+	c #060607",
"x+	c #969699",
"y+	c #FAFAFA",
"z+	c #F8F8F9",
"A+	c #A29EAF",
"B+	c #F7F6F8",
"C+	c #F0F0F1",
"D+	c #B8B7B9",
"E+	c #E4E4E4",
"F+	c #FDFDFD",
"G+	c #A5A2B2",
"H+	c #3B3456",
"I+	c #A8A5B4",
"J+	c #525252",
"K+	c #848387",
"L+	c #CDCDCD",
"M+	c #8D899C",
"N+	c #494262",
"O+	c #68627C",
"P+	c #40395A",
"Q+	c #ECECEC",
"R+	c #020202",
"S+	c #B4B5B5",
"T+	c #0B0B0B",
"U+	c #313232",
"V+	c #E3E3E3",
"W+	c #B1AEBC",
"X+	c #BDBBC6",
"Y+	c #3C3556",
"Z+	c #898599",
"`+	c #EDEDED",
" @	c #39393A",
".@	c #040404",
"+@	c #333333",
"@@	c #F5F5F5",
"#@	c #2B2B2B",
"$@	c #2D2A3D",
"%@	c #B6B4C1",
"&@	c #F5F5F6",
"*@	c #605A76",
"=@	c #DAD8DF",
"-@	c #F5F4F6",
";@	c #615B76",
">@	c #524D6A",
",@	c #E4E3E8",
"'@	c #D5D5D5",
")@	c #1B1B1B",
"!@	c #303030",
"~@	c #AAABAB",
"{@	c #585464",
"]@	c #B0AEBB",
"^@	c #A29FAF",
"/@	c #E9E8E9",
"(@	c #787779",
"_@	c #0F0E15",
":@	c #2D2D2E",
"<@	c #595959",
"[@	c #FAFAFB",
"}@	c #807B92",
"|@	c #B0ADBB",
"1@	c #E8E7EB",
"2@	c #3A3258",
"3@	c #E6E5EA",
"4@	c #DFDEE3",
"5@	c #443E5E",
"6@	c #BAB8C4",
"7@	c #C1BFCA",
"8@	c #E0E0E5",
"9@	c #D0CED6",
"0@	c #362F52",
"a@	c #CECCD5",
"b@	c #413A5B",
"c@	c #6A657F",
"d@	c #9793A6",
"                                                                        ",
"                                                                        ",
"                                                                        ",
"                      .   + @ #     $ %                                 ",
"                & * = *   - ; > , ' ; ; ; ) !                           ",
"                ~ ; ; {   ] ; ^ / ( _ ; : < [                           ",
"                } | 1 2   3 4 5 6 6 7 : 8 9 0 a b                       ",
"          c : d e f g h i j k l 6 m ; n o 6 p q r s                     ",
"        t u ; v w 6 6 x y z A B 6 C ; D E 6 F G ; H                     ",
"      I J ; ; K L 6 6 M N O P E 6 6 6 6 6 M Q R S T U V                 ",
"    W X ; ; ; ; Y Z ` 6  .6 6 6 6 6 6 6 6 ..+.@.#.$.%.&.                ",
"    *.; ; ; ; ; ; = =.-.6 6 ;.>.,.'.,.>.;.6 E ).!.; ; ~.                ",
"    {.; ; ].Q h ^./.(.6 6 _.:.<.[.}.[.<.:._.6 E |.1.4 2.                ",
"  3.4.; 5. .6 6 6 6 6 6 ;.6.}.7.8.6 8.7.}.6.;.6 6 9.0.                  ",
"  U @ a.b.c.6 6 6 6 6 6 d.e.f.6 6 6 6 6 7.}.g.6 6                       ",
"    h.i.j.6 k.6 6 6 6 6 6 l.m.n.o.p.q.r.8.}.s.6 6 t.                    ",
"  u.; ; v.w.w.x.y.w.z.A.A.A.A.B.}.C.D.E.6 }.A.A.F.G.                    ",
"  H.; ; I.J.; ; ; K.6 6 6 6 6 6 q.D.L.M.8.}.N.O.6 P.                    ",
"  Q.; ; ; ; R.; ; S.6 6 T.e.U.6 r.E.V.W.7.}.X.6 6 6 Y.,                 ",
"  Z.; ; R.; : `. +.+6 6 ++}.}.7.8.6 8.7.}.}.++6 6 @+R.#+$+              ",
"  %+; ; ; &+*+=+6 6 6 6 -+;+}.}.}.}.}.}.}.;+-+6 6 >+; ; ,+'+            ",
"  )+J ; : !+6 6 6 6 ~+ .6 {+]+^+/+}./+^+]+{+6 6 6 (+_+; ; :+<+          ",
"    [+; ; }+6 E 6 |+1+2+3+6 -+4+5+6+5+4+-+6 6 6 6 6 7+8+; ; > <+        ",
"    9+; 0+a+b+6 6 2+R.; c+d+6 6 6 6 6 6 6 6 m e+6 6 6 f+g+; ; h+i+      ",
"    <+j+! k+l+m+x ; ; n+o+p+q+l r+6 6 6 s+t+u+v+6 6 6 w+x+y+; ; z+@     ",
"        A+B+C+D+E+F+; G+H+I+; _+r+6 6 E J+; ; K+6 6 E 6 o L+; ; = M+    ",
"      N+> ; ; ; ; ; ; O+P+; ; Q+x.6 6 R+D ; ; S+T+6 6 6 U+V+; ; W+      ",
"          > ; ; ; ; X+Y+Z+; ; `+ @6 6 .@+@; ; @@#@6 6 $@%@; &@3         ",
"          *@=@= ; -@;@>@,@; ; '@)@6 6 R+!@; ; ; ~@J+{@                  ",
"              ]@4 ^@  W ; ; ; /@(@!@_@:@<@; ; ; R.[@}@                  ",
"                      |@; ; ; ; ; 1@2@3@; ; ; ; = 4@5@                  ",
"                      6@7@8@4 ; ; 9@0@a@; ; ; s Z+S                     ",
"                          b@          c@d@Z+                            ",
"                                                                        ",
"                                                                        ",
"                                                                        "};
