/* XPM */
static char * SpiralIcon_xpm[] = {
"36 36 270 2",
"  	c None",
". 	c #8B889B",
"+ 	c #9C99AA",
"@ 	c #ADAAB9",
"# 	c #837F94",
"$ 	c #7D7990",
"% 	c #9995A7",
"& 	c #67627C",
"* 	c #CDCBD4",
"= 	c #FCFCFC",
"- 	c #D1D0D8",
"; 	c #FFFFFF",
"> 	c #F1F1F3",
", 	c #848095",
"' 	c #2A2248",
") 	c #CFCED6",
"! 	c #68637D",
"~ 	c #ABA8B6",
"{ 	c #D5D3DB",
"] 	c #9490A2",
"^ 	c #C4C4C4",
"/ 	c #1D1C1D",
"( 	c #313134",
"_ 	c #EEEFEE",
": 	c #FBFBFB",
"< 	c #EFEFEF",
"[ 	c #7B768D",
"} 	c #464060",
"| 	c #DEDEE1",
"1 	c #CBCACC",
"2 	c #EEEEF1",
"3 	c #79758C",
"4 	c #FBFBFC",
"5 	c #A2A2A2",
"6 	c #000000",
"7 	c #F5F6F5",
"8 	c #747474",
"9 	c #2A2A2B",
"0 	c #403958",
"a 	c #7D788F",
"b 	c #C0BEC8",
"c 	c #BCBAC6",
"d 	c #BCBAC5",
"e 	c #625C79",
"f 	c #2B2932",
"g 	c #191919",
"h 	c #CCCCCC",
"i 	c #807B91",
"j 	c #3B3556",
"k 	c #F2F2F4",
"l 	c #929292",
"m 	c #0E0E0E",
"n 	c #BFBFBF",
"o 	c #111111",
"p 	c #100E15",
"q 	c #868689",
"r 	c #FEFDFE",
"s 	c #D9D7DE",
"t 	c #9C98AA",
"u 	c #FDFCFD",
"v 	c #DDDDDD",
"w 	c #575755",
"x 	c #5E5E5E",
"y 	c #C4C2CD",
"z 	c #423C5C",
"A 	c #F0F0F2",
"B 	c #939393",
"C 	c #555555",
"D 	c #4A4A4A",
"E 	c #010101",
"F 	c #282828",
"G 	c #C2C2C2",
"H 	c #DBDAE0",
"I 	c #615C78",
"J 	c #F6F6F7",
"K 	c #DADADA",
"L 	c #545454",
"M 	c #0F0F0F",
"N 	c #B8B8B8",
"O 	c #48445C",
"P 	c #2B2B2C",
"Q 	c #D3D3D3",
"R 	c #C1BEC9",
"S 	c #474060",
"T 	c #31294D",
"U 	c #716C85",
"V 	c #65607A",
"W 	c #625D78",
"X 	c #D5D4DB",
"Y 	c #F7F7F7",
"Z 	c #8B8B8B",
"` 	c #161616",
" .	c #0C0C0C",
"..	c #060606",
"+.	c #393643",
"@.	c #47415F",
"#.	c #9692A4",
"$.	c #D9D8DE",
"%.	c #F7F7F8",
"&.	c #918DA0",
"*.	c #B8B5C1",
"=.	c #D1D1D1",
"-.	c #252525",
";.	c #727175",
">.	c #FEFEFF",
",.	c #9D99AA",
"'.	c #DBD9E0",
").	c #E9E9E9",
"!.	c #CBCBCB",
"~.	c #E0E0E0",
"{.	c #6C6C6C",
"].	c #515151",
"^.	c #A6A6A7",
"/.	c #827E93",
"(.	c #615C77",
"_.	c #EAEAED",
":.	c #DFDFE1",
"<.	c #F5FE00",
"[.	c #1E1D24",
"}.	c #9894A7",
"|.	c #B1AEBB",
"1.	c #69686F",
"2.	c #000001",
"3.	c #615C76",
"4.	c #5F5A75",
"5.	c #413E4D",
"6.	c #020203",
"7.	c #1A1A1C",
"8.	c #C3C1CB",
"9.	c #9D9D9D",
"0.	c #202020",
"a.	c #383838",
"b.	c #4C4C4C",
"c.	c #111112",
"d.	c #C9C7D0",
"e.	c #F1F1F1",
"f.	c #F8F8F8",
"g.	c #232323",
"h.	c #050408",
"i.	c #AEACB9",
"j.	c #FEFEFE",
"k.	c #1D1D1D",
"l.	c #B7B5C1",
"m.	c #9390A2",
"n.	c #BBBBBB",
"o.	c #414141",
"p.	c #030303",
"q.	c #28272A",
"r.	c #F4F4F6",
"s.	c #605B76",
"t.	c #736E86",
"u.	c #D8D8D8",
"v.	c #727272",
"w.	c #101010",
"x.	c #848486",
"y.	c #CCCBD3",
"z.	c #747087",
"A.	c #6D6881",
"B.	c #1C1C1C",
"C.	c #242424",
"D.	c #656566",
"E.	c #F6F6F6",
"F.	c #E8E6EA",
"G.	c #706B84",
"H.	c #E3E1E6",
"I.	c #474746",
"J.	c #151515",
"K.	c #C8C8C8",
"L.	c #AEAEAE",
"M.	c #080808",
"N.	c #373639",
"O.	c #FDFCFE",
"P.	c #ABA8B7",
"Q.	c #F1F0F3",
"R.	c #6D6980",
"S.	c #0A090E",
"T.	c #95929E",
"U.	c #0A0810",
"V.	c #050505",
"W.	c #5B5A5C",
"X.	c #F7F6F7",
"Y.	c #F4F3F5",
"Z.	c #908C9F",
"`.	c #C8C6D0",
" +	c #837E96",
".+	c #86868A",
"++	c #070608",
"@+	c #ECEBEE",
"#+	c #5B5571",
"$+	c #646078",
"%+	c #AFAFB0",
"&+	c #454545",
"*+	c #363636",
"=+	c #7A7A7A",
"-+	c #C8C8C9",
";+	c #212025",
">+	c #060607",
",+	c #969699",
"'+	c #FAFAFA",
")+	c #F8F8F9",
"!+	c #A29EAF",
"~+	c #F7F6F8",
"{+	c #F0F0F1",
"]+	c #B8B7B9",
"^+	c #E4E4E4",
"/+	c #FDFDFD",
"(+	c #A5A2B2",
"_+	c #3B3456",
":+	c #A8A5B4",
"<+	c #525252",
"[+	c #848387",
"}+	c #CDCDCD",
"|+	c #8D899C",
"1+	c #494262",
"2+	c #68627C",
"3+	c #40395A",
"4+	c #ECECEC",
"5+	c #020202",
"6+	c #B4B5B5",
"7+	c #0B0B0B",
"8+	c #313232",
"9+	c #E3E3E3",
"0+	c #B1AEBC",
"a+	c #BDBBC6",
"b+	c #3C3556",
"c+	c #898599",
"d+	c #EDEDED",
"e+	c #39393A",
"f+	c #040404",
"g+	c #333333",
"h+	c #F5F5F5",
"i+	c #2B2B2B",
"j+	c #2D2A3D",
"k+	c #B6B4C1",
"l+	c #F5F5F6",
"m+	c #605A76",
"n+	c #DAD8DF",
"o+	c #F5F4F6",
"p+	c #615B76",
"q+	c #524D6A",
"r+	c #E4E3E8",
"s+	c #D5D5D5",
"t+	c #1B1B1B",
"u+	c #303030",
"v+	c #AAABAB",
"w+	c #585464",
"x+	c #B0AEBB",
"y+	c #A29FAF",
"z+	c #E9E8E9",
"A+	c #787779",
"B+	c #0F0E15",
"C+	c #2D2D2E",
"D+	c #595959",
"E+	c #FAFAFB",
"F+	c #807B92",
"G+	c #B0ADBB",
"H+	c #E8E7EB",
"I+	c #3A3258",
"J+	c #E6E5EA",
"K+	c #DFDEE3",
"L+	c #443E5E",
"M+	c #BAB8C4",
"N+	c #C1BFCA",
"O+	c #E0E0E5",
"P+	c #D0CED6",
"Q+	c #362F52",
"R+	c #CECCD5",
"S+	c #413A5B",
"T+	c #6A657F",
"U+	c #9793A6",
"                                                                        ",
"                                                                        ",
"                                                                        ",
"                      .   + @ #     $ %                                 ",
"                & * = *   - ; > , ' ; ; ; ) !                           ",
"                ~ ; ; {   ] ; ^ / ( _ ; : < [                           ",
"                } | 1 2   3 4 5 6 6 7 : 8 9 0 a b                       ",
"          c : d e f g h i j k l 6 m ; n o 6 p q r s                     ",
"        t u ; v w 6 6 x y z A B 6 C ; D E 6 F G ; H                     ",
"      I J ; ; K L 6 6 M N O P E 6 6 6 6 6 M Q R S T U V                 ",
"    W X ; ; ; ; Y Z ` 6  .6 6 6 6 6 6 6 6 ..+.@.#.$.%.&.                ",
"    *.; ; ; ; ; ; = =.-.6 6 6 6 6 6 6 6 6 6 E ;.>.; ; ,.                ",
"    '.; ; ).Q h !.~.{.6 6 6 6 6 6 6 6 6 6 6 6 E ].^.4 /.                ",
"  (._.; :. .6 6 6 6 6 6 6 <.6 6 6 6 <.6 6 6 6 6 6 [.}.                  ",
"  U @ |.1.2.6 6 6 6 6 6 6 <.6 6 <.6 <.6 6 <.6 6 6                       ",
"    3.4.5.6 6.6 6 6 6 6 <.6 <.6 <.6 <.6 6 <.6 6 6 7.                    ",
"  8.; ; 9.0.0.a.b.0.6 6 <.6 <.6 <.<.6 <.6 <.<.6 6 c.                    ",
"  d.; ; e.f.; ; ; g.6 6 <.6 6 <.6 <.6 <.<.<.<.6 6 h.                    ",
"  i.; ; ; ; j.; ; k.6 6 <.6 6 <.6 <.6 6 <.6 <.6 6 6 l.,                 ",
"  m.; ; j.; : n.o.p.6 6 6 6 6 6 6 6 6 6 <.6 6 6 6 q.j.r.s.              ",
"  t.; ; ; u.v.w.6 6 6 6 6 6 6 6 6 6 6 6 6 6 6 6 6 x.; ; y.z.            ",
"  A.J ; : B.6 6 6 6 C. .6 6 6 6 6 6 6 6 6 6 6 6 6 D.E.; ; F.G.          ",
"    H.; ; I.6 E 6 J.K.L.M.6 6 6 6 6 6 6 6 6 6 6 6 6 N.O.; ; > G.        ",
"    P.; Q.R.S.6 6 L.j.; T.U.6 6 6 6 6 6 6 6 m V.6 6 6 W.X.; ; Y.Z.      ",
"    G.`.!  +.+++x ; ; @+#+$+%+l &+6 6 6 *+=+-+;+6 6 6 >+,+'+; ; )+@     ",
"        !+~+{+]+^+/+; (+_+:+; E.&+6 6 E <+; ; [+6 6 E 6 o }+; ; = |+    ",
"      1+> ; ; ; ; ; ; 2+3+; ; 4+a.6 6 5+D ; ; 6+7+6 6 6 8+9+; ; 0+      ",
"          > ; ; ; ; a+b+c+; ; d+e+6 6 f+g+; ; h+i+6 6 j+k+; l+3         ",
"          m+n+= ; o+p+q+r+; ; s+t+6 6 5+u+; ; ; v+<+w+                  ",
"              x+4 y+  W ; ; ; z+A+u+B+C+D+; ; ; j.E+F+                  ",
"                      G+; ; ; ; ; H+I+J+; ; ; ; = K+L+                  ",
"                      M+N+O+4 ; ; P+Q+R+; ; ; s c+S                     ",
"                          S+          T+U+c+                            ",
"                                                                        ",
"                                                                        ",
"                                                                        "};
