/* XPM */
static char * SpiralIcon_xpm[] = {
"36 36 316 2",
"  	c None",
". 	c #8B889B",
"+ 	c #9C99AA",
"@ 	c #ADAAB9",
"# 	c #837F94",
"$ 	c #7D7990",
"% 	c #9995A7",
"& 	c #67627C",
"* 	c #CDCBD4",
"= 	c #FCFCFC",
"- 	c #D1D0D8",
"; 	c #FFFFFF",
"> 	c #F1F1F3",
", 	c #848095",
"' 	c #2A2248",
") 	c #CFCED6",
"! 	c #68637D",
"~ 	c #ABA8B6",
"{ 	c #D5D3DB",
"] 	c #9490A2",
"^ 	c #C4C4C4",
"/ 	c #1D1C1D",
"( 	c #313134",
"_ 	c #EEEFEE",
": 	c #FBFBFB",
"< 	c #EFEFEF",
"[ 	c #7B768D",
"} 	c #464060",
"| 	c #DEDEE1",
"1 	c #CBCACC",
"2 	c #EEEEF1",
"3 	c #79758C",
"4 	c #FBFBFC",
"5 	c #A2A2A2",
"6 	c #000000",
"7 	c #F5F6F5",
"8 	c #747474",
"9 	c #2A2A2B",
"0 	c #403958",
"a 	c #7D788F",
"b 	c #C0BEC8",
"c 	c #BCBAC6",
"d 	c #BCBAC5",
"e 	c #625C79",
"f 	c #2B2932",
"g 	c #191919",
"h 	c #CCCCCC",
"i 	c #807B91",
"j 	c #3B3556",
"k 	c #F2F2F4",
"l 	c #929292",
"m 	c #0E0E0E",
"n 	c #BFBFBF",
"o 	c #111111",
"p 	c #100E15",
"q 	c #868689",
"r 	c #FEFDFE",
"s 	c #D9D7DE",
"t 	c #9C98AA",
"u 	c #FDFCFD",
"v 	c #DDDDDD",
"w 	c #575755",
"x 	c #5E5E5E",
"y 	c #C4C2CD",
"z 	c #423C5C",
"A 	c #F0F0F2",
"B 	c #939393",
"C 	c #555555",
"D 	c #4A4A4A",
"E 	c #010101",
"F 	c #282828",
"G 	c #C2C2C2",
"H 	c #DBDAE0",
"I 	c #615C78",
"J 	c #F6F6F7",
"K 	c #DADADA",
"L 	c #545454",
"M 	c #0F0F0F",
"N 	c #B8B8B8",
"O 	c #48445C",
"P 	c #2B2B2C",
"Q 	c #181900",
"R 	c #D3D3D3",
"S 	c #C1BEC9",
"T 	c #474060",
"U 	c #31294D",
"V 	c #716C85",
"W 	c #65607A",
"X 	c #625D78",
"Y 	c #D5D4DB",
"Z 	c #F7F7F7",
"` 	c #8B8B8B",
" .	c #161616",
"..	c #0C0C0C",
"+.	c #161800",
"@.	c #1A1B00",
"#.	c #060600",
"$.	c #191A00",
"%.	c #393643",
"&.	c #47415F",
"*.	c #9692A4",
"=.	c #D9D8DE",
"-.	c #F7F7F8",
";.	c #918DA0",
">.	c #B8B5C1",
",.	c #D1D1D1",
"'.	c #212121",
").	c #2D2F00",
"!.	c #111200",
"~.	c #0B0C00",
"{.	c #0F0F00",
"].	c #090A00",
"^.	c #040400",
"/.	c #727175",
"(.	c #FEFEFF",
"_.	c #9D99AA",
":.	c #DBD9E0",
"<.	c #E9E9E9",
"[.	c #CBCBCB",
"}.	c #E0E0E0",
"|.	c #6C6C6C",
"1.	c #050500",
"2.	c #050600",
"3.	c #F2FB00",
"4.	c #F6FF00",
"5.	c #E8F100",
"6.	c #515151",
"7.	c #A6A6A7",
"8.	c #827E93",
"9.	c #615C77",
"0.	c #EAEAED",
"a.	c #DFDFE1",
"b.	c #F5FE00",
"c.	c #F3FC00",
"d.	c #323400",
"e.	c #1E1D24",
"f.	c #9894A7",
"g.	c #B1AEBB",
"h.	c #69686F",
"i.	c #000001",
"j.	c #0A0A00",
"k.	c #171800",
"l.	c #000100",
"m.	c #020200",
"n.	c #666A00",
"o.	c #615C76",
"p.	c #5F5A75",
"q.	c #413E4D",
"r.	c #020203",
"s.	c #040500",
"t.	c #010200",
"u.	c #F4FD00",
"v.	c #8B9100",
"w.	c #1A1A1C",
"x.	c #C3C1CB",
"y.	c #9D9D9D",
"z.	c #202020",
"A.	c #383838",
"B.	c #4C4C4C",
"C.	c #161700",
"D.	c #2F3100",
"E.	c #121300",
"F.	c #111112",
"G.	c #C9C7D0",
"H.	c #F1F1F1",
"I.	c #F8F8F8",
"J.	c #232323",
"K.	c #010100",
"L.	c #141500",
"M.	c #A0A600",
"N.	c #EFF800",
"O.	c #B9C000",
"P.	c #050408",
"Q.	c #AEACB9",
"R.	c #FEFEFE",
"S.	c #1D1D1D",
"T.	c #1E1F00",
"U.	c #E3EB00",
"V.	c #D0D800",
"W.	c #B7B5C1",
"X.	c #9390A2",
"Y.	c #BBBBBB",
"Z.	c #414141",
"`.	c #030303",
" +	c #C4CC00",
".+	c #868B00",
"++	c #606400",
"@+	c #626600",
"#+	c #28272A",
"$+	c #F4F4F6",
"%+	c #605B76",
"&+	c #736E86",
"*+	c #D8D8D8",
"=+	c #727272",
"-+	c #101010",
";+	c #232500",
">+	c #737800",
",+	c #8C9200",
"'+	c #7E8300",
")+	c #848486",
"!+	c #CCCBD3",
"~+	c #747087",
"{+	c #6D6881",
"]+	c #1C1C1C",
"^+	c #242424",
"/+	c #656566",
"(+	c #F6F6F6",
"_+	c #E8E6EA",
":+	c #706B84",
"<+	c #E3E1E6",
"[+	c #474746",
"}+	c #151515",
"|+	c #C8C8C8",
"1+	c #AEAEAE",
"2+	c #080808",
"3+	c #373639",
"4+	c #FDFCFE",
"5+	c #ABA8B7",
"6+	c #F1F0F3",
"7+	c #6D6980",
"8+	c #0A090E",
"9+	c #95929E",
"0+	c #0A0810",
"a+	c #0D0D0D",
"b+	c #050505",
"c+	c #5B5A5C",
"d+	c #F7F6F7",
"e+	c #F4F3F5",
"f+	c #908C9F",
"g+	c #C8C6D0",
"h+	c #837E96",
"i+	c #86868A",
"j+	c #070608",
"k+	c #ECEBEE",
"l+	c #5B5571",
"m+	c #646078",
"n+	c #AFAFB0",
"o+	c #454545",
"p+	c #363636",
"q+	c #7A7A7A",
"r+	c #C8C8C9",
"s+	c #212025",
"t+	c #060607",
"u+	c #969699",
"v+	c #FAFAFA",
"w+	c #F8F8F9",
"x+	c #A29EAF",
"y+	c #F7F6F8",
"z+	c #F0F0F1",
"A+	c #B8B7B9",
"B+	c #E4E4E4",
"C+	c #FDFDFD",
"D+	c #A5A2B2",
"E+	c #3B3456",
"F+	c #A8A5B4",
"G+	c #525252",
"H+	c #848387",
"I+	c #CDCDCD",
"J+	c #8D899C",
"K+	c #494262",
"L+	c #68627C",
"M+	c #40395A",
"N+	c #ECECEC",
"O+	c #020202",
"P+	c #B4B5B5",
"Q+	c #0B0B0B",
"R+	c #313232",
"S+	c #E3E3E3",
"T+	c #B1AEBC",
"U+	c #BDBBC6",
"V+	c #3C3556",
"W+	c #898599",
"X+	c #EDEDED",
"Y+	c #39393A",
"Z+	c #040404",
"`+	c #333333",
" @	c #F5F5F5",
".@	c #2B2B2B",
"+@	c #2D2A3D",
"@@	c #B6B4C1",
"#@	c #F5F5F6",
"$@	c #605A76",
"%@	c #DAD8DF",
"&@	c #F5F4F6",
"*@	c #615B76",
"=@	c #524D6A",
"-@	c #E4E3E8",
";@	c #D5D5D5",
">@	c #1B1B1B",
",@	c #303030",
"'@	c #AAABAB",
")@	c #585464",
"!@	c #B0AEBB",
"~@	c #A29FAF",
"{@	c #E9E8E9",
"]@	c #787779",
"^@	c #0F0E15",
"/@	c #2D2D2E",
"(@	c #595959",
"_@	c #FAFAFB",
":@	c #807B92",
"<@	c #B0ADBB",
"[@	c #E8E7EB",
"}@	c #3A3258",
"|@	c #E6E5EA",
"1@	c #DFDEE3",
"2@	c #443E5E",
"3@	c #BAB8C4",
"4@	c #C1BFCA",
"5@	c #E0E0E5",
"6@	c #D0CED6",
"7@	c #362F52",
"8@	c #CECCD5",
"9@	c #413A5B",
"0@	c #6A657F",
"a@	c #9793A6",
"                                                                        ",
"                                                                        ",
"                                                                        ",
"                      .   + @ #     $ %                                 ",
"                & * = *   - ; > , ' ; ; ; ) !                           ",
"                ~ ; ; {   ] ; ^ / ( _ ; : < [                           ",
"                } | 1 2   3 4 5 6 6 7 : 8 9 0 a b                       ",
"          c : d e f g h i j k l 6 m ; n o 6 p q r s                     ",
"        t u ; v w 6 6 x y z A B 6 C ; D E 6 F G ; H                     ",
"      I J ; ; K L 6 6 M N O P E 6 6 6 Q Q M R S T U V W                 ",
"    X Y ; ; ; ; Z `  .6 ..6 6 6 6 6 +.@.#.$.%.&.*.=.-.;.                ",
"    >.; ; ; ; ; ; = ,.'.).!.~.{.].6 ^.6 6 6 E /.(.; ; _.                ",
"    :.; ; <.R h [.}.|.6 1.6 6 2.3.4.5.6 6 6 6 E 6.7.4 8.                ",
"  9.0.; a...6 6 6 6 6 6 6 6 6 b.c.d.4.6 6 6 6 6 6 e.f.                  ",
"  V @ g.h.i.6 6 6 6 6 j.k.6 l.4.m.6 b.n.6 6 6 6 6                       ",
"    o.p.q.6 r.6 6 6 6 6 s.6 t.4.6 6 u.v.6 1.6 6 6 w.                    ",
"  x.; ; y.z.z.A.B.z.6 6 C.6 D.4.6 6 u.v.6 E.6 6 6 F.                    ",
"  G.; ; H.I.; ; ; J.6 K.L.M.b.N.6 6 b.O.6 E.6 6 6 P.                    ",
"  Q.; ; ; ; R.; ; S.6 T.U.4.V.2.6 6 5.N.2.E.6 6 6 6 W.,                 ",
"  X.; ; R.; : Y.Z.`. +4.b..+6 6 6 6 ++u.4.b.u.3.@+#+R.$+%+              ",
"  &+; ; ; *+=+-+6 6 6 6 6 6 6 6 6 6 m.6 ;+>+,+'+Q )+; ; !+~+            ",
"  {+J ; : ]+6 6 6 6 ^+..6 6 6 6 6 6 j.6 6 K.6 6 6 /+(+; ; _+:+          ",
"    <+; ; [+6 E 6 }+|+1+2+6 6 6 6 6 6 6 6 K.6 6 6 6 3+4+; ; > :+        ",
"    5+; 6+7+8+6 6 1+R.; 9+0+6 6 6 6 6 6 6 6 a+b+6 6 6 c+d+; ; e+f+      ",
"    :+g+! h+i+j+x ; ; k+l+m+n+l o+6 6 6 p+q+r+s+6 6 6 t+u+v+; ; w+@     ",
"        x+y+z+A+B+C+; D+E+F+; (+o+6 6 E G+; ; H+6 6 E 6 o I+; ; = J+    ",
"      K+> ; ; ; ; ; ; L+M+; ; N+A.6 6 O+D ; ; P+Q+6 6 6 R+S+; ; T+      ",
"          > ; ; ; ; U+V+W+; ; X+Y+6 6 Z+`+; ;  @.@6 6 +@@@; #@3         ",
"          $@%@= ; &@*@=@-@; ; ;@>@6 6 O+,@; ; ; '@G+)@                  ",
"              !@4 ~@  X ; ; ; {@]@,@^@/@(@; ; ; R._@:@                  ",
"                      <@; ; ; ; ; [@}@|@; ; ; ; = 1@2@                  ",
"                      3@4@5@4 ; ; 6@7@8@; ; ; s W+T                     ",
"                          9@          0@a@W+                            ",
"                                                                        ",
"                                                                        ",
"                                                                        "};
