/* XPM */
static char * comment_xpm[] = {
"32 25 106 2",
"  	c None",
". 	c #313131",
"+ 	c #404040",
"@ 	c #474747",
"# 	c #484848",
"$ 	c #3F3F3F",
"% 	c #202020",
"& 	c #747474",
"* 	c #A6A6A6",
"= 	c #C6C6C6",
"- 	c #D4D4D4",
"; 	c #DCDCDC",
"> 	c #D3D3D3",
", 	c #C4C4C4",
"' 	c #A2A2A2",
") 	c #6C6C6C",
"! 	c #1A1A1A",
"~ 	c #3B3B3B",
"{ 	c #9D9D9D",
"] 	c #EFEFEF",
"^ 	c #FFFFFF",
"/ 	c #EAEAEA",
"( 	c #939393",
"_ 	c #373737",
": 	c #6A6A6A",
"< 	c #FEFEFE",
"[ 	c #CCCCCC",
"} 	c #5D5D5D",
"| 	c #7B7B7B",
"1 	c #FDFDFD",
"2 	c #FBFBFB",
"3 	c #6B6B6B",
"4 	c #686868",
"5 	c #EEEEEE",
"6 	c #E7E7E7",
"7 	c #595959",
"8 	c #242424",
"9 	c #EBEBEB",
"0 	c #DEDEDE",
"a 	c #181818",
"b 	c #7F7F7F",
"c 	c #BBBBBB",
"d 	c #AEAEAE",
"e 	c #3E3E3E",
"f 	c #CFCFCF",
"g 	c #343434",
"h 	c #414141",
"i 	c #C7C7C7",
"j 	c #323232",
"k 	c #C3C3C3",
"l 	c #B7B7B7",
"m 	c #9A9A9A",
"n 	c #888888",
"o 	c #434343",
"p 	c #F7F7F7",
"q 	c #F2F2F2",
"r 	c #303030",
"s 	c #9B9B9B",
"t 	c #FCFCFC",
"u 	c #F9F9F9",
"v 	c #2D2D2D",
"w 	c #ABABAB",
"x 	c #9E9E9E",
"y 	c #272727",
"z 	c #858585",
"A 	c #828282",
"B 	c #515151",
"C 	c #262626",
"D 	c #ACACAC",
"E 	c #F6F6F6",
"F 	c #A0A0A0",
"G 	c #1E1E1E",
"H 	c #909090",
"I 	c #F3F3F3",
"J 	c #F1F1F1",
"K 	c #7A7A7A",
"L 	c #676767",
"M 	c #F4F4F4",
"N 	c #CECECE",
"O 	c #5C5C5C",
"P 	c #464646",
"Q 	c #E0E0E0",
"R 	c #333333",
"S 	c #B5B5B5",
"T 	c #E6E6E6",
"U 	c #AFAFAF",
"V 	c #626262",
"W 	c #2C2C2C",
"X 	c #BABABA",
"Y 	c #2E2E2E",
"Z 	c #1D1D1D",
"` 	c #424242",
" .	c #606060",
"..	c #707070",
"+.	c #1C1C1C",
"@.	c #565656",
"#.	c #DBDBDB",
"$.	c #151515",
"%.	c #2A2A2A",
"&.	c #131313",
"*.	c #808080",
"=.	c #4F4F4F",
"-.	c #B1B1B1",
";.	c #2B2B2B",
">.	c #575757",
",.	c #3D3D3D",
"                                . + @ # $                       ",
"                          % & * = - ; ; > , ' ) !               ",
"                      ~ { ] ^ ^ ^ ^ ^ ^ ^ ^ ^ ^ / ( _           ",
"                    : - ^ ^ ^ ^ ^ ^ ^ ^ ^ ^ ^ ^ ^ < [ }         ",
"                  | 1 ^ ^ ^ ^ ^ ^ ^ ^ ^ ^ ^ ^ ^ ^ ^ ^ 2 3       ",
"                4 5 ^ ^ ^ ^ ^ ^ ^ ^ ^ ^ ^ ^ ^ ^ ^ ^ ^ ^ 6 7     ",
"              8 9 ^ ^ ^ ^ ^ ^ ^ ^ ^ ^ ^ ^ ^ ^ ^ ^ ^ ^ ^ ^ 0 a   ",
"              b ^ ^ ^ ^ ^ ^ ^ ^ ^ ^ ^ ^ ^ ^ ^ ^ ^ ^ ^ ^ ^ ^ 3   ",
"              c ^ ^ ^ ^ ^ ^ ^ ^ ^ ^ ^ ^ ^ ^ ^ ^ ^ ^ ^ ^ ^ ^ d   ",
"            e f ^ ^ ^ ^ ^ ^ ^ ^ ^ ^ ^ ^ ^ ^ ^ ^ ^ ^ ^ ^ ^ ^ , g ",
"            h > ^ ^ ^ ^ ^ ^ ^ ^ ^ ^ ^ ^ ^ ^ ^ ^ ^ ^ ^ ^ ^ ^ i _ ",
"            j k ^ ^ ^ ^ ^ ^ ^ ^ ^ ^ ^ ^ ^ ^ ^ ^ ^ ^ ^ ^ ^ ^ l   ",
"              m ^ ^ ^ ^ ^ ^ ^ ^ ^ ^ ^ ^ ^ ^ ^ ^ ^ ^ ^ ^ ^ ^ n   ",
"              o p ^ ^ ^ ^ ^ ^ ^ ^ ^ ^ ^ ^ ^ ^ ^ ^ ^ ^ ^ ^ q r   ",
"                s t ^ ^ ^ ^ ^ ^ ^ ^ ^ ^ ^ ^ ^ ^ ^ ^ ^ ^ u n     ",
"                v w < ^ ^ ^ ^ ^ ^ ^ ^ ^ ^ ^ ^ ^ ^ ^ ^ t x y     ",
"        } z A B   C D u ^ ^ ^ ^ ^ ^ ^ ^ ^ ^ ^ ^ ^ ^ E F G       ",
"      H I t t J K     L - E ^ ^ ^ ^ ^ ^ ^ ^ ^ ^ M N O           ",
"    P Q ^ ^ ^ ^ f ~     R 4 S 9 ^ ^ ^ ^ ^ ^ T U V W             ",
"    ~ N ^ ^ ^ ^ X Y           Z `  .....} e +.                  ",
"      @.#.< t f P                                               ",
"        $.Y %.&.                                                ",
"j *.=.                                                          ",
"b p -.;.                                                        ",
";.>.,.                                                          "};
