/* XPM */
static char * comment_xpm[] = {
"30 30 107 2",
"  	c None",
". 	c #606060",
"+ 	c #6F6F6F",
"@ 	c #767676",
"# 	c #747474",
"$ 	c #787878",
"% 	c #717171",
"& 	c #A1A1A1",
"* 	c #C5C5C5",
"= 	c #DCDCDC",
"- 	c #E5E5E5",
"; 	c #E9E9E9",
"> 	c #E8E8E8",
", 	c #E1E1E1",
"' 	c #D2D2D2",
") 	c #B6B6B6",
"! 	c #868686",
"~ 	c #7B7B7B",
"{ 	c #B5B5B5",
"] 	c #EDEDED",
"^ 	c #FEFEFE",
"/ 	c #FFFFFF",
"( 	c #F9F9F9",
"_ 	c #D7D7D7",
": 	c #949494",
"< 	c #6B6B6B",
"[ 	c #A6A6A6",
"} 	c #D9D9D9",
"| 	c #FAFAFA",
"1 	c #EFEFEF",
"2 	c #BEBEBE",
"3 	c #858585",
"4 	c #A2A2A2",
"5 	c #C4C4C4",
"6 	c #737373",
"7 	c #808080",
"8 	c #DDDDDD",
"9 	c #FDFDFD",
"0 	c #F8F8F8",
"a 	c #BABABA",
"b 	c #343434",
"c 	c #AEAEAE",
"d 	c #FCFCFC",
"e 	c #F7F7F7",
"f 	c #666666",
"g 	c #D6D6D6",
"h 	c #A9A9A9",
"i 	c #838383",
"j 	c #C8C8C8",
"k 	c #3F3F3F",
"l 	c #CECECE",
"m 	c #404040",
"n 	c #727272",
"o 	c #E2E2E2",
"p 	c #C1C1C1",
"q 	c #CACACA",
"r 	c #929292",
"s 	c #9D9D9D",
"t 	c #F6F6F6",
"u 	c #EAEAEA",
"v 	c #494949",
"w 	c #C0C0C0",
"x 	c #EEEEEE",
"y 	c #8B8B8B",
"z 	c #363636",
"A 	c #686868",
"B 	c #C6C6C6",
"C 	c #ECECEC",
"D 	c #989898",
"E 	c #3B3B3B",
"F 	c #959595",
"G 	c #818181",
"H 	c #3C3C3C",
"I 	c #7A7A7A",
"J 	c #F5F5F5",
"K 	c #AFAFAF",
"L 	c #3E3E3E",
"M 	c #8F8F8F",
"N 	c #B9B9B9",
"O 	c #DFDFDF",
"P 	c #FBFBFB",
"Q 	c #CFCFCF",
"R 	c #A5A5A5",
"S 	c #5D5D5D",
"T 	c #757575",
"U 	c #5E5E5E",
"V 	c #ABABAB",
"W 	c #ADADAD",
"X 	c #B4B4B4",
"Y 	c #A0A0A0",
"Z 	c #888888",
"` 	c #444444",
" .	c #565656",
"..	c #F2F2F2",
"+.	c #F4F4F4",
"@.	c #626262",
"#.	c #707070",
"$.	c #535353",
"%.	c #313131",
"&.	c #5F5F5F",
"*.	c #5C5C5C",
"=.	c #373737",
"-.	c #4F4F4F",
";.	c #6E6E6E",
">.	c #848484",
",.	c #2B2B2B",
"'.	c #575757",
"                                                            ",
"                                                            ",
"                                                            ",
"                                                            ",
"                              . + @ # $                     ",
"                        % & * = - ; > , ' ) ! @             ",
"                    ~ { ] ^ / / / / / / / / ( _ : <         ",
"                  [ } | / / / / / / / / / / / / 1 2 3       ",
"                4 - / / / / / / / / / / / / / / / ^ 5 6     ",
"              7 8 9 / / / / / / / / / / / / / / / / 0 a b   ",
"              c d / / / / / / / / / / / / / / / / / / e f   ",
"              g / / / / / / / / / / / / / / / / / / / / h   ",
"            i - / / / / / / / / / / / / / / / / / / / / j k ",
"            7 ; / / / / / / / / / / / / / / / / / / / / l m ",
"            n o / / / / / / / / / / / / / / / / / / / / p   ",
"              q / / / / / / / / / / / / / / / / / / / ^ r   ",
"              s t / / / / / / / / / / / / / / / / / ^ u v   ",
"              ! w 0 / / / / / / / / / / / / / / / / x y     ",
"              z A B e / / / / / / / / / / / / / ^ C D E     ",
"        F h D G H I 5 > | / / / / / / / / / 9 J g K L       ",
"      w ( 9 | j ~     M N O t / / / / / P ] Q R @           ",
"    S o / / / o T       U V r W a w 2 X Y D Z `             ",
"     .h ..^ +.X .             ` @.#.< $.%.                  ",
"      &.T Z $ *.                                            ",
"=.I -.                                                      ",
";.q >.,.                                                    ",
"` I '.                                                      ",
"                                                            ",
"                                                            ",
"                                                            "};
