/* XPM */
static char * comment_xpm[] = {
"15 15 22 1",
" 	c None",
".	c #000000",
"+	c #191919",
"@	c #3D3D3D",
"#	c #525252",
"$	c #343434",
"%	c #FFFFFF",
"&	c #FDFDFD",
"*	c #080808",
"=	c #E1E1E1",
"-	c #DBDBDB",
";	c #C0C0C0",
">	c #9A9A9A",
",	c #C8C8C8",
"'	c #555555",
")	c #9F9F9F",
"!	c #121212",
"~	c #1F1F1F",
"{	c #ECECEC",
"]	c #141414",
"^	c #020202",
"/	c #242424",
"               ",
"      .+@#..   ",
"     ..$%&*..  ",
"    ....=-.... ",
"    ....;>.... ",
"    ....,'.... ",
"    ....)!.... ",
"    .......... ",
"  . ....'~.... ",
" .......>{]..  ",
" ...  ..^/..   ",
"  ..           ",
"               ",
"  ..           ",
"               "};
