/* XPM */
static char * edit_xpm[] = {
"48 51 501 2",
"  	c None",
". 	c #0E0F16",
"+ 	c #191B28",
"@ 	c #232538",
"# 	c #2C2F47",
"$ 	c #323552",
"% 	c #36395A",
"& 	c #3C3F65",
"* 	c #3B3F66",
"= 	c #000000",
"- 	c #2E3045",
"; 	c #7C82BD",
"> 	c #8389C9",
", 	c #8389CC",
"' 	c #8188CD",
") 	c #7E85CC",
"! 	c #7C83CA",
"~ 	c #7980C9",
"{ 	c #767DC8",
"] 	c #6F76BF",
"^ 	c #5E65AA",
"/ 	c #2A306C",
"( 	c #2D2F45",
"_ 	c #868DCF",
": 	c #838ACE",
"< 	c #8087CD",
"[ 	c #7E85CB",
"} 	c #7B82CA",
"| 	c #787FC9",
"1 	c #757DC7",
"2 	c #727AC6",
"3 	c #615669",
"4 	c #8C5717",
"5 	c #333466",
"6 	c #1F2131",
"7 	c #7F85C7",
"8 	c #7E85CA",
"9 	c #7D84CB",
"0 	c #7A81CA",
"a 	c #777FC8",
"b 	c #757CC7",
"c 	c #7279C6",
"d 	c #6F76C5",
"e 	c #5C62A3",
"f 	c #936E5D",
"g 	c #BE7210",
"h 	c #462900",
"i 	c #111119",
"j 	c #6E5138",
"k 	c #564C59",
"l 	c #7981C9",
"m 	c #777EC8",
"n 	c #747BC7",
"o 	c #7178C5",
"p 	c #6E76C4",
"q 	c #6B73C3",
"r 	c #6970C2",
"s 	c #636BBE",
"t 	c #564966",
"u 	c #C37200",
"v 	c #8D5200",
"w 	c #C77400",
"x 	c #A76E2D",
"y 	c #555274",
"z 	c #737AC6",
"A 	c #7078C5",
"B 	c #6D75C4",
"C 	c #6B72C3",
"D 	c #6870C1",
"E 	c #5B62AD",
"F 	c #5259A1",
"G 	c #2E346F",
"H 	c #0A0600",
"I 	c #A66100",
"J 	c #E28300",
"K 	c #5F3700",
"L 	c #696FB0",
"M 	c #6F77C5",
"N 	c #6D74C3",
"O 	c #6A72C2",
"P 	c #676FC1",
"Q 	c #646CC0",
"R 	c #584C60",
"S 	c #A76920",
"T 	c #403A5D",
"U 	c #754400",
"V 	c #DA7F00",
"W 	c #E48500",
"X 	c #DE8100",
"Y 	c #5A5F9A",
"Z 	c #6F76C4",
"` 	c #6C74C3",
" .	c #6971C2",
"..	c #666EC1",
"+.	c #646CBF",
"@.	c #6169BE",
"#.	c #535AA6",
"$.	c #786376",
"%.	c #C57715",
"&.	c #613900",
"*.	c #020100",
"=.	c #D77D00",
"-.	c #CE7800",
";.	c #4B5084",
">.	c #6870C2",
",.	c #666EC0",
"'.	c #636BBF",
").	c #6068BE",
"!.	c #5D65BC",
"~.	c #5B63BB",
"{.	c #575FB8",
"].	c #3F3E71",
"^.	c #935600",
"/.	c #B76A00",
"(.	c #281700",
"_.	c #C47200",
":.	c #DD8100",
"<.	c #3E426F",
"[.	c #686FC1",
"}.	c #656DC0",
"|.	c #626ABF",
"1.	c #5F67BD",
"2.	c #5A62BB",
"3.	c #575FB9",
"4.	c #535CB7",
"5.	c #303670",
"6.	c #512F00",
"7.	c #D07900",
"8.	c #8E5200",
"9.	c #E08300",
"0.	c #161723",
"a.	c #1A1C2A",
"b.	c #0F1019",
"c.	c #040407",
"d.	c #31355B",
"e.	c #5C64BC",
"f.	c #5961BA",
"g.	c #565FB9",
"h.	c #535CB8",
"i.	c #5059B6",
"j.	c #30366E",
"k.	c #190F00",
"l.	c #B66A00",
"m.	c #D67D00",
"n.	c #AE7942",
"o.	c #5A5C88",
"p.	c #6F76BC",
"q.	c #666DB1",
"r.	c #555A95",
"s.	c #414677",
"t.	c #070711",
"u.	c #1F223B",
"v.	c #585FA9",
"w.	c #5C64B5",
"x.	c #5C64B8",
"y.	c #5861BA",
"z.	c #555EB9",
"A.	c #535BB8",
"B.	c #5058B6",
"C.	c #4D56B5",
"D.	c #30366C",
"E.	c #7C4800",
"F.	c #A45F00",
"G.	c #805524",
"H.	c #5C3808",
"I.	c #777EC6",
"J.	c #767EC8",
"K.	c #7179C6",
"L.	c #6D74C1",
"M.	c #493013",
"N.	c #535283",
"O.	c #262B60",
"P.	c #111321",
"Q.	c #1D2038",
"R.	c #1F233E",
"S.	c #25294B",
"T.	c #2A2E56",
"U.	c #303667",
"V.	c #353B72",
"W.	c #3A4182",
"X.	c #3D458D",
"Y.	c #2F3569",
"Z.	c #C57300",
"`.	c #CD7700",
" +	c #41456C",
".+	c #777EC7",
"++	c #6E75C4",
"@+	c #6A71C0",
"#+	c #7F5E4E",
"$+	c #A5785E",
"%+	c #2B306C",
"&+	c #010101",
"*+	c #010103",
"=+	c #D87E00",
"-+	c #876655",
";+	c #6066A3",
">+	c #696EBA",
",+	c #CC8127",
"'+	c #3B3B71",
")+	c #965D14",
"!+	c #412601",
"~+	c #6C73C0",
"{+	c #6C73C3",
"]+	c #9A756C",
"^+	c #81593F",
"/+	c #3B3F68",
"(+	c #535996",
"_+	c #5E66BD",
":+	c #6065B4",
"<+	c #C77918",
"[+	c #060300",
"}+	c #473F50",
"|+	c #564547",
"1+	c #666EBF",
"2+	c #626ABE",
"3+	c #5760BA",
"4+	c #986D58",
"5+	c #6E4000",
"6+	c #BE761D",
"7+	c #462F16",
"8+	c #626ABC",
"9+	c #5B64BC",
"0+	c #545CB8",
"a+	c #51529A",
"b+	c #C97608",
"c+	c #080500",
"d+	c #060608",
"e+	c #09090D",
"f+	c #0F0F16",
"g+	c #161722",
"h+	c #1D1E2C",
"i+	c #242637",
"j+	c #292B3F",
"k+	c #242638",
"l+	c #D97E00",
"m+	c #31355F",
"n+	c #6068BD",
"o+	c #5A63BB",
"p+	c #5860BA",
"q+	c #535BB7",
"r+	c #464EA3",
"s+	c #86551F",
"t+	c #6B3F00",
"u+	c #E38400",
"v+	c #787EB3",
"w+	c #868DC9",
"x+	c #8990CF",
"y+	c #8A91D1",
"z+	c #8990D1",
"A+	c #888FD0",
"B+	c #878ED0",
"C+	c #6E75B4",
"D+	c #1D1F41",
"E+	c #965700",
"F+	c #D47B00",
"G+	c #121424",
"H+	c #3C4276",
"I+	c #464D8D",
"J+	c #474E91",
"K+	c #474F96",
"L+	c #474F98",
"M+	c #474F9B",
"N+	c #464E9E",
"O+	c #464EA0",
"P+	c #424A99",
"Q+	c #29222C",
"R+	c #BE6F00",
"S+	c #202233",
"T+	c #181927",
"U+	c #06060A",
"V+	c #D37B00",
"W+	c #DC8000",
"X+	c #BB6D01",
"Y+	c #B68049",
"Z+	c #534C5A",
"`+	c #858CCF",
" @	c #848BCE",
".@	c #67658A",
"+@	c #A9826E",
"@@	c #C17515",
"#@	c #A86200",
"$@	c #050509",
"%@	c #040509",
"&@	c #06060C",
"*@	c #070810",
"=@	c #090A14",
"-@	c #0D0E1D",
";@	c #0D0F1E",
">@	c #05060C",
",@	c #8A5205",
"'@	c #9A828D",
")@	c #7178C3",
"!@	c #686FB7",
"~@	c #6066AA",
"{@	c #565C9C",
"]@	c #4D528C",
"^@	c #242744",
"/@	c #CC7700",
"(@	c #0D0A0A",
"_@	c #7E748B",
":@	c #444258",
"<@	c #8289CD",
"[@	c #6F4611",
"}@	c #8B6758",
"|@	c #2E2F60",
"1@	c #41383F",
"2@	c #AB6811",
"3@	c #6168A8",
"4@	c #676EBE",
"5@	c #4D424F",
"6@	c #76627E",
"7@	c #563922",
"8@	c #B46900",
"9@	c #C67300",
"0@	c #D17900",
"a@	c #D17A00",
"b@	c #B76C04",
"c@	c #996833",
"d@	c #44476A",
"e@	c #8087CC",
"f@	c #7F86CC",
"g@	c #696FAC",
"h@	c #626ABB",
"i@	c #262B61",
"j@	c #3E426B",
"k@	c #4C4968",
"l@	c #676EB5",
"m@	c #646BBD",
"n@	c #574750",
"o@	c #83656A",
"p@	c #684219",
"q@	c #9E5C00",
"r@	c #141520",
"s@	c #6C6A90",
"t@	c #575C8C",
"u@	c #5F649C",
"v@	c #59402C",
"w@	c #947577",
"x@	c #6D4B37",
"y@	c #6B3E00",
"z@	c #784600",
"A@	c #8A5000",
"B@	c #9D5B00",
"C@	c #AB6300",
"D@	c #AB6400",
"E@	c #A05D00",
"F@	c #895000",
"G@	c #834C00",
"H@	c #7F4A00",
"I@	c #7E4900",
"J@	c #7D4800",
"K@	c #7B4800",
"L@	c #7A4700",
"M@	c #724200",
"N@	c #78563A",
"O@	c #433C4F",
"P@	c #4D55AF",
"Q@	c #0E0F20",
"R@	c #1E1F2F",
"S@	c #7C83CB",
"T@	c #595F96",
"U@	c #655662",
"V@	c #806D8B",
"W@	c #523C38",
"X@	c #492B00",
"Y@	c #563200",
"Z@	c #683D00",
"`@	c #774500",
" #	c #5A3400",
".#	c #66504C",
"+#	c #343043",
"@#	c #6970C1",
"##	c #4A53AB",
"$#	c #0B0C1A",
"%#	c #23253A",
"&#	c #1C2046",
"*#	c #525897",
"=#	c #6169B5",
"-#	c #5E66BC",
";#	c #5962BB",
">#	c #4851A7",
",#	c #070811",
"'#	c #2B2E48",
")#	c #555DB7",
"!#	c #171A3A",
"~#	c #5B3500",
"{#	c #9A6C46",
"]#	c #5A3505",
"^#	c #6169BD",
"/#	c #565EB9",
"(#	c #060710",
"_#	c #2F3250",
":#	c #7077C5",
"<#	c #515AB3",
"[#	c #151834",
"}#	c #CA7500",
"|#	c #8B5101",
"1#	c #786577",
"2#	c #343456",
"3#	c #555DB8",
"4#	c #444C9E",
"5#	c #06070E",
"6#	c #34385A",
"7#	c #7179C5",
"8#	c #4E56AF",
"9#	c #111327",
"0#	c #DF8200",
"a#	c #DB7F00",
"b#	c #C87400",
"c#	c #010102",
"d#	c #5259A2",
"e#	c #5C64B9",
"f#	c #5B64BB",
"g#	c #515AB7",
"h#	c #4F58B6",
"i#	c #414998",
"j#	c #030307",
"k#	c #383C62",
"l#	c #6A71C2",
"m#	c #0D0E1F",
"n#	c #E18300",
"o#	c #080910",
"p#	c #20233F",
"q#	c #282C52",
"r#	c #313767",
"s#	c #3B417C",
"t#	c #424990",
"u#	c #474E9D",
"v#	c #4850A3",
"w#	c #4850A9",
"x#	c #3F4691",
"y#	c #020204",
"z#	c #3C406C",
"A#	c #676EC1",
"B#	c #5F66B3",
"C#	c #5F66B5",
"D#	c #4850A6",
"E#	c #241A16",
"F#	c #653B00",
"G#	c #AF6600",
"H#	c #05060B",
"I#	c #0C0D1A",
"J#	c #13152A",
"K#	c #181B38",
"L#	c #2E2B41",
"M#	c #9F631A",
"N#	c #C07928",
"O#	c #995A03",
"P#	c #734300",
"Q#	c #3C2300",
"R#	c #464B83",
"S#	c #3F4273",
"T#	c #5A5171",
"U#	c #424A9C",
"V#	c #030408",
"W#	c #4A508E",
"X#	c #5C65BC",
"Y#	c #3D4590",
"Z#	c #4E559A",
"`#	c #5760B9",
" $	c #3B4289",
".$	c #5259A4",
"+$	c #545CB6",
"@$	c #373D7E",
"#$	c #555DAF",
"$$	c #545DB8",
"%$	c #5058B2",
"&$	c #323872",
"*$	c #05050A",
"=$	c #555DB4",
"-$	c #525BB7",
";$	c #4C54AE",
">$	c #2F356B",
",$	c #0A0B15",
"'$	c #525AB7",
")$	c #4E57B5",
"!$	c #4951AA",
"~$	c #2B305F",
"{$	c #101123",
"]$	c #5159B7",
"^$	c #4F57B6",
"/$	c #4C55B5",
"($	c #4B54B4",
"_$	c #4A53B4",
":$	c #464EA5",
"<$	c #282D58",
"[$	c #1D203E",
"}$	c #3C427A",
"|$	c #3F4683",
"1$	c #404789",
"2$	c #41488E",
"3$	c #424993",
"4$	c #424A98",
"5$	c #404895",
"6$	c #24294F",
"7$	c #030306",
"8$	c #0C0D19",
"9$	c #101222",
"0$	c #131527",
"a$	c #171A31",
"b$	c #0E101E",
"                                                                                                ",
"                                                                                                ",
"            . + @ # $ % & * =                                                                   ",
"      - ; > , ' ) ! ~ { ] ^ /                                                                   ",
"      ( _ : < [ } | 1 2 3 4 5                                                                   ",
"      6 7 8 9 0 a b c d e f g h                                                                 ",
"      i j k l m n o p q r s t u v                                                               ",
"      w x y { z A B C D E F G H I w                                                             ",
"    J K L b 2 M N O P Q R S T = = U V                                                           ",
"W X     Y c Z `  ...+.@.#.$.%.&.*.    =.-.                                                      ",
"        ;.p q >.,.'.).!.~.{.].^./.(.    _.:.                                                    ",
"        <.O [.}.|.1.!.2.3.4.5.= 6.7.8.      9.  0.@ a.b.c.                                      ",
"        d.P Q @.1.e.f.g.h.i.j.= = k.l.-.      m.n.o.! 0 m p.q.r.s.t.                            ",
"        u.v.w.x.~.y.z.A.B.C.D.= = =   E.V F.    G.H.I.J.n K.L.M.N.O.                            ",
"          P.Q.R.S.T.U.V.W.X.Y.= =         Z.`.   +.+1 z A ++@+#+$+%+                            ",
"            = = = = = = = &+*+= =             =+-+;+c M N O P >+,+'+=                           ",
"              = = = = = = = = =                 )+!+~+{+ ...+.@.]+^+=                           ",
"                  = = = = = =                   /+(+O D }.'.)._+:+<+[+=                         ",
"                                                }+|+1+Q 2+1.!.2.3+4+5+=                         ",
"                                              -.6+7+8+@._+9+f.g.0+a+b+c+                        ",
"                  d+e+f+g+h+i+j+k+        J l+  m+|.n+!.o+p+z.q+i.r+s+t+                        ",
"W u+X           v+w+x+y+z+A+B+_ C+D+E+9.F+      G+H+I+J+K+L+M+N+O+P+Q+R+S+T+b.U+                ",
"        V+W+X X+Y+Z+A+B+_ `+ @.@+@@@#@            = $@%@&@&@*@=@-@;@>@,@'@m b )@!@~@{@]@^@      ",
"l+/@          (@_@:@`+ @: <@' [@}@|@=               = = = = = = = = = 1@2@3@K.M B q 4@5@6@7@    ",
"      8@9@0@a@b@c@d@<@' e@f@[ g@h@i@= =               = = = = = = = = j@k@l@++` O D m@n@o@p@v q@",
"              r@s@t@f@[ 9 ! u@v@w@x@y@z@A@B@C@  D@E@^.F@G@H@I@J@K@L@M@N@O@` O >...Q |.).P@Q@    ",
"              R@) 9 S@} 0 ~ T@U@V@W@X@Y@Z@                      `@M@ #.#+#@#P }.'.@.1.!.##$#=   ",
"              %#} 0 ~ | m { b n y.&#= =                             = *#=#,.+.2+n+-#9+;#>#,#=   ",
"              '#| m { b n z c o )#!#= =                             ~#{#]#^#)._+e.2.p+/#r+(#=   ",
"              _#1 n z c o :#Z ++<#[#= =                       }#l+F+|#1#2#1.!.~.f.3.3#q+4#5#=   ",
"              6#2 7#:#Z ++N {+C 8#9#= =               F+0#a#b#      c#d#e#f#2.3+z.h.g#h#i#j#=   ",
"              k#M p B {+C l#r [.##m#= =       l+n#X /@                o#p#q#r#s#t#u#v#w#x#y#=   ",
"              z#` q O  .D A#B#C#D#E#F#G#7.a@_.                          = = = = c#H#I#J#K#= =   ",
"              s. .D P ,.}.+.L#M#N#O#P#Q#                                  = = = = = = = = = =   ",
"              R#,.}.+.'.2+@.S#T#U#V#= =                                       = = = = = = =     ",
"              W#'.2+@.n+1.-#X#~.Y#*+= =                                                         ",
"              Z#).1._+!.e.o+;#`# $= = =                                                         ",
"              .$!.e.~.2.f.3+g.+$@$= =                                                           ",
"            c##$2.f.p+3.z.$$h.%$&$= =                                                           ",
"            *$=$3./#3#0+-$g#i.;$>$= =                                                           ",
"            ,$3#0+q+'$i.h#)$C.!$~$= =                                                           ",
"            {$'$]$B.^$C./$($_$:$<$= =                                                           ",
"            *$[$}$|$1$2$3$4$U#5$6$= =                                                           ",
"                y#7$&@,$8$9$0$a$b$= =                                                           ",
"                  = = = = = = = = =                                                             ",
"                    = = = = = = = =                                                             ",
"                                                                                                ",
"                                                                                                ",
"                                                                                                ",
"                                                                                                ",
"                                                                                                "};
