/* XPM */
static const char * load_xpm[] = {
"30 30 384 2",
"  	c None",
". 	c #E58500",
"+ 	c #E88700",
"@ 	c #E28400",
"# 	c #E78600",
"$ 	c #E68600",
"% 	c #DC8000",
"& 	c #3E2400",
"* 	c #DB7F00",
"= 	c #E48500",
"- 	c #D17A00",
"; 	c #2D1A00",
"> 	c #4E516A",
", 	c #5C5F80",
"' 	c #545664",
") 	c #A56408",
"! 	c #C57300",
"~ 	c #231605",
"{ 	c #747AA8",
"] 	c #7379B0",
"^ 	c #CED0E7",
"/ 	c #E7E7E8",
"( 	c #DBDBDB",
"_ 	c #D1D1D1",
": 	c #C7C7C7",
"< 	c #B6B6B6",
"[ 	c #979591",
"} 	c #A97329",
"| 	c #BA6F0B",
"1 	c #383546",
"2 	c #313458",
"3 	c #999FD3",
"4 	c #969CD0",
"5 	c #D4D6E7",
"6 	c #DCDCDC",
"7 	c #D6D6D6",
"8 	c #D4D3D2",
"9 	c #CFAD7B",
"0 	c #E68805",
"a 	c #E08200",
"b 	c #AF6A11",
"c 	c #3C3E61",
"d 	c #333968",
"e 	c #525571",
"f 	c #9EA4DB",
"g 	c #9BA2DA",
"h 	c #DCDEE7",
"i 	c #E4E4E4",
"j 	c #D4D4D4",
"k 	c #CBCBCB",
"l 	c #C6B398",
"m 	c #E18A11",
"n 	c #633E0A",
"o 	c #86530B",
"p 	c #E18401",
"q 	c #A66718",
"r 	c #3E426A",
"s 	c #282D56",
"t 	c #000000",
"u 	c #7E83AF",
"v 	c #9BA1D9",
"w 	c #9AA0D9",
"x 	c #E4E5E6",
"y 	c #CDCDCD",
"z 	c #C9C9C9",
"A 	c #C3BAAE",
"B 	c #DE9229",
"C 	c #E78700",
"D 	c #985D0B",
"E 	c #292929",
"F 	c #3A3939",
"G 	c #765228",
"H 	c #8F5F29",
"I 	c #424673",
"J 	c #1F2243",
"K 	c #70749E",
"L 	c #989ED8",
"M 	c #A3A8D9",
"N 	c #DDDDDD",
"O 	c #CACACA",
"P 	c #C4C1BE",
"Q 	c #DB9E4A",
"R 	c #C27306",
"S 	c #37322B",
"T 	c #525252",
"U 	c #727272",
"V 	c #4A4E72",
"W 	c #444873",
"X 	c #4A5087",
"Y 	c #181A35",
"Z 	c #8287B9",
"` 	c #959BD7",
" .	c #AEB2DA",
"..	c #E0E0E0",
"+.	c #D5D4D4",
"@.	c #D8AC6E",
"#.	c #E78805",
"$.	c #D77E02",
"%.	c #4F3A1E",
"&.	c #4A4A4A",
"*.	c #7A7A7A",
"=.	c #9A9AA0",
"-.	c #646AA3",
";.	c #5B619F",
">.	c #545B9E",
",.	c #111328",
"'.	c #9197D2",
").	c #9298D5",
"!.	c #B9BDDA",
"~.	c #CFCFCF",
"{.	c #C1C1C1",
"].	c #C5AA83",
"^.	c #E48B0E",
"/.	c #E28401",
"(.	c #784E14",
"_.	c #444343",
":.	c #777777",
"<.	c #A2A2A2",
"[.	c #A8AAB8",
"}.	c #7076BC",
"|.	c #686FB9",
"1.	c #575EA7",
"2.	c #0C0E1F",
"3.	c #5B5F84",
"4.	c #9198D5",
"5.	c #9097D4",
"6.	c #C4C6DA",
"7.	c #CCCCCC",
"8.	c #C6BFB5",
"9.	c #E29121",
"0.	c #A3640C",
"a.	c #3C3934",
"b.	c #606060",
"c.	c #8B8B8B",
"d.	c #ACACAC",
"e.	c #A6A8BF",
"f.	c #7077C3",
"g.	c #6A72C2",
"h.	c #5159A1",
"i.	c #0A0B18",
"j.	c #777DB0",
"k.	c #8E95D3",
"l.	c #8F95D3",
"m.	c #CFD0D9",
"n.	c #CECECE",
"o.	c #BEBBB8",
"p.	c #BD965F",
"q.	c #DA850D",
"r.	c #C47406",
"s.	c #463927",
"t.	c #555555",
"u.	c #888888",
"v.	c #AFAFAF",
"w.	c #BCBCBC",
"x.	c #9DA0C0",
"y.	c #6C73C3",
"z.	c #6970C2",
"A.	c #495196",
"B.	c #070812",
"C.	c #7379AC",
"D.	c #8B92D2",
"E.	c #8D94D1",
"F.	c #CFD0D7",
"G.	c #D2D2D3",
"H.	c #C2C2C2",
"I.	c #9B9B9B",
"J.	c #847055",
"K.	c #B37319",
"L.	c #6B4E26",
"M.	c #4D4D4D",
"N.	c #9C9C9C",
"O.	c #A7A7A7",
"P.	c #9296BF",
"Q.	c #6870C2",
"R.	c #666EC1",
"S.	c #41488B",
"T.	c #05060D",
"U.	c #8288C5",
"V.	c #888FD1",
"W.	c #868DD0",
"X.	c #9399D0",
"Y.	c #9CA1CE",
"Z.	c #A2A5C5",
"`.	c #9A9CAD",
" +	c #7E7E86",
".+	c #646364",
"++	c #61605F",
"@+	c #9F9F9F",
"#+	c #B4B4B4",
"$+	c #BBBBBB",
"%+	c #BABABA",
"&+	c #868BBE",
"*+	c #656DC0",
"=+	c #636BBF",
"-+	c #3A4180",
";+	c #020306",
">+	c #484C6E",
",+	c #878ED0",
"'+	c #858CCF",
")+	c #838ACE",
"!+	c #7E85C8",
"~+	c #787FBE",
"{+	c #777EC0",
"]+	c #7278BA",
"^+	c #6A70AB",
"/+	c #656999",
"(+	c #6A6D95",
"_+	c #8184A2",
":+	c #9FA0B3",
"<+	c #B1B2BA",
"[+	c #B6B6BA",
"}+	c #B5B5B7",
"|+	c #797FBD",
"1+	c #626ABF",
"2+	c #6068BE",
"3+	c #333974",
"4+	c #000001",
"5+	c #6C72A8",
"6+	c #848BCF",
"7+	c #8289CE",
"8+	c #7B82C5",
"9+	c #6C6F87",
"0+	c #707177",
"a+	c #71748F",
"b+	c #747790",
"c+	c #737695",
"d+	c #6E739C",
"e+	c #696FA8",
"f+	c #686FB6",
"g+	c #6970BE",
"h+	c #6C74C0",
"i+	c #787EBF",
"j+	c #7E84BC",
"k+	c #646CBE",
"l+	c #5F67BE",
"m+	c #5C64BC",
"n+	c #2B3166",
"o+	c #6B71A8",
"p+	c #7F86CD",
"q+	c #7277A7",
"r+	c #787878",
"s+	c #777882",
"t+	c #757DC5",
"u+	c #747BC4",
"v+	c #797CA5",
"w+	c #828282",
"x+	c #848484",
"y+	c #838489",
"z+	c #7D7F94",
"A+	c #6E729C",
"B+	c #5C63AF",
"C+	c #5B62B2",
"D+	c #5D65BA",
"E+	c #5860B9",
"F+	c #262A59",
"G+	c #7E86CC",
"H+	c #7A81C8",
"I+	c #70738F",
"J+	c #7D7D7D",
"K+	c #767997",
"L+	c #737AC6",
"M+	c #7078C6",
"N+	c #7D80A1",
"O+	c #8A8A8A",
"P+	c #8D8D8D",
"Q+	c #8F8F8F",
"R+	c #8F8F91",
"S+	c #686DA7",
"T+	c #5D65BC",
"U+	c #555CAD",
"V+	c #5860B8",
"W+	c #545CB6",
"X+	c #1F234C",
"Y+	c #474B72",
"Z+	c #7D84CB",
"`+	c #7B83CB",
" @	c #777EC3",
".@	c #757684",
"+@	c #818181",
"@@	c #7176A9",
"#@	c #7077C5",
"$@	c #6E75C3",
"%@	c #858697",
"&@	c #919191",
"*@	c #939393",
"=@	c #949495",
"-@	c #686DA5",
";@	c #5B63BC",
">@	c #555DB2",
",@	c #545DB5",
"'@	c #5058B3",
")@	c #1B1E41",
"!@	c #4D527F",
"~@	c #7B82CA",
"{@	c #7880C9",
"]@	c #7076B5",
"^@	c #818184",
"/@	c #828283",
"(@	c #6D74BC",
"_@	c #6D74C4",
":@	c #8B8C95",
"<@	c #969696",
"[@	c #989898",
"}@	c #97979A",
"|@	c #5E64A9",
"1@	c #5860BA",
"2@	c #525AAF",
"3@	c #525AB6",
"4@	c #4C55B0",
"5@	c #161936",
"6@	c #6167A9",
"7@	c #6E75C1",
"8@	c #6A6FA1",
"9@	c #7B7D8D",
"0@	c #6C74C3",
"a@	c #6A71C3",
"b@	c #747AB4",
"c@	c #929295",
"d@	c #9A9A9A",
"e@	c #939499",
"f@	c #575EB3",
"g@	c #555DB9",
"h@	c #4F57AE",
"i@	c #4F58B4",
"j@	c #4952AE",
"k@	c #11142B",
"l@	c #15182F",
"m@	c #1F2343",
"n@	c #35374B",
"o@	c #707071",
"p@	c #7A7B88",
"q@	c #767BAB",
"r@	c #7177B7",
"s@	c #8084AA",
"t@	c #A1A1A1",
"u@	c #888A9A",
"v@	c #545CB8",
"w@	c #525AB7",
"x@	c #4D55AD",
"y@	c #4C55B3",
"z@	c #464FAA",
"A@	c #0E0F22",
"B@	c #020202",
"C@	c #101010",
"D@	c #1B1B1C",
"E@	c #353537",
"F@	c #525359",
"G@	c #6D6E75",
"H@	c #868789",
"I@	c #969798",
"J@	c #9E9E9F",
"K@	c #A3A3A3",
"L@	c #A5A5A5",
"M@	c #7B7E9F",
"N@	c #515AB7",
"O@	c #4F57B6",
"P@	c #4A52AA",
"Q@	c #4A53B3",
"R@	c #424AA5",
"S@	c #0B0D1D",
"T@	c #080809",
"U@	c #171718",
"V@	c #2E2E32",
"W@	c #4E4E52",
"X@	c #707075",
"Y@	c #88888D",
"Z@	c #62658C",
"`@	c #484FA5",
" #	c #4B53B1",
".#	c #474FA8",
"+#	c #4750B3",
"@#	c #3D469E",
"##	c #0A0B19",
"$#	c #030304",
"%#	c #111113",
"&#	c #131318",
"*#	c #0D0E1F",
"=#	c #1D2044",
"-#	c #343A7F",
";#	c #424AAA",
">#	c #363E8E",
",#	c #141734",
"'#	c #151937",
")#	c #020204",
"                                                            ",
"                                            . +             ",
"                                    @ # + + + .             ",
"                                $ # + + + + + % &           ",
"                                * = + + + + + - ;           ",
"                > , '             ) + + + + + ! ~           ",
"                { ] ^ / ( _ : < [ } + + + + + | 1 2         ",
"                3 4 5 6 7 ( 6 8 9 0 + + a . + b c d         ",
"              e f g h i 6 j k l m + + $ n o p q r s t       ",
"              u v w x _ y z A B + + C D E F G H I J t       ",
"              K L M N O z P Q + + + R S T U V W X Y t       ",
"              Z `  ...N +.@.#.+ + $.%.&.*.=.-.;.>.,.        ",
"              '.).!.~.{.].^.+ + /.(._.:.<.[.}.|.1.2.        ",
"            3.4.5.6.7.8.9.+ + C 0.a.b.c.d.e.f.g.h.i.        ",
"            j.k.l.m.n.o.p.q.+ r.s.t.u.v.w.x.y.z.A.B.        ",
"            C.D.E.F.G.H.I.J.K.L.M.*.N.O.< P.Q.R.S.T.        ",
"            U.V.W.X.Y.Z.`. +.+++*.@+#+$+%+&+*+=+-+;+        ",
"          >+,+'+)+!+~+{+]+^+/+(+_+:+<+[+}+|+1+2+3+4+        ",
"          5+6+7+8+9+0+a+b+c+d+e+f+g+h+i+j+k+l+m+n+t         ",
"          o+7+p+q+r+s+t+u+v+w+x+y+z+A+B+C+D+m+E+F+t         ",
"          i+G+H+I+J+K+L+M+N+u.O+P+Q+R+S+T+U+V+W+X+t         ",
"        Y+Z+`+ @.@+@@@#@$@%@P+Q+&@*@=@-@;@>@,@'@)@t         ",
"        !@~@{@]@^@/@(@_@}.:@&@*@<@[@}@|@1@2@3@4@5@          ",
"          6@7@8@u.9@0@a@b@c@<@[@d@N.e@f@g@h@i@j@k@          ",
"          l@m@n@o@p@q@r@s@[@d@N.@+t@u@v@w@x@y@z@A@          ",
"              B@C@D@E@F@G@H@I@J@K@L@M@N@O@P@Q@R@S@          ",
"                    t t T@U@V@W@X@Y@Z@`@ #.#+#@###          ",
"                              t $#%#&#*#=#-#;#>#B.          ",
"                                          T.,#'#)#          ",
"                                              t t           "};
