/* XPM */
static char * new_xpm[] = {
"30 30 127 2",
"  	c None",
". 	c #676767",
"+ 	c #707070",
"@ 	c #909090",
"# 	c #D5D5D5",
"$ 	c #A8A8A8",
"% 	c #C0C0C0",
"& 	c #C3C3C3",
"* 	c #C1C1C1",
"= 	c #C2C2C2",
"- 	c #C4C4C4",
"; 	c #C8C8C8",
"> 	c #CCCCCC",
", 	c #9E9E9E",
"' 	c #BEBEBE",
") 	c #F9F9F9",
"! 	c #EAEAEA",
"~ 	c #9D9D9D",
"{ 	c #CACACA",
"] 	c #CDCDCD",
"^ 	c #CECECE",
"/ 	c #CFCFCF",
"( 	c #D1D1D1",
"_ 	c #D2D2D2",
": 	c #D3D3D3",
"< 	c #D4D4D4",
"[ 	c #D6D6D6",
"} 	c #989898",
"| 	c #6C6C6C",
"1 	c #B3B3B3",
"2 	c #DEDEDE",
"3 	c #EEEEEE",
"4 	c #D9D9D9",
"5 	c #979797",
"6 	c #C6C6C6",
"7 	c #CBCBCB",
"8 	c #D0D0D0",
"9 	c #D7D7D7",
"0 	c #D8D8D8",
"a 	c #919191",
"b 	c #090909",
"c 	c #A0A0A0",
"d 	c #8F8F8F",
"e 	c #BDBDBD",
"f 	c #969696",
"g 	c #DADADA",
"h 	c #888888",
"i 	c #050505",
"j 	c #929292",
"k 	c #BFBFBF",
"l 	c #AAAAAA",
"m 	c #9F9F9F",
"n 	c #A4A4A4",
"o 	c #C5C5C5",
"p 	c #DBDBDB",
"q 	c #878787",
"r 	c #C9C9C9",
"s 	c #B9B9B9",
"t 	c #DCDCDC",
"u 	c #DDDDDD",
"v 	c #858585",
"w 	c #040404",
"x 	c #838383",
"y 	c #818181",
"z 	c #DFDFDF",
"A 	c #E0E0E0",
"B 	c #828282",
"C 	c #C7C7C7",
"D 	c #868686",
"E 	c #E3E3E3",
"F 	c #E5E5E5",
"G 	c #8C8C8C",
"H 	c #8A8A8A",
"I 	c #E4E4E4",
"J 	c #E6E6E6",
"K 	c #8E8E8E",
"L 	c #E7E7E7",
"M 	c #E8E8E8",
"N 	c #959595",
"O 	c #060606",
"P 	c #9A9A9A",
"Q 	c #E2E2E2",
"R 	c #080808",
"S 	c #A5A5A5",
"T 	c #E9E9E9",
"U 	c #EBEBEB",
"V 	c #A3A3A3",
"W 	c #AEAEAE",
"X 	c #E1E1E1",
"Y 	c #ECECEC",
"Z 	c #EDEDED",
"` 	c #ACACAC",
" .	c #0C0C0C",
"..	c #BCBCBC",
"+.	c #EFEFEF",
"@.	c #B8B8B8",
"#.	c #0E0E0E",
"$.	c #F0F0F0",
"%.	c #111111",
"&.	c #F2F2F2",
"*.	c #141414",
"=.	c #F3F3F3",
"-.	c #181818",
";.	c #F5F5F5",
">.	c #F1F1F1",
",.	c #212121",
"'.	c #000000",
").	c #F8F8F8",
"!.	c #353535",
"~.	c #565656",
"{.	c #F4F4F4",
"].	c #F6F6F6",
"^.	c #FAFAFA",
"/.	c #FBFBFB",
"(.	c #7C7C7C",
"_.	c #020202",
":.	c #949494",
"<.	c #747474",
"[.	c #5D5D5D",
"}.	c #484848",
"|.	c #363636",
"1.	c #252525",
"2.	c #171717",
"3.	c #0B0B0B",
"4.	c #2C2C2C",
"5.	c #0D0D0D",
"6.	c #010101",
"                . +                                         ",
"              @ # $ % & * * * % % * = & - ; > ,             ",
"            ' ) ! ~ - { { > ] ^ / ( _ : < # [ }             ",
"        | 1 2 3 4 5 6 7 > ] / 8 ( _ : < [ 9 0 a b           ",
"        a c d , e f ; ] ^ / 8 ( : < # [ 0 0 g h i           ",
"        j * k l m n o { / 8 _ : < # 9 9 4 g p q i           ",
"        q r { r s - 6 o ; ^ : < [ 9 0 4 p t u v w           ",
"        x { > ] % / / - ] ] { ] 7 ^ / p t u 2 v w           ",
"        y > ] > k ] ^ 6 > 7 _ _ r 0 ^ 4 p z A q w           ",
"        B ] / { C 7 > / [ [ 8 ] ^ p ( < # # z q w           ",
"        D ^ { ; ^ < # [ 9 4 g [ { 4 0 ( 0 A E h w           ",
"        q / ; r r < 9 0 4 g < / C t p # z E F G i           ",
"        H 8 7 # 6 ^ > ; { : < _ ( z u g I J J K i           ",
"        f ( { 9 / 7 ( & ^ / : g 7 0 0 u J L M N O           ",
"        P # ] ] > ] 0 8 g 8 g [ u Q I J M M ! ~ R           ",
"        S 0 0 g g t u 4 _ _ [ t I F L M T ! U V b           ",
"        W 4 g p t 2 u z X u 4 F J L M T U Y Z `  .          ",
"        ..g t u < g # _ A 9 I J M T ! U Y Z +.@.#.          ",
"        * t u 2 < A Q u ( Q F I F L J u A M $.& %.          ",
"        ..2 z A 0 2 E Q [ L M T J ! I z X 3 &.( *.          ",
"        & z X Q A 0 4 g 2 T ! ! u Q L +.$.&.=.Q -.          ",
"        { X Q E F J L M T U ! L L T T ! T =.;.>.,.'.        ",
"        ^ E I F J L T ! U Y U J ! Z T Y U >.;.).!.'.        ",
"        _ I F L M T ! Y Z Y M M E +.>.M Y Z &.) ~.'.        ",
"        # J L M T U Y Z 3 $.$.&.=.{.;.].).) ^./.(.'.        ",
"        0 M M ! U Y Y ! F Q z u g [ 8 ^ > / < A 5 _.        ",
"        t T ! 9 1 :.<.[.}.|.1.2.3.w '.'.'.'.'.b *._.        ",
"        ~ . 4.5.R w 6.'.'.'.'.'.'.'.'.'.'.'.'.'.'.'.        ",
"          '.'.'.'.'.'.'.'.'.'.                              ",
"            '.                                              "};
