/* XPM */
static char * new_xpm[] = {
"48 61 178 2",
"  	c None",
". 	c #000000",
"+ 	c #161616",
"@ 	c #9E9E9E",
"# 	c #ACACAC",
"$ 	c #B5B5B5",
"% 	c #AEAEAE",
"& 	c #ABABAB",
"* 	c #A7A7A7",
"= 	c #959595",
"- 	c #949494",
"; 	c #919191",
"> 	c #909090",
", 	c #808080",
"' 	c #7D7D7D",
") 	c #7E7E7E",
"! 	c #7F7F7F",
"~ 	c #9A9A9A",
"{ 	c #A2A2A2",
"] 	c #B8B8B8",
"^ 	c #717171",
"/ 	c #3B3B3B",
"( 	c #D5D5D5",
"_ 	c #FFFFFF",
": 	c #A1A1A1",
"< 	c #C3C3C3",
"[ 	c #C7C7C7",
"} 	c #C8C8C8",
"| 	c #C9C9C9",
"1 	c #CACACA",
"2 	c #CBCBCB",
"3 	c #CCCCCC",
"4 	c #CDCDCD",
"5 	c #CECECE",
"6 	c #CFCFCF",
"7 	c #D0D0D0",
"8 	c #D1D1D1",
"9 	c #D2D2D2",
"0 	c #D3D3D3",
"a 	c #D4D4D4",
"b 	c #D6D6D6",
"c 	c #636363",
"d 	c #6C6C6C",
"e 	c #F4F4F4",
"f 	c #9F9F9F",
"g 	c #C1C1C1",
"h 	c #D7D7D7",
"i 	c #5D5D5D",
"j 	c #131313",
"k 	c #A0A0A0",
"l 	c #FDFDFD",
"m 	c #FAFAFA",
"n 	c #989898",
"o 	c #9D9D9D",
"p 	c #D8D8D8",
"q 	c #4B4B4B",
"r 	c #333333",
"s 	c #F6F6F6",
"t 	c #F2F2F2",
"u 	c #EEEEEE",
"v 	c #929292",
"w 	c #C2C2C2",
"x 	c #454545",
"y 	c #5C5C5C",
"z 	c #BBBBBB",
"A 	c #AFAFAF",
"B 	c #EAEAEA",
"C 	c #E6E6E6",
"D 	c #E2E2E2",
"E 	c #8B8B8B",
"F 	c #D9D9D9",
"G 	c #3D3D3D",
"H 	c #8C8C8C",
"I 	c #6D6D6D",
"J 	c #A3A3A3",
"K 	c #C4C4C4",
"L 	c #DADADA",
"M 	c #2B2B2B",
"N 	c #888888",
"O 	c #B6B6B6",
"P 	c #B3B3B3",
"Q 	c #AAAAAA",
"R 	c #939393",
"S 	c #C0C0C0",
"T 	c #DBDBDB",
"U 	c #282828",
"V 	c #767676",
"W 	c #C5C5C5",
"X 	c #C6C6C6",
"Y 	c #969696",
"Z 	c #B2B2B2",
"` 	c #DCDCDC",
" .	c #272727",
"..	c #6F6F6F",
"+.	c #A9A9A9",
"@.	c #BDBDBD",
"#.	c #DDDDDD",
"$.	c #252525",
"%.	c #5E5E5E",
"&.	c #DEDEDE",
"*.	c #202020",
"=.	c #606060",
"-.	c #B4B4B4",
";.	c #DFDFDF",
">.	c #B9B9B9",
",.	c #BFBFBF",
"'.	c #B7B7B7",
").	c #E0E0E0",
"!.	c #5B5B5B",
"~.	c #E1E1E1",
"{.	c #212121",
"].	c #BABABA",
"^.	c #E3E3E3",
"/.	c #616161",
"(.	c #E4E4E4",
"_.	c #626262",
":.	c #E5E5E5",
"<.	c #E7E7E7",
"[.	c #676767",
"}.	c #E8E8E8",
"|.	c #2A2A2A",
"1.	c #757575",
"2.	c #E9E9E9",
"3.	c #2D2D2D",
"4.	c #797979",
"5.	c #3F3F3F",
"6.	c #7C7C7C",
"7.	c #BEBEBE",
"8.	c #EBEBEB",
"9.	c #484848",
"0.	c #ECECEC",
"a.	c #515151",
"b.	c #EDEDED",
"c.	c #999999",
"d.	c #666666",
"e.	c #EFEFEF",
"f.	c #F0F0F0",
"g.	c #838383",
"h.	c #F1F1F1",
"i.	c #8F8F8F",
"j.	c #F3F3F3",
"k.	c #070707",
"l.	c #1A1A1A",
"m.	c #F5F5F5",
"n.	c #1F1F1F",
"o.	c #060606",
"p.	c #323232",
"q.	c #F7F7F7",
"r.	c #151515",
"s.	c #F8F8F8",
"t.	c #313131",
"u.	c #464646",
"v.	c #F9F9F9",
"w.	c #505050",
"x.	c #565656",
"y.	c #5A5A5A",
"z.	c #FBFBFB",
"A.	c #979797",
"B.	c #686868",
"C.	c #FCFCFC",
"D.	c #6E6E6E",
"E.	c #090909",
"F.	c #828282",
"G.	c #424242",
"H.	c #0F0F0F",
"I.	c #0C0C0C",
"J.	c #030303",
"K.	c #191919",
"L.	c #3A3A3A",
"M.	c #898989",
"N.	c #A8A8A8",
"O.	c #595959",
"P.	c #363636",
"Q.	c #141414",
"R.	c #020202",
"S.	c #8A8A8A",
"T.	c #1B1B1B",
"U.	c #010101",
"                                                                                                ",
"                                                                                                ",
"                          .                                                                     ",
"                      + @ # $ % & & * = - = ; > , ' ' ) ! ! ! , , , > ~ { ] ^                   ",
"                    / ( _ : % < [ } } | 1 2 2 3 4 4 5 6 6 7 8 8 9 0 a a ( b c                   ",
"                  d e _ _ f { g } | | 1 2 2 3 4 5 5 6 7 7 8 9 9 0 a a ( b h i                   ",
"              j k _ _ l m n o g | 1 1 2 3 3 4 5 6 6 7 8 8 9 0 0 a ( ( b h p q                   ",
"            r 8 l m s t u v o w 1 2 2 3 4 4 5 6 6 7 8 9 9 0 a a ( b b h p p x .                 ",
"          y 4 z A 2 B C D E @ < 2 3 3 4 5 5 6 7 7 8 9 9 0 a ( ( b h h p F F G . .               ",
"          H o H ! I ' 1 b ) J K 3 4 4 5 6 6 7 8 8 9 0 0 a ( b b h p p F L L M . .               ",
"          N O $ P Q R ! S ) # [ 4 4 5 6 7 7 8 9 9 0 a a ( b b h p F F L T T U . .               ",
"          V W X X K z J Y R Z w W X 6 7 7 8 9 0 0 a ( ( b h h p F F L T ` `  .. .               ",
"          ..} } | 1 | S +.$ S [ @.3 7 8 8 9 0 a a ( b b h p p F L L T ` #.#.$.. .               ",
"          %.| | 1 2 2 2 z 1 4 6 w S S S W 7 a a ( b h h p F F L T T ` #.#.&.*.. .               ",
"          =.1 1 2 3 3 4 -.5 6 7 4 < 9 9 5 K w W ( ( 1 1 2 7 L T ` ` #.&.&.;.*.. .               ",
"          =.2 2 3 4 4 5 ] 6 7 8 6 >.,.2 a ( b 0 < '.4 0 a K T ` #.#.&.;.;.).*.. .               ",
"          !.3 3 4 5 5 | $ 6 7 8 6 w a } g } b h p 7 K L T X ` #.&.&.;.).).~.{.. .               ",
"          y 3 4 5 6 6 S ].S g g w w ( ( b 7 < 1 F 9 7 T ` [ [ | 1 L ;.~.~.D {.. .               ",
"          y 4 5 6 7 7 ,.9 9 0 a a ( b b h p F 8 W W 8 ` #.6 F ;.#.7 2 a D ^.{.. .               ",
"          /.5 6 7 7 8 g 0 0 a ( ( b h h p F F L T a } a &.F 6 ).).~.D D ^.(.{.. .               ",
"          _.6 7 S K W @.0 a ( b b h p p F L L T 7 S 1 &.;.#.z 2 2 3 ~.^.(.:.{.. .               ",
"          c 7 8 S 7 7 O 8 ( b h h p F F L T L X 7 3 ,.T ).).1 D D ^.(.(.:.C U . .               ",
"          c 8 9 w 0 a 8 O X 0 h p F F L T b K L 8 4 2 ).).~.2 ^.^.(.:.:.C <.U . .               ",
"          [.9 0 < a ( b w a | W K ] [ z L K #.b 2 ;.1 ~.~.D 5 ^.(.:.C C <.}.|.. .               ",
"          1.0 a '.( b h 2 7 F F L S W 1 w ` T [ ).( < &.` T K (.:.C <.<.}.2.3.. .               ",
"          4.a ( < ( h p a O X } } z 1 ` X F X ;.).[ 3 ( b h ^.:.C <.<.}.2.B 5.. .               ",
"          6.( b 7 g X X [ ,.7 F L | p &.` 7.;.~.2 &.` ^.(.:.C C <.}.}.2.B B x . .               ",
"          ! b h h p F F p F T ` #.p 3 ;.;.2 ;.( ( ^.(.:.:.C <.<.}.2.2.B 8.8.9.. .               ",
"          ; h p p F L L T ` ` #.&.&.3 4 4 4 L 4 ^.(.:.:.C <.}.}.2.B B 8.0.0.a.. .               ",
"          n p F F L T T ` #.#.&.;.;.).~.D ).| ^.(.:.C C <.}.}.2.B 8.8.0.b.b.=.. .               ",
"          c.F L L T ` ` #.&.&.` #.;.~.D ^.5 ;.:.:.C <.<.}.2.2.B 8.0.0.b.u u d.. .               ",
"          & L L T ` #.#.5 #.9 3 4 < D ^.T 8 :.C C <.}.}.2.B B 8.0.0.b.u e.e.1.. .               ",
"          $ T T ` #.#.&.2 #.).~.D F a D 1 :.C C <.}.2.2.B 8.8.0.b.b.u e.e.f.g.. .               ",
"          '.` ` #.&.&.;.3 &.~.D ^.^.2 1 ^.C <.&.D <.&.B T 2.0 0 ( p D f.f.h.i.. .               ",
"        . 3 #.#.&.;.;.).4 ;.D ^.(.(.p 6 C <.}.}.2.B B 8.0.b.b.u e.e.f.h.h.t : . .               ",
"        . a &.&.;.).).~.F a ~.D D ^.(.5 <.}.2.2.B D (.0.:.#.( ( b L h.t t j.Z . .               ",
"        k.h ;.;.).~.~.D ~.6 6 7 7 8 9 F }.2.B B 8.~.D b.(.C u e.f.h.t j.j.e < . .               ",
"        l.#.;.).~.D D ^.(.(.:.C C <.}.}.2.B 8.8.0.F a b p 8.f.u e.t j.e e m.&.. .               ",
"        n.).).~.D ^.^.(.:.:.C <.<.}.2.2.B 8.8.B b.u u e.f.f.h.(.:.j.e e m.s 0.o.. .             ",
"        p.~.~.D ^.^.(.:.C C <.}.}.2.B B 8.0.0.;.a h u b.F L L e.D ` j.m.s q.q.r.. .             ",
"        5.D D ^.(.(.:.C C <.}.2.2.B 8.8.0.b.b.u e.e.f.h.t t h.h.t e e e q.s.s.t.. .             ",
"        u.^.^.(.:.:.C <.<.}.2.B B 8.0.0.b.<.L e.` h b 2.j.j.` T T 0.^.#.m.v.v.w.. .             ",
"        x.(.(.:.C C <.}.}.2.B B 8.0.b.b.u u u f.f.h.t j.j.e m.s s q.s.s.v.m m ^ . .             ",
"        y.(.:.C <.<.}.2.2.B 8.8.0.b.b.u e.f.f.h.t t j.e e m.s s q.s.v.v.m z.z.A.. .             ",
"        B.:.C <.}.}.2.B B 8.0.0.b.u u e.f.h.h.t j.j.e m.m.s q.q.s.v.v.m z.C.C.K . .             ",
"        D.C <.}.}.2.B 8.8.0.b.b.u e.e.f.h.h.t j.e e e t B C C ;.;.).~.2.0.s.l e E..             ",
"        F.<.}.2.2.B 8.8.0.b.u b.~.X & v 6.[.a.G.3.{.H.I.J.. . . . . . . . I.K.L.H..             ",
"        M.}.2.B B B 9 N.' O.P.Q.R.. . . . . . . . . . . . . . . . . . . . . . . . .             ",
"        f 2.4 S.w.T.U.. . . . . . . . . . . . . . . . . . . . . . . . . . . . . . .             ",
"        %./ J.. . . . . . . . . . . . . . . . . . . . . . . . . . . . . . . . . .               ",
"            . . . . . . . . . . . . . . . . . .                                                 ",
"              . . . . . . . .                                                                   ",
"                . .                                                                             ",
"                                                                                                ",
"                                                                                                ",
"                                                                                                ",
"                                                                                                ",
"                                                                                                ",
"                                                                                                ",
"                                                                                                ",
"                                                                                                "};
