/* XPM */
static char * options_xpm[] = {
"48 51 789 2",
"  	c None",
". 	c #040508",
"+ 	c #0A0B12",
"@ 	c #141523",
"# 	c #1C1D2F",
"$ 	c #262940",
"% 	c #313451",
"& 	c #3C3F61",
"* 	c #474B71",
"= 	c #3B3E5C",
"- 	c #000000",
"; 	c #040405",
"> 	c #171929",
", 	c #6167AA",
"' 	c #686EB3",
") 	c #6B71B5",
"! 	c #6E74B6",
"~ 	c #7076B7",
"{ 	c #7379B9",
"] 	c #767BBA",
"^ 	c #787EBB",
"/ 	c #6F74AB",
"( 	c #0F0F15",
"_ 	c #6F729C",
": 	c #585A7A",
"< 	c #0E0E13",
"[ 	c #08090F",
"} 	c #24263D",
"| 	c #6A70B4",
"1 	c #6D73B6",
"2 	c #6F75B7",
"3 	c #7278B8",
"4 	c #757ABA",
"5 	c #777DBB",
"6 	c #7A7FBC",
"7 	c #7D82BE",
"8 	c #7F84BE",
"9 	c #060609",
"0 	c #171821",
"a 	c #7A7EAB",
"b 	c #8F94C7",
"c 	c #9296C8",
"d 	c #8A8DBB",
"e 	c #3B3C4F",
"f 	c #020203",
"g 	c #030406",
"h 	c #373B65",
"i 	c #5A60A4",
"j 	c #1E2035",
"k 	c #2F314E",
"l 	c #7177B8",
"m 	c #7479B9",
"n 	c #767CBA",
"o 	c #797EBC",
"p 	c #7C81BD",
"q 	c #7E83BE",
"r 	c #8186C0",
"s 	c #8388C1",
"t 	c #14151D",
"u 	c #22232F",
"v 	c #8387B6",
"w 	c #9195C8",
"x 	c #9398C9",
"y 	c #969ACA",
"z 	c #999DCC",
"A 	c #9B9FCD",
"B 	c #777A9B",
"C 	c #1B1C23",
"D 	c #0D0E19",
"E 	c #4C518A",
"F 	c #6369B1",
"G 	c #656BB2",
"H 	c #676DB1",
"I 	c #333656",
"J 	c #010102",
"K 	c #3B3E60",
"L 	c #7378B9",
"M 	c #757BBA",
"N 	c #787DBB",
"O 	c #7B80BC",
"P 	c #8085BF",
"Q 	c #8287C0",
"R 	c #858AC2",
"S 	c #888CC3",
"T 	c #1F202C",
"U 	c #303244",
"V 	c #8B8FC0",
"W 	c #9297C8",
"X 	c #9599CA",
"Y 	c #989CCB",
"Z 	c #9A9ECC",
"` 	c #9DA1CE",
" .	c #A0A3CF",
"..	c #A2A6D0",
"+.	c #A0A3CB",
"@.	c #545569",
"#.	c #060608",
"$.	c #1E2036",
"%.	c #5A60A3",
"&.	c #646AB1",
"*.	c #676DB3",
"=.	c #6C72B5",
"-.	c #4B4E79",
";.	c #4D507A",
">.	c #777CBB",
",.	c #797FBC",
"'.	c #7F84BF",
").	c #8489C1",
"!.	c #878BC3",
"~.	c #898EC4",
"{.	c #8C91C5",
"].	c #65688C",
"^.	c #9094C6",
"/.	c #9498C9",
"(.	c #979BCB",
"_.	c #9CA0CD",
":.	c #9EA2CE",
"<.	c #A1A5D0",
"[.	c #A4A7D1",
"}.	c #A6AAD2",
"|.	c #A9ACD4",
"1.	c #ACB0D3",
"2.	c #31323A",
"3.	c #030305",
"4.	c #35385F",
"5.	c #6369B0",
"6.	c #666CB2",
"7.	c #686FB4",
"8.	c #7076B8",
"9.	c #7B80BD",
"0.	c #868AC2",
"a.	c #888DC3",
"b.	c #8B90C5",
"c.	c #8E92C6",
"d.	c #9095C7",
"e.	c #9397C9",
"f.	c #959ACA",
"g.	c #A0A4CF",
"h.	c #A3A6D1",
"i.	c #A5A9D2",
"j.	c #A8ACD3",
"k.	c #ABAED5",
"l.	c #B4B7DA",
"m.	c #C4C8E5",
"n.	c #40414B",
"o.	c #0C0D16",
"p.	c #4B4F86",
"q.	c #676EB3",
"r.	c #8589C2",
"s.	c #878CC3",
"t.	c #8A8FC4",
"u.	c #8C91C6",
"v.	c #9499C9",
"w.	c #9FA3CF",
"x.	c #A2A5D0",
"y.	c #A4A8D1",
"z.	c #A7AAD3",
"A.	c #AAADD4",
"B.	c #ACB0D5",
"C.	c #B6B9DB",
"D.	c #C0C4E2",
"E.	c #BFC3E2",
"F.	c #484A55",
"G.	c #2D3044",
"H.	c #7076B5",
"I.	c #696FB4",
"J.	c #8488C1",
"K.	c #868BC2",
"L.	c #8E93C6",
"M.	c #A1A4D0",
"N.	c #A3A7D1",
"O.	c #ABAFD5",
"P.	c #AEB1D6",
"Q.	c #BABEDE",
"R.	c #B9BDDD",
"S.	c #B8BCDD",
"T.	c #4F515F",
"U.	c #20212C",
"V.	c #8289B7",
"W.	c #7C82B6",
"X.	c #7379B7",
"Y.	c #8D92C6",
"Z.	c #9094C7",
"`.	c #A5A8D2",
" +	c #A8ABD3",
".+	c #AAAED4",
"++	c #ADB0D6",
"@+	c #AFB2D7",
"#+	c #B3B7D9",
"$+	c #B5B9DA",
"%+	c #B4B8D9",
"&+	c #B2B6D8",
"*+	c #565869",
"=+	c #0F1016",
"-+	c #7A80B0",
";+	c #7A81B1",
">+	c #787EB4",
",+	c #797FBB",
"'+	c #8F93C7",
")+	c #9196C8",
"!+	c #9FA2CF",
"~+	c #A9ADD4",
"{+	c #ACAFD5",
"]+	c #AEB2D6",
"^+	c #B1B4D8",
"/+	c #B4B7D9",
"(+	c #B6B9DA",
"_+	c #B9BBDB",
":+	c #BBBEDD",
"<+	c #BDC0DE",
"[+	c #BFC2DF",
"}+	c #B7B9D3",
"|+	c #AEB0C7",
"1+	c #A7A9BD",
"2+	c #494953",
"3+	c #6D73A4",
"4+	c #747BB1",
"5+	c #777DB5",
"6+	c #7A80BA",
"7+	c #969AC8",
"8+	c #9297C5",
"9+	c #8E93C1",
"0+	c #9095C3",
"a+	c #ADB1D6",
"b+	c #B0B3D7",
"c+	c #B3B6D9",
"d+	c #B5B8DA",
"e+	c #B8BBDB",
"f+	c #BBBDDD",
"g+	c #C0C2DF",
"h+	c #C3C5E1",
"i+	c #C5C7E2",
"j+	c #C8CAE3",
"k+	c #CACDE4",
"l+	c #CDCFE6",
"m+	c #525467",
"n+	c #3B3E5E",
"o+	c #606599",
"p+	c #777CBA",
"q+	c #8D91C6",
"r+	c #999DCB",
"s+	c #A3A8CF",
"t+	c #9BA0C8",
"u+	c #8C92BD",
"v+	c #7C83B2",
"w+	c #6D74A7",
"x+	c #656CA2",
"y+	c #8F94C1",
"z+	c #B2B5D8",
"A+	c #B7BADB",
"B+	c #BABCDC",
"C+	c #BCBFDD",
"D+	c #BFC1DF",
"E+	c #C2C4E0",
"F+	c #C4C7E1",
"G+	c #C7C9E3",
"H+	c #C9CCE4",
"I+	c #CCCEE5",
"J+	c #CFD1E7",
"K+	c #D1D3E8",
"L+	c #565A78",
"M+	c #06070A",
"N+	c #7278B4",
"O+	c #8C90C5",
"P+	c #989DCB",
"Q+	c #B0B5D8",
"R+	c #ACB1D4",
"S+	c #9DA2C9",
"T+	c #8D93BE",
"U+	c #7D84B3",
"V+	c #6E75A8",
"W+	c #5E669D",
"X+	c #525A95",
"Y+	c #A0A4CC",
"Z+	c #BEC0DE",
"`+	c #C0C3DF",
" @	c #C6C8E2",
".@	c #C8CBE3",
"+@	c #CBCDE5",
"@@	c #CED0E6",
"#@	c #D0D2E7",
"$@	c #D3D5E9",
"%@	c #CCCFE4",
"&@	c #666B91",
"*@	c #171823",
"=@	c #7D83BE",
"-@	c #BCC0E0",
";@	c #ADB2D5",
">@	c #9EA3CA",
",@	c #8E94BF",
"'@	c #7F85B4",
")@	c #6F77A9",
"!@	c #60689E",
"~@	c #505993",
"{@	c #858BB8",
"]@	c #BABDDC",
"^@	c #BDBFDE",
"/@	c #C2C5E0",
"(@	c #C7CAE3",
"_@	c #CACCE4",
":@	c #D2D4E8",
"<@	c #D5D6EA",
"[@	c #D7D9EB",
"}@	c #C0C3DC",
"|@	c #7B81AD",
"1@	c #030304",
"2@	c #282A3D",
"3@	c #A1A4CF",
"4@	c #AFB3D6",
"5@	c #9FA4CB",
"6@	c #9096C0",
"7@	c #8087B5",
"8@	c #7178AA",
"9@	c #61699F",
"0@	c #525A94",
"a@	c #9B9FC7",
"b@	c #BCBEDD",
"c@	c #BEC1DE",
"d@	c #C1C3E0",
"e@	c #C4C6E1",
"f@	c #C6C9E2",
"g@	c #C9CBE4",
"h@	c #D4D5E9",
"i@	c #D6D8EA",
"j@	c #D9DAEC",
"k@	c #DBDDED",
"l@	c #B3B7D4",
"m@	c #878DBA",
"n@	c #121218",
"o@	c #3C3E58",
"p@	c #9EA1CE",
"q@	c #A6A9D2",
"r@	c #AEB2D5",
"s@	c #A1A6CC",
"t@	c #9197C1",
"u@	c #8288B6",
"v@	c #7279AB",
"w@	c #636BA1",
"x@	c #8389B6",
"y@	c #C5C8E2",
"z@	c #CDCFE5",
"A@	c #D3D4E9",
"B@	c #D5D7EA",
"C@	c #D8D9EB",
"D@	c #DADCEC",
"E@	c #DDDEEE",
"F@	c #E0E1EF",
"G@	c #A6AACD",
"H@	c #272834",
"I@	c #4F5272",
"J@	c #8E93C3",
"K@	c #8A8EBD",
"L@	c #8388B7",
"M@	c #9498C4",
"N@	c #A5A8D1",
"O@	c #A7ABD3",
"P@	c #ADB0D5",
"Q@	c #A7ABD0",
"R@	c #9297C1",
"S@	c #A8ACD0",
"T@	c #B0B4D3",
"U@	c #A9ADCF",
"V@	c #C9CCE2",
"W@	c #D9DBEC",
"X@	c #DCDDED",
"Y@	c #DFE0EF",
"Z@	c #E1E3F0",
"`@	c #E3E4F0",
" #	c #999EC6",
".#	c #9399C2",
"+#	c #3F4153",
"@#	c #5E6288",
"##	c #858ABF",
"$#	c #8288BB",
"%#	c #7F85B7",
"&#	c #7A81B2",
"*#	c #757CAD",
"=#	c #787FB4",
"-#	c #B9BBDC",
";#	c #C3C6E1",
">#	c #C8CBE4",
",#	c #D4D6E9",
"'#	c #979CC3",
")#	c #7980B0",
"!#	c #8C92BC",
"~#	c #ADB1D0",
"{#	c #CED0E4",
"]#	c #D3D5E6",
"^#	c #989DC6",
"/#	c #999EC7",
"(#	c #595C73",
"_#	c #626893",
":#	c #7078AA",
"<#	c #7077AA",
"[#	c #7077A9",
"}#	c #7E84B8",
"|#	c #9CA0CE",
"1#	c #B8BADB",
"2#	c #DADBEC",
"3#	c #D8DAEB",
"4#	c #898FB9",
"5#	c #7178AB",
"6#	c #7279A5",
"7#	c #6F7393",
"8#	c #9DA3CA",
"9#	c #747893",
"0#	c #494E71",
"a#	c #6A72A6",
"b#	c #6A71A5",
"c#	c #6971A5",
"d#	c #6B73A7",
"e#	c #898EC0",
"f#	c #B7B9DB",
"g#	c #B9BCDC",
"h#	c #C1C4E0",
"i#	c #DEDFEE",
"j#	c #E1E2F0",
"k#	c #D8D9EA",
"l#	c #7B81B0",
"m#	c #6C73A7",
"n#	c #6B72A6",
"o#	c #7379A9",
"p#	c #A3A8CE",
"q#	c #A4A9CF",
"r#	c #9195B6",
"s#	c #010101",
"t#	c #343854",
"u#	c #646CA1",
"v#	c #6D74A9",
"w#	c #959AC8",
"x#	c #B6B8DA",
"y#	c #DBDCEC",
"z#	c #DDDFEE",
"A#	c #E2E4F0",
"B#	c #E5E6F2",
"C#	c #E8E9F3",
"D#	c #D2D4E5",
"E#	c #6E75A7",
"F#	c #656DA2",
"G#	c #676EA0",
"H#	c #A9ADD2",
"I#	c #AAAFD3",
"J#	c #A4A8CA",
"K#	c #030303",
"L#	c #222539",
"M#	c #60679F",
"N#	c #9A9ECB",
"O#	c #BBBDDA",
"P#	c #D2D3E8",
"Q#	c #D7D8EB",
"R#	c #DCDEED",
"S#	c #E4E5F1",
"T#	c #E7E8F3",
"U#	c #E9EAF4",
"V#	c #ECEDF5",
"W#	c #EFEFF7",
"X#	c #C7CADE",
"Y#	c #626AA0",
"Z#	c #5F679E",
"`#	c #5F679D",
" $	c #A8ACCF",
".$	c #B0B4D7",
"+$	c #8A8EA8",
"@$	c #586099",
"#$	c #878DBC",
"$$	c #CACDE8",
"%$	c #C3C5E0",
"&$	c #D6D7EA",
"*$	c #BFC1D2",
"=$	c #D1D3E2",
"-$	c #E0E2EF",
";$	c #E3E4F1",
">$	c #E6E7F2",
",$	c #EBECF5",
"'$	c #EEEEF6",
")$	c #F0F1F7",
"!$	c #F3F3F9",
"~$	c #F6F6FA",
"{$	c #9BA0C2",
"]$	c #59629A",
"^$	c #596199",
"/$	c #A3A8CC",
"($	c #B5BADB",
"_$	c #67697C",
":$	c #07080D",
"<$	c #505992",
"[$	c #767DAF",
"}$	c #9095C2",
"|$	c #CACEE9",
"1$	c #D0D3ED",
"2$	c #C2C5DF",
"3$	c #888CA5",
"4$	c #D8DAE6",
"5$	c #EAEBF4",
"6$	c #EDEDF6",
"7$	c #EFF0F7",
"8$	c #F2F2F8",
"9$	c #F4F5F9",
"0$	c #F7F7FB",
"a$	c #D2D5E7",
"b$	c #545C96",
"c$	c #535B95",
"d$	c #9A9FC6",
"e$	c #BBBFDF",
"f$	c #41424D",
"g$	c #444C83",
"h$	c #4B5490",
"i$	c #6B72A8",
"j$	c #787FB0",
"k$	c #9CA1CA",
"l$	c #C1C3DF",
"m$	c #C8CBE6",
"n$	c #CED1EC",
"o$	c #CCCFE9",
"p$	c #DEE0EE",
"q$	c #8F95C0",
"r$	c #898DA9",
"s$	c #DDDEE8",
"t$	c #ECECF5",
"u$	c #EEEFF6",
"v$	c #F1F1F8",
"w$	c #F3F4F9",
"x$	c #F7F7FA",
"y$	c #C4C7DF",
"z$	c #8389B7",
"A$	c #4E5792",
"B$	c #4D5691",
"C$	c #8D93BD",
"D$	c #1A1B1F",
"E$	c #353C6A",
"F$	c #454E8B",
"G$	c #6067A0",
"H$	c #747BAD",
"I$	c #ACB0D4",
"J$	c #C2C5E1",
"K$	c #C6C9E5",
"L$	c #C8CCE8",
"M$	c #C7CBE7",
"N$	c #CACDE7",
"O$	c #DBDCED",
"P$	c #CBCEE7",
"Q$	c #888EBB",
"R$	c #8C90B0",
"S$	c #E1E2EA",
"T$	c #F2F3F8",
"U$	c #F5F5FA",
"V$	c #F8F8FB",
"W$	c #F4F4F9",
"X$	c #B5B9D6",
"Y$	c #999FC7",
"Z$	c #989EC6",
"`$	c #8B91BD",
" %	c #48518E",
".%	c #48518D",
"+%	c #7E84B2",
"@%	c #B3B6D0",
"#%	c #020202",
"$%	c #272D52",
"%%	c #3F4887",
"&%	c #555D99",
"*%	c #6B73A6",
"=%	c #BBBEDC",
"-%	c #C2C5E3",
";%	c #C3C7E4",
">%	c #C2C6E4",
",%	c #C1C5E3",
"'%	c #CDCFE7",
")%	c #E7E7F3",
"!%	c #C5C8E5",
"~%	c #7F86B5",
"{%	c #898EB1",
"]%	c #E6E7EC",
"^%	c #F9FAFC",
"/%	c #EDEDF5",
"(%	c #A7ACCE",
"_%	c #969BC4",
":%	c #949AC3",
"<%	c #9399C3",
"[%	c #464F8C",
"}%	c #424B89",
"|%	c #6B72A5",
"1%	c #8C8EA1",
"2%	c #1B1F3C",
"3%	c #394283",
"4%	c #4A5391",
"5%	c #666DA2",
"6%	c #646CA2",
"7%	c #BFC2E1",
"8%	c #BEC2E0",
"9%	c #BDC1E0",
"0%	c #BCC0DF",
"a%	c #BBBFDE",
"b%	c #D2D4E9",
"c%	c #D8DAEC",
"d%	c #787FAF",
"e%	c #777EAF",
"f%	c #767DAE",
"g%	c #8187AD",
"h%	c #CDD0DF",
"i%	c #9BA0C7",
"j%	c #9096C1",
"k%	c #3C4685",
"l%	c #555D96",
"m%	c #626470",
"n%	c #14162A",
"o%	c #323B7A",
"p%	c #374079",
"q%	c #60679E",
"r%	c #5D659A",
"s%	c #B2B6D5",
"t%	c #B7BBDC",
"u%	c #B6BBDB",
"v%	c #DFE1EF",
"w%	c #E2E3F0",
"x%	c #E3E5F1",
"y%	c #B8BCDC",
"z%	c #8F95BF",
"A%	c #6F76A9",
"B%	c #8289B5",
"C%	c #8A90BC",
"D%	c #898FBB",
"E%	c #404567",
"F%	c #232952",
"G%	c #394179",
"H%	c #32333A",
"I%	c #555D93",
"J%	c #586199",
"K%	c #575F98",
"L%	c #A0A5C8",
"M%	c #B1B5D8",
"N%	c #AFB4D6",
"O%	c #AAAFD2",
"P%	c #B6B9D6",
"Q%	c #BABDD8",
"R%	c #BBBED9",
"S%	c #BFC2DB",
"T%	c #C2C5DD",
"U%	c #C4C7DD",
"V%	c #C9CCE0",
"W%	c #C8CBE2",
"X%	c #6870A4",
"Y%	c #686FA4",
"Z%	c #676FA3",
"`%	c #666EA3",
" &	c #787FAE",
".&	c #888EBA",
"+&	c #868DB9",
"@&	c #858BB9",
"#&	c #848AB8",
"$&	c #44475F",
"%&	c #070708",
"&&	c #454C7B",
"*&	c #525B95",
"=&	c #515A94",
"-&	c #8D92BB",
";&	c #ABAFD3",
">&	c #AAAED2",
",&	c #A4A9CE",
"'&	c #8188B6",
")&	c #8187B5",
"!&	c #8086B5",
"~&	c #7E85B4",
"{&	c #AEB3D5",
"]&	c #61689F",
"^&	c #7E84B3",
"/&	c #565B7C",
"(&	c #353B64",
"_&	c #4D5591",
":&	c #4C5590",
"<&	c #4C5490",
"[&	c #7980AE",
"}&	c #A2A7CD",
"|&	c #A1A6CD",
"1&	c #7B81B1",
"2&	c #757CAE",
"3&	c #A9AED2",
"4&	c #59619A",
"5&	c #7B82B1",
"6&	c #7A80B1",
"7&	c #797FB0",
"8&	c #676D97",
"9&	c #000001",
"0&	c #20233E",
"a&	c #47508D",
"b&	c #454E8C",
"c&	c #666DA0",
"d&	c #9CA1C9",
"e&	c #747BAC",
"f&	c #737AAC",
"g&	c #A1A7CD",
"h&	c #565F98",
"i&	c #515994",
"j&	c #4F5893",
"k&	c #545D96",
"l&	c #2C325C",
"m&	c #404988",
"n&	c #3F4987",
"o&	c #525A92",
"p&	c #979CC5",
"q&	c #959AC4",
"r&	c #6D74A8",
"s&	c #6970A4",
"t&	c #9EA4CA",
"u&	c #5D659C",
"v&	c #49528E",
"w&	c #737AAB",
"x&	c #6E76A9",
"y&	c #5E6490",
"z&	c #08090D",
"A&	c #030407",
"B&	c #2F376B",
"C&	c #394383",
"D&	c #3E4785",
"E&	c #9095C0",
"F&	c #797FAE",
"G&	c #636AA0",
"H&	c #60689F",
"I&	c #383A4D",
"J&	c #323867",
"K&	c #414A88",
"L&	c #4F557C",
"M&	c #09090E",
"N&	c #070811",
"O&	c #2F3773",
"P&	c #333C7E",
"Q&	c #8087B4",
"R&	c #71769B",
"S&	c #26283A",
"T&	c #5C649B",
"U&	c #5B639B",
"V&	c #5A629A",
"W&	c #9499C3",
"X&	c #121319",
"Y&	c #020204",
"Z&	c #262C55",
"`&	c #384282",
" *	c #384182",
".*	c #5B649B",
"+*	c #6970A5",
"@*	c #3E4363",
"#*	c #0B0E1E",
"$*	c #2E3778",
"%*	c #6C73A5",
"&*	c #6D7298",
"**	c #0C0D11",
"=*	c #09090F",
"-*	c #576098",
";*	c #565E97",
">*	c #555D97",
",*	c #535C95",
"'*	c #7F84AB",
")*	c #1A1F42",
"!*	c #303A7C",
"~*	c #61699E",
"{*	c #2D3048",
"]*	c #121630",
"^*	c #5A6298",
"/*	c #696F96",
"(*	c #0D0D12",
"_*	c #4B5287",
":*	c #505893",
"<*	c #4F5892",
"[*	c #4C5591",
"}*	c #5E6280",
"|*	c #131631",
"1*	c #434B88",
"2*	c #5A6195",
"3*	c #1D1F30",
"4*	c #262A41",
"5*	c #0C0D12",
"6*	c #393F6D",
"7*	c #4A538F",
"8*	c #3D4055",
"9*	c #171A2B",
"0*	c #10121C",
"a*	c #282E53",
"b*	c #434C8A",
"c*	c #414A89",
"d*	c #404A88",
"e*	c #404987",
"f*	c #3E4786",
"g*	c #1E202B",
"h*	c #0E101D",
"i*	c #1C203D",
"j*	c #1E2343",
"k*	c #202549",
"l*	c #202548",
"m*	c #20254A",
"n*	c #232950",
"                                                                                                ",
"                                                                                                ",
"                                . + @ # $ % & * = -         ; -                                 ",
"                              > , ' ) ! ~ { ] ^ / -       ( _ : <                               ",
"                    - [       } | 1 2 3 4 5 6 7 8 9     0 a b c d e f                           ",
"                  g h i j -   k ! l m n o p q r s t - u v w x y z A B C -                       ",
"                D E F G H I J K L M N O 7 P Q R S T U V W X Y Z `  ...+.@.#.                    ",
"            - $.%.&.*.| =.2 -.;.>.,.p '.r ).!.~.{.].^./.(.z _.:.<.[.}.|.1.2.                    ",
"          3.4.5.6.7.) ! 8.{ ] ^ 9.q P s 0.a.b.c.d.e.f.Y A ` g.h.i.j.k.l.m.n.                    ",
"        o.p.G q.| 1 2 3 4 5 6 7 '.Q r.s.t.u.b c v.(.Z _.w.x.y.z.A.B.C.D.E.F.-                   ",
"        G.H.I.=.! l m n o p q r J.K.~.b.L.w x y z A :.M.N.}.|.O.P.C.Q.R.S.T.-                   ",
"        U.V.W.X.L M N 9.7 P Q R a.t.Y.Z.W X Y Z `  ...`. +.+++@+#+$+%+#+&+*+- - -               ",
"        =+-+;+;+>+,+p '.r ).s.~.{.'+)+/.(.z _.!+<.y.}.~+{+]+^+/+(+_+:+<+[+}+|+1+2+              ",
"        3.3+4+5+6+q P s K.a.b.c.d.e.f.7+8+9+0+g.i.j.k.a+b+c+d+e+f+<+g+h+i+j+k+l+m+-             ",
"    - n+o+p+6 7 '.Q R s.t.q+b c X r+s+t+u+v+w+x+y+B.@+z+/+A+B+C+D+E+F+G+H+I+J+K+L+-             ",
"    M+N+o p q r ).K.~.O+L.w x y P+Q+R+S+T+U+V+W+X+Y+c+(+_+:+Z+`+h+ @.@+@@@#@$@%@&@-             ",
"    *@9.=@P s R a.t.Y.Z.W X Y Z g.-@;@>@,@'@)@!@~@{@A+]@^@[+/@i+(@_@l+J+:@<@[@}@|@1@            ",
"    2@'.Q ).s.~.{.'+)+/.(.z _.!+3@R.4@5@6@7@8@9@0@a@b@c@d@e@f@g@I+@@K+h@i@j@k@l@m@n@-           ",
"    o@s K.a.b.c.d.e.y Y A p@g.N.q@.+r@s@t@u@v@w@x@<+`+h+y@j++@z@#@A@B@C@D@E@F@G@T+H@-           ",
"    I@s.t.q+b c J@K@L@M@w...N@O@A.B.P@Q@t+R@6@S@D+E+F+G+_@I+J+T@U@V@W@X@Y@Z@`@ #.#+#-           ",
"  - @###$#%#&#*#*#=#/.<.N.}.|.O.P.^+c+(+-#:+Z+d@;# @>#+@@@#@$@,#'#)#!#~#{#`@]#^#/#(#-           ",
"  - _#:#<#<#[#)@}#|#..i. +.+++b+z+d+1#]@^@[+/@i+(@_@l+J+:@<@[@2#3#4#v@5#8@6#7#8#5@9#-           ",
"  - 0#a#b#c#d#e#<.y.z.~+{+@+^+/+f#g#b@c@h#e@f@g@I+@@K+h@i@j@X@i#j#k#l#m#n#a#o#p#q#r#s#-         ",
"    t#u#u#v#w#N.q@j.k.P.b+c+x#e+f+<+`+h+y@j++@l+#@A@B@C@y#z#F@A#B#C#D#E#F#x+G#H#I#J#K#-         ",
"    L#W+M#N#`.O@A.++@+z+/+A+]@^@O#E+F+G+_@I+J+P#,#Q#W@R#Y@Z@S#T#U#V#W#X#Y#Z#`# $.$+$- -         ",
"    @ @$@$#$O@O.P.^+c+(+-#:+c@$$%$ @g@+@@@#@$@&$*$=$i#-$;$>$C#,$'$)$!$~${$]$^$/$($_$- -         ",
"    :$<$0@[$}$b+z+d+1#]@<+[+|$1$j+_@l+J+:@<@[@D@2$3$4$B#T#5$6$7$8$9$0$a$v+b$c$d$e$f$- -         ",
"    - g$h$i$j$k$f#g#C+D+l$m$n$o$I+@@K+h@i@W@X@p$>#q$r$s$t$u$v$w$~$x$y$8#z$A$B$C$D.D$- -         ",
"    - E$F$G$v@H$I$Z+`+J$K$L$M$N$#@A@B@C@O$z#F@`@P$Q$m@R$S$T$U$V$W$X$Y$Z$`$ %.%+%@%#%- -         ",
"      $%%%&%m#*%[$=%e@-%;%>%,%'%,#[@2#R#Y@Z@S#)%!%Q$~%'@{%]%^%/%(%_%:%<%6@[%}%|%1%- -           ",
"      2%3%4%5%F#6%u@7%8%9%0%a%b%c%k@i#-$;$>$C#T#9%`$d%e%f%g%h%i%R@j%q$,@T+h$k%l%m%- -           ",
"      n%o%p%q%Z#W+r%s%t%u%($$+W@E@v%w%B#T#5$6$x%y%z%<#)@A%V+B%,@T+`$C%D%Q$E%F%G%H%- -           ",
"      #%3.J I%^$J%K%L%M%.$N%O%l@P%Q%R%S%T%U%V%W%#+<%X%Y%Z%`% &D%.&+&@&#&z$$&- 1@%&- -           ",
"          - &&c$*&=&-&;&>&H#,&z$'&)&!&'@~&U+v+:%{& #]&!@Z#Z#w+#&V.'&!&'@^&/&- - - -             ",
"          - (&_&:&<&[&q#p#}&|&~&1&;+)#d%e%f%2&m@3&5@4&J%@$K%9@~&U+v+5&6&7&8&9&- - -             ",
"          - 0&a&[%b&c&>@S+d&t+^&e&f&v@5#<#)@A%7&q#g&h&i&~@j&k&)#j$e%f%*#f&[#M+- -               ",
"            J l&m&n&o&^#p&_%q&U+r&m#*%a#c#s&Y%n#t&>@u&v& %.% %w&f&v@8@[#x&y&z&- -               ",
"              A&B&C&D&E&6@q$,@F&`%F#u#w@G&Y#9@H&:%Y$I&J&K&m&m&X%V+w+m#a#L&M&- -                 ",
"              - N&O&P&Q&C%D%R&S&Z#W+W+u&T&U&V&4&m@W&X&Y&Z&`& *.*+*Y%`%@*3.- - -                 ",
"                - #*$*%*#&&***=*@$-*K%;*>*b$,**&d%'*J - 9&)*!*A$u#~*{*- - - -                   ",
"                  - ]*^*/*(*- J _*i&:*<*A$B$[*<&X%}*- - - - |*1*2*3*- - - -                     ",
"                    - 4*5*- - - 6*7*v& %a&[%b&F$^$8*- - - - - 9*0*- - - -                       ",
"                      - - - - - a*b*}%c*d*e*%%f* %g*- - - - - - - - - -                         ",
"                          - - - h*i*j*j*j*k*l*m*n*:$- - -       - -                             ",
"                                - - - - - - - - - - -                                           ",
"                                    - - - - - - - -                                             ",
"                                          - - -                                                 ",
"                                                                                                ",
"                                                                                                ",
"                                                                                                ",
"                                                                                                "};
