/* XPM */
static const char * options_xpm[] = {
"30 30 470 2",
"  	c None",
". 	c #4D5286",
"+ 	c #555A90",
"@ 	c #5C6197",
"# 	c #6469A0",
"$ 	c #6B70A7",
"% 	c #3F4260",
"& 	c #333548",
"* 	c #4F516E",
"= 	c #252532",
"- 	c #1B1D32",
"; 	c #2B2E4D",
"> 	c #2A2C46",
", 	c #6D73B6",
"' 	c #7177B8",
") 	c #767BBA",
"! 	c #7A7FBC",
"~ 	c #7E83BE",
"{ 	c #56597F",
"] 	c #09090C",
"^ 	c #3F4157",
"/ 	c #8185B3",
"( 	c #9397C9",
"_ 	c #8386AF",
": 	c #47485D",
"< 	c #0E0E12",
"[ 	c #32365C",
"} 	c #5A5FA0",
"| 	c #6268AA",
"1 	c #383B5D",
"2 	c #30324E",
"3 	c #747ABA",
"4 	c #787DBB",
"5 	c #7C81BD",
"6 	c #8186BF",
"7 	c #8489C2",
"8 	c #676A93",
"9 	c #454760",
"0 	c #898DBB",
"a 	c #969ACA",
"b 	c #9A9ECC",
"c 	c #9FA2CF",
"d 	c #9DA0C9",
"e 	c #797B97",
"f 	c #212128",
"g 	c #0F0F1A",
"h 	c #3A3E68",
"i 	c #636AAF",
"j 	c #696FB4",
"k 	c #6E74B6",
"l 	c #6E74B2",
"m 	c #676CA2",
"n 	c #7A80BD",
"o 	c #8388C1",
"p 	c #878CC3",
"q 	c #8B90C5",
"r 	c #8A8EBF",
"s 	c #8F94C3",
"t 	c #989CCB",
"u 	c #9CA0CD",
"v 	c #A0A4CF",
"w 	c #A5A8D2",
"x 	c #A9ADD4",
"y 	c #B5B9DB",
"z 	c #50515E",
"A 	c #181A27",
"B 	c #545990",
"C 	c #686EB3",
"D 	c #7176B8",
"E 	c #757ABA",
"F 	c #797FBC",
"G 	c #7D82BE",
"H 	c #8287C0",
"I 	c #868BC2",
"J 	c #8A8FC4",
"K 	c #8E93C7",
"L 	c #9297C8",
"M 	c #979BCB",
"N 	c #9B9FCD",
"O 	c #9FA3CF",
"P 	c #A4A7D1",
"Q 	c #A8ABD3",
"R 	c #ADB0D6",
"S 	c #B6BADB",
"T 	c #BDC1E0",
"U 	c #464853",
"V 	c #21232F",
"W 	c #7076A5",
"X 	c #747AB5",
"Y 	c #7379B8",
"Z 	c #777CBB",
"` 	c #7B80BD",
" .	c #8085BF",
"..	c #888DC3",
"+.	c #8C91C5",
"@.	c #9095C7",
"#.	c #9599CA",
"$.	c #999DCB",
"%.	c #9EA1CE",
"&.	c #A1A5D0",
"*.	c #A6A9D2",
"=.	c #AAAED4",
"-.	c #AEB1D6",
";.	c #B3B7D9",
">.	c #B5B9DA",
",.	c #585A6A",
"'.	c #19191D",
").	c #09090D",
"!.	c #676D98",
"~.	c #787FB2",
"{.	c #7A80B9",
"].	c #8B8FC5",
"^.	c #8F94C7",
"/.	c #9599C8",
"(.	c #9499C7",
"_.	c #9CA0CC",
":.	c #A4A8D1",
"<.	c #A8ACD3",
"[.	c #ACB0D6",
"}.	c #B1B4D8",
"|.	c #B5B8DA",
"1.	c #B9BCDC",
"2.	c #BDC0DE",
"3.	c #C1C4E0",
"4.	c #BFC1DA",
"5.	c #BBBDD3",
"6.	c #3C3C48",
"7.	c #0E0F16",
"8.	c #535784",
"9.	c #7479B4",
"0.	c #858AC2",
"a.	c #898EC4",
"b.	c #8E92C6",
"c.	c #9196C8",
"d.	c #989DCB",
"e.	c #A1A6CE",
"f.	c #9499C3",
"g.	c #7D84B3",
"h.	c #6D74A8",
"i.	c #9196C2",
"j.	c #B4B6D9",
"k.	c #B8BBDB",
"l.	c #BCBEDD",
"m.	c #C1C3E0",
"n.	c #C4C7E1",
"o.	c #C9CBE4",
"p.	c #CDCFE6",
"q.	c #CFD2E7",
"r.	c #383A4E",
"s.	c #222434",
"t.	c #7A7FBB",
"u.	c #7F84BF",
"v.	c #9094C7",
"w.	c #9498C9",
"x.	c #A7ABD3",
"y.	c #ADB2D5",
"z.	c #969BC4",
"A.	c #7C83B2",
"B.	c #656DA2",
"C.	c #6870A4",
"D.	c #ACB0D4",
"E.	c #BABDDC",
"F.	c #BEC1DE",
"G.	c #C2C5E0",
"H.	c #C7C9E3",
"I.	c #CBCDE5",
"J.	c #CFD1E7",
"K.	c #D3D5E9",
"L.	c #CBCEE3",
"M.	c #494C67",
"N.	c #3D405B",
"O.	c #8F93C7",
"P.	c #A9ACD4",
"Q.	c #AEB2D5",
"R.	c #989EC6",
"S.	c #7F86B4",
"T.	c #686FA4",
"U.	c #7E84B2",
"V.	c #B8BBDA",
"W.	c #C6C8E2",
"X.	c #CACCE4",
"Y.	c #CED0E6",
"Z.	c #D2D4E8",
"`.	c #D6D8EA",
" +	c #DBDCED",
".+	c #C0C3DC",
"++	c #5F6382",
"@+	c #07080A",
"#+	c #525577",
"$+	c #878CC2",
"%+	c #8A8FC3",
"&+	c #8D91C4",
"*+	c #8B90C0",
"=+	c #8B90BF",
"-+	c #9B9FCB",
";+	c #A2A5D0",
">+	c #ADB0D5",
",+	c #A2A6CC",
"'+	c #9398C2",
")+	c #969BC3",
"!+	c #B7BAD9",
"~+	c #C3C6E1",
"{+	c #C8CAE3",
"]+	c #CCCEE5",
"^+	c #C3C6DF",
"/+	c #B7BAD7",
"(+	c #CCCEE4",
"_+	c #D8DAEB",
":+	c #E0E1EF",
"<+	c #B6B9D6",
"[+	c #727697",
"}+	c #111217",
"|+	c #4B4F6F",
"1+	c #7A80B4",
"2+	c #777EB0",
"3+	c #737AAC",
"4+	c #8086B8",
"5+	c #989CCA",
"6+	c #A4A8D2",
"7+	c #BABCDC",
"8+	c #BEC0DE",
"9+	c #C2C4E0",
"0+	c #C6C9E2",
"a+	c #CACCE5",
"b+	c #A3A8CA",
"c+	c #8288B5",
"d+	c #979CC2",
"e+	c #A7ABC7",
"f+	c #9DA1C4",
"g+	c #888CAF",
"h+	c #1D1E25",
"i+	c #3D425F",
"j+	c #6971A5",
"k+	c #6D75A9",
"l+	c #848ABB",
"m+	c #A7AAD3",
"n+	c #ABAED5",
"o+	c #B0B3D7",
"p+	c #B3B6D9",
"q+	c #B8BBDC",
"r+	c #BCBFDD",
"s+	c #C0C3DF",
"t+	c #C5C7E1",
"u+	c #C8CBE4",
"v+	c #D1D3E8",
"w+	c #D6D7EA",
"x+	c #DADBEC",
"y+	c #DEDFEE",
"z+	c #DBDDEC",
"A+	c #9CA0C4",
"B+	c #6C73A6",
"C+	c #6B72A5",
"D+	c #9095BF",
"E+	c #9EA2C6",
"F+	c #26272F",
"G+	c #323652",
"H+	c #61699F",
"I+	c #8A8FBE",
"J+	c #A3A7D1",
"K+	c #B2B5D8",
"L+	c #B6B9DA",
"M+	c #BDBFDD",
"N+	c #D4D5E9",
"O+	c #D7D9EB",
"P+	c #DCDDED",
"Q+	c #E0E2EF",
"R+	c #E4E5F1",
"S+	c #E9EAF4",
"T+	c #DEDFEC",
"U+	c #848BB5",
"V+	c #62699F",
"W+	c #8E93BD",
"X+	c #A4A8C9",
"Y+	c #26272E",
"Z+	c #000000",
"`+	c #1B1D2F",
" @	c #555E97",
".@	c #8389B8",
"+@	c #A7ABD2",
"@@	c #B5B7DA",
"#@	c #BEC1DF",
"$@	c #C9CCE7",
"%@	c #BCBFD2",
"&@	c #D3D5E4",
"*@	c #E3E4F1",
"=@	c #E8E9F3",
"-@	c #ECECF5",
";@	c #F0F1F7",
">@	c #F2F3F8",
",@	c #BCBFD7",
"'@	c #5E669D",
")@	c #848AB7",
"!@	c #9497B2",
"~@	c #16171B",
"{@	c #0D0F19",
"]@	c #49518A",
"^@	c #9096C1",
"/@	c #BBBEDD",
"(@	c #BFC2DF",
"_@	c #C7CAE5",
":@	c #CDD0EA",
"<@	c #D0D2E7",
"[@	c #D4D6E9",
"}@	c #D9DAEC",
"|@	c #DDDEED",
"1@	c #B1B5D3",
"2@	c #A0A3BF",
"3@	c #DFE0EB",
"4@	c #EEEEF6",
"5@	c #F2F2F8",
"6@	c #D0D2E5",
"7@	c #969CC4",
"8@	c #555D97",
"9@	c #767DAD",
"0@	c #82859A",
"a@	c #08080A",
"b@	c #384074",
"c@	c #5D649D",
"d@	c #6F77A9",
"e@	c #A1A6CC",
"f@	c #C3C6E3",
"g@	c #C5C9E6",
"h@	c #C9CCE6",
"i@	c #B0B4D6",
"j@	c #858BB8",
"k@	c #9DA1C0",
"l@	c #E8E9F0",
"m@	c #F4F4F9",
"n@	c #BEC2DB",
"o@	c #9AA0C7",
"p@	c #9298C2",
"q@	c #4F5893",
"r@	c #636A9F",
"s@	c #646674",
"t@	c #29305E",
"u@	c #4C5590",
"v@	c #656CA2",
"w@	c #6F76A9",
"x@	c #ADB1D4",
"y@	c #BCC0DF",
"z@	c #BBBFDE",
"A@	c #CACDE5",
"B@	c #DADCED",
"C@	c #E2E3F0",
"D@	c #E7E8F2",
"E@	c #E7E8F3",
"F@	c #AAAFD3",
"G@	c #767DAE",
"H@	c #949ABC",
"I@	c #ADB1D0",
"J@	c #9297C1",
"K@	c #8F94C0",
"L@	c #8D93BE",
"M@	c #4C5489",
"N@	c #474F88",
"O@	c #393A41",
"P@	c #0F1121",
"Q@	c #262B49",
"R@	c #5A6299",
"S@	c #5A629A",
"T@	c #959AC1",
"U@	c #B1B5D7",
"V@	c #BABEDA",
"W@	c #C6C8E0",
"X@	c #CACCE2",
"Y@	c #CFD1E4",
"Z@	c #D3D5E6",
"`@	c #D4D6E8",
" #	c #A8ACD1",
".#	c #757CAD",
"+#	c #6A72A6",
"@#	c #6E75A8",
"##	c #858CB8",
"$#	c #898FBB",
"%#	c #878DBA",
"&#	c #858BB9",
"*#	c #3D415C",
"=#	c #131629",
"-#	c #0E0F11",
";#	c #121421",
">#	c #4A5287",
",#	c #505893",
"'#	c #7C83B1",
")#	c #A6AAD0",
"!#	c #8E94BF",
"~#	c #7F85B4",
"{#	c #7E84B3",
"]#	c #7A81B1",
"^#	c #A6ABCF",
"/#	c #5D659C",
"(#	c #5F679E",
"_#	c #787FB0",
":#	c #8087B5",
"<#	c #7E85B4",
"[#	c #7D83B2",
"}#	c #494D6A",
"|#	c #0A0C14",
"1#	c #383E6D",
"2#	c #464F8C",
"3#	c #666EA2",
"4#	c #9EA3CA",
"5#	c #9DA2C9",
"6#	c #747BAD",
"7#	c #7178AB",
"8#	c #7077AA",
"9#	c #777DAE",
"0#	c #A3A8CE",
"a#	c #515A94",
"b#	c #525A94",
"c#	c #6C74A7",
"d#	c #777EAE",
"e#	c #53587C",
"f#	c #020203",
"g#	c #121527",
"h#	c #39427E",
"i#	c #4E5791",
"j#	c #838AB7",
"k#	c #666EA3",
"l#	c #5D638A",
"m#	c #414983",
"n#	c #444D8B",
"o#	c #6F76A8",
"p#	c #666D9D",
"q#	c #2D3045",
"r#	c #010202",
"s#	c #151933",
"t#	c #39427D",
"u#	c #8389B7",
"v#	c #7A7FA6",
"w#	c #3C3F55",
"x#	c #5C639B",
"y#	c #586199",
"z#	c #898FBA",
"A#	c #303241",
"B#	c #14162B",
"C#	c #313971",
"D#	c #4C5591",
"E#	c #585E8B",
"F#	c #202233",
"G#	c #030307",
"H#	c #1F2445",
"I#	c #6A71A0",
"J#	c #2E3041",
"K#	c #040407",
"L#	c #515991",
"M#	c #535B95",
"N#	c #4E5792",
"O#	c #6D739F",
"P#	c #1B1C24",
"Q#	c #0E1023",
"R#	c #383F74",
"S#	c #4F5581",
"T#	c #06060A",
"U#	c #10111A",
"V#	c #010101",
"W#	c #3A4273",
"X#	c #46508C",
"Y#	c #454E8C",
"Z#	c #444D8A",
"`#	c #434C8A",
" $	c #464C77",
".$	c #0C0D11",
"+$	c #090A11",
"@$	c #06070B",
"#$	c #191C34",
"$$	c #23284B",
"%$	c #23284C",
"&$	c #24294F",
"*$	c #1D223D",
"=$	c #030305",
"                                                            ",
"                    . + @ # $ %     & * =                   ",
"            - ;   > , ' ) ! ~ { ] ^ / ( _ : <               ",
"          [ } | 1 2 3 4 5 6 7 8 9 0 a b c d e f             ",
"      g h i j k l m n ~ o p q r s t u v w x y z             ",
"    A B C , D E F G H I J K L M N O P Q R S T U             ",
"    V W X Y Z `  .o ..+.@.#.$.%.&.*.=.-.;.S >.,.'.          ",
"    ).!.~.{.~ H I ].^.( /.(._.:.<.[.}.|.1.2.3.4.5.6.        ",
"  7.8.9.5 6 0.a.b.c.d.e.f.g.h.i.-.j.k.l.m.n.o.p.q.r.        ",
"  s.t.u.o p q v.w.t x.y.z.A.B.C.D.E.F.G.H.I.J.K.L.M.        ",
"  N.H I J O.( M N O P.Q.R.S.T.U.V.3.W.X.Y.Z.`. +.+++@+      ",
"  #+$+%+&+*+=+-+;+*.=.>+,+'+)+!+~+{+]+^+/+(+_+:+<+[+}+      ",
"  |+1+2+3+4+5+6+<.R }.|.7+8+9+0+a+J.K.`.b+c+d+e+f+g+h+      ",
"  i+j+k+l+v m+n+o+p+q+r+s+t+u+p.v+w+x+y+z+A+B+C+D+E+F+      ",
"  G+H+I+J+x R K+L+E.M+G.H.I.J.N+O+P+Q+R+S+T+U+V+W+X+Y+Z+    ",
"  `+ @.@+@}.@@1.#@$@W.X.Y.Z.`.%@&@*@=@-@;@>@,@'@)@!@~@Z+    ",
"  {@]@h.^@L+/@(@_@:@]+<@[@}@|@1@2@3@4@5@5@6@7@8@9@0@a@Z+    ",
"    b@c@d@e@m.f@g@h@K.O+P+:+R+i@j@k@l@m@n@o@p@q@r@s@Z+      ",
"    t@u@v@w@x@y@z@A@B@y+C@D@E@F@A.G@H@I@J@K@L@M@N@O@Z+      ",
"    P@Q@R@S@T@;.U@V@W@X@Y@Z@`@ #.#+#@###$#%#&#*#=#-#Z+      ",
"      ;#>#,#'# #)#!#~#{#A.]#%#^#h./#(#_#:#<#[#}#Z+Z+        ",
"      |#1#2#3#4#5#$#6#3+7#8#9#0#j+a#b#c#_#d#.#e#f#Z+        ",
"        g#h#i#f.p@j#j+C.k#B.B.o@l#m#n#'@8#o#p#q#r#          ",
"          s#t#u#v#w#'@/#x#S@y#z#A#B#C#D#T.E#F#f#Z+          ",
"          G#H#I#J#K#L#M#a#q@N#O#P#Z+Q#R#S#A Z+Z+            ",
"            T#U#V#Z+W#X#Y#Z#`# $.$Z+Z++$@$Z+Z+              ",
"                Z+Z+#$$$%$&$&$*$=$Z+    Z+                  ",
"                    Z+Z+Z+Z+Z+Z+Z+                          ",
"                          Z+Z+                              ",
"                                                            "};
