/* XPM */
static const char * save_xpm[] = {
"30 30 331 2",
"  	c None",
". 	c #E88700",
"+ 	c #DE8100",
"@ 	c #E08300",
"# 	c #C67300",
"$ 	c #3D2300",
"% 	c #E68600",
"& 	c #E78600",
"* 	c #502E00",
"= 	c #000000",
"- 	c #44465B",
"; 	c #363849",
"> 	c #824B00",
", 	c #545670",
"' 	c #6D74AE",
") 	c #A2A7D8",
"! 	c #EAEAEB",
"~ 	c #D9D9DA",
"{ 	c #C7C7C8",
"] 	c #C0A682",
"^ 	c #B0803E",
"/ 	c #9A9A9A",
"( 	c #949494",
"_ 	c #AE7C37",
": 	c #B66C07",
"< 	c #181821",
"[ 	c #2A2D45",
"} 	c #141626",
"| 	c #676B8C",
"1 	c #9298CC",
"2 	c #ACB2DD",
"3 	c #E7E7E7",
"4 	c #D8D8D8",
"5 	c #DAB683",
"6 	c #D89941",
"7 	c #C3A883",
"8 	c #E78803",
"9 	c #D67D03",
"0 	c #342C28",
"a 	c #2C2F54",
"b 	c #53588F",
"c 	c #22264D",
"d 	c #6F7399",
"e 	c #9DA3DA",
"f 	c #B5BADF",
"g 	c #E8E8E8",
"h 	c #E1E1E1",
"i 	c #CFCFCF",
"j 	c #CC9F62",
"k 	c #E88701",
"l 	c #E48500",
"m 	c #573E1C",
"n 	c #37394D",
"o 	c #4F5484",
"p 	c #656CAD",
"q 	c #161A39",
"r 	c #898FC0",
"s 	c #9AA0D9",
"t 	c #BFC2E0",
"u 	c #DADADA",
"v 	c #CCCCCC",
"w 	c #C0C0C0",
"x 	c #CB974E",
"y 	c #7E5010",
"z 	c #3F3F3F",
"A 	c #4E5278",
"B 	c #636AA8",
"C 	c #656DB6",
"D 	c #0E1024",
"E 	c #2A2C3C",
"F 	c #999FD8",
"G 	c #969DD7",
"H 	c #CACCE0",
"I 	c #D0D0D0",
"J 	c #C8C8C8",
"K 	c #BBBBBB",
"L 	c #CE923E",
"M 	c #935C10",
"N 	c #5D5C5C",
"O 	c #5B6097",
"P 	c #6C72B9",
"Q 	c #5F67B4",
"R 	c #070813",
"S 	c #62668C",
"T 	c #969CD7",
"U 	c #949AD6",
"V 	c #D4D6E0",
"W 	c #DFDFDF",
"X 	c #DBDBDB",
"Y 	c #CBCBCB",
"Z 	c #D89332",
"` 	c #B87B2A",
" .	c #5B609A",
"..	c #6A71BA",
"+.	c #565EAC",
"@.	c #020204",
"#.	c #6F73A0",
"$.	c #9399D6",
"%.	c #939AD5",
"&.	c #DADADB",
"*.	c #C7C7C7",
"=.	c #C2C2C2",
"-.	c #B2B2B2",
";.	c #D98B1E",
">.	c #DB8003",
",.	c #A96D1E",
"'.	c #5E597E",
").	c #636AB2",
"!.	c #4A5198",
"~.	c #7278A8",
"{.	c #9096D4",
"].	c #9EA3D5",
"^.	c #D2D2D2",
"/.	c #C4C4C4",
"(.	c #BFBFBF",
"_.	c #BABABA",
":.	c #E08B14",
"<.	c #D07A02",
"[.	c #90580A",
"}.	c #553A16",
"|.	c #32302E",
"1.	c #444554",
"2.	c #4A4F86",
"3.	c #5E65AD",
"4.	c #3E4484",
"5.	c #8B92CE",
"6.	c #8C93D3",
"7.	c #AAAED5",
"8.	c #D6D6D6",
"9.	c #AFAFAF",
"0.	c #CF8620",
"a.	c #956625",
"b.	c #4A3820",
"c.	c #272726",
"d.	c #353535",
"e.	c #4D4D4D",
"f.	c #636363",
"g.	c #60637E",
"h.	c #565C9E",
"i.	c #6068B4",
"j.	c #343A72",
"k.	c #4A4E6F",
"l.	c #8C92D2",
"m.	c #8990D1",
"n.	c #A4A9D3",
"o.	c #CFD0D5",
"p.	c #D3D3D3",
"q.	c #CECECE",
"r.	c #BDBDBD",
"s.	c #959595",
"t.	c #6B6B6B",
"u.	c #5E5E5E",
"v.	c #696969",
"w.	c #787878",
"x.	c #818181",
"y.	c #787CA9",
"z.	c #6068B6",
"A.	c #626ABC",
"B.	c #2B3062",
"C.	c #5E628E",
"D.	c #8890D1",
"E.	c #868DD0",
"F.	c #848ACE",
"G.	c #8288CE",
"H.	c #8990CD",
"I.	c #969BCB",
"J.	c #9EA0C2",
"K.	c #9A9CAE",
"L.	c #96979B",
"M.	c #989898",
"N.	c #A1A1A1",
"O.	c #AAAAAA",
"P.	c #7A80BA",
"Q.	c #636BBE",
"R.	c #6169BE",
"S.	c #222853",
"T.	c #666B9C",
"U.	c #868CCF",
"V.	c #838ACE",
"W.	c #7C83C7",
"X.	c #7075A4",
"Y.	c #7074A0",
"Z.	c #7479B0",
"`.	c #7379BD",
" +	c #7077C0",
".+	c #6C73BB",
"++	c #747ABB",
"@+	c #8489BC",
"#+	c #9498BC",
"$+	c #A4A6BA",
"%+	c #ADAEB7",
"&+	c #6C73BE",
"*+	c #6068BE",
"=+	c #5E66BD",
"-+	c #1B1F43",
";+	c #7F86C6",
">+	c #8289CE",
",+	c #8087CD",
"'+	c #6F7292",
")+	c #777777",
"!+	c #767996",
"~+	c #787CA7",
"{+	c #797C97",
"]+	c #7D7E86",
"^+	c #7B7D95",
"/+	c #767AA3",
"(+	c #6E73AF",
"_+	c #646BB9",
":+	c #646CC0",
"<+	c #626ABF",
"[+	c #5A62BA",
"}+	c #151836",
"|+	c #44476A",
"1+	c #7F86CC",
"2+	c #787FC5",
"3+	c #74747C",
"4+	c #7C7C7C",
"5+	c #7379B4",
"6+	c #737AC7",
"7+	c #747ABC",
"8+	c #858586",
"9+	c #888888",
"0+	c #8A8A8A",
"a+	c #8C8C8C",
"b+	c #87878C",
"c+	c #5E64A4",
"d+	c #5960B1",
"e+	c #575FB0",
"f+	c #5A62BB",
"g+	c #545CB6",
"h+	c #10132B",
"i+	c #5A5F8F",
"j+	c #7E86CC",
"k+	c #7C83CB",
"l+	c #6F75B0",
"m+	c #7E7E7E",
"n+	c #7B7C81",
"o+	c #7279C5",
"p+	c #7077C5",
"q+	c #787CAE",
"r+	c #8E8E8E",
"s+	c #919191",
"t+	c #6A6FA3",
"u+	c #5C64BC",
"v+	c #555DB0",
"w+	c #565FB8",
"x+	c #4F58B2",
"y+	c #0D0F21",
"z+	c #5C6297",
"A+	c #7B82CB",
"B+	c #7980CA",
"C+	c #7075A0",
"D+	c #838383",
"E+	c #787A94",
"F+	c #6F76C5",
"G+	c #6C74C4",
"H+	c #7F82A3",
"I+	c #8F8F8F",
"J+	c #969696",
"K+	c #6369A6",
"L+	c #5961BB",
"M+	c #525AAE",
"N+	c #545CB8",
"O+	c #4B54AE",
"P+	c #080A16",
"Q+	c #565B8D",
"R+	c #7880C9",
"S+	c #767DC8",
"T+	c #757892",
"U+	c #7075A5",
"V+	c #6A71C2",
"W+	c #8A8C9A",
"X+	c #585FAE",
"Y+	c #565EB9",
"Z+	c #5057AD",
"`+	c #5159B7",
" @	c #4850AA",
".@	c #05060D",
"+@	c #2A2F59",
"@@	c #3A407B",
"#@	c #6D6E76",
"$@	c #8B8B8C",
"%@	c #7278AA",
"&@	c #6A72C0",
"*@	c #6970BF",
"=@	c #969697",
"-@	c #9D9D9D",
";@	c #A0A0A0",
">@	c #909197",
",@	c #555DB8",
"'@	c #525BB8",
")@	c #4D55AC",
"!@	c #4E56B6",
"~@	c #444DA6",
"{@	c #09090A",
"]@	c #232325",
"^@	c #424344",
"/@	c #65656A",
"(@	c #7E7F8E",
"_@	c #949597",
":@	c #A2A2A2",
"<@	c #A4A4A4",
"[@	c #85879E",
"}@	c #525AB8",
"|@	c #5058B6",
"1@	c #4A52AA",
"2@	c #4A53B4",
"3@	c #3F489F",
"4@	c #000001",
"5@	c #040404",
"6@	c #1B1B1C",
"7@	c #3A3A3E",
"8@	c #5F5F64",
"9@	c #85868B",
"0@	c #9B9CA0",
"a@	c #72769A",
"b@	c #4F57B4",
"c@	c #4C55B5",
"d@	c #4850A9",
"e@	c #4750B3",
"f@	c #3A4294",
"g@	c #010102",
"h@	c #131416",
"i@	c #1B1C21",
"j@	c #11132A",
"k@	c #262A59",
"l@	c #3C4494",
"m@	c #444DB1",
"n@	c #323983",
"o@	c #070811",
"p@	c #181C40",
"                                                            ",
"                                          . . +             ",
"                                        @ . . . #           ",
"                                        . . . + $           ",
"                                      % . . & * =           ",
"                - ;                 % . . . > =             ",
"              , ' ) ! ~ { ] ^ / ( _ . . . : < [ }           ",
"              | 1 2 3 4 4 5 . 6 7 8 . . 9 0 a b c           ",
"              d e f g h i j . . k . . l m n o p q =         ",
"              r s t u v w x . . . . . y z A B C D =         ",
"            E F G H I J K L . . . . . M N O P Q R =         ",
"            S T U V W X Y Z . . . . . . `  ...+.@.          ",
"            #.$.%.&.*.=.-.;.. . . . . >.,.'.).!.=           ",
"            ~.{.].^./.(._.:.. . <.[.}.|.1.2.3.4.=           ",
"            5.6.7.4 8.I 9.0.a.b.c.d.e.f.g.h.i.j.=           ",
"          k.l.m.n.o.p.q.r.s.t.u.v.w.x.s.y.z.A.B.=           ",
"          C.D.E.F.G.H.I.J.K.L.M.N.O.9.-.P.Q.R.S.=           ",
"          T.U.V.W.X.Y.Z.`. +.+++@+#+$+%+&+*+=+-+=           ",
"          ;+>+,+'+)+!+~+{+]+^+/+(+_+:+<+*+=+[+}+=           ",
"        |+G.1+2+3+4+5+6+7+8+9+0+a+b+c+d+e+f+g+h+=           ",
"        i+j+k+l+m+n+o+p+q+0+a+r+s+( t+u+v+w+x+y+=           ",
"        z+A+B+C+D+E+F+G+H+I+s+( J+M.K+L+M+N+O+P+            ",
"        Q+R+S+T+9+U+G+V+W+( J+M./ / X+Y+Z+`+ @.@            ",
"          +@@@#@$@%@&@*@=@M./ -@;@>@,@'@)@!@~@@.            ",
"            = {@]@^@/@(@_@-@;@:@<@[@}@|@1@2@3@4@            ",
"                  = = 5@6@7@8@9@0@a@b@c@d@e@f@=             ",
"                        = = = g@h@i@j@k@l@m@n@=             ",
"                                  = = = o@p@}+=             ",
"                                            = =             ",
"                                                            "};
