/* XPM */
static const char * SpiralIcon_xpm[] = {
"64 64 485 2",
"  	c None",
". 	c #393354",
"+ 	c #292247",
"@ 	c #221A41",
"# 	c #3B3556",
"$ 	c #352E50",
"% 	c #2E274B",
"& 	c #3A3355",
"* 	c #2F274B",
"= 	c #706C84",
"- 	c #928FA2",
"; 	c #C2C0CB",
"> 	c #FFFFFF",
", 	c #B0ACBA",
"' 	c #322B4E",
") 	c #3F395A",
"! 	c #2F284D",
"~ 	c #EFEEF1",
"{ 	c #8B879B",
"] 	c #352E51",
"^ 	c #757087",
"/ 	c #CBCAD3",
"( 	c #DCDAE0",
"_ 	c #2F284C",
": 	c #767189",
"< 	c #908C9F",
"[ 	c #2D264A",
"} 	c #726E85",
"| 	c #332C4F",
"1 	c #393255",
"2 	c #A9A6B5",
"3 	c #251D43",
"4 	c #261D47",
"5 	c #D0CDD6",
"6 	c #362F52",
"7 	c #1E163D",
"8 	c #21193E",
"9 	c #030404",
"0 	c #373636",
"a 	c #403F49",
"b 	c #626160",
"c 	c #383151",
"d 	c #C8C5CE",
"e 	c #1D153D",
"f 	c #231C42",
"g 	c #000000",
"h 	c #B0B1B0",
"i 	c #C1C1C1",
"j 	c #F3F3F0",
"k 	c #362D56",
"l 	c #40395A",
"m 	c #3B3454",
"n 	c #241E43",
"o 	c #E5E3E7",
"p 	c #DCDBE3",
"q 	c #C6C6C6",
"r 	c #FBFBFB",
"s 	c #444444",
"t 	c #5D557D",
"u 	c #332C50",
"v 	c #A6A2B2",
"w 	c #A2A0AE",
"x 	c #352F52",
"y 	c #B7B6C3",
"z 	c #252043",
"A 	c #3B3458",
"B 	c #9E99B2",
"C 	c #515050",
"D 	c #DFE0DF",
"E 	c #403A5B",
"F 	c #504B69",
"G 	c #ADADAD",
"H 	c #D2D2D2",
"I 	c #645B84",
"J 	c #9792A7",
"K 	c #ECEBEE",
"L 	c #3F3758",
"M 	c #322B4F",
"N 	c #C7C6D0",
"O 	c #1D143E",
"P 	c #8B85A2",
"Q 	c #0C0B1A",
"R 	c #342C4F",
"S 	c #4A4363",
"T 	c #262044",
"U 	c #AFAFAF",
"V 	c #191919",
"W 	c #040404",
"X 	c #151612",
"Y 	c #A8A3B4",
"Z 	c #989A93",
"` 	c #BABABA",
" .	c #373053",
"..	c #160E36",
"+.	c #575757",
"@.	c #ACACAC",
"#.	c #333333",
"$.	c #736E86",
"%.	c #CDCDCD",
"&.	c #020202",
"*.	c #9E9CAC",
"=.	c #120A32",
"-.	c #B0B0B0",
";.	c #C8C8C8",
">.	c #8D8D8D",
",.	c #BDBAC6",
"'.	c #3E3959",
").	c #2E264C",
"!.	c #DEDEE3",
"~.	c #C3C3C3",
"{.	c #919191",
"].	c #9895A7",
"^.	c #0E062F",
"/.	c #9F9F9F",
"(.	c #D1D1D1",
"_.	c #626262",
":.	c #3C3556",
"<.	c #271F45",
"[.	c #31294D",
"}.	c #30294D",
"|.	c #383154",
"1.	c #3E3859",
"2.	c #9F9CAD",
"3.	c #8F8F8F",
"4.	c #FFFFFB",
"5.	c #B7B4C5",
"6.	c #150C36",
"7.	c #EBEBED",
"8.	c #2F2F2F",
"9.	c #F4F4F4",
"0.	c #2D2D2D",
"a.	c #373736",
"b.	c #9590A3",
"c.	c #2C2449",
"d.	c #6E6981",
"e.	c #938FA1",
"f.	c #848196",
"g.	c #C7C7C7",
"h.	c #B9B7C3",
"i.	c #30284E",
"j.	c #2D2F26",
"k.	c #989997",
"l.	c #C0BDCB",
"m.	c #322A4D",
"n.	c #292246",
"o.	c #251E43",
"p.	c #706A82",
"q.	c #B8B5C1",
"r.	c #CFCED6",
"s.	c #726E86",
"t.	c #E3E3E3",
"u.	c #4B4B4B",
"v.	c #09070F",
"w.	c #40395C",
"x.	c #342D51",
"y.	c #352D53",
"z.	c #645C83",
"A.	c #696188",
"B.	c #383057",
"C.	c #171425",
"D.	c #DBDDD6",
"E.	c #9B97AA",
"F.	c #1F183F",
"G.	c #261F45",
"H.	c #221A42",
"I.	c #F3F4F5",
"J.	c #2E274A",
"K.	c #EEEDEF",
"L.	c #010101",
"M.	c #433F56",
"N.	c #5E587E",
"O.	c #80807F",
"P.	c #211941",
"Q.	c #170F37",
"R.	c #0F072F",
"S.	c #30284D",
"T.	c #E0DFE1",
"U.	c #827C9A",
"V.	c #BEBDC7",
"W.	c #30294C",
"X.	c #66607A",
"Y.	c #DDDDDD",
"Z.	c #CFCFCF",
"`.	c #C0C0C0",
" +	c #BFBFBF",
".+	c #BEBEBE",
"++	c #CECECE",
"@+	c #5E5F54",
"#+	c #757770",
"$+	c #373835",
"%+	c #222222",
"&+	c #202020",
"*+	c #1D1D1D",
"=+	c #171717",
"-+	c #9E9E9F",
";+	c #B6B3C0",
">+	c #3D3658",
",+	c #9492A4",
"'+	c #0F1013",
")+	c #0C0A0F",
"!+	c #13130F",
"~+	c #635B82",
"{+	c #161422",
"]+	c #D3D0DC",
"^+	c #BDBAC4",
"/+	c #332D4F",
"(+	c #C5C2CC",
"_+	c #7F7E86",
":+	c #3D3758",
"<+	c #3B3456",
"[+	c #000004",
"}+	c #D9D7E3",
"|+	c #959591",
"1+	c #050505",
"2+	c #342D50",
"3+	c #241C43",
"4+	c #2E264A",
"5+	c #716A8D",
"6+	c #383153",
"7+	c #40385E",
"8+	c #969696",
"9+	c #090909",
"0+	c #656562",
"a+	c #373051",
"b+	c #2B2548",
"c+	c #514871",
"d+	c #070709",
"e+	c #211940",
"f+	c #ABA8B5",
"g+	c #E9E9E8",
"h+	c #C0BBCF",
"i+	c #100D21",
"j+	c #606161",
"k+	c #E9EAE4",
"l+	c #362E53",
"m+	c #7C788D",
"n+	c #363052",
"o+	c #CACAD1",
"p+	c #F8F7FE",
"q+	c #949496",
"r+	c #E4E4E4",
"s+	c #F1F1F1",
"t+	c #373052",
"u+	c #AFACB9",
"v+	c #3E3E40",
"w+	c #3D3D3D",
"x+	c #565656",
"y+	c #8F8F90",
"z+	c #BDB9C1",
"A+	c #40385B",
"B+	c #2F284B",
"C+	c #D0D0D0",
"D+	c #CECDD5",
"E+	c #332D50",
"F+	c #C4C3CD",
"G+	c #BDBDBD",
"H+	c #EAEAEA",
"I+	c #2D2A3E",
"J+	c #312A4E",
"K+	c #2A243B",
"L+	c #4B4757",
"M+	c #1A1139",
"N+	c #D2CFD7",
"O+	c #ADADAC",
"P+	c #02000C",
"Q+	c #60597D",
"R+	c #312A4F",
"S+	c #68627F",
"T+	c #B3B3B6",
"U+	c #020203",
"V+	c #373153",
"W+	c #BCBAC5",
"X+	c #FDFDFD",
"Y+	c #EFEFEF",
"Z+	c #080808",
"`+	c #686186",
" @	c #C5C7BF",
".@	c #4D4D51",
"+@	c #0A0814",
"@@	c #7D7C7F",
"#@	c #69657F",
"$@	c #393254",
"%@	c #CCCCD3",
"&@	c #3C3658",
"*@	c #3E3758",
"=@	c #6D6881",
"-@	c #040405",
";@	c #645C81",
">@	c #2A2248",
",@	c #424047",
"'@	c #4B4C4B",
")@	c #282146",
"!@	c #EDECEF",
"~@	c #6C6882",
"{@	c #878787",
"]@	c #625C7D",
"^@	c #F0EFF1",
"/@	c #D6D5DC",
"(@	c #322B4D",
"_@	c #2D274B",
":@	c #362F53",
"<@	c #231B42",
"[@	c #1E183E",
"}@	c #31294C",
"|@	c #3F3859",
"1@	c #928DA3",
"2@	c #7C798F",
"3@	c #312A4D",
"4@	c #21193F",
"5@	c #535353",
"6@	c #EEEDF0",
"7@	c #676085",
"8@	c #252239",
"9@	c #BFC0BF",
"0@	c #A29FB0",
"a@	c #292146",
"b@	c #FEFFFF",
"c@	c #3B3B3B",
"d@	c #F3F3F3",
"e@	c #443E5E",
"f@	c #1A133A",
"g@	c #322A50",
"h@	c #655D82",
"i@	c #6A628A",
"j@	c #EDEBEE",
"k@	c #362F51",
"l@	c #C1BEC9",
"m@	c #F0F0F0",
"n@	c #A5A4B3",
"o@	c #2A2247",
"p@	c #2E264B",
"q@	c #151518",
"r@	c #322D40",
"s@	c #333042",
"t@	c #1D182A",
"u@	c #888495",
"v@	c #9F9BB1",
"w@	c #4A4557",
"x@	c #151025",
"y@	c #373738",
"z@	c #CBC8D2",
"A@	c #989898",
"B@	c #261E44",
"C@	c #2B2348",
"D@	c #D9D8DE",
"E@	c #FBFBFA",
"F@	c #A7A8A3",
"G@	c #262723",
"H@	c #C3C1CB",
"I@	c #E8E7EA",
"J@	c #383053",
"K@	c #C3C3C1",
"L@	c #221C41",
"M@	c #181039",
"N@	c #121212",
"O@	c #F7F6FA",
"P@	c #E1E0E6",
"Q@	c #DFDEE5",
"R@	c #BCB8CB",
"S@	c #262434",
"T@	c #292929",
"U@	c #C1BECA",
"V@	c #F0F0F2",
"W@	c #716A84",
"X@	c #827D94",
"Y@	c #B4B1BE",
"Z@	c #292349",
"`@	c #534B73",
" #	c #241D42",
".#	c #3E3759",
"+#	c #797979",
"@#	c #F9F9F9",
"##	c #CCC9D7",
"$#	c #4A4853",
"%#	c #A19EAE",
"&#	c #918EA1",
"*#	c #261E45",
"=#	c #DAD7E4",
"-#	c #B3B4B4",
";#	c #A5A5A5",
">#	c #AAA8B5",
",#	c #A7A6B5",
"'#	c #B9B9B9",
")#	c #020009",
"!#	c #9998A1",
"~#	c #D5D4DC",
"{#	c #3A3354",
"]#	c #2E274C",
"^#	c #2A2347",
"/#	c #E7E5E9",
"(#	c #403C50",
"_#	c #3A3A3A",
":#	c #20183F",
"<#	c #463F5F",
"[#	c #231B41",
"}#	c #525252",
"|#	c #7B7983",
"1#	c #AEADB1",
"2#	c #332C4D",
"3#	c #FAFAFB",
"4#	c #FAFAFA",
"5#	c #8A869A",
"6#	c #453E5F",
"7#	c #343434",
"8#	c #F1F0F6",
"9#	c #5E5773",
"0#	c #3C3557",
"a#	c #F6F5F8",
"b#	c #FDFDFF",
"c#	c #332B4E",
"d#	c #494362",
"e#	c #2D2549",
"f#	c #B1B1B1",
"g#	c #353535",
"h#	c #010202",
"i#	c #B8B5C2",
"j#	c #D5D4DA",
"k#	c #2B2448",
"l#	c #B4B4B4",
"m#	c #2B2B2B",
"n#	c #646566",
"o#	c #0D0E0E",
"p#	c #FCFBFD",
"q#	c #403959",
"r#	c #837E92",
"s#	c #B4B4B5",
"t#	c #070707",
"u#	c #2C293F",
"v#	c #FBFBFF",
"w#	c #5F5A75",
"x#	c #CAC7D1",
"y#	c #46405F",
"z#	c #1F173D",
"A#	c #BABABC",
"B#	c #060606",
"C#	c #020100",
"D#	c #676088",
"E#	c #292148",
"F#	c #EFEEF0",
"G#	c #2E284B",
"H#	c #7B768D",
"I#	c #AFACBB",
"J#	c #707070",
"K#	c #BABBBA",
"L#	c #3A3A37",
"M#	c #60577E",
"N#	c #E1DFE4",
"O#	c #F2F2F5",
"P#	c #FAFAFD",
"Q#	c #342C53",
"R#	c #3C3657",
"S#	c #CFCED5",
"T#	c #282045",
"U#	c #D2D0D2",
"V#	c #6F6F72",
"W#	c #2C2549",
"X#	c #DADAE2",
"Y#	c #271F44",
"Z#	c #79748B",
"`#	c #4E456F",
" $	c #554C75",
".$	c #6E6983",
"+$	c #F2F1F3",
"@$	c #C3C2CC",
"#$	c #231C41",
"$$	c #878297",
"%$	c #E0DFE5",
"&$	c #817B92",
"*$	c #2A2348",
"=$	c #68627D",
"-$	c #8B879A",
";$	c #C5C4CD",
">$	c #BEBCC7",
",$	c #F8F8F9",
"'$	c #ABA9B7",
")$	c #CDCAD3",
"!$	c #66617B",
"~$	c #2D2649",
"{$	c #827E93",
"]$	c #3A3254",
"^$	c #BEBCC8",
"/$	c #CDCAD4",
"($	c #CECBD5",
"_$	c #9D9AAA",
":$	c #261F44",
"                                                                                                                                ",
"                                                                                                                                ",
"                                                                                                                                ",
"                                                                                                                                ",
"                                                                                                                                ",
"                                              . + @ + #           $ % &                                                         ",
"                                  *   = -     ; > > > , '     ) ! > ~ {     &                                                   ",
"                              ] ^ / > > ( _   : > > > > < &   [ > > > > > > } |                                                 ",
"                            1 2 > > > > > 3     > > > > >     4 > > > > > > > 5 6                                               ",
"                              > > > > > > 7   8 > > > > 9 0 a b > > > > > > > > c                                               ",
"                            $ d > > > > > e   f > > > > g g g g h > > > > i j k l                                               ",
"                    m   |     n > > o > >     ' p > > q g g g g r > > > s g g t   u v w                                         ",
"                  x y > > z   A B C g D > > % E F > > G g g g g > > > H g g g g I J > > K L                                     ",
"                M N > > > o O P Q g g g > > R S T > > U g g g V > > > W g g g g g X > > > >                                     ",
"              | Y > > > > > > Z g g g g ` > ]  ...> > U g g g +.> > @.g g g g g g #.> > > > v                                   ",
"              $.> > > > > %.&.g g g g g g > > *.=.> > -.g g g ;.> > g g &.g g g >.> > > > ,.'.                                  ",
"            ).!.> > > > > ~.g g g g g g g {.> ].^.> > /.g g g (.> %.g g g g g _.> > > :.<.[.}.|.1.                              ",
"          u 2.> > > > > > > > 3.g g g g g g 4.5.6.7.> 8.g g g 9.> 0.g g g g a.> > b.@ _ % c.d.> e.                              ",
"        |.f.> > > > > > > > > > g.g g g g g g h.i.> > j.g g g > > g g g g k.> l.m.n.o.p.q.> > > r.'                             ",
"        s.> > > > > > > > > > > > t.u.g g g v.  w.x.y.  z.A.  B.  C.g g D.> E.F.G.H.I.> > > > > > n.                            ",
"      J.K.> > > > > > > > > > > > > > > L.g     M.                  N.O.  P.Q.R.> > > > > > > > > S.                            ",
"       .> > > > > > > > > > > > > > > > > T.                              U.> > > > > > > > > > V.W.                            ",
"      X.> > > > > > Y.Z.`.i  +.+++> > > >                               @+#+$+%+&+*+=+g g -+> > ;+>+                            ",
"    # ,+> > > > > g g g g g g g g g '+)+!+                            ~+g g g g g g g g g {+]+^+                                ",
"    /+(+> > > > _+g g g g g g g g g g g g                               g g g g g g L.g g     :+                                ",
"    <+> > > > > [+g g g g g g g g g g g g                            .}+|+g g g g g 1+g g                                       ",
"      2+3+@ 4+5+g g g g g g g g g g g g g             6+u 7+          > > > 8+g g g 9+g 0+                                      ",
"      a+b+T n c+g g g d+g g g g g g g g g         . e+f+> g+g   h+i+g j+> > > > %.L.g g k+l+                                    ",
"      > > > > > g g g g g g g g g g g m+>       n+o+> > p+g g > > g g g q+> > > > > r+s+> > t+                                  ",
"  :+u+> > > > > v+g g g g w+s x+y+z+> > > A+    B+> > > g g g > > g g g g C+> > > > > > > D+ .                                  ",
"  E+F+> > > > > G+H+> > > > > > > > > > > I+    J+> > K+g g L+> > g g g g g > > > > > > M+6+                                    ",
"  ' N+> > > > > > > > > > > > > > > > O+g P+Q+    ' R+S+g g T+> > U+g g g g g > > > >   :+                                      ",
"  V+W+> > > > > > > > X+> > > > > Y+Z+g g g `+             @> > > .@g g g +@@@> > > #@$@    c.%@&@l                             ",
"  *@=@> > > > > > > > > > > > > x+g g -@g g ;@          >@> > > > ,@g '@    > > >   $@    )@!@> >                               ",
"    ~@> > > > X+> > > > > > {@g g g g g g g             | > > > >     ]@    2+4+B+      % ^@> > > /@(@                          ",
"    _@> > > X+> > > > > Z.g g g g g g g g g > :@J+        | <@[@}@|@                    1@> > > > > 2@3@                        ",
"    4@> > > > > > > > 5@g g g g g g g g g t.> > 6@|.                                7@8@9@> > > > > > 0@V+                      ",
"    a@b@> > > > > c@g g g L.g g g g g g d@> > > > e@<+  f@g@                  h@i@  g g &.> > > > > > > j@]                     ",
"    k@l@> > > > m@g g g g g g g g g g ++> > > > n@o@p@> > > q@r@s@s@t@u@v@w@x@g g g g g g y@> > > > > > > z@V+                  ",
"        > > > > > g g g g &.g g g g A@> > > > > B@C@D@> > E@g g g g g F@> > G@g g g g g g g g H@> > > > > > I@V+                ",
"      J@> > > > > K@g g g g g g g _.> > > > > L@' M@> > > > g g g g g g > > > N@g g g g g g g g O@> > > > > > P@ .*@            ",
"      4+Q@> > > > R@S@g g g g g T@> > > > > U@2+}.> > > > > g g g g g g > > > > g g g g g g g g g > > > > > > > V@W@]           ",
"      |@X@> > > Y@Z@`@g g g g g > > > > > >  #.#e > > > > +#g g g g L.g @#> > > ##g g g g g g g g $#> > > > > > > > %#x.        ",
"        6+> > &#*#c.=#-#g g g ;#> > > > > >#t+t+,#> > > > T@g g g g L.g '#> > > > )#g g g g g g g g !#> > > > > > > > ~#<+      ",
"          {#]#^#u /#> > (#g _#> > > > > > :#<#[#> > X+> > g g g g g 1+g }#> > > > |#g g g g g g g g g 1#> > > > > > > > 2#      ",
"                3#> > > > > > > 4#> > > 5#V+|@6#> > > > H g g g g g g g 7#> > > > 8#g g g g g &.g g g g > > > > > > > 9#0#      ",
"             .a#> > b#> > > > > > > > > c#d#e#> > > > > f#g g g g g g g g#> > > > > g g g g g g g g g h#> > > > > > i#M         ",
"            |.j#> > > > > > > > > > > > k#d#e > > > > > l#g g g g g 1+g m#> > > > > n#g g g g g g g o#> > > > > > i#[           ",
"                p#> > > > > > > > > > q#1.$@r#> > > > > s#g g g g g t#g 9+> > > > > (.g g g g g g u#v#> > > > > w#M             ",
"                  x#> > > > > > X+> 6@W.y#z#> > > > > > A#g g g g g B#g g > > > > > > g g g g C#D#  E#> > > F#G#<+              ",
"                  % H#> > > > > > > o@  V+I#> > > > > > J#g g g g g B#g g > > > > > > K#g g L#M#      *     M                   ",
"                    V+  N#> > > > Y@6   o.> > > > > > > g g g g g g L.g g > > > > > > > O#P#> Q#                                ",
"                      l R#S#> > > T#    e > > > > > X+> U#V#g g g g g B#1+> > > > > > > > > > W#                                ",
"                          '   X#Y#    |@Z#> > > > > > > > > > > `# $> > > > > > > > > > > > .$>+                                ",
"                                      ' +$> > > > > > > > > > @$J+#$> > > > > > > > > > > > B+                                  ",
"                                      k@> > > > > > > > > > > $$|@o@> > > > > > > > > %$&$*$                                    ",
"                                          =$-$;$>$,$> > > > >     <+'$> > > > > > )$!$~$|@                                      ",
"                                            0#6 _ n.      {$  1.    ]$^$/$($_$  :$2+                                            ",
"                                                                      :+| 2+0#                                                  ",
"                                                                                                                                ",
"                                                                                                                                ",
"                                                                                                                                ",
"                                                                                                                                ",
"                                                                                                                                "};
