/* XPM */
static char * SpiralIcon_xpm[] = {
"36 36 249 2",
"  	c None",
". 	c #8B889B",
"+ 	c #9C99AA",
"@ 	c #ADAAB9",
"# 	c #837F94",
"$ 	c #7D7990",
"% 	c #9995A7",
"& 	c #67627C",
"* 	c #CDCBD4",
"= 	c #FCFCFC",
"- 	c #D1D0D8",
"; 	c #FFFFFF",
"> 	c #F1F1F3",
", 	c #848095",
"' 	c #2A2248",
") 	c #CFCED6",
"! 	c #68637D",
"~ 	c #ABA8B6",
"{ 	c #D5D3DB",
"] 	c #9490A2",
"^ 	c #C4C4C4",
"/ 	c #1D1C1D",
"( 	c #313134",
"_ 	c #EEEFEE",
": 	c #FBFBFB",
"< 	c #EFEFEF",
"[ 	c #7B768D",
"} 	c #464060",
"| 	c #DEDEE1",
"1 	c #CBCACC",
"2 	c #EEEEF1",
"3 	c #79758C",
"4 	c #FBFBFC",
"5 	c #A2A2A2",
"6 	c #000000",
"7 	c #F5F6F5",
"8 	c #747474",
"9 	c #2A2A2B",
"0 	c #403958",
"a 	c #7D788F",
"b 	c #C0BEC8",
"c 	c #BCBAC6",
"d 	c #BCBAC5",
"e 	c #625C79",
"f 	c #2B2932",
"g 	c #191919",
"h 	c #CCCCCC",
"i 	c #807B91",
"j 	c #3B3556",
"k 	c #F2F2F4",
"l 	c #929292",
"m 	c #BFBFBF",
"n 	c #010102",
"o 	c #868689",
"p 	c #FEFDFE",
"q 	c #D9D7DE",
"r 	c #9C98AA",
"s 	c #FDFCFD",
"t 	c #DDDDDD",
"u 	c #575755",
"v 	c #5E5E5E",
"w 	c #C4C2CD",
"x 	c #423C5C",
"y 	c #F0F0F2",
"z 	c #939393",
"A 	c #555555",
"B 	c #4A4A4A",
"C 	c #282828",
"D 	c #C2C2C2",
"E 	c #DBDAE0",
"F 	c #615C78",
"G 	c #F6F6F7",
"H 	c #DADADA",
"I 	c #545454",
"J 	c #B8B8B8",
"K 	c #48445C",
"L 	c #2B2B2C",
"M 	c #D3D3D3",
"N 	c #C1BEC9",
"O 	c #474060",
"P 	c #31294D",
"Q 	c #716C85",
"R 	c #65607A",
"S 	c #625D78",
"T 	c #D5D4DB",
"U 	c #F7F7F7",
"V 	c #8B8B8B",
"W 	c #0D0D0D",
"X 	c #ADAD08",
"Y 	c #393643",
"Z 	c #47415F",
"` 	c #9692A4",
" .	c #D9D8DE",
"..	c #F7F7F8",
"+.	c #918DA0",
"@.	c #B8B5C1",
"#.	c #D1D1D1",
"$.	c #252525",
"%.	c #E0E900",
"&.	c #727175",
"*.	c #FEFEFF",
"=.	c #9D99AA",
"-.	c #DBD9E0",
";.	c #E9E9E9",
">.	c #CBCBCB",
",.	c #E0E0E0",
"'.	c #6C6C6C",
").	c #515151",
"!.	c #A6A6A7",
"~.	c #827E93",
"{.	c #615C77",
"].	c #EAEAED",
"^.	c #DFDFE1",
"/.	c #1E1D24",
"(.	c #9894A7",
"_.	c #B1AEBB",
":.	c #69686F",
"<.	c #615C76",
"[.	c #5F5A75",
"}.	c #413E4D",
"|.	c #1A1A1C",
"1.	c #C3C1CB",
"2.	c #9D9D9D",
"3.	c #202020",
"4.	c #383838",
"5.	c #4C4C4C",
"6.	c #C9C7D0",
"7.	c #F1F1F1",
"8.	c #F8F8F8",
"9.	c #232323",
"0.	c #AEACB9",
"a.	c #FEFEFE",
"b.	c #1D1D1D",
"c.	c #B7B5C1",
"d.	c #9390A2",
"e.	c #BBBBBB",
"f.	c #414141",
"g.	c #28272A",
"h.	c #F4F4F6",
"i.	c #605B76",
"j.	c #736E86",
"k.	c #D8D8D8",
"l.	c #727272",
"m.	c #848486",
"n.	c #CCCBD3",
"o.	c #747087",
"p.	c #6D6881",
"q.	c #1C1C1C",
"r.	c #242424",
"s.	c #656566",
"t.	c #F6F6F6",
"u.	c #E8E6EA",
"v.	c #706B84",
"w.	c #E3E1E6",
"x.	c #474746",
"y.	c #020202",
"z.	c #C8C8C8",
"A.	c #AEAEAE",
"B.	c #373639",
"C.	c #FDFCFE",
"D.	c #ABA8B7",
"E.	c #F1F0F3",
"F.	c #6D6980",
"G.	c #95929E",
"H.	c #5B5A5C",
"I.	c #F7F6F7",
"J.	c #F4F3F5",
"K.	c #908C9F",
"L.	c #C8C6D0",
"M.	c #837E96",
"N.	c #86868A",
"O.	c #ECEBEE",
"P.	c #5B5571",
"Q.	c #646078",
"R.	c #AFAFB0",
"S.	c #454545",
"T.	c #363636",
"U.	c #7A7A7A",
"V.	c #C8C8C9",
"W.	c #212025",
"X.	c #969699",
"Y.	c #FAFAFA",
"Z.	c #F8F8F9",
"`.	c #A29EAF",
" +	c #F7F6F8",
".+	c #F0F0F1",
"++	c #B8B7B9",
"@+	c #E4E4E4",
"#+	c #FDFDFD",
"$+	c #A5A2B2",
"%+	c #3B3456",
"&+	c #A8A5B4",
"*+	c #525252",
"=+	c #848387",
"-+	c #CDCDCD",
";+	c #8D899C",
">+	c #494262",
",+	c #68627C",
"'+	c #40395A",
")+	c #ECECEC",
"!+	c #B4B5B5",
"~+	c #313232",
"{+	c #E3E3E3",
"]+	c #B1AEBC",
"^+	c #BDBBC6",
"/+	c #3C3556",
"(+	c #898599",
"_+	c #EDEDED",
":+	c #39393A",
"<+	c #333333",
"[+	c #F5F5F5",
"}+	c #2B2B2B",
"|+	c #2D2A3D",
"1+	c #B6B4C1",
"2+	c #F5F5F6",
"3+	c #605A76",
"4+	c #DAD8DF",
"5+	c #F5F4F6",
"6+	c #615B76",
"7+	c #524D6A",
"8+	c #E4E3E8",
"9+	c #D5D5D5",
"0+	c #1B1B1B",
"a+	c #303030",
"b+	c #AAABAB",
"c+	c #585464",
"d+	c #B0AEBB",
"e+	c #A29FAF",
"f+	c #E9E8E9",
"g+	c #787779",
"h+	c #2D2D2E",
"i+	c #595959",
"j+	c #FAFAFB",
"k+	c #807B92",
"l+	c #B0ADBB",
"m+	c #E8E7EB",
"n+	c #3A3258",
"o+	c #E6E5EA",
"p+	c #DFDEE3",
"q+	c #443E5E",
"r+	c #BAB8C4",
"s+	c #C1BFCA",
"t+	c #E0E0E5",
"u+	c #D0CED6",
"v+	c #362F52",
"w+	c #CECCD5",
"x+	c #413A5B",
"y+	c #6A657F",
"z+	c #9793A6",
"                                                                        ",
"                                                                        ",
"                                                                        ",
"                      .   + @ #     $ %                                 ",
"                & * = *   - ; > , ' ; ; ; ) !                           ",
"                ~ ; ; {   ] ; ^ / ( _ ; : < [                           ",
"                } | 1 2   3 4 5 6 6 7 : 8 9 0 a b                       ",
"          c : d e f g h i j k l 6 6 ; m 6 6 n o p q                     ",
"        r s ; t u 6 6 v w x y z 6 A ; B 6 6 C D ; E                     ",
"      F G ; ; H I 6 6 6 J K L 6 6 6 6 6 6 6 M N O P Q R                 ",
"    S T ; ; ; ; U V W 6 6 6 6 6 X X 6 6 6 6 Y Z `  ...+.                ",
"    @.; ; ; ; ; ; = #.$.6 6 6 X %.%.6 6 6 6 6 &.*.; ; =.                ",
"    -.; ; ;.M h >.,.'.6 6 6 6 %.6 %.6 6 6 6 6 6 ).!.4 ~.                ",
"  {.].; ^.6 6 6 6 6 6 6 6 6 6 %.6 %.6 6 6 6 6 6 6 /.(.                  ",
"  Q @ _.:.6 6 6 6 6 6 6 6 6 6 %.6 %.6 6 6 6 6 6 6                       ",
"    <.[.}.6 6 6 6 6 6 6 6 6 6 %.6 %.6 6 6 6 6 6 6 |.                    ",
"  1.; ; 2.3.3.4.5.3.6 X %.X 6 %.6 X %.X 6 6 6 6 6 6                     ",
"  6.; ; 7.8.; ; ; 9.6 %.6 %.%.X 6 6 X %.6 6 X X 6 6                     ",
"  0.; ; ; ; a.; ; b.6 %.6 6 6 6 6 6 6 %.6 %.%.%.X 6 c.,                 ",
"  d.; ; a.; : e.f.%.%.X 6 6 6 6 6 6 6 %.%.%.6 %.X g.a.h.i.              ",
"  j.; ; ; k.l.6 6 X X 6 6 6 6 6 6 6 6 6 6 6 6 %.X m.; ; n.o.            ",
"  p.G ; : q.6 6 6 6 r.6 6 6 6 6 6 6 6 6 6 6 6 X %.s.t.; ; u.v.          ",
"    w.; ; x.6 6 6 y.z.A.6 6 6 6 6 6 6 6 6 6 6 6 6 6 B.C.; ; > v.        ",
"    D.; E.F.6 6 6 A.a.; G.6 6 6 6 6 6 6 6 6 6 6 6 6 6 H.I.; ; J.K.      ",
"    v.L.! M.N.6 v ; ; O.P.Q.R.l S.6 6 6 T.U.V.W.6 6 6 6 X.Y.; ; Z.@     ",
"        `. +.+++@+#+; $+%+&+; t.S.6 6 6 *+; ; =+6 6 6 6 6 -+; ; = ;+    ",
"      >+> ; ; ; ; ; ; ,+'+; ; )+4.6 6 6 B ; ; !+6 6 6 6 ~+{+; ; ]+      ",
"          > ; ; ; ; ^+/+(+; ; _+:+6 6 6 <+; ; [+}+6 6 |+1+; 2+3         ",
"          3+4+= ; 5+6+7+8+; ; 9+0+6 6 6 a+; ; ; b+*+c+                  ",
"              d+4 e+  S ; ; ; f+g+a+n h+i+; ; ; a.j+k+                  ",
"                      l+; ; ; ; ; m+n+o+; ; ; ; = p+q+                  ",
"                      r+s+t+4 ; ; u+v+w+; ; ; q (+O                     ",
"                          x+          y+z+(+                            ",
"                                                                        ",
"                                                                        ",
"                                                                        "};
