/* XPM */
static const char * SpiralIcon_xpm[] = {
"36 36 311 2",
"  	c None",
". 	c #8B889B",
"+ 	c #9C99AA",
"@ 	c #ADAAB9",
"# 	c #837F94",
"$ 	c #7D7990",
"% 	c #9995A7",
"& 	c #67627C",
"* 	c #CDCBD4",
"= 	c #FCFCFC",
"- 	c #D1D0D8",
"; 	c #FFFFFF",
"> 	c #F1F1F3",
", 	c #848095",
"' 	c #2A2248",
") 	c #CFCED6",
"! 	c #68637D",
"~ 	c #ABA8B6",
"{ 	c #D5D3DB",
"] 	c #9490A2",
"^ 	c #C4C4C4",
"/ 	c #1D1C1D",
"( 	c #313134",
"_ 	c #EEEFEE",
": 	c #FBFBFB",
"< 	c #EFEFEF",
"[ 	c #7B768D",
"} 	c #464060",
"| 	c #DEDEE1",
"1 	c #CBCACC",
"2 	c #EEEEF1",
"3 	c #79758C",
"4 	c #FBFBFC",
"5 	c #A2A2A2",
"6 	c #000000",
"7 	c #F5F6F5",
"8 	c #747474",
"9 	c #2A2A2B",
"0 	c #403958",
"a 	c #7D788F",
"b 	c #C0BEC8",
"c 	c #BCBAC6",
"d 	c #BCBAC5",
"e 	c #625C79",
"f 	c #2B2932",
"g 	c #191919",
"h 	c #CCCCCC",
"i 	c #807B91",
"j 	c #3B3556",
"k 	c #F2F2F4",
"l 	c #929292",
"m 	c #0E0E0E",
"n 	c #BFBFBF",
"o 	c #111111",
"p 	c #100E15",
"q 	c #868689",
"r 	c #FEFDFE",
"s 	c #D9D7DE",
"t 	c #9C98AA",
"u 	c #FDFCFD",
"v 	c #DDDDDD",
"w 	c #575755",
"x 	c #5E5E5E",
"y 	c #C4C2CD",
"z 	c #423C5C",
"A 	c #F0F0F2",
"B 	c #939393",
"C 	c #555555",
"D 	c #4A4A4A",
"E 	c #010101",
"F 	c #282828",
"G 	c #C2C2C2",
"H 	c #DBDAE0",
"I 	c #615C78",
"J 	c #F6F6F7",
"K 	c #DADADA",
"L 	c #545454",
"M 	c #0F0F0F",
"N 	c #B8B8B8",
"O 	c #48445C",
"P 	c #2B2B2C",
"Q 	c #181900",
"R 	c #D3D3D3",
"S 	c #C1BEC9",
"T 	c #474060",
"U 	c #31294D",
"V 	c #716C85",
"W 	c #65607A",
"X 	c #625D78",
"Y 	c #D5D4DB",
"Z 	c #F7F7F7",
"` 	c #8B8B8B",
" .	c #161616",
"..	c #0C0C0C",
"+.	c #161800",
"@.	c #1A1B00",
"#.	c #060600",
"$.	c #191A00",
"%.	c #393643",
"&.	c #47415F",
"*.	c #9692A4",
"=.	c #D9D8DE",
"-.	c #F7F7F8",
";.	c #918DA0",
">.	c #B8B5C1",
",.	c #D1D1D1",
"'.	c #212121",
").	c #2D2F00",
"!.	c #111200",
"~.	c #0B0C00",
"{.	c #0F0F00",
"].	c #090A00",
"^.	c #040400",
"/.	c #060500",
"(.	c #2B2800",
"_.	c #727175",
":.	c #FEFEFF",
"<.	c #9D99AA",
"[.	c #DBD9E0",
"}.	c #E9E9E9",
"|.	c #CBCBCB",
"1.	c #E0E0E0",
"2.	c #6C6C6C",
"3.	c #ADA400",
"4.	c #444000",
"5.	c #302D00",
"6.	c #F9EC00",
"7.	c #E8DC00",
"8.	c #515151",
"9.	c #A6A6A7",
"0.	c #827E93",
"a.	c #615C77",
"b.	c #EAEAED",
"c.	c #DFDFE1",
"d.	c #E9DD00",
"e.	c #FEF100",
"f.	c #FBEE00",
"g.	c #F7EA00",
"h.	c #1E1C00",
"i.	c #1E1D24",
"j.	c #9894A7",
"k.	c #B1AEBB",
"l.	c #69686F",
"m.	c #000001",
"n.	c #EDE000",
"o.	c #948C00",
"p.	c #645E00",
"q.	c #FDF000",
"r.	c #F1E400",
"s.	c #615C76",
"t.	c #5F5A75",
"u.	c #413E4D",
"v.	c #020203",
"w.	c #C6BB00",
"x.	c #FFF200",
"y.	c #F1E500",
"z.	c #1A1A1C",
"A.	c #C3C1CB",
"B.	c #9D9D9D",
"C.	c #202020",
"D.	c #383838",
"E.	c #4C4C4C",
"F.	c #C8BE00",
"G.	c #111112",
"H.	c #C9C7D0",
"I.	c #F1F1F1",
"J.	c #F8F8F8",
"K.	c #9C9400",
"L.	c #C5BB00",
"M.	c #D9CD00",
"N.	c #7E7700",
"O.	c #050408",
"P.	c #AEACB9",
"Q.	c #FEFEFE",
"R.	c #D1C600",
"S.	c #B5AB00",
"T.	c #B7B5C1",
"U.	c #9390A2",
"V.	c #BBBBBB",
"W.	c #414141",
"X.	c #F4E700",
"Y.	c #736D00",
"Z.	c #C4BA00",
"`.	c #28272A",
" +	c #F4F4F6",
".+	c #605B76",
"++	c #736E86",
"@+	c #D8D8D8",
"#+	c #727272",
"$+	c #101010",
"%+	c #8B8300",
"&+	c #C1B700",
"*+	c #848486",
"=+	c #CCCBD3",
"-+	c #747087",
";+	c #6D6881",
">+	c #1C1C1C",
",+	c #242424",
"'+	c #0A0A00",
")+	c #010100",
"!+	c #656566",
"~+	c #F6F6F6",
"{+	c #E8E6EA",
"]+	c #706B84",
"^+	c #E3E1E6",
"/+	c #474746",
"(+	c #151515",
"_+	c #C8C8C8",
":+	c #AEAEAE",
"<+	c #080808",
"[+	c #373639",
"}+	c #FDFCFE",
"|+	c #ABA8B7",
"1+	c #F1F0F3",
"2+	c #6D6980",
"3+	c #0A090E",
"4+	c #95929E",
"5+	c #0A0810",
"6+	c #0D0D0D",
"7+	c #050505",
"8+	c #5B5A5C",
"9+	c #F7F6F7",
"0+	c #F4F3F5",
"a+	c #908C9F",
"b+	c #C8C6D0",
"c+	c #837E96",
"d+	c #86868A",
"e+	c #070608",
"f+	c #ECEBEE",
"g+	c #5B5571",
"h+	c #646078",
"i+	c #AFAFB0",
"j+	c #454545",
"k+	c #363636",
"l+	c #7A7A7A",
"m+	c #C8C8C9",
"n+	c #212025",
"o+	c #060607",
"p+	c #969699",
"q+	c #FAFAFA",
"r+	c #F8F8F9",
"s+	c #A29EAF",
"t+	c #F7F6F8",
"u+	c #F0F0F1",
"v+	c #B8B7B9",
"w+	c #E4E4E4",
"x+	c #FDFDFD",
"y+	c #A5A2B2",
"z+	c #3B3456",
"A+	c #A8A5B4",
"B+	c #525252",
"C+	c #848387",
"D+	c #CDCDCD",
"E+	c #8D899C",
"F+	c #494262",
"G+	c #68627C",
"H+	c #40395A",
"I+	c #ECECEC",
"J+	c #020202",
"K+	c #B4B5B5",
"L+	c #0B0B0B",
"M+	c #313232",
"N+	c #E3E3E3",
"O+	c #B1AEBC",
"P+	c #BDBBC6",
"Q+	c #3C3556",
"R+	c #898599",
"S+	c #EDEDED",
"T+	c #39393A",
"U+	c #040404",
"V+	c #333333",
"W+	c #F5F5F5",
"X+	c #2B2B2B",
"Y+	c #2D2A3D",
"Z+	c #B6B4C1",
"`+	c #F5F5F6",
" @	c #605A76",
".@	c #DAD8DF",
"+@	c #F5F4F6",
"@@	c #615B76",
"#@	c #524D6A",
"$@	c #E4E3E8",
"%@	c #D5D5D5",
"&@	c #1B1B1B",
"*@	c #303030",
"=@	c #AAABAB",
"-@	c #585464",
";@	c #B0AEBB",
">@	c #A29FAF",
",@	c #E9E8E9",
"'@	c #787779",
")@	c #0F0E15",
"!@	c #2D2D2E",
"~@	c #595959",
"{@	c #FAFAFB",
"]@	c #807B92",
"^@	c #B0ADBB",
"/@	c #E8E7EB",
"(@	c #3A3258",
"_@	c #E6E5EA",
":@	c #DFDEE3",
"<@	c #443E5E",
"[@	c #BAB8C4",
"}@	c #C1BFCA",
"|@	c #E0E0E5",
"1@	c #D0CED6",
"2@	c #362F52",
"3@	c #CECCD5",
"4@	c #413A5B",
"5@	c #6A657F",
"6@	c #9793A6",
"                                                                        ",
"                                                                        ",
"                                                                        ",
"                      .   + @ #     $ %                                 ",
"                & * = *   - ; > , ' ; ; ; ) !                           ",
"                ~ ; ; {   ] ; ^ / ( _ ; : < [                           ",
"                } | 1 2   3 4 5 6 6 7 : 8 9 0 a b                       ",
"          c : d e f g h i j k l 6 m ; n o 6 p q r s                     ",
"        t u ; v w 6 6 x y z A B 6 C ; D E 6 F G ; H                     ",
"      I J ; ; K L 6 6 M N O P E 6 6 6 Q Q M R S T U V W                 ",
"    X Y ; ; ; ; Z `  .6 ..6 6 6 6 6 +.@.#.$.%.&.*.=.-.;.                ",
"    >.; ; ; ; ; ; = ,.'.).!.~.{.].6 ^.6 /.(.E _.:.; ; <.                ",
"    [.; ; }.R h |.1.2.6 3.4.6 6 6 6 6 5.6.7.6 E 8.9.4 0.                ",
"  a.b.; c...6 6 6 6 6 6 d.e.4.6 6 6 5.f.g.h.6 6 6 i.j.                  ",
"  V @ k.l.m.6 6 6 6 6 6 6 n.e.o.6 p.q.r.h.6 6 6 6                       ",
"    s.t.u.6 v.6 6 6 6 6 6 6 w.x.y.e.n./.6 6 6 6 6 z.                    ",
"  A.; ; B.C.C.D.E.6 6 6 6 6 6 F.x.e.o.6 6 6 6 6 6 G.                    ",
"  H.; ; I.J.; ; ; 6 6 6 6 6 K.x.L.M.e.N.6 6 6 6 6 O.                    ",
"  P.; ; ; ; Q.; ; 6 6 6 /.d.x.K.6 6 R.x.S.6 6 6 6 6 T.,                 ",
"  U.; ; Q.; : V.W.6 6 6 X.e.Y.6 6 6 6 Z.e.4.6 6 6 `.Q. +.+              ",
"  ++; ; ; @+#+$+6 6 6 6 M.%+6 6 6 6 6 6 d.&+6 6 Q *+; ; =+-+            ",
"  ;+J ; : >+6 6 6 6 ,+..6 6 6 6 6 6 '+6 6 )+6 6 6 !+~+; ; {+]+          ",
"    ^+; ; /+6 E 6 (+_+:+<+6 6 6 6 6 6 6 6 )+6 6 6 6 [+}+; ; > ]+        ",
"    |+; 1+2+3+6 6 :+Q.; 4+5+6 6 6 6 6 6 6 6 6+7+6 6 6 8+9+; ; 0+a+      ",
"    ]+b+! c+d+e+x ; ; f+g+h+i+l j+6 6 6 k+l+m+n+6 6 6 o+p+q+; ; r+@     ",
"        s+t+u+v+w+x+; y+z+A+; ~+j+6 6 E B+; ; C+6 6 E 6 o D+; ; = E+    ",
"      F+> ; ; ; ; ; ; G+H+; ; I+D.6 6 J+D ; ; K+L+6 6 6 M+N+; ; O+      ",
"          > ; ; ; ; P+Q+R+; ; S+T+6 6 U+V+; ; W+X+6 6 Y+Z+; `+3         ",
"           @.@= ; +@@@#@$@; ; %@&@6 6 J+*@; ; ; =@B+-@                  ",
"              ;@4 >@  X ; ; ; ,@'@*@)@!@~@; ; ; Q.{@]@                  ",
"                      ^@; ; ; ; ; /@(@_@; ; ; ; = :@<@                  ",
"                      [@}@|@4 ; ; 1@2@3@; ; ; s R+T                     ",
"                          4@          5@6@R+                            ",
"                                                                        ",
"                                                                        ",
"                                                                        "};
