/* XPM */
static char * SpiralIcon_xpm[] = {
"36 36 298 2",
"  	c None",
". 	c #8B889B",
"+ 	c #9C99AA",
"@ 	c #ADAAB9",
"# 	c #837F94",
"$ 	c #7D7990",
"% 	c #9995A7",
"& 	c #67627C",
"* 	c #CDCBD4",
"= 	c #FCFCFC",
"- 	c #D1D0D8",
"; 	c #FFFFFF",
"> 	c #F1F1F3",
", 	c #848095",
"' 	c #2A2248",
") 	c #CFCED6",
"! 	c #68637D",
"~ 	c #ABA8B6",
"{ 	c #D5D3DB",
"] 	c #9490A2",
"^ 	c #C4C4C4",
"/ 	c #1D1C1D",
"( 	c #313134",
"_ 	c #EEEFEE",
": 	c #FBFBFB",
"< 	c #EFEFEF",
"[ 	c #7B768D",
"} 	c #464060",
"| 	c #DEDEE1",
"1 	c #CBCACC",
"2 	c #EEEEF1",
"3 	c #79758C",
"4 	c #FBFBFC",
"5 	c #A2A2A2",
"6 	c #000000",
"7 	c #F5F6F5",
"8 	c #747474",
"9 	c #2A2A2B",
"0 	c #403958",
"a 	c #7D788F",
"b 	c #C0BEC8",
"c 	c #BCBAC6",
"d 	c #BCBAC5",
"e 	c #625C79",
"f 	c #2B2932",
"g 	c #191919",
"h 	c #CCCCCC",
"i 	c #807B91",
"j 	c #3B3556",
"k 	c #F2F2F4",
"l 	c #929292",
"m 	c #0E0E0E",
"n 	c #BFBFBF",
"o 	c #111111",
"p 	c #100E15",
"q 	c #868689",
"r 	c #FEFDFE",
"s 	c #D9D7DE",
"t 	c #9C98AA",
"u 	c #FDFCFD",
"v 	c #DDDDDD",
"w 	c #575755",
"x 	c #5E5E5E",
"y 	c #C4C2CD",
"z 	c #423C5C",
"A 	c #F0F0F2",
"B 	c #939393",
"C 	c #555555",
"D 	c #4A4A4A",
"E 	c #010101",
"F 	c #282828",
"G 	c #C2C2C2",
"H 	c #DBDAE0",
"I 	c #615C78",
"J 	c #F6F6F7",
"K 	c #DADADA",
"L 	c #545454",
"M 	c #0F0F0F",
"N 	c #B8B8B8",
"O 	c #48445C",
"P 	c #2B2B2C",
"Q 	c #181900",
"R 	c #D3D3D3",
"S 	c #C1BEC9",
"T 	c #474060",
"U 	c #31294D",
"V 	c #716C85",
"W 	c #65607A",
"X 	c #625D78",
"Y 	c #D5D4DB",
"Z 	c #F7F7F7",
"` 	c #8B8B8B",
" .	c #161616",
"..	c #0C0C0C",
"+.	c #393643",
"@.	c #47415F",
"#.	c #9692A4",
"$.	c #D9D8DE",
"%.	c #F7F7F8",
"&.	c #918DA0",
"*.	c #B8B5C1",
"=.	c #D1D1D1",
"-.	c #252525",
";.	c #6F7300",
">.	c #8C9100",
",.	c #888D00",
"'.	c #363800",
").	c #010100",
"!.	c #727175",
"~.	c #FEFEFF",
"{.	c #9D99AA",
"].	c #DBD9E0",
"^.	c #E9E9E9",
"/.	c #CBCBCB",
"(.	c #E0E0E0",
"_.	c #6C6C6C",
":.	c #ECF500",
"<.	c #F1FA00",
"[.	c #F0F900",
"}.	c #F2FB00",
"|.	c #0B0C00",
"1.	c #020300",
"2.	c #515151",
"3.	c #A6A6A7",
"4.	c #827E93",
"5.	c #615C77",
"6.	c #EAEAED",
"7.	c #DFDFE1",
"8.	c #EFF800",
"9.	c #B1B700",
"0.	c #1E1D24",
"a.	c #9894A7",
"b.	c #B1AEBB",
"c.	c #69686F",
"d.	c #000001",
"e.	c #0A0A00",
"f.	c #DEE600",
"g.	c #615C76",
"h.	c #5F5A75",
"i.	c #413E4D",
"j.	c #020203",
"k.	c #1A1A1C",
"l.	c #C3C1CB",
"m.	c #9D9D9D",
"n.	c #202020",
"o.	c #383838",
"p.	c #4C4C4C",
"q.	c #111112",
"r.	c #C9C7D0",
"s.	c #F1F1F1",
"t.	c #F8F8F8",
"u.	c #232323",
"v.	c #282A00",
"w.	c #050500",
"x.	c #050408",
"y.	c #AEACB9",
"z.	c #FEFEFE",
"A.	c #1D1D1D",
"B.	c #EDF600",
"C.	c #717500",
"D.	c #B7B5C1",
"E.	c #9390A2",
"F.	c #BBBBBB",
"G.	c #414141",
"H.	c #030303",
"I.	c #EEF700",
"J.	c #DAE200",
"K.	c #404300",
"L.	c #BCC300",
"M.	c #28272A",
"N.	c #F4F4F6",
"O.	c #605B76",
"P.	c #736E86",
"Q.	c #D8D8D8",
"R.	c #727272",
"S.	c #101010",
"T.	c #B7BE00",
"U.	c #F3FC00",
"V.	c #EAF300",
"W.	c #848486",
"X.	c #CCCBD3",
"Y.	c #747087",
"Z.	c #6D6881",
"`.	c #1C1C1C",
" +	c #242424",
".+	c #575A00",
"++	c #898E00",
"@+	c #4F5200",
"#+	c #656566",
"$+	c #F6F6F6",
"%+	c #E8E6EA",
"&+	c #706B84",
"*+	c #E3E1E6",
"=+	c #474746",
"-+	c #151515",
";+	c #C8C8C8",
">+	c #AEAEAE",
",+	c #080808",
"'+	c #373639",
")+	c #FDFCFE",
"!+	c #ABA8B7",
"~+	c #F1F0F3",
"{+	c #6D6980",
"]+	c #0A090E",
"^+	c #95929E",
"/+	c #0A0810",
"(+	c #050505",
"_+	c #5B5A5C",
":+	c #F7F6F7",
"<+	c #F4F3F5",
"[+	c #908C9F",
"}+	c #C8C6D0",
"|+	c #837E96",
"1+	c #86868A",
"2+	c #070608",
"3+	c #ECEBEE",
"4+	c #5B5571",
"5+	c #646078",
"6+	c #AFAFB0",
"7+	c #454545",
"8+	c #333408",
"9+	c #7A7A7A",
"0+	c #C8C8C9",
"a+	c #212025",
"b+	c #060607",
"c+	c #969699",
"d+	c #FAFAFA",
"e+	c #F8F8F9",
"f+	c #A29EAF",
"g+	c #F7F6F8",
"h+	c #F0F0F1",
"i+	c #B8B7B9",
"j+	c #E4E4E4",
"k+	c #FDFDFD",
"l+	c #A5A2B2",
"m+	c #3B3456",
"n+	c #A8A5B4",
"o+	c #525252",
"p+	c #848387",
"q+	c #CDCDCD",
"r+	c #8D899C",
"s+	c #494262",
"t+	c #68627C",
"u+	c #40395A",
"v+	c #ECECEC",
"w+	c #020202",
"x+	c #B4B5B5",
"y+	c #0B0B0B",
"z+	c #313232",
"A+	c #E3E3E3",
"B+	c #B1AEBC",
"C+	c #BDBBC6",
"D+	c #3C3556",
"E+	c #898599",
"F+	c #EDEDED",
"G+	c #39393A",
"H+	c #040404",
"I+	c #333333",
"J+	c #F5F5F5",
"K+	c #2B2B2B",
"L+	c #2D2A3D",
"M+	c #B6B4C1",
"N+	c #F5F5F6",
"O+	c #605A76",
"P+	c #DAD8DF",
"Q+	c #F5F4F6",
"R+	c #615B76",
"S+	c #524D6A",
"T+	c #E4E3E8",
"U+	c #D5D5D5",
"V+	c #1B1B1B",
"W+	c #303030",
"X+	c #AAABAB",
"Y+	c #585464",
"Z+	c #B0AEBB",
"`+	c #A29FAF",
" @	c #E9E8E9",
".@	c #787779",
"+@	c #0F0E15",
"@@	c #2D2D2E",
"#@	c #595959",
"$@	c #FAFAFB",
"%@	c #807B92",
"&@	c #B0ADBB",
"*@	c #E8E7EB",
"=@	c #3A3258",
"-@	c #E6E5EA",
";@	c #DFDEE3",
">@	c #443E5E",
",@	c #BAB8C4",
"'@	c #C1BFCA",
")@	c #E0E0E5",
"!@	c #D0CED6",
"~@	c #362F52",
"{@	c #CECCD5",
"]@	c #413A5B",
"^@	c #6A657F",
"/@	c #9793A6",
"                                                                        ",
"                                                                        ",
"                                                                        ",
"                      .   + @ #     $ %                                 ",
"                & * = *   - ; > , ' ; ; ; ) !                           ",
"                ~ ; ; {   ] ; ^ / ( _ ; : < [                           ",
"                } | 1 2   3 4 5 6 6 7 : 8 9 0 a b                       ",
"          c : d e f g h i j k l 6 m ; n o 6 p q r s                     ",
"        t u ; v w 6 6 x y z A B 6 C ; D E 6 F G ; H                     ",
"      I J ; ; K L 6 6 M N O P E 6 6 6 Q Q M R S T U V W                 ",
"    X Y ; ; ; ; Z `  .6 ..6 6 6 6 6 6 6 6 6 +.@.#.$.%.&.                ",
"    *.; ; ; ; ; ; = =.-.6 ;.>.,.,.,.,.,.'.6 ).!.~.; ; {.                ",
"    ].; ; ^.R h /.(._.6 6 :.<.[.[.}.<.[.[.|.1.E 2.3.4 4.                ",
"  5.6.; 7...6 6 6 6 6 6 6 6 6 6 6 8.9.6 6 6 6 6 6 0.a.                  ",
"  V @ b.c.d.6 6 6 6 6 e.6 6 6 6 6 f.f.6 6 6 6 6 6                       ",
"    g.h.i.6 j.6 6 6 6 6 6 6 6 6 6 f.f.6 6 6 6 6 6 k.                    ",
"  l.; ; m.n.n.o.p.n.6 6 6 6 6 6 6 f.f.6 6 6 6 6 6 q.                    ",
"  r.; ; s.t.; ; ; u.6 6 6 v.w.6 6 f.f.6 6 6 6 6 6 x.                    ",
"  y.; ; ; ; z.; ; A.6 6 6 B.C.6 6 f.f.6 6 6 6 6 6 6 D.,                 ",
"  E.; ; z.; : F.G.H.6 6 6 I.J.6 K.}.L.6 6 6 6 6 6 M.z.N.O.              ",
"  P.; ; ; Q.R.S.6 6 6 6 6 T.U.<.U.V.w.6 6 6 6 6 6 W.; ; X.Y.            ",
"  Z.J ; : `.6 6 6 6  +..6 6 .+++@+6 6 6 6 6 6 6 6 #+$+; ; %+&+          ",
"    *+; ; =+6 E 6 -+;+>+,+6 6 6 6 6 6 6 6 6 6 6 6 6 '+)+; ; > &+        ",
"    !+; ~+{+]+6 6 >+z.; ^+/+6 6 6 6 6 6 6 6 m (+6 6 6 _+:+; ; <+[+      ",
"    &+}+! |+1+2+x ; ; 3+4+5+6+l 7+6 6 6 8+9+0+a+6 6 6 b+c+d+; ; e+@     ",
"        f+g+h+i+j+k+; l+m+n+; $+7+6 6 E o+; ; p+6 6 E 6 o q+; ; = r+    ",
"      s+> ; ; ; ; ; ; t+u+; ; v+o.6 6 w+D ; ; x+y+6 6 6 z+A+; ; B+      ",
"          > ; ; ; ; C+D+E+; ; F+G+6 6 H+I+; ; J+K+6 6 L+M+; N+3         ",
"          O+P+= ; Q+R+S+T+; ; U+V+6 6 w+W+; ; ; X+o+Y+                  ",
"              Z+4 `+  X ; ; ;  @.@W++@@@#@; ; ; z.$@%@                  ",
"                      &@; ; ; ; ; *@=@-@; ; ; ; = ;@>@                  ",
"                      ,@'@)@4 ; ; !@~@{@; ; ; s E+T                     ",
"                          ]@          ^@/@E+                            ",
"                                                                        ",
"                                                                        ",
"                                                                        "};
