/* XPM */
static const char * SpiralIcon_xpm[] = {
"36 36 304 2",
"  	c None",
". 	c #8B889B",
"+ 	c #9C99AA",
"@ 	c #ADAAB9",
"# 	c #837F94",
"$ 	c #7D7990",
"% 	c #9995A7",
"& 	c #67627C",
"* 	c #CDCBD4",
"= 	c #FCFCFC",
"- 	c #D1D0D8",
"; 	c #FFFFFF",
"> 	c #F1F1F3",
", 	c #848095",
"' 	c #2A2248",
") 	c #CFCED6",
"! 	c #68637D",
"~ 	c #ABA8B6",
"{ 	c #D5D3DB",
"] 	c #9490A2",
"^ 	c #C4C4C4",
"/ 	c #1D1C1D",
"( 	c #313134",
"_ 	c #EEEFEE",
": 	c #FBFBFB",
"< 	c #EFEFEF",
"[ 	c #7B768D",
"} 	c #464060",
"| 	c #DEDEE1",
"1 	c #CBCACC",
"2 	c #EEEEF1",
"3 	c #79758C",
"4 	c #FBFBFC",
"5 	c #A2A2A2",
"6 	c #000000",
"7 	c #F5F6F5",
"8 	c #747474",
"9 	c #2A2A2B",
"0 	c #403958",
"a 	c #7D788F",
"b 	c #C0BEC8",
"c 	c #BCBAC6",
"d 	c #BCBAC5",
"e 	c #625C79",
"f 	c #2B2932",
"g 	c #191919",
"h 	c #CCCCCC",
"i 	c #807B91",
"j 	c #3B3556",
"k 	c #F2F2F4",
"l 	c #929292",
"m 	c #0E0E0E",
"n 	c #BFBFBF",
"o 	c #111111",
"p 	c #100E15",
"q 	c #868689",
"r 	c #FEFDFE",
"s 	c #D9D7DE",
"t 	c #9C98AA",
"u 	c #FDFCFD",
"v 	c #DDDDDD",
"w 	c #575755",
"x 	c #5E5E5E",
"y 	c #C4C2CD",
"z 	c #423C5C",
"A 	c #F0F0F2",
"B 	c #939393",
"C 	c #555555",
"D 	c #4A4A4A",
"E 	c #010101",
"F 	c #282828",
"G 	c #C2C2C2",
"H 	c #DBDAE0",
"I 	c #615C78",
"J 	c #F6F6F7",
"K 	c #DADADA",
"L 	c #545454",
"M 	c #0F0F0F",
"N 	c #B8B8B8",
"O 	c #48445C",
"P 	c #2B2B2C",
"Q 	c #181900",
"R 	c #D3D3D3",
"S 	c #C1BEC9",
"T 	c #474060",
"U 	c #31294D",
"V 	c #716C85",
"W 	c #65607A",
"X 	c #625D78",
"Y 	c #D5D4DB",
"Z 	c #F7F7F7",
"` 	c #8B8B8B",
" .	c #161616",
"..	c #0C0C0C",
"+.	c #161800",
"@.	c #1A1B00",
"#.	c #060600",
"$.	c #191A00",
"%.	c #393643",
"&.	c #47415F",
"*.	c #9692A4",
"=.	c #D9D8DE",
"-.	c #F7F7F8",
";.	c #918DA0",
">.	c #B8B5C1",
",.	c #D1D1D1",
"'.	c #252525",
").	c #040400",
"!.	c #141500",
"~.	c #727175",
"{.	c #FEFEFF",
"].	c #9D99AA",
"^.	c #DBD9E0",
"/.	c #E9E9E9",
"(.	c #CBCBCB",
"_.	c #E0E0E0",
":.	c #6C6C6C",
"<.	c #010200",
"[.	c #C8D000",
"}.	c #F5FE00",
"|.	c #F4FD00",
"1.	c #F0F900",
"2.	c #292B00",
"3.	c #515151",
"4.	c #A6A6A7",
"5.	c #827E93",
"6.	c #615C77",
"7.	c #EAEAED",
"8.	c #DFDFE1",
"9.	c #E5EE00",
"0.	c #EDF600",
"a.	c #8D9200",
"b.	c #8C9200",
"c.	c #737800",
"d.	c #050600",
"e.	c #1E1D24",
"f.	c #9894A7",
"g.	c #B1AEBB",
"h.	c #69686F",
"i.	c #000001",
"j.	c #0A0A00",
"k.	c #171800",
"l.	c #E0E900",
"m.	c #615C76",
"n.	c #5F5A75",
"o.	c #413E4D",
"p.	c #020203",
"q.	c #040500",
"r.	c #050500",
"s.	c #1A1A1C",
"t.	c #C3C1CB",
"u.	c #9D9D9D",
"v.	c #202020",
"w.	c #383838",
"x.	c #4C4C4C",
"y.	c #7B8000",
"z.	c #F6FF00",
"A.	c #E4ED00",
"B.	c #121300",
"C.	c #111112",
"D.	c #C9C7D0",
"E.	c #F1F1F1",
"F.	c #F8F8F8",
"G.	c #232323",
"H.	c #010100",
"I.	c #050408",
"J.	c #AEACB9",
"K.	c #FEFEFE",
"L.	c #1D1D1D",
"M.	c #020200",
"N.	c #101100",
"O.	c #B7B5C1",
"P.	c #9390A2",
"Q.	c #BBBBBB",
"R.	c #414141",
"S.	c #030303",
"T.	c #F2FB00",
"U.	c #A3A900",
"V.	c #28272A",
"W.	c #F4F4F6",
"X.	c #605B76",
"Y.	c #736E86",
"Z.	c #D8D8D8",
"`.	c #727272",
" +	c #101010",
".+	c #797E00",
"++	c #1E2000",
"@+	c #848486",
"#+	c #CCCBD3",
"$+	c #747087",
"%+	c #6D6881",
"&+	c #1C1C1C",
"*+	c #242424",
"=+	c #656566",
"-+	c #F6F6F6",
";+	c #E8E6EA",
">+	c #706B84",
",+	c #E3E1E6",
"'+	c #474746",
")+	c #151515",
"!+	c #C8C8C8",
"~+	c #AEAEAE",
"{+	c #080808",
"]+	c #373639",
"^+	c #FDFCFE",
"/+	c #ABA8B7",
"(+	c #F1F0F3",
"_+	c #6D6980",
":+	c #0A090E",
"<+	c #95929E",
"[+	c #0A0810",
"}+	c #0D0D0D",
"|+	c #050505",
"1+	c #5B5A5C",
"2+	c #F7F6F7",
"3+	c #F4F3F5",
"4+	c #908C9F",
"5+	c #C8C6D0",
"6+	c #837E96",
"7+	c #86868A",
"8+	c #070608",
"9+	c #ECEBEE",
"0+	c #5B5571",
"a+	c #646078",
"b+	c #AFAFB0",
"c+	c #454545",
"d+	c #363636",
"e+	c #7A7A7A",
"f+	c #C8C8C9",
"g+	c #212025",
"h+	c #060607",
"i+	c #969699",
"j+	c #FAFAFA",
"k+	c #F8F8F9",
"l+	c #A29EAF",
"m+	c #F7F6F8",
"n+	c #F0F0F1",
"o+	c #B8B7B9",
"p+	c #E4E4E4",
"q+	c #FDFDFD",
"r+	c #A5A2B2",
"s+	c #3B3456",
"t+	c #A8A5B4",
"u+	c #525252",
"v+	c #848387",
"w+	c #CDCDCD",
"x+	c #8D899C",
"y+	c #494262",
"z+	c #68627C",
"A+	c #40395A",
"B+	c #ECECEC",
"C+	c #020202",
"D+	c #B4B5B5",
"E+	c #0B0B0B",
"F+	c #313232",
"G+	c #E3E3E3",
"H+	c #B1AEBC",
"I+	c #BDBBC6",
"J+	c #3C3556",
"K+	c #898599",
"L+	c #EDEDED",
"M+	c #39393A",
"N+	c #040404",
"O+	c #333333",
"P+	c #F5F5F5",
"Q+	c #2B2B2B",
"R+	c #2D2A3D",
"S+	c #B6B4C1",
"T+	c #F5F5F6",
"U+	c #605A76",
"V+	c #DAD8DF",
"W+	c #F5F4F6",
"X+	c #615B76",
"Y+	c #524D6A",
"Z+	c #E4E3E8",
"`+	c #D5D5D5",
" @	c #1B1B1B",
".@	c #303030",
"+@	c #AAABAB",
"@@	c #585464",
"#@	c #B0AEBB",
"$@	c #A29FAF",
"%@	c #E9E8E9",
"&@	c #787779",
"*@	c #0F0E15",
"=@	c #2D2D2E",
"-@	c #595959",
";@	c #FAFAFB",
">@	c #807B92",
",@	c #B0ADBB",
"'@	c #E8E7EB",
")@	c #3A3258",
"!@	c #E6E5EA",
"~@	c #DFDEE3",
"{@	c #443E5E",
"]@	c #BAB8C4",
"^@	c #C1BFCA",
"/@	c #E0E0E5",
"(@	c #D0CED6",
"_@	c #362F52",
":@	c #CECCD5",
"<@	c #413A5B",
"[@	c #6A657F",
"}@	c #9793A6",
"                                                                        ",
"                                                                        ",
"                                                                        ",
"                      .   + @ #     $ %                                 ",
"                & * = *   - ; > , ' ; ; ; ) !                           ",
"                ~ ; ; {   ] ; ^ / ( _ ; : < [                           ",
"                } | 1 2   3 4 5 6 6 7 : 8 9 0 a b                       ",
"          c : d e f g h i j k l 6 m ; n o 6 p q r s                     ",
"        t u ; v w 6 6 x y z A B 6 C ; D E 6 F G ; H                     ",
"      I J ; ; K L 6 6 M N O P E 6 6 6 Q Q M R S T U V W                 ",
"    X Y ; ; ; ; Z `  .6 ..6 6 6 6 6 +.@.#.$.%.&.*.=.-.;.                ",
"    >.; ; ; ; ; ; = ,.'.6 6 ).6 6 !.).6 6 6 E ~.{.; ; ].                ",
"    ^.; ; /.R h (._.:.6 6 6 <.[.}.|.|.1.2.6 6 E 3.4.4 5.                ",
"  6.7.; 8...6 6 6 6 6 6 6 6 <.9.0.a.b.c.d.6 6 6 6 e.f.                  ",
"  V @ g.h.i.6 6 6 6 6 j.k.6 <.l.l.6 6 6 6 6 6 6 6                       ",
"    m.n.o.6 p.6 6 6 6 6 q.6 <.l.l.6 6 6 6 r.6 6 6 s.                    ",
"  t.; ; u.v.v.w.x.v.6 y.z.z.z.A.l.6 6 6 6 B.6 6 6 C.                    ",
"  D.; ; E.F.; ; ; G.6 H.!.6 6 l.l.6 6 6 6 B.6 6 6 I.                    ",
"  J.; ; ; ; K.; ; L.6 M.N.6 6 l.l.6 6 6 6 B.6 6 6 6 O.,                 ",
"  P.; ; K.; : Q.R.S.6 6 6 6 6 l.T.l.l.U.).M.6 6 6 V.K.W.X.              ",
"  Y.; ; ; Z.`. +6 6 6 6 6 6 6 .+l.l.l.U.++6 6 6 6 @+; ; #+$+            ",
"  %+J ; : &+6 6 6 6 *+..6 6 6 6 6 6 j.6 6 H.6 6 6 =+-+; ; ;+>+          ",
"    ,+; ; '+6 E 6 )+!+~+{+6 6 6 6 6 6 6 6 H.6 6 6 6 ]+^+; ; > >+        ",
"    /+; (+_+:+6 6 ~+K.; <+[+6 6 6 6 6 6 6 6 }+|+6 6 6 1+2+; ; 3+4+      ",
"    >+5+! 6+7+8+x ; ; 9+0+a+b+l c+6 6 6 d+e+f+g+6 6 6 h+i+j+; ; k+@     ",
"        l+m+n+o+p+q+; r+s+t+; -+c+6 6 E u+; ; v+6 6 E 6 o w+; ; = x+    ",
"      y+> ; ; ; ; ; ; z+A+; ; B+w.6 6 C+D ; ; D+E+6 6 6 F+G+; ; H+      ",
"          > ; ; ; ; I+J+K+; ; L+M+6 6 N+O+; ; P+Q+6 6 R+S+; T+3         ",
"          U+V+= ; W+X+Y+Z+; ; `+ @6 6 C+.@; ; ; +@u+@@                  ",
"              #@4 $@  X ; ; ; %@&@.@*@=@-@; ; ; K.;@>@                  ",
"                      ,@; ; ; ; ; '@)@!@; ; ; ; = ~@{@                  ",
"                      ]@^@/@4 ; ; (@_@:@; ; ; s K+T                     ",
"                          <@          [@}@K+                            ",
"                                                                        ",
"                                                                        ",
"                                                                        "};
