/* XPM */
static const char * SpiralIcon_xpm[] = {
"36 36 286 2",
"  	c None",
". 	c #8B889B",
"+ 	c #9C99AA",
"@ 	c #ADAAB9",
"# 	c #837F94",
"$ 	c #7D7990",
"% 	c #9995A7",
"& 	c #67627C",
"* 	c #CDCBD4",
"= 	c #FCFCFC",
"- 	c #D1D0D8",
"; 	c #FFFFFF",
"> 	c #F1F1F3",
", 	c #848095",
"' 	c #2A2248",
") 	c #CFCED6",
"! 	c #68637D",
"~ 	c #ABA8B6",
"{ 	c #D5D3DB",
"] 	c #9490A2",
"^ 	c #C4C4C4",
"/ 	c #1D1C1D",
"( 	c #313134",
"_ 	c #EEEFEE",
": 	c #FBFBFB",
"< 	c #EFEFEF",
"[ 	c #7B768D",
"} 	c #464060",
"| 	c #DEDEE1",
"1 	c #CBCACC",
"2 	c #EEEEF1",
"3 	c #79758C",
"4 	c #FBFBFC",
"5 	c #A2A2A2",
"6 	c #000000",
"7 	c #F5F6F5",
"8 	c #747474",
"9 	c #2A2A2B",
"0 	c #403958",
"a 	c #7D788F",
"b 	c #C0BEC8",
"c 	c #BCBAC6",
"d 	c #BCBAC5",
"e 	c #625C79",
"f 	c #2B2932",
"g 	c #191919",
"h 	c #CCCCCC",
"i 	c #807B91",
"j 	c #3B3556",
"k 	c #F2F2F4",
"l 	c #929292",
"m 	c #0E0E0E",
"n 	c #BFBFBF",
"o 	c #111111",
"p 	c #100E15",
"q 	c #868689",
"r 	c #FEFDFE",
"s 	c #D9D7DE",
"t 	c #9C98AA",
"u 	c #FDFCFD",
"v 	c #DDDDDD",
"w 	c #575755",
"x 	c #5E5E5E",
"y 	c #C4C2CD",
"z 	c #423C5C",
"A 	c #F0F0F2",
"B 	c #939393",
"C 	c #555555",
"D 	c #4A4A4A",
"E 	c #010101",
"F 	c #282828",
"G 	c #C2C2C2",
"H 	c #DBDAE0",
"I 	c #615C78",
"J 	c #F6F6F7",
"K 	c #DADADA",
"L 	c #545454",
"M 	c #0F0F0F",
"N 	c #B8B8B8",
"O 	c #48445C",
"P 	c #2B2B2C",
"Q 	c #181900",
"R 	c #D3D3D3",
"S 	c #C1BEC9",
"T 	c #474060",
"U 	c #31294D",
"V 	c #716C85",
"W 	c #65607A",
"X 	c #625D78",
"Y 	c #D5D4DB",
"Z 	c #F7F7F7",
"` 	c #8B8B8B",
" .	c #161616",
"..	c #0A0A0A",
"+.	c #151700",
"@.	c #1A1B00",
"#.	c #060600",
"$.	c #191A00",
"%.	c #393643",
"&.	c #47415F",
"*.	c #9692A4",
"=.	c #D9D8DE",
"-.	c #F7F7F8",
";.	c #918DA0",
">.	c #B8B5C1",
",.	c #D1D1D1",
"'.	c #212121",
").	c #282900",
"!.	c #030300",
"~.	c #070700",
"{.	c #020200",
"].	c #727175",
"^.	c #FEFEFF",
"/.	c #9D99AA",
"(.	c #DBD9E0",
"_.	c #E9E9E9",
":.	c #CBCBCB",
"<.	c #E0E0E0",
"[.	c #6C6C6C",
"}.	c #FEF100",
"|.	c #515151",
"1.	c #A6A6A7",
"2.	c #827E93",
"3.	c #615C77",
"4.	c #EAEAED",
"5.	c #DFDFE1",
"6.	c #0C0C0C",
"7.	c #191700",
"8.	c #1E1D24",
"9.	c #9894A7",
"0.	c #B1AEBB",
"a.	c #69686F",
"b.	c #000001",
"c.	c #615C76",
"d.	c #5F5A75",
"e.	c #413E4D",
"f.	c #020203",
"g.	c #010100",
"h.	c #1A1A1C",
"i.	c #C3C1CB",
"j.	c #9D9D9D",
"k.	c #202020",
"l.	c #383838",
"m.	c #4C4C4C",
"n.	c #1E1C00",
"o.	c #111112",
"p.	c #C9C7D0",
"q.	c #F1F1F1",
"r.	c #F8F8F8",
"s.	c #232323",
"t.	c #050408",
"u.	c #AEACB9",
"v.	c #FEFEFE",
"w.	c #1D1D1D",
"x.	c #B7B5C1",
"y.	c #9390A2",
"z.	c #BBBBBB",
"A.	c #414141",
"B.	c #030303",
"C.	c #28272A",
"D.	c #F4F4F6",
"E.	c #605B76",
"F.	c #736E86",
"G.	c #D8D8D8",
"H.	c #727272",
"I.	c #101010",
"J.	c #848486",
"K.	c #CCCBD3",
"L.	c #747087",
"M.	c #6D6881",
"N.	c #1C1C1C",
"O.	c #242424",
"P.	c #212205",
"Q.	c #1B1D00",
"R.	c #000100",
"S.	c #656566",
"T.	c #F6F6F6",
"U.	c #E8E6EA",
"V.	c #706B84",
"W.	c #E3E1E6",
"X.	c #474746",
"Y.	c #151515",
"Z.	c #C8C8C8",
"`.	c #AEAEAE",
" +	c #070707",
".+	c #373639",
"++	c #FDFCFE",
"@+	c #ABA8B7",
"#+	c #F1F0F3",
"$+	c #6D6980",
"%+	c #0A090E",
"&+	c #95929E",
"*+	c #0A0810",
"=+	c #0D0D0D",
"-+	c #050505",
";+	c #5B5A5C",
">+	c #F7F6F7",
",+	c #F4F3F5",
"'+	c #908C9F",
")+	c #C8C6D0",
"!+	c #837E96",
"~+	c #86868A",
"{+	c #070608",
"]+	c #ECEBEE",
"^+	c #5B5571",
"/+	c #646078",
"(+	c #AFAFB0",
"_+	c #454545",
":+	c #363636",
"<+	c #7A7A7A",
"[+	c #C8C8C9",
"}+	c #212025",
"|+	c #060607",
"1+	c #969699",
"2+	c #FAFAFA",
"3+	c #F8F8F9",
"4+	c #A29EAF",
"5+	c #F7F6F8",
"6+	c #F0F0F1",
"7+	c #B8B7B9",
"8+	c #E4E4E4",
"9+	c #FDFDFD",
"0+	c #A5A2B2",
"a+	c #3B3456",
"b+	c #A8A5B4",
"c+	c #525252",
"d+	c #848387",
"e+	c #CDCDCD",
"f+	c #8D899C",
"g+	c #494262",
"h+	c #68627C",
"i+	c #40395A",
"j+	c #ECECEC",
"k+	c #020202",
"l+	c #B4B5B5",
"m+	c #0B0B0B",
"n+	c #313232",
"o+	c #E3E3E3",
"p+	c #B1AEBC",
"q+	c #BDBBC6",
"r+	c #3C3556",
"s+	c #898599",
"t+	c #EDEDED",
"u+	c #39393A",
"v+	c #040404",
"w+	c #333333",
"x+	c #F5F5F5",
"y+	c #2B2B2B",
"z+	c #2D2A3D",
"A+	c #B6B4C1",
"B+	c #F5F5F6",
"C+	c #605A76",
"D+	c #DAD8DF",
"E+	c #F5F4F6",
"F+	c #615B76",
"G+	c #524D6A",
"H+	c #E4E3E8",
"I+	c #D5D5D5",
"J+	c #1B1B1B",
"K+	c #303030",
"L+	c #AAABAB",
"M+	c #585464",
"N+	c #B0AEBB",
"O+	c #A29FAF",
"P+	c #E9E8E9",
"Q+	c #787779",
"R+	c #0F0E15",
"S+	c #2D2D2E",
"T+	c #595959",
"U+	c #FAFAFB",
"V+	c #807B92",
"W+	c #B0ADBB",
"X+	c #E8E7EB",
"Y+	c #3A3258",
"Z+	c #E6E5EA",
"`+	c #DFDEE3",
" @	c #443E5E",
".@	c #BAB8C4",
"+@	c #C1BFCA",
"@@	c #E0E0E5",
"#@	c #D0CED6",
"$@	c #362F52",
"%@	c #CECCD5",
"&@	c #413A5B",
"*@	c #6A657F",
"=@	c #9793A6",
"                                                                        ",
"                                                                        ",
"                                                                        ",
"                      .   + @ #     $ %                                 ",
"                & * = *   - ; > , ' ; ; ; ) !                           ",
"                ~ ; ; {   ] ; ^ / ( _ ; : < [                           ",
"                } | 1 2   3 4 5 6 6 7 : 8 9 0 a b                       ",
"          c : d e f g h i j k l 6 m ; n o 6 p q r s                     ",
"        t u ; v w 6 6 x y z A B 6 C ; D E 6 F G ; H                     ",
"      I J ; ; K L 6 6 M N O P E 6 6 6 Q Q M R S T U V W                 ",
"    X Y ; ; ; ; Z `  .6 ..6 6 6 6 6 +.@.#.$.%.&.*.=.-.;.                ",
"    >.; ; ; ; ; ; = ,.'.).!.6 6 6 ~.{.6 6 6 E ].^.; ; /.                ",
"    (.; ; _.R h :.<.[.6 }.}.}.}.}.}.}.}.}.}.}.E |.1.4 2.                ",
"  3.4.; 5.6.6 6 6 6 6 6 }.6 6 6 6 6 6 6 6 6 }.7.6 8.9.                  ",
"  V @ 0.a.b.6 6 6 6 6 {.}.6 6 6 6 }.}.}.6 6 }.6 6                       ",
"    c.d.e.6 f.6 6 6 6 g.}.}.}.6 6 6 6 6 6 6 }.6 6 h.                    ",
"  i.; ; j.k.k.l.m.k.6 6 }.6 6 6 6 6 n.6 6 6 }.6 6 o.                    ",
"  p.; ; q.r.; ; ; s.6 6 }.6 6 }.}.}.6 6 }.}.}.6 6 t.                    ",
"  u.; ; ; ; v.; ; w.6 6 }.6 6 6 6 6 6 6 6 6 }.6 6 6 x.,                 ",
"  y.; ; v.; : z.A.B.6 6 }.6 6 6 6 6 6 6 6 6 }.6 6 C.v.D.E.              ",
"  F.; ; ; G.H.I.6 6 6 6 }.}.}.}.}.}.}.}.}.}.}.6 6 J.; ; K.L.            ",
"  M.J ; : N.6 6 6 6 O.P.Q.6 R.6 6 6 6 6 6 6 6 6 6 S.T.; ; U.V.          ",
"    W.; ; X.6 E 6 Y.Z.`. +6 6 6 6 6 6 6 6 g.6 6 6 6 .+++; ; > V.        ",
"    @+; #+$+%+6 6 `.v.; &+*+6 6 6 6 6 6 6 6 =+-+6 6 6 ;+>+; ; ,+'+      ",
"    V.)+! !+~+{+x ; ; ]+^+/+(+l _+6 6 6 :+<+[+}+6 6 6 |+1+2+; ; 3+@     ",
"        4+5+6+7+8+9+; 0+a+b+; T._+6 6 E c+; ; d+6 6 E 6 o e+; ; = f+    ",
"      g+> ; ; ; ; ; ; h+i+; ; j+l.6 6 k+D ; ; l+m+6 6 6 n+o+; ; p+      ",
"          > ; ; ; ; q+r+s+; ; t+u+6 6 v+w+; ; x+y+6 6 z+A+; B+3         ",
"          C+D+= ; E+F+G+H+; ; I+J+6 6 k+K+; ; ; L+c+M+                  ",
"              N+4 O+  X ; ; ; P+Q+K+R+S+T+; ; ; v.U+V+                  ",
"                      W+; ; ; ; ; X+Y+Z+; ; ; ; = `+ @                  ",
"                      .@+@@@4 ; ; #@$@%@; ; ; s s+T                     ",
"                          &@          *@=@s+                            ",
"                                                                        ",
"                                                                        ",
"                                                                        "};
