/* XPM */
static const char * SpiralIcon_xpm[] = {
"36 36 315 2",
"  	c None",
". 	c #8B889B",
"+ 	c #9C99AA",
"@ 	c #ADAAB9",
"# 	c #837F94",
"$ 	c #7D7990",
"% 	c #9995A7",
"& 	c #67627C",
"* 	c #CDCBD4",
"= 	c #FCFCFC",
"- 	c #D1D0D8",
"; 	c #FFFFFF",
"> 	c #F1F1F3",
", 	c #848095",
"' 	c #2A2248",
") 	c #CFCED6",
"! 	c #68637D",
"~ 	c #ABA8B6",
"{ 	c #D5D3DB",
"] 	c #9490A2",
"^ 	c #C4C4C4",
"/ 	c #1D1C1D",
"( 	c #313134",
"_ 	c #EEEFEE",
": 	c #FBFBFB",
"< 	c #EFEFEF",
"[ 	c #7B768D",
"} 	c #464060",
"| 	c #DEDEE1",
"1 	c #CBCACC",
"2 	c #EEEEF1",
"3 	c #79758C",
"4 	c #FBFBFC",
"5 	c #A2A2A2",
"6 	c #000000",
"7 	c #F5F6F5",
"8 	c #747474",
"9 	c #2A2A2B",
"0 	c #403958",
"a 	c #7D788F",
"b 	c #C0BEC8",
"c 	c #BCBAC6",
"d 	c #BCBAC5",
"e 	c #625C79",
"f 	c #2B2932",
"g 	c #191919",
"h 	c #CCCCCC",
"i 	c #807B91",
"j 	c #3B3556",
"k 	c #F2F2F4",
"l 	c #929292",
"m 	c #0E0E0E",
"n 	c #BFBFBF",
"o 	c #111111",
"p 	c #100E15",
"q 	c #868689",
"r 	c #FEFDFE",
"s 	c #D9D7DE",
"t 	c #9C98AA",
"u 	c #FDFCFD",
"v 	c #DDDDDD",
"w 	c #575755",
"x 	c #5E5E5E",
"y 	c #C4C2CD",
"z 	c #423C5C",
"A 	c #F0F0F2",
"B 	c #939393",
"C 	c #555555",
"D 	c #4A4A4A",
"E 	c #010101",
"F 	c #282828",
"G 	c #C2C2C2",
"H 	c #DBDAE0",
"I 	c #615C78",
"J 	c #F6F6F7",
"K 	c #DADADA",
"L 	c #545454",
"M 	c #0F0F0F",
"N 	c #B8B8B8",
"O 	c #48445C",
"P 	c #2B2B2C",
"Q 	c #181900",
"R 	c #D3D3D3",
"S 	c #C1BEC9",
"T 	c #474060",
"U 	c #31294D",
"V 	c #716C85",
"W 	c #65607A",
"X 	c #625D78",
"Y 	c #D5D4DB",
"Z 	c #F7F7F7",
"` 	c #8B8B8B",
" .	c #161616",
"..	c #0C0C0C",
"+.	c #161800",
"@.	c #1A1B00",
"#.	c #060600",
"$.	c #191A00",
"%.	c #393643",
"&.	c #47415F",
"*.	c #9692A4",
"=.	c #D9D8DE",
"-.	c #F7F7F8",
";.	c #918DA0",
">.	c #B8B5C1",
",.	c #D1D1D1",
"'.	c #212121",
").	c #2D2F00",
"!.	c #111200",
"~.	c #0B0C00",
"{.	c #0F0F00",
"].	c #090A00",
"^.	c #040400",
"/.	c #727175",
"(.	c #FEFEFF",
"_.	c #9D99AA",
":.	c #DBD9E0",
"<.	c #E9E9E9",
"[.	c #CBCBCB",
"}.	c #E0E0E0",
"|.	c #6C6C6C",
"1.	c #050500",
"2.	c #515151",
"3.	c #A6A6A7",
"4.	c #827E93",
"5.	c #615C77",
"6.	c #EAEAED",
"7.	c #DFDFE1",
"8.	c #C4CC00",
"9.	c #F6FF00",
"0.	c #F5FE00",
"a.	c #323400",
"b.	c #010100",
"c.	c #1E1D24",
"d.	c #9894A7",
"e.	c #B1AEBB",
"f.	c #69686F",
"g.	c #000001",
"h.	c #E2EA00",
"i.	c #E3EB00",
"j.	c #050600",
"k.	c #EDF600",
"l.	c #6E7300",
"m.	c #615C76",
"n.	c #5F5A75",
"o.	c #413E4D",
"p.	c #020203",
"q.	c #E5EE00",
"r.	c #010200",
"s.	c #1C1E00",
"t.	c #F3FC00",
"u.	c #F4FD00",
"v.	c #D5DD00",
"w.	c #1A1A1C",
"x.	c #C3C1CB",
"y.	c #9D9D9D",
"z.	c #202020",
"A.	c #383838",
"B.	c #4C4C4C",
"C.	c #E8F100",
"D.	c #E7EF00",
"E.	c #505300",
"F.	c #F0F900",
"G.	c #DAE200",
"H.	c #2C2E00",
"I.	c #111112",
"J.	c #C9C7D0",
"K.	c #F1F1F1",
"L.	c #F8F8F8",
"M.	c #232323",
"N.	c #606400",
"O.	c #979C00",
"P.	c #BAC100",
"Q.	c #D7DF00",
"R.	c #050408",
"S.	c #AEACB9",
"T.	c #FEFEFE",
"U.	c #1D1D1D",
"V.	c #D8E000",
"W.	c #E6EF00",
"X.	c #101100",
"Y.	c #D9E100",
"Z.	c #292B00",
"`.	c #B7B5C1",
" +	c #9390A2",
".+	c #BBBBBB",
"++	c #414141",
"@+	c #030303",
"#+	c #020200",
"$+	c #28272A",
"%+	c #F4F4F6",
"&+	c #605B76",
"*+	c #736E86",
"=+	c #D8D8D8",
"-+	c #727272",
";+	c #101010",
">+	c #1E2000",
",+	c #848486",
"'+	c #CCCBD3",
")+	c #747087",
"!+	c #6D6881",
"~+	c #1C1C1C",
"{+	c #242424",
"]+	c #0A0A00",
"^+	c #656566",
"/+	c #F6F6F6",
"(+	c #E8E6EA",
"_+	c #706B84",
":+	c #E3E1E6",
"<+	c #474746",
"[+	c #151515",
"}+	c #C8C8C8",
"|+	c #AEAEAE",
"1+	c #080808",
"2+	c #373639",
"3+	c #FDFCFE",
"4+	c #ABA8B7",
"5+	c #F1F0F3",
"6+	c #6D6980",
"7+	c #0A090E",
"8+	c #95929E",
"9+	c #0A0810",
"0+	c #0D0D0D",
"a+	c #050505",
"b+	c #5B5A5C",
"c+	c #F7F6F7",
"d+	c #F4F3F5",
"e+	c #908C9F",
"f+	c #C8C6D0",
"g+	c #837E96",
"h+	c #86868A",
"i+	c #070608",
"j+	c #ECEBEE",
"k+	c #5B5571",
"l+	c #646078",
"m+	c #AFAFB0",
"n+	c #454545",
"o+	c #363636",
"p+	c #7A7A7A",
"q+	c #C8C8C9",
"r+	c #212025",
"s+	c #060607",
"t+	c #969699",
"u+	c #FAFAFA",
"v+	c #F8F8F9",
"w+	c #A29EAF",
"x+	c #F7F6F8",
"y+	c #F0F0F1",
"z+	c #B8B7B9",
"A+	c #E4E4E4",
"B+	c #FDFDFD",
"C+	c #A5A2B2",
"D+	c #3B3456",
"E+	c #A8A5B4",
"F+	c #525252",
"G+	c #848387",
"H+	c #CDCDCD",
"I+	c #8D899C",
"J+	c #494262",
"K+	c #68627C",
"L+	c #40395A",
"M+	c #ECECEC",
"N+	c #020202",
"O+	c #B4B5B5",
"P+	c #0B0B0B",
"Q+	c #313232",
"R+	c #E3E3E3",
"S+	c #B1AEBC",
"T+	c #BDBBC6",
"U+	c #3C3556",
"V+	c #898599",
"W+	c #EDEDED",
"X+	c #39393A",
"Y+	c #040404",
"Z+	c #333333",
"`+	c #F5F5F5",
" @	c #2B2B2B",
".@	c #2D2A3D",
"+@	c #B6B4C1",
"@@	c #F5F5F6",
"#@	c #605A76",
"$@	c #DAD8DF",
"%@	c #F5F4F6",
"&@	c #615B76",
"*@	c #524D6A",
"=@	c #E4E3E8",
"-@	c #D5D5D5",
";@	c #1B1B1B",
">@	c #303030",
",@	c #AAABAB",
"'@	c #585464",
")@	c #B0AEBB",
"!@	c #A29FAF",
"~@	c #E9E8E9",
"{@	c #787779",
"]@	c #0F0E15",
"^@	c #2D2D2E",
"/@	c #595959",
"(@	c #FAFAFB",
"_@	c #807B92",
":@	c #B0ADBB",
"<@	c #E8E7EB",
"[@	c #3A3258",
"}@	c #E6E5EA",
"|@	c #DFDEE3",
"1@	c #443E5E",
"2@	c #BAB8C4",
"3@	c #C1BFCA",
"4@	c #E0E0E5",
"5@	c #D0CED6",
"6@	c #362F52",
"7@	c #CECCD5",
"8@	c #413A5B",
"9@	c #6A657F",
"0@	c #9793A6",
"                                                                        ",
"                                                                        ",
"                                                                        ",
"                      .   + @ #     $ %                                 ",
"                & * = *   - ; > , ' ; ; ; ) !                           ",
"                ~ ; ; {   ] ; ^ / ( _ ; : < [                           ",
"                } | 1 2   3 4 5 6 6 7 : 8 9 0 a b                       ",
"          c : d e f g h i j k l 6 m ; n o 6 p q r s                     ",
"        t u ; v w 6 6 x y z A B 6 C ; D E 6 F G ; H                     ",
"      I J ; ; K L 6 6 M N O P E 6 6 6 Q Q M R S T U V W                 ",
"    X Y ; ; ; ; Z `  .6 ..6 6 6 6 6 +.@.#.$.%.&.*.=.-.;.                ",
"    >.; ; ; ; ; ; = ,.'.).!.~.{.].6 ^.6 6 6 E /.(.; ; _.                ",
"    :.; ; <.R h [.}.|.6 1.6 6 6 6 6 6 6 6 6 6 E 2.3.4 4.                ",
"  5.6.; 7...6 6 6 6 6 8.9.9.9.0.a.b.6 6 6 6 6 6 6 c.d.                  ",
"  V @ e.f.g.6 6 6 6 6 h.i.6 j.k.0.l.6 6 6 6 6 6 6                       ",
"    m.n.o.6 p.6 6 6 6 q.q.6 r.s.t.u.v.a.6 1.6 6 6 w.                    ",
"  x.; ; y.z.z.A.B.z.6 C.D.6 r.6 E.q.F.0.G.H.6 6 6 I.                    ",
"  J.; ; K.L.; ; ; M.N.9.O.6 6 6 6 6 6 P.u.0.Q.j.6 R.                    ",
"  S.; ; ; ; T.; ; U.V.W.X.6 6 6 6 6 6 6 j.Y.C.Z.6 6 `.,                 ",
"   +; ; T.; : .+++@+Q Q 6 6 6 6 6 6 6 6 ^.#+6 6 6 $+T.%+&+              ",
"  *+; ; ; =+-+;+6 6 6 6 6 6 6 6 6 6 #+6 >+6 6 6 6 ,+; ; '+)+            ",
"  !+J ; : ~+6 6 6 6 {+..6 6 6 6 6 6 ]+6 6 b.6 6 6 ^+/+; ; (+_+          ",
"    :+; ; <+6 E 6 [+}+|+1+6 6 6 6 6 6 6 6 b.6 6 6 6 2+3+; ; > _+        ",
"    4+; 5+6+7+6 6 |+T.; 8+9+6 6 6 6 6 6 6 6 0+a+6 6 6 b+c+; ; d+e+      ",
"    _+f+! g+h+i+x ; ; j+k+l+m+l n+6 6 6 o+p+q+r+6 6 6 s+t+u+; ; v+@     ",
"        w+x+y+z+A+B+; C+D+E+; /+n+6 6 E F+; ; G+6 6 E 6 o H+; ; = I+    ",
"      J+> ; ; ; ; ; ; K+L+; ; M+A.6 6 N+D ; ; O+P+6 6 6 Q+R+; ; S+      ",
"          > ; ; ; ; T+U+V+; ; W+X+6 6 Y+Z+; ; `+ @6 6 .@+@; @@3         ",
"          #@$@= ; %@&@*@=@; ; -@;@6 6 N+>@; ; ; ,@F+'@                  ",
"              )@4 !@  X ; ; ; ~@{@>@]@^@/@; ; ; T.(@_@                  ",
"                      :@; ; ; ; ; <@[@}@; ; ; ; = |@1@                  ",
"                      2@3@4@4 ; ; 5@6@7@; ; ; s V+T                     ",
"                          8@          9@0@V+                            ",
"                                                                        ",
"                                                                        ",
"                                                                        "};
