/* XPM */
static const char * SpiralIcon_xpm[] = {
"36 36 271 2",
"  	c None",
". 	c #8B889B",
"+ 	c #9C99AA",
"@ 	c #ADAAB9",
"# 	c #837F94",
"$ 	c #7D7990",
"% 	c #9995A7",
"& 	c #67627C",
"* 	c #CDCBD4",
"= 	c #FCFCFC",
"- 	c #D1D0D8",
"; 	c #FFFFFF",
"> 	c #F1F1F3",
", 	c #848095",
"' 	c #2A2248",
") 	c #CFCED6",
"! 	c #68637D",
"~ 	c #ABA8B6",
"{ 	c #D5D3DB",
"] 	c #9490A2",
"^ 	c #C4C4C4",
"/ 	c #1D1C1D",
"( 	c #313134",
"_ 	c #EEEFEE",
": 	c #FBFBFB",
"< 	c #EFEFEF",
"[ 	c #7B768D",
"} 	c #464060",
"| 	c #DEDEE1",
"1 	c #CBCACC",
"2 	c #EEEEF1",
"3 	c #79758C",
"4 	c #FBFBFC",
"5 	c #A2A2A2",
"6 	c #000000",
"7 	c #F5F6F5",
"8 	c #747474",
"9 	c #2A2A2B",
"0 	c #403958",
"a 	c #7D788F",
"b 	c #C0BEC8",
"c 	c #BCBAC6",
"d 	c #BCBAC5",
"e 	c #625C79",
"f 	c #2B2932",
"g 	c #191919",
"h 	c #CCCCCC",
"i 	c #807B91",
"j 	c #3B3556",
"k 	c #F2F2F4",
"l 	c #929292",
"m 	c #0E0E0E",
"n 	c #BFBFBF",
"o 	c #111111",
"p 	c #100E15",
"q 	c #868689",
"r 	c #FEFDFE",
"s 	c #D9D7DE",
"t 	c #9C98AA",
"u 	c #FDFCFD",
"v 	c #DDDDDD",
"w 	c #575755",
"x 	c #5E5E5E",
"y 	c #C4C2CD",
"z 	c #423C5C",
"A 	c #F0F0F2",
"B 	c #939393",
"C 	c #555555",
"D 	c #4A4A4A",
"E 	c #010101",
"F 	c #282828",
"G 	c #C2C2C2",
"H 	c #DBDAE0",
"I 	c #615C78",
"J 	c #F6F6F7",
"K 	c #DADADA",
"L 	c #545454",
"M 	c #0F0F0F",
"N 	c #B8B8B8",
"O 	c #48445C",
"P 	c #2B2B2C",
"Q 	c #D3D3D3",
"R 	c #C1BEC9",
"S 	c #474060",
"T 	c #31294D",
"U 	c #716C85",
"V 	c #65607A",
"W 	c #625D78",
"X 	c #D5D4DB",
"Y 	c #F7F7F7",
"Z 	c #8B8B8B",
"` 	c #161616",
" .	c #0C0C0C",
"..	c #060606",
"+.	c #393643",
"@.	c #47415F",
"#.	c #9692A4",
"$.	c #D9D8DE",
"%.	c #F7F7F8",
"&.	c #918DA0",
"*.	c #B8B5C1",
"=.	c #D1D1D1",
"-.	c #252525",
";.	c #727175",
">.	c #FEFEFF",
",.	c #9D99AA",
"'.	c #DBD9E0",
").	c #E9E9E9",
"!.	c #CBCBCB",
"~.	c #E0E0E0",
"{.	c #6C6C6C",
"].	c #515151",
"^.	c #A6A6A7",
"/.	c #827E93",
"(.	c #615C77",
"_.	c #EAEAED",
":.	c #DFDFE1",
"<.	c #F5FE00",
"[.	c #1C1E00",
"}.	c #1E1D24",
"|.	c #9894A7",
"1.	c #B1AEBB",
"2.	c #69686F",
"3.	c #000001",
"4.	c #615C76",
"5.	c #5F5A75",
"6.	c #413E4D",
"7.	c #020203",
"8.	c #1A1A1C",
"9.	c #C3C1CB",
"0.	c #9D9D9D",
"a.	c #202020",
"b.	c #383838",
"c.	c #4C4C4C",
"d.	c #111112",
"e.	c #C9C7D0",
"f.	c #F1F1F1",
"g.	c #F8F8F8",
"h.	c #232323",
"i.	c #181900",
"j.	c #050408",
"k.	c #AEACB9",
"l.	c #FEFEFE",
"m.	c #1D1D1D",
"n.	c #B7B5C1",
"o.	c #9390A2",
"p.	c #BBBBBB",
"q.	c #414141",
"r.	c #030303",
"s.	c #28272A",
"t.	c #F4F4F6",
"u.	c #605B76",
"v.	c #736E86",
"w.	c #D8D8D8",
"x.	c #727272",
"y.	c #101010",
"z.	c #848486",
"A.	c #CCCBD3",
"B.	c #747087",
"C.	c #6D6881",
"D.	c #1C1C1C",
"E.	c #656566",
"F.	c #F6F6F6",
"G.	c #E8E6EA",
"H.	c #706B84",
"I.	c #E3E1E6",
"J.	c #474746",
"K.	c #151515",
"L.	c #C8C8C8",
"M.	c #AEAEAE",
"N.	c #080808",
"O.	c #373639",
"P.	c #FDFCFE",
"Q.	c #ABA8B7",
"R.	c #F1F0F3",
"S.	c #6D6980",
"T.	c #0A090E",
"U.	c #95929E",
"V.	c #0A0810",
"W.	c #050505",
"X.	c #5B5A5C",
"Y.	c #F7F6F7",
"Z.	c #F4F3F5",
"`.	c #908C9F",
" +	c #C8C6D0",
".+	c #837E96",
"++	c #86868A",
"@+	c #070608",
"#+	c #ECEBEE",
"$+	c #5B5571",
"%+	c #646078",
"&+	c #AFAFB0",
"*+	c #454545",
"=+	c #363636",
"-+	c #7A7A7A",
";+	c #C8C8C9",
">+	c #212025",
",+	c #060607",
"'+	c #969699",
")+	c #FAFAFA",
"!+	c #F8F8F9",
"~+	c #A29EAF",
"{+	c #F7F6F8",
"]+	c #F0F0F1",
"^+	c #B8B7B9",
"/+	c #E4E4E4",
"(+	c #FDFDFD",
"_+	c #A5A2B2",
":+	c #3B3456",
"<+	c #A8A5B4",
"[+	c #525252",
"}+	c #848387",
"|+	c #CDCDCD",
"1+	c #8D899C",
"2+	c #494262",
"3+	c #68627C",
"4+	c #40395A",
"5+	c #ECECEC",
"6+	c #020202",
"7+	c #B4B5B5",
"8+	c #0B0B0B",
"9+	c #313232",
"0+	c #E3E3E3",
"a+	c #B1AEBC",
"b+	c #BDBBC6",
"c+	c #3C3556",
"d+	c #898599",
"e+	c #EDEDED",
"f+	c #39393A",
"g+	c #040404",
"h+	c #333333",
"i+	c #F5F5F5",
"j+	c #2B2B2B",
"k+	c #2D2A3D",
"l+	c #B6B4C1",
"m+	c #F5F5F6",
"n+	c #605A76",
"o+	c #DAD8DF",
"p+	c #F5F4F6",
"q+	c #615B76",
"r+	c #524D6A",
"s+	c #E4E3E8",
"t+	c #D5D5D5",
"u+	c #1B1B1B",
"v+	c #303030",
"w+	c #AAABAB",
"x+	c #585464",
"y+	c #B0AEBB",
"z+	c #A29FAF",
"A+	c #E9E8E9",
"B+	c #787779",
"C+	c #0F0E15",
"D+	c #2D2D2E",
"E+	c #595959",
"F+	c #FAFAFB",
"G+	c #807B92",
"H+	c #B0ADBB",
"I+	c #E8E7EB",
"J+	c #3A3258",
"K+	c #E6E5EA",
"L+	c #DFDEE3",
"M+	c #443E5E",
"N+	c #BAB8C4",
"O+	c #C1BFCA",
"P+	c #E0E0E5",
"Q+	c #D0CED6",
"R+	c #362F52",
"S+	c #CECCD5",
"T+	c #413A5B",
"U+	c #6A657F",
"V+	c #9793A6",
"                                                                        ",
"                                                                        ",
"                                                                        ",
"                      .   + @ #     $ %                                 ",
"                & * = *   - ; > , ' ; ; ; ) !                           ",
"                ~ ; ; {   ] ; ^ / ( _ ; : < [                           ",
"                } | 1 2   3 4 5 6 6 7 : 8 9 0 a b                       ",
"          c : d e f g h i j k l 6 m ; n o 6 p q r s                     ",
"        t u ; v w 6 6 x y z A B 6 C ; D E 6 F G ; H                     ",
"      I J ; ; K L 6 6 M N O P E 6 6 6 6 6 M Q R S T U V                 ",
"    W X ; ; ; ; Y Z ` 6  .6 6 6 6 6 6 6 6 ..+.@.#.$.%.&.                ",
"    *.; ; ; ; ; ; = =.-.6 6 6 6 6 6 6 6 6 6 E ;.>.; ; ,.                ",
"    '.; ; ).Q h !.~.{.6 6 6 6 6 6 6 6 6 6 6 6 E ].^.4 /.                ",
"  (._.; :. .6 6 6 6 <.6 [.6 <.<.<.<.6 6 6 <.6 6 6 }.|.                  ",
"  U @ 1.2.3.6 6 6 6 <.6 6 6 <.6 6 6 6 6 <.6 <.6 6                       ",
"    4.5.6.6 7.6 6 6 <.6 6 6 <.6 6 6 6 <.6 6 6 <.6 8.                    ",
"  9.; ; 0.a.a.b.c.a.<.6 6 6 <.<.<.6 6 <.6 6 6 <.6 d.                    ",
"  e.; ; f.g.; ; ; h.<.i.i.6 <.6 6 6 6 <.6 6 6 <.6 j.                    ",
"  k.; ; ; ; l.; ; m.<.6 6 6 <.6 [.6 6 <.6 6 6 <.6 6 n.,                 ",
"  o.; ; l.; : p.q.r.<.6 6 6 <.6 6 6 6 6 <.6 <.6 6 s.l.t.u.              ",
"  v.; ; ; w.x.y.6 6 <.<.<.6 <.6 6 6 6 6 6 <.6 6 6 z.; ; A.B.            ",
"  C.J ; : D.6 6 6 6 6 6 6 6 6 6 6 6 6 6 6 6 6 6 6 E.F.; ; G.H.          ",
"    I.; ; J.6 E 6 K.L.M.N.6 6 6 6 6 6 6 6 6 6 6 6 6 O.P.; ; > H.        ",
"    Q.; R.S.T.6 6 M.l.; U.V.6 6 6 6 6 6 6 6 m W.6 6 6 X.Y.; ; Z.`.      ",
"    H. +! .+++@+x ; ; #+$+%+&+l *+6 6 6 =+-+;+>+6 6 6 ,+'+)+; ; !+@     ",
"        ~+{+]+^+/+(+; _+:+<+; F.*+6 6 E [+; ; }+6 6 E 6 o |+; ; = 1+    ",
"      2+> ; ; ; ; ; ; 3+4+; ; 5+b.6 6 6+D ; ; 7+8+6 6 6 9+0+; ; a+      ",
"          > ; ; ; ; b+c+d+; ; e+f+6 6 g+h+; ; i+j+6 6 k+l+; m+3         ",
"          n+o+= ; p+q+r+s+; ; t+u+6 6 6+v+; ; ; w+[+x+                  ",
"              y+4 z+  W ; ; ; A+B+v+C+D+E+; ; ; l.F+G+                  ",
"                      H+; ; ; ; ; I+J+K+; ; ; ; = L+M+                  ",
"                      N+O+P+4 ; ; Q+R+S+; ; ; s d+S                     ",
"                          T+          U+V+d+                            ",
"                                                                        ",
"                                                                        ",
"                                                                        "};
