/* XPM */
static const char * SpiralIcon_xpm[] = {
"36 36 300 2",
"  	c None",
". 	c #8B889B",
"+ 	c #9C99AA",
"@ 	c #ADAAB9",
"# 	c #837F94",
"$ 	c #7D7990",
"% 	c #9995A7",
"& 	c #67627C",
"* 	c #CDCBD4",
"= 	c #FCFCFC",
"- 	c #D1D0D8",
"; 	c #FFFFFF",
"> 	c #F1F1F3",
", 	c #848095",
"' 	c #2A2248",
") 	c #CFCED6",
"! 	c #68637D",
"~ 	c #ABA8B6",
"{ 	c #D5D3DB",
"] 	c #9490A2",
"^ 	c #C4C4C4",
"/ 	c #1D1C1D",
"( 	c #313134",
"_ 	c #EEEFEE",
": 	c #FBFBFB",
"< 	c #EFEFEF",
"[ 	c #7B768D",
"} 	c #464060",
"| 	c #DEDEE1",
"1 	c #CBCACC",
"2 	c #EEEEF1",
"3 	c #79758C",
"4 	c #FBFBFC",
"5 	c #A2A2A2",
"6 	c #000000",
"7 	c #F5F6F5",
"8 	c #747474",
"9 	c #2A2A2B",
"0 	c #403958",
"a 	c #7D788F",
"b 	c #C0BEC8",
"c 	c #BCBAC6",
"d 	c #BCBAC5",
"e 	c #625C79",
"f 	c #2B2932",
"g 	c #191919",
"h 	c #CCCCCC",
"i 	c #807B91",
"j 	c #3B3556",
"k 	c #F2F2F4",
"l 	c #929292",
"m 	c #0E0E0E",
"n 	c #BFBFBF",
"o 	c #111111",
"p 	c #100E15",
"q 	c #868689",
"r 	c #FEFDFE",
"s 	c #D9D7DE",
"t 	c #9C98AA",
"u 	c #FDFCFD",
"v 	c #DDDDDD",
"w 	c #575755",
"x 	c #5E5E5E",
"y 	c #C4C2CD",
"z 	c #423C5C",
"A 	c #F0F0F2",
"B 	c #939393",
"C 	c #555555",
"D 	c #4A4A4A",
"E 	c #010101",
"F 	c #282828",
"G 	c #C2C2C2",
"H 	c #DBDAE0",
"I 	c #615C78",
"J 	c #F6F6F7",
"K 	c #DADADA",
"L 	c #545454",
"M 	c #0F0F0F",
"N 	c #B8B8B8",
"O 	c #48445C",
"P 	c #2B2B2C",
"Q 	c #181900",
"R 	c #D3D3D3",
"S 	c #C1BEC9",
"T 	c #474060",
"U 	c #31294D",
"V 	c #716C85",
"W 	c #65607A",
"X 	c #625D78",
"Y 	c #D5D4DB",
"Z 	c #F7F7F7",
"` 	c #8B8B8B",
" .	c #161616",
"..	c #0C0C0C",
"+.	c #161800",
"@.	c #1A1B00",
"#.	c #060600",
"$.	c #191A00",
"%.	c #393643",
"&.	c #47415F",
"*.	c #9692A4",
"=.	c #D9D8DE",
"-.	c #F7F7F8",
";.	c #918DA0",
">.	c #B8B5C1",
",.	c #D1D1D1",
"'.	c #212121",
").	c #2D2F00",
"!.	c #111200",
"~.	c #0B0C00",
"{.	c #0F0F00",
"].	c #727175",
"^.	c #FEFEFF",
"/.	c #9D99AA",
"(.	c #DBD9E0",
"_.	c #E9E9E9",
":.	c #CBCBCB",
"<.	c #E0E0E0",
"[.	c #6C6C6C",
"}.	c #645E00",
"|.	c #322F00",
"1.	c #515151",
"2.	c #A6A6A7",
"3.	c #827E93",
"4.	c #615C77",
"5.	c #EAEAED",
"6.	c #DFDFE1",
"7.	c #C8BD00",
"8.	c #FEF100",
"9.	c #302D00",
"0.	c #1E1D24",
"a.	c #9894A7",
"b.	c #B1AEBB",
"c.	c #69686F",
"d.	c #000001",
"e.	c #F9EC00",
"f.	c #615C76",
"g.	c #5F5A75",
"h.	c #413E4D",
"i.	c #020203",
"j.	c #444000",
"k.	c #DED200",
"l.	c #1A1A1C",
"m.	c #C3C1CB",
"n.	c #9D9D9D",
"o.	c #202020",
"p.	c #383838",
"q.	c #4C4C4C",
"r.	c #8B8300",
"s.	c #FFF200",
"t.	c #E8DC00",
"u.	c #D1C600",
"v.	c #191700",
"w.	c #111112",
"x.	c #C9C7D0",
"y.	c #F1F1F1",
"z.	c #F8F8F8",
"A.	c #232323",
"B.	c #7E7700",
"C.	c #EFE200",
"D.	c #050408",
"E.	c #AEACB9",
"F.	c #FEFEFE",
"G.	c #1D1D1D",
"H.	c #B8AE00",
"I.	c #F3E600",
"J.	c #B7B5C1",
"K.	c #9390A2",
"L.	c #BBBBBB",
"M.	c #414141",
"N.	c #030303",
"O.	c #C6BB00",
"P.	c #CEC300",
"Q.	c #060500",
"R.	c #28272A",
"S.	c #F4F4F6",
"T.	c #605B76",
"U.	c #736E86",
"V.	c #D8D8D8",
"W.	c #727272",
"X.	c #101010",
"Y.	c #999100",
"Z.	c #848486",
"`.	c #CCCBD3",
" +	c #747087",
".+	c #6D6881",
"++	c #1C1C1C",
"@+	c #242424",
"#+	c #656566",
"$+	c #F6F6F6",
"%+	c #E8E6EA",
"&+	c #706B84",
"*+	c #E3E1E6",
"=+	c #474746",
"-+	c #151515",
";+	c #C8C8C8",
">+	c #AEAEAE",
",+	c #080808",
"'+	c #010100",
")+	c #373639",
"!+	c #FDFCFE",
"~+	c #ABA8B7",
"{+	c #F1F0F3",
"]+	c #6D6980",
"^+	c #0A090E",
"/+	c #95929E",
"(+	c #0A0810",
"_+	c #0D0D0D",
":+	c #050505",
"<+	c #5B5A5C",
"[+	c #F7F6F7",
"}+	c #F4F3F5",
"|+	c #908C9F",
"1+	c #C8C6D0",
"2+	c #837E96",
"3+	c #86868A",
"4+	c #070608",
"5+	c #ECEBEE",
"6+	c #5B5571",
"7+	c #646078",
"8+	c #AFAFB0",
"9+	c #454545",
"0+	c #363636",
"a+	c #7A7A7A",
"b+	c #C8C8C9",
"c+	c #212025",
"d+	c #060607",
"e+	c #969699",
"f+	c #FAFAFA",
"g+	c #F8F8F9",
"h+	c #A29EAF",
"i+	c #F7F6F8",
"j+	c #F0F0F1",
"k+	c #B8B7B9",
"l+	c #E4E4E4",
"m+	c #FDFDFD",
"n+	c #A5A2B2",
"o+	c #3B3456",
"p+	c #A8A5B4",
"q+	c #525252",
"r+	c #848387",
"s+	c #CDCDCD",
"t+	c #8D899C",
"u+	c #494262",
"v+	c #68627C",
"w+	c #40395A",
"x+	c #ECECEC",
"y+	c #020202",
"z+	c #B4B5B5",
"A+	c #0B0B0B",
"B+	c #313232",
"C+	c #E3E3E3",
"D+	c #B1AEBC",
"E+	c #BDBBC6",
"F+	c #3C3556",
"G+	c #898599",
"H+	c #EDEDED",
"I+	c #39393A",
"J+	c #040404",
"K+	c #333333",
"L+	c #F5F5F5",
"M+	c #2B2B2B",
"N+	c #2D2A3D",
"O+	c #B6B4C1",
"P+	c #F5F5F6",
"Q+	c #605A76",
"R+	c #DAD8DF",
"S+	c #F5F4F6",
"T+	c #615B76",
"U+	c #524D6A",
"V+	c #E4E3E8",
"W+	c #D5D5D5",
"X+	c #1B1B1B",
"Y+	c #303030",
"Z+	c #AAABAB",
"`+	c #585464",
" @	c #B0AEBB",
".@	c #A29FAF",
"+@	c #E9E8E9",
"@@	c #787779",
"#@	c #0F0E15",
"$@	c #2D2D2E",
"%@	c #595959",
"&@	c #FAFAFB",
"*@	c #807B92",
"=@	c #B0ADBB",
"-@	c #E8E7EB",
";@	c #3A3258",
">@	c #E6E5EA",
",@	c #DFDEE3",
"'@	c #443E5E",
")@	c #BAB8C4",
"!@	c #C1BFCA",
"~@	c #E0E0E5",
"{@	c #D0CED6",
"]@	c #362F52",
"^@	c #CECCD5",
"/@	c #413A5B",
"(@	c #6A657F",
"_@	c #9793A6",
"                                                                        ",
"                                                                        ",
"                                                                        ",
"                      .   + @ #     $ %                                 ",
"                & * = *   - ; > , ' ; ; ; ) !                           ",
"                ~ ; ; {   ] ; ^ / ( _ ; : < [                           ",
"                } | 1 2   3 4 5 6 6 7 : 8 9 0 a b                       ",
"          c : d e f g h i j k l 6 m ; n o 6 p q r s                     ",
"        t u ; v w 6 6 x y z A B 6 C ; D E 6 F G ; H                     ",
"      I J ; ; K L 6 6 M N O P E 6 6 6 Q Q M R S T U V W                 ",
"    X Y ; ; ; ; Z `  .6 ..6 6 6 6 6 +.@.#.$.%.&.*.=.-.;.                ",
"    >.; ; ; ; ; ; = ,.'.).!.~.{.6 6 6 6 6 6 E ].^.; ; /.                ",
"    (.; ; _.R h :.<.[.6 }.}.6 6 6 6 6 6 6 6 |.E 1.2.4 3.                ",
"  4.5.; 6...6 6 6 6 6 6 7.8.9.6 6 6 6 6 6 6 6 6 6 0.a.                  ",
"  V @ b.c.d.6 6 6 6 6 6 6 e.e.6 6 6 6 6 6 6 6 6 6                       ",
"    f.g.h.6 i.6 6 6 6 6 6 j.8.k.6 6 6 6 6 6 6 6 6 l.                    ",
"  m.; ; n.o.o.p.q.o.6 6 6 6 r.s.t.t.t.t.t.u.v.6 6 w.                    ",
"  x.; ; y.z.; ; ; A.6 6 6 6 B.s.C.t.t.t.t.u.v.6 6 D.                    ",
"  E.; ; ; ; F.; ; G.6 6 6 H.8.I.6 6 6 6 6 6 6 6 6 6 J.,                 ",
"  K.; ; F.; : L.M.N.6 6 O.s.P.Q.6 6 6 6 6 6 6 6 6 R.F.S.T.              ",
"  U.; ; ; V.W.X.6 6 6 6 Y.B.6 6 6 6 6 6 6 6 6 6 Q Z.; ; `. +            ",
"  .+J ; : ++6 6 6 6 @+..6 6 6 6 6 6 6 6 6 6 6 6 6 #+$+; ; %+&+          ",
"    *+; ; =+6 E 6 -+;+>+,+6 6 6 6 6 6 6 6 '+6 6 6 6 )+!+; ; > &+        ",
"    ~+; {+]+^+6 6 >+F.; /+(+6 6 6 6 6 6 6 6 _+:+6 6 6 <+[+; ; }+|+      ",
"    &+1+! 2+3+4+x ; ; 5+6+7+8+l 9+6 6 6 0+a+b+c+6 6 6 d+e+f+; ; g+@     ",
"        h+i+j+k+l+m+; n+o+p+; $+9+6 6 E q+; ; r+6 6 E 6 o s+; ; = t+    ",
"      u+> ; ; ; ; ; ; v+w+; ; x+p.6 6 y+D ; ; z+A+6 6 6 B+C+; ; D+      ",
"          > ; ; ; ; E+F+G+; ; H+I+6 6 J+K+; ; L+M+6 6 N+O+; P+3         ",
"          Q+R+= ; S+T+U+V+; ; W+X+6 6 y+Y+; ; ; Z+q+`+                  ",
"               @4 .@  X ; ; ; +@@@Y+#@$@%@; ; ; F.&@*@                  ",
"                      =@; ; ; ; ; -@;@>@; ; ; ; = ,@'@                  ",
"                      )@!@~@4 ; ; {@]@^@; ; ; s G+T                     ",
"                          /@          (@_@G+                            ",
"                                                                        ",
"                                                                        ",
"                                                                        "};
