/* XPM */
static char * SpiralIcon_xpm[] = {
"36 36 307 2",
"  	c None",
". 	c #8B889B",
"+ 	c #9C99AA",
"@ 	c #ADAAB9",
"# 	c #837F94",
"$ 	c #7D7990",
"% 	c #9995A7",
"& 	c #67627C",
"* 	c #CDCBD4",
"= 	c #FCFCFC",
"- 	c #D1D0D8",
"; 	c #FFFFFF",
"> 	c #F1F1F3",
", 	c #848095",
"' 	c #2A2248",
") 	c #CFCED6",
"! 	c #68637D",
"~ 	c #ABA8B6",
"{ 	c #D5D3DB",
"] 	c #9490A2",
"^ 	c #C4C4C4",
"/ 	c #1D1C1D",
"( 	c #313134",
"_ 	c #EEEFEE",
": 	c #FBFBFB",
"< 	c #EFEFEF",
"[ 	c #7B768D",
"} 	c #464060",
"| 	c #DEDEE1",
"1 	c #CBCACC",
"2 	c #EEEEF1",
"3 	c #79758C",
"4 	c #FBFBFC",
"5 	c #A2A2A2",
"6 	c #000000",
"7 	c #F5F6F5",
"8 	c #747474",
"9 	c #2A2A2B",
"0 	c #403958",
"a 	c #7D788F",
"b 	c #C0BEC8",
"c 	c #BCBAC6",
"d 	c #BCBAC5",
"e 	c #625C79",
"f 	c #2B2932",
"g 	c #191919",
"h 	c #CCCCCC",
"i 	c #807B91",
"j 	c #3B3556",
"k 	c #F2F2F4",
"l 	c #929292",
"m 	c #0E0E0E",
"n 	c #BFBFBF",
"o 	c #111111",
"p 	c #100E15",
"q 	c #868689",
"r 	c #FEFDFE",
"s 	c #D9D7DE",
"t 	c #9C98AA",
"u 	c #FDFCFD",
"v 	c #DDDDDD",
"w 	c #575755",
"x 	c #5E5E5E",
"y 	c #C4C2CD",
"z 	c #423C5C",
"A 	c #F0F0F2",
"B 	c #939393",
"C 	c #555555",
"D 	c #4A4A4A",
"E 	c #010101",
"F 	c #282828",
"G 	c #C2C2C2",
"H 	c #DBDAE0",
"I 	c #615C78",
"J 	c #F6F6F7",
"K 	c #DADADA",
"L 	c #545454",
"M 	c #0F0F0F",
"N 	c #B8B8B8",
"O 	c #48445C",
"P 	c #2B2B2C",
"Q 	c #181900",
"R 	c #D3D3D3",
"S 	c #C1BEC9",
"T 	c #474060",
"U 	c #31294D",
"V 	c #716C85",
"W 	c #65607A",
"X 	c #625D78",
"Y 	c #D5D4DB",
"Z 	c #F7F7F7",
"` 	c #8B8B8B",
" .	c #161616",
"..	c #0C0C0C",
"+.	c #161800",
"@.	c #1A1B00",
"#.	c #060600",
"$.	c #191A00",
"%.	c #393643",
"&.	c #47415F",
"*.	c #9692A4",
"=.	c #D9D8DE",
"-.	c #F7F7F8",
";.	c #918DA0",
">.	c #B8B5C1",
",.	c #D1D1D1",
"'.	c #252525",
").	c #666A00",
"!.	c #8B9100",
"~.	c #8D9200",
"{.	c #929900",
"].	c #7E8200",
"^.	c #040400",
"/.	c #727175",
"(.	c #FEFEFF",
"_.	c #9D99AA",
":.	c #DBD9E0",
"<.	c #E9E9E9",
"[.	c #CBCBCB",
"}.	c #E0E0E0",
"|.	c #6C6C6C",
"1.	c #EDF600",
"2.	c #F4FD00",
"3.	c #F5FE00",
"4.	c #515151",
"5.	c #A6A6A7",
"6.	c #827E93",
"7.	c #615C77",
"8.	c #EAEAED",
"9.	c #DFDFE1",
"0.	c #010200",
"a.	c #010100",
"b.	c #1E1D24",
"c.	c #9894A7",
"d.	c #B1AEBB",
"e.	c #69686F",
"f.	c #000001",
"g.	c #0F0F00",
"h.	c #7F8400",
"i.	c #8C9200",
"j.	c #C6CE00",
"k.	c #615C76",
"l.	c #5F5A75",
"m.	c #413E4D",
"n.	c #020203",
"o.	c #292B00",
"p.	c #F0F900",
"q.	c #050500",
"r.	c #1A1A1C",
"s.	c #C3C1CB",
"t.	c #9D9D9D",
"u.	c #202020",
"v.	c #383838",
"w.	c #4C4C4C",
"x.	c #161700",
"y.	c #8A9000",
"z.	c #E1EA00",
"A.	c #E3EB00",
"B.	c #929800",
"C.	c #111112",
"D.	c #C9C7D0",
"E.	c #F1F1F1",
"F.	c #F8F8F8",
"G.	c #232323",
"H.	c #141500",
"I.	c #050408",
"J.	c #AEACB9",
"K.	c #FEFEFE",
"L.	c #1D1D1D",
"M.	c #313300",
"N.	c #F6FF00",
"O.	c #121300",
"P.	c #B7B5C1",
"Q.	c #9390A2",
"R.	c #BBBBBB",
"S.	c #414141",
"T.	c #030303",
"U.	c #020200",
"V.	c #28272A",
"W.	c #F4F4F6",
"X.	c #605B76",
"Y.	c #736E86",
"Z.	c #D8D8D8",
"`.	c #727272",
" +	c #101010",
".+	c #505300",
"++	c #C8CF00",
"@+	c #1E2000",
"#+	c #848486",
"$+	c #CCCBD3",
"%+	c #747087",
"&+	c #6D6881",
"*+	c #1C1C1C",
"=+	c #242424",
"-+	c #393B09",
";+	c #0A0A00",
">+	c #656566",
",+	c #F6F6F6",
"'+	c #E8E6EA",
")+	c #706B84",
"!+	c #E3E1E6",
"~+	c #474746",
"{+	c #151515",
"]+	c #C8C8C8",
"^+	c #AEAEAE",
"/+	c #080808",
"(+	c #373639",
"_+	c #FDFCFE",
":+	c #ABA8B7",
"<+	c #F1F0F3",
"[+	c #6D6980",
"}+	c #0A090E",
"|+	c #95929E",
"1+	c #0A0810",
"2+	c #0D0D0D",
"3+	c #050505",
"4+	c #5B5A5C",
"5+	c #F7F6F7",
"6+	c #F4F3F5",
"7+	c #908C9F",
"8+	c #C8C6D0",
"9+	c #837E96",
"0+	c #86868A",
"a+	c #070608",
"b+	c #ECEBEE",
"c+	c #5B5571",
"d+	c #646078",
"e+	c #AFAFB0",
"f+	c #454545",
"g+	c #363636",
"h+	c #7A7A7A",
"i+	c #C8C8C9",
"j+	c #212025",
"k+	c #060607",
"l+	c #969699",
"m+	c #FAFAFA",
"n+	c #F8F8F9",
"o+	c #A29EAF",
"p+	c #F7F6F8",
"q+	c #F0F0F1",
"r+	c #B8B7B9",
"s+	c #E4E4E4",
"t+	c #FDFDFD",
"u+	c #A5A2B2",
"v+	c #3B3456",
"w+	c #A8A5B4",
"x+	c #525252",
"y+	c #848387",
"z+	c #CDCDCD",
"A+	c #8D899C",
"B+	c #494262",
"C+	c #68627C",
"D+	c #40395A",
"E+	c #ECECEC",
"F+	c #020202",
"G+	c #B4B5B5",
"H+	c #0B0B0B",
"I+	c #313232",
"J+	c #E3E3E3",
"K+	c #B1AEBC",
"L+	c #BDBBC6",
"M+	c #3C3556",
"N+	c #898599",
"O+	c #EDEDED",
"P+	c #39393A",
"Q+	c #040404",
"R+	c #333333",
"S+	c #F5F5F5",
"T+	c #2B2B2B",
"U+	c #2D2A3D",
"V+	c #B6B4C1",
"W+	c #F5F5F6",
"X+	c #605A76",
"Y+	c #DAD8DF",
"Z+	c #F5F4F6",
"`+	c #615B76",
" @	c #524D6A",
".@	c #E4E3E8",
"+@	c #D5D5D5",
"@@	c #1B1B1B",
"#@	c #303030",
"$@	c #AAABAB",
"%@	c #585464",
"&@	c #B0AEBB",
"*@	c #A29FAF",
"=@	c #E9E8E9",
"-@	c #787779",
";@	c #0F0E15",
">@	c #2D2D2E",
",@	c #595959",
"'@	c #FAFAFB",
")@	c #807B92",
"!@	c #B0ADBB",
"~@	c #E8E7EB",
"{@	c #3A3258",
"]@	c #E6E5EA",
"^@	c #DFDEE3",
"/@	c #443E5E",
"(@	c #BAB8C4",
"_@	c #C1BFCA",
":@	c #E0E0E5",
"<@	c #D0CED6",
"[@	c #362F52",
"}@	c #CECCD5",
"|@	c #413A5B",
"1@	c #6A657F",
"2@	c #9793A6",
"                                                                        ",
"                                                                        ",
"                                                                        ",
"                      .   + @ #     $ %                                 ",
"                & * = *   - ; > , ' ; ; ; ) !                           ",
"                ~ ; ; {   ] ; ^ / ( _ ; : < [                           ",
"                } | 1 2   3 4 5 6 6 7 : 8 9 0 a b                       ",
"          c : d e f g h i j k l 6 m ; n o 6 p q r s                     ",
"        t u ; v w 6 6 x y z A B 6 C ; D E 6 F G ; H                     ",
"      I J ; ; K L 6 6 M N O P E 6 6 6 Q Q M R S T U V W                 ",
"    X Y ; ; ; ; Z `  .6 ..6 6 6 6 6 +.@.#.$.%.&.*.=.-.;.                ",
"    >.; ; ; ; ; ; = ,.'.).!.~.!.{.].^.6 6 6 E /.(.; ; _.                ",
"    :.; ; <.R h [.}.|.6 1.2.2.2.3.2.6 6 6 6 6 E 4.5.4 6.                ",
"  7.8.; 9...6 6 6 6 6 6 6 6 0.a.~.2.6 6 6 6 6 6 6 b.c.                  ",
"  V @ d.e.f.6 6 6 6 6 g.h.i.~.i.j.2.6 6 6 6 6 6 6                       ",
"    k.l.m.6 n.6 6 6 6 o.p.2.2.2.3.3.6 6 6 q.6 6 6 r.                    ",
"  s.; ; t.u.u.v.w.u.6 6 x.6 0.6 y.3.z.z.z.A.B.6 6 C.                    ",
"  D.; ; E.F.; ; ; G.6 a.H.6 6 6 y.3.z.z.z.A.B.6 6 I.                    ",
"  J.; ; ; ; K.; ; L.6 M.N.N.N.N.p.2.6 6 6 O.6 6 6 6 P.,                 ",
"  Q.; ; K.; : R.S.T.6 6 6 6 6 6 y.2.6 6 ^.U.6 6 6 V.K.W.X.              ",
"  Y.; ; ; Z.`. +6 6 6 6 6 6 .+y.++2.U.6 @+6 6 6 6 #+; ; $+%+            ",
"  &+J ; : *+6 6 6 6 =+-+N.N.N.2.2.2.;+6 6 a.6 6 6 >+,+; ; '+)+          ",
"    !+; ; ~+6 E 6 {+]+^+/+6 6 6 6 6 6 6 6 a.6 6 6 6 (+_+; ; > )+        ",
"    :+; <+[+}+6 6 ^+K.; |+1+6 6 6 6 6 6 6 6 2+3+6 6 6 4+5+; ; 6+7+      ",
"    )+8+! 9+0+a+x ; ; b+c+d+e+l f+6 6 6 g+h+i+j+6 6 6 k+l+m+; ; n+@     ",
"        o+p+q+r+s+t+; u+v+w+; ,+f+6 6 E x+; ; y+6 6 E 6 o z+; ; = A+    ",
"      B+> ; ; ; ; ; ; C+D+; ; E+v.6 6 F+D ; ; G+H+6 6 6 I+J+; ; K+      ",
"          > ; ; ; ; L+M+N+; ; O+P+6 6 Q+R+; ; S+T+6 6 U+V+; W+3         ",
"          X+Y+= ; Z+`+ @.@; ; +@@@6 6 F+#@; ; ; $@x+%@                  ",
"              &@4 *@  X ; ; ; =@-@#@;@>@,@; ; ; K.'@)@                  ",
"                      !@; ; ; ; ; ~@{@]@; ; ; ; = ^@/@                  ",
"                      (@_@:@4 ; ; <@[@}@; ; ; s N+T                     ",
"                          |@          1@2@N+                            ",
"                                                                        ",
"                                                                        ",
"                                                                        "};
