/* XPM */
static char * SpiralIcon_xpm[] = {
"36 36 281 2",
"  	c None",
". 	c #8B889B",
"+ 	c #9C99AA",
"@ 	c #ADAAB9",
"# 	c #837F94",
"$ 	c #7D7990",
"% 	c #9995A7",
"& 	c #67627C",
"* 	c #CDCBD4",
"= 	c #FCFCFC",
"- 	c #D1D0D8",
"; 	c #FFFFFF",
"> 	c #F1F1F3",
", 	c #848095",
"' 	c #2A2248",
") 	c #CFCED6",
"! 	c #68637D",
"~ 	c #ABA8B6",
"{ 	c #D5D3DB",
"] 	c #9490A2",
"^ 	c #C4C4C4",
"/ 	c #1D1C1D",
"( 	c #313134",
"_ 	c #EEEFEE",
": 	c #FBFBFB",
"< 	c #EFEFEF",
"[ 	c #7B768D",
"} 	c #464060",
"| 	c #DEDEE1",
"1 	c #CBCACC",
"2 	c #EEEEF1",
"3 	c #79758C",
"4 	c #FBFBFC",
"5 	c #A2A2A2",
"6 	c #000000",
"7 	c #F5F6F5",
"8 	c #747474",
"9 	c #2A2A2B",
"0 	c #403958",
"a 	c #7D788F",
"b 	c #C0BEC8",
"c 	c #BCBAC6",
"d 	c #BCBAC5",
"e 	c #625C79",
"f 	c #2B2932",
"g 	c #191919",
"h 	c #CCCCCC",
"i 	c #807B91",
"j 	c #3B3556",
"k 	c #F2F2F4",
"l 	c #929292",
"m 	c #0E0E0E",
"n 	c #BFBFBF",
"o 	c #111111",
"p 	c #100E15",
"q 	c #868689",
"r 	c #FEFDFE",
"s 	c #D9D7DE",
"t 	c #9C98AA",
"u 	c #FDFCFD",
"v 	c #DDDDDD",
"w 	c #575755",
"x 	c #5E5E5E",
"y 	c #C4C2CD",
"z 	c #423C5C",
"A 	c #F0F0F2",
"B 	c #939393",
"C 	c #555555",
"D 	c #4A4A4A",
"E 	c #010101",
"F 	c #282828",
"G 	c #C2C2C2",
"H 	c #DBDAE0",
"I 	c #615C78",
"J 	c #F6F6F7",
"K 	c #DADADA",
"L 	c #545454",
"M 	c #0F0F0F",
"N 	c #B8B8B8",
"O 	c #48445C",
"P 	c #2B2B2C",
"Q 	c #181900",
"R 	c #D3D3D3",
"S 	c #C1BEC9",
"T 	c #474060",
"U 	c #31294D",
"V 	c #716C85",
"W 	c #65607A",
"X 	c #625D78",
"Y 	c #D5D4DB",
"Z 	c #F7F7F7",
"` 	c #8B8B8B",
" .	c #161616",
"..	c #0C0C0C",
"+.	c #0F1100",
"@.	c #060600",
"#.	c #191A00",
"$.	c #393643",
"%.	c #47415F",
"&.	c #9692A4",
"*.	c #D9D8DE",
"=.	c #F7F7F8",
"-.	c #918DA0",
";.	c #B8B5C1",
">.	c #D1D1D1",
",.	c #212121",
"'.	c #212300",
").	c #030300",
"!.	c #727175",
"~.	c #FEFEFF",
"{.	c #9D99AA",
"].	c #DBD9E0",
"^.	c #E9E9E9",
"/.	c #CBCBCB",
"(.	c #E0E0E0",
"_.	c #6C6C6C",
":.	c #010100",
"<.	c #515151",
"[.	c #A6A6A7",
"}.	c #827E93",
"|.	c #615C77",
"1.	c #EAEAED",
"2.	c #DFDFE1",
"3.	c #FFF200",
"4.	c #1E1D24",
"5.	c #9894A7",
"6.	c #B1AEBB",
"7.	c #69686F",
"8.	c #000001",
"9.	c #615C76",
"0.	c #5F5A75",
"a.	c #413E4D",
"b.	c #020203",
"c.	c #1A1A1C",
"d.	c #C3C1CB",
"e.	c #9D9D9D",
"f.	c #202020",
"g.	c #383838",
"h.	c #4C4C4C",
"i.	c #060606",
"j.	c #111112",
"k.	c #C9C7D0",
"l.	c #F1F1F1",
"m.	c #F8F8F8",
"n.	c #030303",
"o.	c #050408",
"p.	c #AEACB9",
"q.	c #FEFEFE",
"r.	c #050505",
"s.	c #B7B5C1",
"t.	c #9390A2",
"u.	c #BBBBBB",
"v.	c #414141",
"w.	c #040400",
"x.	c #080800",
"y.	c #2F3100",
"z.	c #28272A",
"A.	c #F4F4F6",
"B.	c #605B76",
"C.	c #736E86",
"D.	c #D8D8D8",
"E.	c #727272",
"F.	c #101010",
"G.	c #262800",
"H.	c #131400",
"I.	c #848486",
"J.	c #CCCBD3",
"K.	c #747087",
"L.	c #6D6881",
"M.	c #1C1C1C",
"N.	c #242424",
"O.	c #656566",
"P.	c #F6F6F6",
"Q.	c #E8E6EA",
"R.	c #706B84",
"S.	c #E3E1E6",
"T.	c #474746",
"U.	c #151515",
"V.	c #C8C8C8",
"W.	c #AEAEAE",
"X.	c #080808",
"Y.	c #373639",
"Z.	c #FDFCFE",
"`.	c #ABA8B7",
" +	c #F1F0F3",
".+	c #6D6980",
"++	c #0A090E",
"@+	c #95929E",
"#+	c #0A0810",
"$+	c #0D0D0D",
"%+	c #5B5A5C",
"&+	c #F7F6F7",
"*+	c #F4F3F5",
"=+	c #908C9F",
"-+	c #C8C6D0",
";+	c #837E96",
">+	c #86868A",
",+	c #070608",
"'+	c #ECEBEE",
")+	c #5B5571",
"!+	c #646078",
"~+	c #AFAFB0",
"{+	c #454545",
"]+	c #363636",
"^+	c #7A7A7A",
"/+	c #C8C8C9",
"(+	c #212025",
"_+	c #060607",
":+	c #969699",
"<+	c #FAFAFA",
"[+	c #F8F8F9",
"}+	c #A29EAF",
"|+	c #F7F6F8",
"1+	c #F0F0F1",
"2+	c #B8B7B9",
"3+	c #E4E4E4",
"4+	c #FDFDFD",
"5+	c #A5A2B2",
"6+	c #3B3456",
"7+	c #A8A5B4",
"8+	c #525252",
"9+	c #848387",
"0+	c #CDCDCD",
"a+	c #8D899C",
"b+	c #494262",
"c+	c #68627C",
"d+	c #40395A",
"e+	c #ECECEC",
"f+	c #020202",
"g+	c #B4B5B5",
"h+	c #0B0B0B",
"i+	c #313232",
"j+	c #E3E3E3",
"k+	c #B1AEBC",
"l+	c #BDBBC6",
"m+	c #3C3556",
"n+	c #898599",
"o+	c #EDEDED",
"p+	c #39393A",
"q+	c #040404",
"r+	c #333333",
"s+	c #F5F5F5",
"t+	c #2B2B2B",
"u+	c #2D2A3D",
"v+	c #B6B4C1",
"w+	c #F5F5F6",
"x+	c #605A76",
"y+	c #DAD8DF",
"z+	c #F5F4F6",
"A+	c #615B76",
"B+	c #524D6A",
"C+	c #E4E3E8",
"D+	c #D5D5D5",
"E+	c #1B1B1B",
"F+	c #303030",
"G+	c #AAABAB",
"H+	c #585464",
"I+	c #B0AEBB",
"J+	c #A29FAF",
"K+	c #E9E8E9",
"L+	c #787779",
"M+	c #0F0E15",
"N+	c #2D2D2E",
"O+	c #595959",
"P+	c #FAFAFB",
"Q+	c #807B92",
"R+	c #B0ADBB",
"S+	c #E8E7EB",
"T+	c #3A3258",
"U+	c #E6E5EA",
"V+	c #DFDEE3",
"W+	c #443E5E",
"X+	c #BAB8C4",
"Y+	c #C1BFCA",
"Z+	c #E0E0E5",
"`+	c #D0CED6",
" @	c #362F52",
".@	c #CECCD5",
"+@	c #413A5B",
"@@	c #6A657F",
"#@	c #9793A6",
"                                                                        ",
"                                                                        ",
"                                                                        ",
"                      .   + @ #     $ %                                 ",
"                & * = *   - ; > , ' ; ; ; ) !                           ",
"                ~ ; ; {   ] ; ^ / ( _ ; : < [                           ",
"                } | 1 2   3 4 5 6 6 7 : 8 9 0 a b                       ",
"          c : d e f g h i j k l 6 m ; n o 6 p q r s                     ",
"        t u ; v w 6 6 x y z A B 6 C ; D E 6 F G ; H                     ",
"      I J ; ; K L 6 6 M N O P E 6 6 6 Q Q M R S T U V W                 ",
"    X Y ; ; ; ; Z `  .6 ..6 6 6 6 6 +.Q @.#.$.%.&.*.=.-.                ",
"    ;.; ; ; ; ; ; = >.,.'.).6 6 6 6 6 6 6 6 E !.~.; ; {.                ",
"    ].; ; ^.R h /.(._.6 :.6 6 6 6 6 6 6 6 6 6 E <.[.4 }.                ",
"  |.1.; 2...6 6 6 6 6 6 3.6 3.6 6 6 6 6 6 6 6 6 6 4.5.                  ",
"  V @ 6.7.8.6 6 6 6 6 6 3.3.3.6 6 6 6 6 6 6 6 6 6                       ",
"    9.0.a.6 b.6 6 6 6 6 3.3.3.6 6 6 6 6 6 6 6 6 6 c.                    ",
"  d.; ; e.f.f.g.h.i.6 6 3.6 3.6 6 6 6 6 6 6 6 6 6 j.                    ",
"  k.; ; l.m.; ; ; n.6 6 3.6 3.6 3.6 3.6 6 3.6 6 6 o.                    ",
"  p.; ; ; ; q.; ; r.6 6 3.6 3.3.6 3.6 3.3.6 3.6 6 6 s.,                 ",
"  t.; ; q.; : u.v.E w.6 3.6 3.6 3.6 3.3.6 3.3.x.y.z.q.A.B.              ",
"  C.; ; ; D.E.F.6 6 6 6 6 6 6 6 6 6 6 6 6 6 3.G.H.I.; ; J.K.            ",
"  L.J ; : M.6 6 6 6 N...6 6 6 6 3.3.3.3.3.3.6 6 6 O.P.; ; Q.R.          ",
"    S.; ; T.6 E 6 U.V.W.X.6 6 6 6 6 6 6 6 :.6 6 6 6 Y.Z.; ; > R.        ",
"    `.;  +.+++6 6 W.q.; @+#+6 6 6 6 6 6 6 6 $+r.6 6 6 %+&+; ; *+=+      ",
"    R.-+! ;+>+,+x ; ; '+)+!+~+l {+6 6 6 ]+^+/+(+6 6 6 _+:+<+; ; [+@     ",
"        }+|+1+2+3+4+; 5+6+7+; P.{+6 6 E 8+; ; 9+6 6 E 6 o 0+; ; = a+    ",
"      b+> ; ; ; ; ; ; c+d+; ; e+g.6 6 f+D ; ; g+h+6 6 6 i+j+; ; k+      ",
"          > ; ; ; ; l+m+n+; ; o+p+6 6 q+r+; ; s+t+6 6 u+v+; w+3         ",
"          x+y+= ; z+A+B+C+; ; D+E+6 6 f+F+; ; ; G+8+H+                  ",
"              I+4 J+  X ; ; ; K+L+F+M+N+O+; ; ; q.P+Q+                  ",
"                      R+; ; ; ; ; S+T+U+; ; ; ; = V+W+                  ",
"                      X+Y+Z+4 ; ; `+ @.@; ; ; s n+T                     ",
"                          +@          @@#@n+                            ",
"                                                                        ",
"                                                                        ",
"                                                                        "};
