/* XPM */
static char * SpiralIcon_xpm[] = {
"36 36 283 2",
"  	c None",
". 	c #8B889B",
"+ 	c #9C99AA",
"@ 	c #ADAAB9",
"# 	c #837F94",
"$ 	c #7D7990",
"% 	c #9995A7",
"& 	c #67627C",
"* 	c #CDCBD4",
"= 	c #FCFCFC",
"- 	c #D1D0D8",
"; 	c #FFFFFF",
"> 	c #F1F1F3",
", 	c #848095",
"' 	c #2A2248",
") 	c #CFCED6",
"! 	c #68637D",
"~ 	c #ABA8B6",
"{ 	c #D5D3DB",
"] 	c #9490A2",
"^ 	c #C4C4C4",
"/ 	c #1D1C1D",
"( 	c #313134",
"_ 	c #EEEFEE",
": 	c #FBFBFB",
"< 	c #EFEFEF",
"[ 	c #7B768D",
"} 	c #464060",
"| 	c #DEDEE1",
"1 	c #CBCACC",
"2 	c #EEEEF1",
"3 	c #79758C",
"4 	c #FBFBFC",
"5 	c #A2A2A2",
"6 	c #000000",
"7 	c #F5F6F5",
"8 	c #747474",
"9 	c #2A2A2B",
"0 	c #403958",
"a 	c #7D788F",
"b 	c #C0BEC8",
"c 	c #BCBAC6",
"d 	c #BCBAC5",
"e 	c #625C79",
"f 	c #2B2932",
"g 	c #191919",
"h 	c #CCCCCC",
"i 	c #807B91",
"j 	c #3B3556",
"k 	c #F2F2F4",
"l 	c #929292",
"m 	c #0E0E0E",
"n 	c #BFBFBF",
"o 	c #111111",
"p 	c #100E15",
"q 	c #868689",
"r 	c #FEFDFE",
"s 	c #D9D7DE",
"t 	c #9C98AA",
"u 	c #FDFCFD",
"v 	c #DDDDDD",
"w 	c #575755",
"x 	c #5E5E5E",
"y 	c #C4C2CD",
"z 	c #423C5C",
"A 	c #F0F0F2",
"B 	c #939393",
"C 	c #555555",
"D 	c #4A4A4A",
"E 	c #010101",
"F 	c #282828",
"G 	c #C2C2C2",
"H 	c #DBDAE0",
"I 	c #615C78",
"J 	c #F6F6F7",
"K 	c #DADADA",
"L 	c #545454",
"M 	c #0F0F0F",
"N 	c #B8B8B8",
"O 	c #48445C",
"P 	c #2B2B2C",
"Q 	c #181900",
"R 	c #D3D3D3",
"S 	c #C1BEC9",
"T 	c #474060",
"U 	c #31294D",
"V 	c #716C85",
"W 	c #65607A",
"X 	c #625D78",
"Y 	c #D5D4DB",
"Z 	c #F7F7F7",
"` 	c #8B8B8B",
" .	c #161616",
"..	c #0A0A0A",
"+.	c #151700",
"@.	c #1A1B00",
"#.	c #060600",
"$.	c #191A00",
"%.	c #393643",
"&.	c #47415F",
"*.	c #9692A4",
"=.	c #D9D8DE",
"-.	c #F7F7F8",
";.	c #918DA0",
">.	c #B8B5C1",
",.	c #D1D1D1",
"'.	c #212121",
").	c #282900",
"!.	c #030300",
"~.	c #070700",
"{.	c #020200",
"].	c #727175",
"^.	c #FEFEFF",
"/.	c #9D99AA",
"(.	c #DBD9E0",
"_.	c #E9E9E9",
":.	c #CBCBCB",
"<.	c #E0E0E0",
"[.	c #6C6C6C",
"}.	c #FEF100",
"|.	c #515151",
"1.	c #A6A6A7",
"2.	c #827E93",
"3.	c #615C77",
"4.	c #EAEAED",
"5.	c #DFDFE1",
"6.	c #0C0C0C",
"7.	c #191700",
"8.	c #1E1D24",
"9.	c #9894A7",
"0.	c #B1AEBB",
"a.	c #69686F",
"b.	c #000001",
"c.	c #615C76",
"d.	c #5F5A75",
"e.	c #413E4D",
"f.	c #020203",
"g.	c #1A1900",
"h.	c #1A1A1C",
"i.	c #C3C1CB",
"j.	c #9D9D9D",
"k.	c #202020",
"l.	c #383838",
"m.	c #4C4C4C",
"n.	c #111112",
"o.	c #C9C7D0",
"p.	c #F1F1F1",
"q.	c #F8F8F8",
"r.	c #232323",
"s.	c #050408",
"t.	c #AEACB9",
"u.	c #FEFEFE",
"v.	c #1D1D1D",
"w.	c #B7B5C1",
"x.	c #9390A2",
"y.	c #BBBBBB",
"z.	c #414141",
"A.	c #030303",
"B.	c #28272A",
"C.	c #F4F4F6",
"D.	c #605B76",
"E.	c #736E86",
"F.	c #D8D8D8",
"G.	c #727272",
"H.	c #101010",
"I.	c #848486",
"J.	c #CCCBD3",
"K.	c #747087",
"L.	c #6D6881",
"M.	c #1C1C1C",
"N.	c #242424",
"O.	c #656566",
"P.	c #F6F6F6",
"Q.	c #E8E6EA",
"R.	c #706B84",
"S.	c #E3E1E6",
"T.	c #474746",
"U.	c #151515",
"V.	c #C8C8C8",
"W.	c #AEAEAE",
"X.	c #070707",
"Y.	c #010100",
"Z.	c #373639",
"`.	c #FDFCFE",
" +	c #ABA8B7",
".+	c #F1F0F3",
"++	c #6D6980",
"@+	c #0A090E",
"#+	c #95929E",
"$+	c #0A0810",
"%+	c #0D0D0D",
"&+	c #050505",
"*+	c #5B5A5C",
"=+	c #F7F6F7",
"-+	c #F4F3F5",
";+	c #908C9F",
">+	c #C8C6D0",
",+	c #837E96",
"'+	c #86868A",
")+	c #070608",
"!+	c #ECEBEE",
"~+	c #5B5571",
"{+	c #646078",
"]+	c #AFAFB0",
"^+	c #454545",
"/+	c #363636",
"(+	c #7A7A7A",
"_+	c #C8C8C9",
":+	c #212025",
"<+	c #060607",
"[+	c #969699",
"}+	c #FAFAFA",
"|+	c #F8F8F9",
"1+	c #A29EAF",
"2+	c #F7F6F8",
"3+	c #F0F0F1",
"4+	c #B8B7B9",
"5+	c #E4E4E4",
"6+	c #FDFDFD",
"7+	c #A5A2B2",
"8+	c #3B3456",
"9+	c #A8A5B4",
"0+	c #525252",
"a+	c #848387",
"b+	c #CDCDCD",
"c+	c #8D899C",
"d+	c #494262",
"e+	c #68627C",
"f+	c #40395A",
"g+	c #ECECEC",
"h+	c #020202",
"i+	c #B4B5B5",
"j+	c #0B0B0B",
"k+	c #313232",
"l+	c #E3E3E3",
"m+	c #B1AEBC",
"n+	c #BDBBC6",
"o+	c #3C3556",
"p+	c #898599",
"q+	c #EDEDED",
"r+	c #39393A",
"s+	c #040404",
"t+	c #333333",
"u+	c #F5F5F5",
"v+	c #2B2B2B",
"w+	c #2D2A3D",
"x+	c #B6B4C1",
"y+	c #F5F5F6",
"z+	c #605A76",
"A+	c #DAD8DF",
"B+	c #F5F4F6",
"C+	c #615B76",
"D+	c #524D6A",
"E+	c #E4E3E8",
"F+	c #D5D5D5",
"G+	c #1B1B1B",
"H+	c #303030",
"I+	c #AAABAB",
"J+	c #585464",
"K+	c #B0AEBB",
"L+	c #A29FAF",
"M+	c #E9E8E9",
"N+	c #787779",
"O+	c #0F0E15",
"P+	c #2D2D2E",
"Q+	c #595959",
"R+	c #FAFAFB",
"S+	c #807B92",
"T+	c #B0ADBB",
"U+	c #E8E7EB",
"V+	c #3A3258",
"W+	c #E6E5EA",
"X+	c #DFDEE3",
"Y+	c #443E5E",
"Z+	c #BAB8C4",
"`+	c #C1BFCA",
" @	c #E0E0E5",
".@	c #D0CED6",
"+@	c #362F52",
"@@	c #CECCD5",
"#@	c #413A5B",
"$@	c #6A657F",
"%@	c #9793A6",
"                                                                        ",
"                                                                        ",
"                                                                        ",
"                      .   + @ #     $ %                                 ",
"                & * = *   - ; > , ' ; ; ; ) !                           ",
"                ~ ; ; {   ] ; ^ / ( _ ; : < [                           ",
"                } | 1 2   3 4 5 6 6 7 : 8 9 0 a b                       ",
"          c : d e f g h i j k l 6 m ; n o 6 p q r s                     ",
"        t u ; v w 6 6 x y z A B 6 C ; D E 6 F G ; H                     ",
"      I J ; ; K L 6 6 M N O P E 6 6 6 Q Q M R S T U V W                 ",
"    X Y ; ; ; ; Z `  .6 ..6 6 6 6 6 +.@.#.$.%.&.*.=.-.;.                ",
"    >.; ; ; ; ; ; = ,.'.).!.6 6 6 ~.{.6 6 6 E ].^.; ; /.                ",
"    (.; ; _.R h :.<.[.6 }.}.}.}.}.}.}.}.}.}.6 E |.1.4 2.                ",
"  3.4.; 5.6.6 6 6 6 6 6 }.6 6 6 6 6 6 6 6 }.6 7.6 8.9.                  ",
"  V @ 0.a.b.6 6 6 6 6 6 }.6 6 6 6 6 6 6 6 }.6 7.6                       ",
"    c.d.e.6 f.6 6 6 6 6 }.6 }.6 6 6 }.6 g.}.6 6 6 h.                    ",
"  i.; ; j.k.k.l.m.k.6 6 }.}.6 }.6 }.6 }.6 }.6 6 6 n.                    ",
"  o.; ; p.q.; ; ; r.6 6 }.6 6 6 }.6 6 6 }.}.6 6 6 s.                    ",
"  t.; ; ; ; u.; ; v.6 6 }.6 6 6 6 6 6 6 6 }.6 6 6 6 w.,                 ",
"  x.; ; u.; : y.z.A.6 6 }.6 6 6 6 6 6 6 6 }.6 6 6 B.u.C.D.              ",
"  E.; ; ; F.G.H.6 6 6 6 }.}.}.}.}.}.}.}.}.}.6 6 6 I.; ; J.K.            ",
"  L.J ; : M.6 6 6 6 N.6 6 6 6 6 6 6 6 6 6 6 6 6 6 O.P.; ; Q.R.          ",
"    S.; ; T.6 E 6 U.V.W.X.6 6 6 6 6 6 6 6 Y.6 6 6 6 Z.`.; ; > R.        ",
"     +; .+++@+6 6 W.u.; #+$+6 6 6 6 6 6 6 6 %+&+6 6 6 *+=+; ; -+;+      ",
"    R.>+! ,+'+)+x ; ; !+~+{+]+l ^+6 6 6 /+(+_+:+6 6 6 <+[+}+; ; |+@     ",
"        1+2+3+4+5+6+; 7+8+9+; P.^+6 6 E 0+; ; a+6 6 E 6 o b+; ; = c+    ",
"      d+> ; ; ; ; ; ; e+f+; ; g+l.6 6 h+D ; ; i+j+6 6 6 k+l+; ; m+      ",
"          > ; ; ; ; n+o+p+; ; q+r+6 6 s+t+; ; u+v+6 6 w+x+; y+3         ",
"          z+A+= ; B+C+D+E+; ; F+G+6 6 h+H+; ; ; I+0+J+                  ",
"              K+4 L+  X ; ; ; M+N+H+O+P+Q+; ; ; u.R+S+                  ",
"                      T+; ; ; ; ; U+V+W+; ; ; ; = X+Y+                  ",
"                      Z+`+ @4 ; ; .@+@@@; ; ; s p+T                     ",
"                          #@          $@%@p+                            ",
"                                                                        ",
"                                                                        ",
"                                                                        "};
