/* XPM */
static const char * SpiralIcon_xpm[] = {
"36 36 303 2",
"  	c None",
". 	c #8B889B",
"+ 	c #9C99AA",
"@ 	c #ADAAB9",
"# 	c #837F94",
"$ 	c #7D7990",
"% 	c #9995A7",
"& 	c #67627C",
"* 	c #CDCBD4",
"= 	c #FCFCFC",
"- 	c #D1D0D8",
"; 	c #FFFFFF",
"> 	c #F1F1F3",
", 	c #848095",
"' 	c #2A2248",
") 	c #CFCED6",
"! 	c #68637D",
"~ 	c #ABA8B6",
"{ 	c #D5D3DB",
"] 	c #9490A2",
"^ 	c #C4C4C4",
"/ 	c #1D1C1D",
"( 	c #313134",
"_ 	c #EEEFEE",
": 	c #FBFBFB",
"< 	c #EFEFEF",
"[ 	c #7B768D",
"} 	c #464060",
"| 	c #DEDEE1",
"1 	c #CBCACC",
"2 	c #EEEEF1",
"3 	c #79758C",
"4 	c #FBFBFC",
"5 	c #A2A2A2",
"6 	c #000000",
"7 	c #F5F6F5",
"8 	c #747474",
"9 	c #2A2A2B",
"0 	c #403958",
"a 	c #7D788F",
"b 	c #C0BEC8",
"c 	c #BCBAC6",
"d 	c #BCBAC5",
"e 	c #625C79",
"f 	c #2B2932",
"g 	c #191919",
"h 	c #CCCCCC",
"i 	c #807B91",
"j 	c #3B3556",
"k 	c #F2F2F4",
"l 	c #929292",
"m 	c #0E0E0E",
"n 	c #BFBFBF",
"o 	c #111111",
"p 	c #100E15",
"q 	c #868689",
"r 	c #FEFDFE",
"s 	c #D9D7DE",
"t 	c #9C98AA",
"u 	c #FDFCFD",
"v 	c #DDDDDD",
"w 	c #575755",
"x 	c #5E5E5E",
"y 	c #C4C2CD",
"z 	c #423C5C",
"A 	c #F0F0F2",
"B 	c #939393",
"C 	c #555555",
"D 	c #4A4A4A",
"E 	c #010101",
"F 	c #282828",
"G 	c #C2C2C2",
"H 	c #DBDAE0",
"I 	c #615C78",
"J 	c #F6F6F7",
"K 	c #DADADA",
"L 	c #545454",
"M 	c #0F0F0F",
"N 	c #B8B8B8",
"O 	c #48445C",
"P 	c #2B2B2C",
"Q 	c #181900",
"R 	c #D3D3D3",
"S 	c #C1BEC9",
"T 	c #474060",
"U 	c #31294D",
"V 	c #716C85",
"W 	c #65607A",
"X 	c #625D78",
"Y 	c #D5D4DB",
"Z 	c #F7F7F7",
"` 	c #8B8B8B",
" .	c #161616",
"..	c #0C0C0C",
"+.	c #161800",
"@.	c #1A1B00",
"#.	c #060600",
"$.	c #191A00",
"%.	c #393643",
"&.	c #47415F",
"*.	c #9692A4",
"=.	c #D9D8DE",
"-.	c #F7F7F8",
";.	c #918DA0",
">.	c #B8B5C1",
",.	c #D1D1D1",
"'.	c #252525",
").	c #666A00",
"!.	c #8B9100",
"~.	c #8D9200",
"{.	c #929900",
"].	c #7E8200",
"^.	c #040400",
"/.	c #727175",
"(.	c #FEFEFF",
"_.	c #9D99AA",
":.	c #DBD9E0",
"<.	c #E9E9E9",
"[.	c #CBCBCB",
"}.	c #E0E0E0",
"|.	c #6C6C6C",
"1.	c #EDF600",
"2.	c #F4FD00",
"3.	c #F5FE00",
"4.	c #515151",
"5.	c #A6A6A7",
"6.	c #827E93",
"7.	c #615C77",
"8.	c #EAEAED",
"9.	c #DFDFE1",
"0.	c #010200",
"a.	c #010100",
"b.	c #EDFF00",
"c.	c #1E1D24",
"d.	c #9894A7",
"e.	c #B1AEBB",
"f.	c #69686F",
"g.	c #000001",
"h.	c #0F0F00",
"i.	c #7F8400",
"j.	c #8C9200",
"k.	c #C6CE00",
"l.	c #615C76",
"m.	c #5F5A75",
"n.	c #413E4D",
"o.	c #020203",
"p.	c #292B00",
"q.	c #F0F900",
"r.	c #1A1A1C",
"s.	c #C3C1CB",
"t.	c #9D9D9D",
"u.	c #202020",
"v.	c #383838",
"w.	c #4C4C4C",
"x.	c #161700",
"y.	c #8A9000",
"z.	c #111112",
"A.	c #C9C7D0",
"B.	c #F1F1F1",
"C.	c #F8F8F8",
"D.	c #232323",
"E.	c #141500",
"F.	c #050408",
"G.	c #AEACB9",
"H.	c #FEFEFE",
"I.	c #1D1D1D",
"J.	c #313300",
"K.	c #F6FF00",
"L.	c #B7B5C1",
"M.	c #9390A2",
"N.	c #BBBBBB",
"O.	c #414141",
"P.	c #030303",
"Q.	c #020200",
"R.	c #28272A",
"S.	c #F4F4F6",
"T.	c #605B76",
"U.	c #736E86",
"V.	c #D8D8D8",
"W.	c #727272",
"X.	c #101010",
"Y.	c #505300",
"Z.	c #C8CF00",
"`.	c #1E2000",
" +	c #848486",
".+	c #CCCBD3",
"++	c #747087",
"@+	c #6D6881",
"#+	c #1C1C1C",
"$+	c #242424",
"%+	c #393B09",
"&+	c #0A0A00",
"*+	c #656566",
"=+	c #F6F6F6",
"-+	c #E8E6EA",
";+	c #706B84",
">+	c #E3E1E6",
",+	c #474746",
"'+	c #151515",
")+	c #C8C8C8",
"!+	c #AEAEAE",
"~+	c #080808",
"{+	c #373639",
"]+	c #FDFCFE",
"^+	c #ABA8B7",
"/+	c #F1F0F3",
"(+	c #6D6980",
"_+	c #0A090E",
":+	c #95929E",
"<+	c #0A0810",
"[+	c #0D0D0D",
"}+	c #050505",
"|+	c #5B5A5C",
"1+	c #F7F6F7",
"2+	c #F4F3F5",
"3+	c #908C9F",
"4+	c #C8C6D0",
"5+	c #837E96",
"6+	c #86868A",
"7+	c #070608",
"8+	c #ECEBEE",
"9+	c #5B5571",
"0+	c #646078",
"a+	c #AFAFB0",
"b+	c #454545",
"c+	c #363636",
"d+	c #7A7A7A",
"e+	c #C8C8C9",
"f+	c #212025",
"g+	c #060607",
"h+	c #969699",
"i+	c #FAFAFA",
"j+	c #F8F8F9",
"k+	c #A29EAF",
"l+	c #F7F6F8",
"m+	c #F0F0F1",
"n+	c #B8B7B9",
"o+	c #E4E4E4",
"p+	c #FDFDFD",
"q+	c #A5A2B2",
"r+	c #3B3456",
"s+	c #A8A5B4",
"t+	c #525252",
"u+	c #848387",
"v+	c #CDCDCD",
"w+	c #8D899C",
"x+	c #494262",
"y+	c #68627C",
"z+	c #40395A",
"A+	c #ECECEC",
"B+	c #020202",
"C+	c #B4B5B5",
"D+	c #0B0B0B",
"E+	c #313232",
"F+	c #E3E3E3",
"G+	c #B1AEBC",
"H+	c #BDBBC6",
"I+	c #3C3556",
"J+	c #898599",
"K+	c #EDEDED",
"L+	c #39393A",
"M+	c #040404",
"N+	c #333333",
"O+	c #F5F5F5",
"P+	c #2B2B2B",
"Q+	c #2D2A3D",
"R+	c #B6B4C1",
"S+	c #F5F5F6",
"T+	c #605A76",
"U+	c #DAD8DF",
"V+	c #F5F4F6",
"W+	c #615B76",
"X+	c #524D6A",
"Y+	c #E4E3E8",
"Z+	c #D5D5D5",
"`+	c #1B1B1B",
" @	c #303030",
".@	c #AAABAB",
"+@	c #585464",
"@@	c #B0AEBB",
"#@	c #A29FAF",
"$@	c #E9E8E9",
"%@	c #787779",
"&@	c #0F0E15",
"*@	c #2D2D2E",
"=@	c #595959",
"-@	c #FAFAFB",
";@	c #807B92",
">@	c #B0ADBB",
",@	c #E8E7EB",
"'@	c #3A3258",
")@	c #E6E5EA",
"!@	c #DFDEE3",
"~@	c #443E5E",
"{@	c #BAB8C4",
"]@	c #C1BFCA",
"^@	c #E0E0E5",
"/@	c #D0CED6",
"(@	c #362F52",
"_@	c #CECCD5",
":@	c #413A5B",
"<@	c #6A657F",
"[@	c #9793A6",
"                                                                        ",
"                                                                        ",
"                                                                        ",
"                      .   + @ #     $ %                                 ",
"                & * = *   - ; > , ' ; ; ; ) !                           ",
"                ~ ; ; {   ] ; ^ / ( _ ; : < [                           ",
"                } | 1 2   3 4 5 6 6 7 : 8 9 0 a b                       ",
"          c : d e f g h i j k l 6 m ; n o 6 p q r s                     ",
"        t u ; v w 6 6 x y z A B 6 C ; D E 6 F G ; H                     ",
"      I J ; ; K L 6 6 M N O P E 6 6 6 Q Q M R S T U V W                 ",
"    X Y ; ; ; ; Z `  .6 ..6 6 6 6 6 +.@.#.$.%.&.*.=.-.;.                ",
"    >.; ; ; ; ; ; = ,.'.).!.~.!.{.].^.6 6 6 E /.(.; ; _.                ",
"    :.; ; <.R h [.}.|.6 1.2.2.2.3.2.6 6 6 6 6 E 4.5.4 6.                ",
"  7.8.; 9...6 6 6 6 6 6 6 6 0.a.~.2.b.6 6 6 6 6 6 c.d.                  ",
"  V @ e.f.g.6 6 6 6 6 h.i.j.~.j.k.2.b.b.b.b.b.6 6                       ",
"    l.m.n.6 o.6 6 6 6 p.q.2.2.2.3.3.b.6 6 6 6 6 6 r.                    ",
"  s.; ; t.u.u.v.w.u.6 6 x.6 0.6 y.3.6 6 6 6 6 6 6 z.                    ",
"  A.; ; B.C.; ; ; D.6 a.E.6 6 6 y.3.b.6 6 6 6 6 6 F.                    ",
"  G.; ; ; ; H.; ; I.6 J.K.K.K.K.q.2.b.b.b.b.b.6 6 6 L.,                 ",
"  M.; ; H.; : N.O.P.6 6 6 6 6 6 y.2.b.6 ^.Q.6 6 6 R.H.S.T.              ",
"  U.; ; ; V.W.X.6 6 6 6 6 6 Y.y.Z.2.Q.6 `.6 6 6 6  +; ; .+++            ",
"  @+J ; : #+6 6 6 6 $+%+K.K.K.2.2.2.&+6 6 a.6 6 6 *+=+; ; -+;+          ",
"    >+; ; ,+6 E 6 '+)+!+~+6 6 6 6 6 6 6 6 a.6 6 6 6 {+]+; ; > ;+        ",
"    ^+; /+(+_+6 6 !+H.; :+<+6 6 6 6 6 6 6 6 [+}+6 6 6 |+1+; ; 2+3+      ",
"    ;+4+! 5+6+7+x ; ; 8+9+0+a+l b+6 6 6 c+d+e+f+6 6 6 g+h+i+; ; j+@     ",
"        k+l+m+n+o+p+; q+r+s+; =+b+6 6 E t+; ; u+6 6 E 6 o v+; ; = w+    ",
"      x+> ; ; ; ; ; ; y+z+; ; A+v.6 6 B+D ; ; C+D+6 6 6 E+F+; ; G+      ",
"          > ; ; ; ; H+I+J+; ; K+L+6 6 M+N+; ; O+P+6 6 Q+R+; S+3         ",
"          T+U+= ; V+W+X+Y+; ; Z+`+6 6 B+ @; ; ; .@t++@                  ",
"              @@4 #@  X ; ; ; $@%@ @&@*@=@; ; ; H.-@;@                  ",
"                      >@; ; ; ; ; ,@'@)@; ; ; ; = !@~@                  ",
"                      {@]@^@4 ; ; /@(@_@; ; ; s J+T                     ",
"                          :@          <@[@J+                            ",
"                                                                        ",
"                                                                        ",
"                                                                        "};
