/* XPM */
static const char * SpiralIcon_xpm[] = {
"36 36 124 2",
"  	c None",
". 	c #E98A06",
"+ 	c #E88700",
"@ 	c #814E07",
"# 	c #8A550B",
"$ 	c #E88905",
"% 	c #7A4803",
"& 	c #070603",
"* 	c #1C1103",
"= 	c #090704",
"- 	c #B96C02",
"; 	c #6C4105",
"> 	c #E88803",
", 	c #D07A03",
"' 	c #000000",
") 	c #E88701",
"! 	c #E78702",
"~ 	c #4F330B",
"{ 	c #E68602",
"] 	c #442A07",
"^ 	c #E38501",
"/ 	c #935703",
"( 	c #E88802",
"_ 	c #CA7602",
": 	c #0A0601",
"< 	c #150F07",
"[ 	c #D07A02",
"} 	c #D27B02",
"| 	c #462A03",
"1 	c #020101",
"2 	c #E78700",
"3 	c #653C04",
"4 	c #0D0A05",
"5 	c #E88904",
"6 	c #8F5607",
"7 	c #E78905",
"8 	c #CA7805",
"9 	c #E98B09",
"0 	c #C97602",
"a 	c #0C0802",
"b 	c #E88801",
"c 	c #B56A03",
"d 	c #140C02",
"e 	c #040301",
"f 	c #834D03",
"g 	c #060402",
"h 	c #E88A05",
"i 	c #D37B00",
"j 	c #191003",
"k 	c #E58807",
"l 	c #E98A07",
"m 	c #DF8201",
"n 	c #C37304",
"o 	c #090603",
"p 	c #E58501",
"q 	c #E28400",
"r 	c #CF7A04",
"s 	c #B76C03",
"t 	c #915500",
"u 	c #040303",
"v 	c #9F5C00",
"w 	c #C77400",
"x 	c #633B03",
"y 	c #693F04",
"z 	c #C37200",
"A 	c #CC7804",
"B 	c #0C0905",
"C 	c #C17101",
"D 	c #AF6701",
"E 	c #DA7F02",
"F 	c #945703",
"G 	c #271700",
"H 	c #160E02",
"I 	c #4F3209",
"J 	c #040302",
"K 	c #CD7800",
"L 	c #080500",
"M 	c #9B5C03",
"N 	c #C07205",
"O 	c #E08302",
"P 	c #613A03",
"Q 	c #915603",
"R 	c #E78600",
"S 	c #915502",
"T 	c #E18301",
"U 	c #331F03",
"V 	c #030201",
"W 	c #0F0B05",
"X 	c #E48501",
"Y 	c #603800",
"Z 	c #492C04",
"` 	c #8A5307",
" .	c #161008",
"..	c #DF8200",
"+.	c #1C1102",
"@.	c #090500",
"#.	c #E58500",
"$.	c #D77D00",
"%.	c #A05E03",
"&.	c #100B05",
"*.	c #E58601",
"=.	c #2F1D02",
"-.	c #5B3500",
";.	c #CB7600",
">.	c #D47B01",
",.	c #502E00",
"'.	c #764604",
").	c #603904",
"!.	c #905606",
"~.	c #CE7801",
"{.	c #5E3700",
"].	c #512F00",
"^.	c #A86302",
"/.	c #E28401",
"(.	c #0E0902",
"_.	c #070502",
":.	c #965803",
"<.	c #E68601",
"[.	c #452A04",
"}.	c #804D07",
"|.	c #4A2D03",
"1.	c #1A1207",
"2.	c #050402",
"3.	c #120D07",
"                                                                        ",
"                                                                        ",
"                                                                        ",
"                        . + + @       + + #                             ",
"                        $ + + % &     + + * =                           ",
"                .         + + - ;   > + , '     ) ! ~                   ",
"                + { ]   $ + + + + + + + ^ /   ( + _ : <                 ",
"              . + + [ } + + + + + + + + + + + + + | 1                   ",
"                > + + + + + + + + + + + + + + + 2 3 4                   ",
"                5 + + + + + + + + + + + + + + + + + 6 7 + 8             ",
"        9     $ + + + + + + + + + + + + + + + + + + + + + 0 a           ",
"        ) + b + + + + + + + + + + + + + + + + + + + + + c d e           ",
"        + + + + + + + ' ' ' + + + + + + + + + + + + + + f g             ",
"        h + + + + ' ' ' ' ' ' + + + + + + + + + + + + + i j k l         ",
"            + + + + + ' ' + + ' ' + + + + + + + + + + + + m + n o       ",
"          p + + + + + + + + + + + ' ' + + + + + + + + + + q r s '       ",
"          ( + + + + + + + + + + + + + ' ' + ' ' + + + + + t ' = u       ",
"      + + + + + + + + + + + + + + + + + + ' ' ' ' ' ' + + v '           ",
"      + + + + + + + + + + + + + + + + + + + ' ' + + + + + w x           ",
"      $ y z + + + + + + + + + + + + + + + + + + + + + + + + + A B       ",
"          C + + + + + ' ' + + + + + + + + + + + + + + + + D E F '       ",
"            + + + ' ' ' ' + + + + + + + + + + + + + + + + G H I J       ",
"            + + + + + ' ' + + + + + + + + + + + + + + + K ' L           ",
"        5 + + + + + + + + + + + + + + + + + + + + + + + + M             ",
"        > + + + + + + + + + + + + + + + + + + + + + + + + + N           ",
"          O P Q + + + + + + + + + + + + + + + + + + R S T p U V         ",
"            W   X + + + + + + + + + + + + + + + + R Y ' Z ` '  .        ",
"                  ) + + + + + + + + + + + + + + + ..+.@.                ",
"                > + + #.+ + + + + + + + + + + $.R + %.&.                ",
"                  ) *.=.-.;.+ + + + + + + >.,.L '.2 ).1                 ",
"                    !.'     + + ~.{.].^.+ /.(.      _.W                 ",
"                            + + :.'     + <.[.                          ",
"                              }.|.V       1.2.3.                        ",
"                                                                        ",
"                                                                        ",
"                                                                        "};
