/* XPM */
static char * SpiralIcon_xpm[] = {
"36 36 4 1",
" 	c None",
".	c #000000",
"+	c #6E6E6E",
"@	c #FFFFFF",
"                                    ",
"                                    ",
"                                    ",
"    .............................   ",
"    .............................   ",
"    .............................   ",
"    ...+++++++++++++++++++++++...   ",
"    ...+++++++++++++++++++++++...   ",
"    ...+++++++++++++++++++++++...   ",
"    ...+++++++++++++++++++++++...   ",
"    ...+++++++++++++++++++++++...   ",
"    ...++++++@@@@@@@@@@@@@@+++...   ",
"    ...++++++@@@@@@@++++++++++...   ",
"    ...++++++@@@@@@@++++++++++...   ",
"    ...++++++++@++++++++++++++...   ",
"    ...++...................++...   ",
"    ...+++++++++++++++++++++++...   ",
"    ...+++++++++++++++++++++++...   ",
"    ...+++++++++++++++++++++++...   ",
"    ...+++++++++++++++++++++++...   ",
"    .............................   ",
"    .............................   ",
"    .............................   ",
"              ........              ",
"              ........              ",
"              ........              ",
"              ........              ",
"              ........              ",
"    .............................   ",
"    .............................   ",
"    .............................   ",
"    .............................   ",
"    .............................   ",
"    .............................   ",
"                                    ",
"                                    "};
