/* XPM */
static char * SpiralIcon_xpm[] = {
"36 36 282 2",
"  	c None",
". 	c #8B889B",
"+ 	c #9C99AA",
"@ 	c #ADAAB9",
"# 	c #837F94",
"$ 	c #7D7990",
"% 	c #9995A7",
"& 	c #67627C",
"* 	c #CDCBD4",
"= 	c #FCFCFC",
"- 	c #D1D0D8",
"; 	c #FFFFFF",
"> 	c #F1F1F3",
", 	c #848095",
"' 	c #2A2248",
") 	c #CFCED6",
"! 	c #68637D",
"~ 	c #ABA8B6",
"{ 	c #D5D3DB",
"] 	c #9490A2",
"^ 	c #C4C4C4",
"/ 	c #1D1C1D",
"( 	c #313134",
"_ 	c #EEEFEE",
": 	c #FBFBFB",
"< 	c #EFEFEF",
"[ 	c #7B768D",
"} 	c #464060",
"| 	c #DEDEE1",
"1 	c #CBCACC",
"2 	c #EEEEF1",
"3 	c #79758C",
"4 	c #FBFBFC",
"5 	c #A2A2A2",
"6 	c #000000",
"7 	c #F5F6F5",
"8 	c #747474",
"9 	c #2A2A2B",
"0 	c #403958",
"a 	c #7D788F",
"b 	c #C0BEC8",
"c 	c #BCBAC6",
"d 	c #BCBAC5",
"e 	c #625C79",
"f 	c #2B2932",
"g 	c #191919",
"h 	c #CCCCCC",
"i 	c #807B91",
"j 	c #3B3556",
"k 	c #F2F2F4",
"l 	c #929292",
"m 	c #0E0E0E",
"n 	c #BFBFBF",
"o 	c #111111",
"p 	c #100E15",
"q 	c #868689",
"r 	c #FEFDFE",
"s 	c #D9D7DE",
"t 	c #9C98AA",
"u 	c #FDFCFD",
"v 	c #DDDDDD",
"w 	c #575755",
"x 	c #5E5E5E",
"y 	c #C4C2CD",
"z 	c #423C5C",
"A 	c #F0F0F2",
"B 	c #939393",
"C 	c #555555",
"D 	c #4A4A4A",
"E 	c #010101",
"F 	c #282828",
"G 	c #C2C2C2",
"H 	c #DBDAE0",
"I 	c #615C78",
"J 	c #F6F6F7",
"K 	c #DADADA",
"L 	c #545454",
"M 	c #0F0F0F",
"N 	c #B8B8B8",
"O 	c #48445C",
"P 	c #2B2B2C",
"Q 	c #181900",
"R 	c #D3D3D3",
"S 	c #C1BEC9",
"T 	c #474060",
"U 	c #31294D",
"V 	c #716C85",
"W 	c #65607A",
"X 	c #625D78",
"Y 	c #D5D4DB",
"Z 	c #F7F7F7",
"` 	c #8B8B8B",
" .	c #161616",
"..	c #0C0C0C",
"+.	c #161800",
"@.	c #1A1B00",
"#.	c #060600",
"$.	c #191A00",
"%.	c #393643",
"&.	c #47415F",
"*.	c #9692A4",
"=.	c #D9D8DE",
"-.	c #F7F7F8",
";.	c #918DA0",
">.	c #B8B5C1",
",.	c #D1D1D1",
"'.	c #252525",
").	c #040400",
"!.	c #141500",
"~.	c #727175",
"{.	c #FEFEFF",
"].	c #9D99AA",
"^.	c #DBD9E0",
"/.	c #E9E9E9",
"(.	c #CBCBCB",
"_.	c #E0E0E0",
":.	c #6C6C6C",
"<.	c #010200",
"[.	c #292B00",
"}.	c #515151",
"|.	c #A6A6A7",
"1.	c #827E93",
"2.	c #615C77",
"3.	c #EAEAED",
"4.	c #DFDFE1",
"5.	c #EDFF00",
"6.	c #1E1D24",
"7.	c #9894A7",
"8.	c #B1AEBB",
"9.	c #69686F",
"0.	c #000001",
"a.	c #615C76",
"b.	c #5F5A75",
"c.	c #413E4D",
"d.	c #020203",
"e.	c #040500",
"f.	c #050500",
"g.	c #1A1A1C",
"h.	c #C3C1CB",
"i.	c #9D9D9D",
"j.	c #202020",
"k.	c #383838",
"l.	c #4C4C4C",
"m.	c #111112",
"n.	c #C9C7D0",
"o.	c #F1F1F1",
"p.	c #F8F8F8",
"q.	c #232323",
"r.	c #050408",
"s.	c #AEACB9",
"t.	c #FEFEFE",
"u.	c #1D1D1D",
"v.	c #B7B5C1",
"w.	c #9390A2",
"x.	c #BBBBBB",
"y.	c #414141",
"z.	c #030303",
"A.	c #28272A",
"B.	c #F4F4F6",
"C.	c #605B76",
"D.	c #736E86",
"E.	c #D8D8D8",
"F.	c #727272",
"G.	c #101010",
"H.	c #848486",
"I.	c #CCCBD3",
"J.	c #747087",
"K.	c #6D6881",
"L.	c #1C1C1C",
"M.	c #242424",
"N.	c #656566",
"O.	c #F6F6F6",
"P.	c #E8E6EA",
"Q.	c #706B84",
"R.	c #E3E1E6",
"S.	c #474746",
"T.	c #151515",
"U.	c #C8C8C8",
"V.	c #AEAEAE",
"W.	c #080808",
"X.	c #010100",
"Y.	c #373639",
"Z.	c #FDFCFE",
"`.	c #ABA8B7",
" +	c #F1F0F3",
".+	c #6D6980",
"++	c #0A090E",
"@+	c #95929E",
"#+	c #0A0810",
"$+	c #0D0D0D",
"%+	c #050505",
"&+	c #5B5A5C",
"*+	c #F7F6F7",
"=+	c #F4F3F5",
"-+	c #908C9F",
";+	c #C8C6D0",
">+	c #837E96",
",+	c #86868A",
"'+	c #070608",
")+	c #ECEBEE",
"!+	c #5B5571",
"~+	c #646078",
"{+	c #AFAFB0",
"]+	c #454545",
"^+	c #363636",
"/+	c #7A7A7A",
"(+	c #C8C8C9",
"_+	c #212025",
":+	c #060607",
"<+	c #969699",
"[+	c #FAFAFA",
"}+	c #F8F8F9",
"|+	c #A29EAF",
"1+	c #F7F6F8",
"2+	c #F0F0F1",
"3+	c #B8B7B9",
"4+	c #E4E4E4",
"5+	c #FDFDFD",
"6+	c #A5A2B2",
"7+	c #3B3456",
"8+	c #A8A5B4",
"9+	c #525252",
"0+	c #848387",
"a+	c #CDCDCD",
"b+	c #8D899C",
"c+	c #494262",
"d+	c #68627C",
"e+	c #40395A",
"f+	c #ECECEC",
"g+	c #020202",
"h+	c #B4B5B5",
"i+	c #0B0B0B",
"j+	c #313232",
"k+	c #E3E3E3",
"l+	c #B1AEBC",
"m+	c #BDBBC6",
"n+	c #3C3556",
"o+	c #898599",
"p+	c #EDEDED",
"q+	c #39393A",
"r+	c #040404",
"s+	c #333333",
"t+	c #F5F5F5",
"u+	c #2B2B2B",
"v+	c #2D2A3D",
"w+	c #B6B4C1",
"x+	c #F5F5F6",
"y+	c #605A76",
"z+	c #DAD8DF",
"A+	c #F5F4F6",
"B+	c #615B76",
"C+	c #524D6A",
"D+	c #E4E3E8",
"E+	c #D5D5D5",
"F+	c #1B1B1B",
"G+	c #303030",
"H+	c #AAABAB",
"I+	c #585464",
"J+	c #B0AEBB",
"K+	c #A29FAF",
"L+	c #E9E8E9",
"M+	c #787779",
"N+	c #0F0E15",
"O+	c #2D2D2E",
"P+	c #595959",
"Q+	c #FAFAFB",
"R+	c #807B92",
"S+	c #B0ADBB",
"T+	c #E8E7EB",
"U+	c #3A3258",
"V+	c #E6E5EA",
"W+	c #DFDEE3",
"X+	c #443E5E",
"Y+	c #BAB8C4",
"Z+	c #C1BFCA",
"`+	c #E0E0E5",
" @	c #D0CED6",
".@	c #362F52",
"+@	c #CECCD5",
"@@	c #413A5B",
"#@	c #6A657F",
"$@	c #9793A6",
"                                                                        ",
"                                                                        ",
"                                                                        ",
"                      .   + @ #     $ %                                 ",
"                & * = *   - ; > , ' ; ; ; ) !                           ",
"                ~ ; ; {   ] ; ^ / ( _ ; : < [                           ",
"                } | 1 2   3 4 5 6 6 7 : 8 9 0 a b                       ",
"          c : d e f g h i j k l 6 m ; n o 6 p q r s                     ",
"        t u ; v w 6 6 x y z A B 6 C ; D E 6 F G ; H                     ",
"      I J ; ; K L 6 6 M N O P E 6 6 6 Q Q M R S T U V W                 ",
"    X Y ; ; ; ; Z `  .6 ..6 6 6 6 6 +.@.#.$.%.&.*.=.-.;.                ",
"    >.; ; ; ; ; ; = ,.'.6 6 ).6 6 !.).6 6 6 E ~.{.; ; ].                ",
"    ^.; ; /.R h (._.:.6 6 6 <.6 6 6 6 6 [.6 6 E }.|.4 1.                ",
"  2.3.; 4...6 6 6 6 6 6 6 5.5.5.6 6 6 6 6 6 6 6 6 6.7.                  ",
"  V @ 8.9.0.6 6 6 6 6 5.5.6 <.6 5.5.6 6 6 6 6 6 6                       ",
"    a.b.c.6 d.6 6 6 6 6 e.6 5.6 6 6 5.5.5.f.6 6 6 g.                    ",
"  h.; ; i.j.j.k.l.j.6 6 6 5.6 5.6 6 6 6 6 5.5.5.6 m.                    ",
"  n.; ; o.p.; ; ; q.6 6 5.6 6 6 5.6 6 6 6 6 6 6 6 r.                    ",
"  s.; ; ; ; t.; ; u.6 6 5.6 6 6 5.6 6 6 6 5.5.5.6 6 v.,                 ",
"  w.; ; t.; : x.y.z.6 5.6 6 6 6 6 5.6 5.5.6 6 6 6 A.t.B.C.              ",
"  D.; ; ; E.F.G.6 6 6 6 6 6 6 6 6 6 5.5.6 6 6 6 6 H.; ; I.J.            ",
"  K.J ; : L.6 6 6 6 M...6 6 6 6 6 6 6 6 6 6 6 6 6 N.O.; ; P.Q.          ",
"    R.; ; S.6 E 6 T.U.V.W.6 6 6 6 6 6 6 6 X.6 6 6 6 Y.Z.; ; > Q.        ",
"    `.;  +.+++6 6 V.t.; @+#+6 6 6 6 6 6 6 6 $+%+6 6 6 &+*+; ; =+-+      ",
"    Q.;+! >+,+'+x ; ; )+!+~+{+l ]+6 6 6 ^+/+(+_+6 6 6 :+<+[+; ; }+@     ",
"        |+1+2+3+4+5+; 6+7+8+; O.]+6 6 E 9+; ; 0+6 6 E 6 o a+; ; = b+    ",
"      c+> ; ; ; ; ; ; d+e+; ; f+k.6 6 g+D ; ; h+i+6 6 6 j+k+; ; l+      ",
"          > ; ; ; ; m+n+o+; ; p+q+6 6 r+s+; ; t+u+6 6 v+w+; x+3         ",
"          y+z+= ; A+B+C+D+; ; E+F+6 6 g+G+; ; ; H+9+I+                  ",
"              J+4 K+  X ; ; ; L+M+G+N+O+P+; ; ; t.Q+R+                  ",
"                      S+; ; ; ; ; T+U+V+; ; ; ; = W+X+                  ",
"                      Y+Z+`+4 ; ;  @.@+@; ; ; s o+T                     ",
"                          @@          #@$@o+                            ",
"                                                                        ",
"                                                                        ",
"                                                                        "};
