/* XPM */
static char * SpiralIcon_xpm[] = {
"36 36 273 2",
"  	c None",
". 	c #8B889B",
"+ 	c #9C99AA",
"@ 	c #ADAAB9",
"# 	c #837F94",
"$ 	c #7D7990",
"% 	c #9995A7",
"& 	c #67627C",
"* 	c #CDCBD4",
"= 	c #FCFCFC",
"- 	c #D1D0D8",
"; 	c #FFFFFF",
"> 	c #F1F1F3",
", 	c #848095",
"' 	c #2A2248",
") 	c #CFCED6",
"! 	c #68637D",
"~ 	c #ABA8B6",
"{ 	c #D5D3DB",
"] 	c #9490A2",
"^ 	c #C4C4C4",
"/ 	c #1D1C1D",
"( 	c #313134",
"_ 	c #EEEFEE",
": 	c #FBFBFB",
"< 	c #EFEFEF",
"[ 	c #7B768D",
"} 	c #464060",
"| 	c #DEDEE1",
"1 	c #CBCACC",
"2 	c #EEEEF1",
"3 	c #79758C",
"4 	c #FBFBFC",
"5 	c #A2A2A2",
"6 	c #000000",
"7 	c #F5F6F5",
"8 	c #747474",
"9 	c #2A2A2B",
"0 	c #403958",
"a 	c #7D788F",
"b 	c #C0BEC8",
"c 	c #BCBAC6",
"d 	c #BCBAC5",
"e 	c #625C79",
"f 	c #2B2932",
"g 	c #191919",
"h 	c #CCCCCC",
"i 	c #807B91",
"j 	c #3B3556",
"k 	c #F2F2F4",
"l 	c #929292",
"m 	c #0E0E0E",
"n 	c #BFBFBF",
"o 	c #111111",
"p 	c #100E15",
"q 	c #868689",
"r 	c #FEFDFE",
"s 	c #D9D7DE",
"t 	c #9C98AA",
"u 	c #FDFCFD",
"v 	c #DDDDDD",
"w 	c #575755",
"x 	c #5E5E5E",
"y 	c #C4C2CD",
"z 	c #423C5C",
"A 	c #F0F0F2",
"B 	c #939393",
"C 	c #555555",
"D 	c #4A4A4A",
"E 	c #010101",
"F 	c #282828",
"G 	c #C2C2C2",
"H 	c #DBDAE0",
"I 	c #615C78",
"J 	c #F6F6F7",
"K 	c #DADADA",
"L 	c #545454",
"M 	c #0F0F0F",
"N 	c #B8B8B8",
"O 	c #48445C",
"P 	c #2B2B2C",
"Q 	c #181900",
"R 	c #D3D3D3",
"S 	c #C1BEC9",
"T 	c #474060",
"U 	c #31294D",
"V 	c #716C85",
"W 	c #65607A",
"X 	c #625D78",
"Y 	c #D5D4DB",
"Z 	c #F7F7F7",
"` 	c #8B8B8B",
" .	c #161616",
"..	c #0C0C0C",
"+.	c #393643",
"@.	c #47415F",
"#.	c #9692A4",
"$.	c #D9D8DE",
"%.	c #F7F7F8",
"&.	c #918DA0",
"*.	c #B8B5C1",
"=.	c #D1D1D1",
"-.	c #252525",
";.	c #727175",
">.	c #FEFEFF",
",.	c #9D99AA",
"'.	c #DBD9E0",
").	c #E9E9E9",
"!.	c #CBCBCB",
"~.	c #E0E0E0",
"{.	c #6C6C6C",
"].	c #F4FD00",
"^.	c #515151",
"/.	c #A6A6A7",
"(.	c #827E93",
"_.	c #615C77",
":.	c #EAEAED",
"<.	c #DFDFE1",
"[.	c #1E1D24",
"}.	c #9894A7",
"|.	c #B1AEBB",
"1.	c #69686F",
"2.	c #000001",
"3.	c #0A0A00",
"4.	c #615C76",
"5.	c #5F5A75",
"6.	c #413E4D",
"7.	c #020203",
"8.	c #1A1A1C",
"9.	c #C3C1CB",
"0.	c #9D9D9D",
"a.	c #202020",
"b.	c #383838",
"c.	c #4C4C4C",
"d.	c #111112",
"e.	c #C9C7D0",
"f.	c #F1F1F1",
"g.	c #F8F8F8",
"h.	c #232323",
"i.	c #010100",
"j.	c #050408",
"k.	c #AEACB9",
"l.	c #FEFEFE",
"m.	c #1D1D1D",
"n.	c #020200",
"o.	c #B7B5C1",
"p.	c #9390A2",
"q.	c #BBBBBB",
"r.	c #414141",
"s.	c #030303",
"t.	c #28272A",
"u.	c #F4F4F6",
"v.	c #605B76",
"w.	c #736E86",
"x.	c #D8D8D8",
"y.	c #727272",
"z.	c #101010",
"A.	c #848486",
"B.	c #CCCBD3",
"C.	c #747087",
"D.	c #6D6881",
"E.	c #1C1C1C",
"F.	c #242424",
"G.	c #656566",
"H.	c #F6F6F6",
"I.	c #E8E6EA",
"J.	c #706B84",
"K.	c #E3E1E6",
"L.	c #474746",
"M.	c #151515",
"N.	c #C8C8C8",
"O.	c #AEAEAE",
"P.	c #080808",
"Q.	c #373639",
"R.	c #FDFCFE",
"S.	c #ABA8B7",
"T.	c #F1F0F3",
"U.	c #6D6980",
"V.	c #0A090E",
"W.	c #95929E",
"X.	c #0A0810",
"Y.	c #050505",
"Z.	c #5B5A5C",
"`.	c #F7F6F7",
" +	c #F4F3F5",
".+	c #908C9F",
"++	c #C8C6D0",
"@+	c #837E96",
"#+	c #86868A",
"$+	c #070608",
"%+	c #ECEBEE",
"&+	c #5B5571",
"*+	c #646078",
"=+	c #AFAFB0",
"-+	c #454545",
";+	c #333408",
">+	c #7A7A7A",
",+	c #C8C8C9",
"'+	c #212025",
")+	c #060607",
"!+	c #969699",
"~+	c #FAFAFA",
"{+	c #F8F8F9",
"]+	c #A29EAF",
"^+	c #F7F6F8",
"/+	c #F0F0F1",
"(+	c #B8B7B9",
"_+	c #E4E4E4",
":+	c #FDFDFD",
"<+	c #A5A2B2",
"[+	c #3B3456",
"}+	c #A8A5B4",
"|+	c #525252",
"1+	c #848387",
"2+	c #CDCDCD",
"3+	c #8D899C",
"4+	c #494262",
"5+	c #68627C",
"6+	c #40395A",
"7+	c #ECECEC",
"8+	c #020202",
"9+	c #B4B5B5",
"0+	c #0B0B0B",
"a+	c #313232",
"b+	c #E3E3E3",
"c+	c #B1AEBC",
"d+	c #BDBBC6",
"e+	c #3C3556",
"f+	c #898599",
"g+	c #EDEDED",
"h+	c #39393A",
"i+	c #040404",
"j+	c #333333",
"k+	c #F5F5F5",
"l+	c #2B2B2B",
"m+	c #2D2A3D",
"n+	c #B6B4C1",
"o+	c #F5F5F6",
"p+	c #605A76",
"q+	c #DAD8DF",
"r+	c #F5F4F6",
"s+	c #615B76",
"t+	c #524D6A",
"u+	c #E4E3E8",
"v+	c #D5D5D5",
"w+	c #1B1B1B",
"x+	c #303030",
"y+	c #AAABAB",
"z+	c #585464",
"A+	c #B0AEBB",
"B+	c #A29FAF",
"C+	c #E9E8E9",
"D+	c #787779",
"E+	c #0F0E15",
"F+	c #2D2D2E",
"G+	c #595959",
"H+	c #FAFAFB",
"I+	c #807B92",
"J+	c #B0ADBB",
"K+	c #E8E7EB",
"L+	c #3A3258",
"M+	c #E6E5EA",
"N+	c #DFDEE3",
"O+	c #443E5E",
"P+	c #BAB8C4",
"Q+	c #C1BFCA",
"R+	c #E0E0E5",
"S+	c #D0CED6",
"T+	c #362F52",
"U+	c #CECCD5",
"V+	c #413A5B",
"W+	c #6A657F",
"X+	c #9793A6",
"                                                                        ",
"                                                                        ",
"                                                                        ",
"                      .   + @ #     $ %                                 ",
"                & * = *   - ; > , ' ; ; ; ) !                           ",
"                ~ ; ; {   ] ; ^ / ( _ ; : < [                           ",
"                } | 1 2   3 4 5 6 6 7 : 8 9 0 a b                       ",
"          c : d e f g h i j k l 6 m ; n o 6 p q r s                     ",
"        t u ; v w 6 6 x y z A B 6 C ; D E 6 F G ; H                     ",
"      I J ; ; K L 6 6 M N O P E 6 6 6 Q Q M R S T U V W                 ",
"    X Y ; ; ; ; Z `  .6 ..6 6 6 6 6 6 6 6 6 +.@.#.$.%.&.                ",
"    *.; ; ; ; ; ; = =.-.6 6 6 6 6 6 6 6 6 6 E ;.>.; ; ,.                ",
"    '.; ; ).R h !.~.{.6 6 6 6 6 6 6 ].6 6 6 6 E ^./.4 (.                ",
"  _.:.; <...6 6 6 6 6 6 6 6 6 6 6 6 ].6 6 6 6 6 6 [.}.                  ",
"  V @ |.1.2.6 6 6 6 6 3.6 6 6 6 6 6 ].6 6 ].].].6                       ",
"    4.5.6.6 7.6 6 6 6 6 6 6 6 6 6 6 ].].].].].].6 8.                    ",
"  9.; ; 0.a.a.b.c.a.6 6 6 6 6 6 ].].6 ].].].].].6 d.                    ",
"  e.; ; f.g.; ; ; h.6 i.6 6 ].].].].6 ].].6 6 6 6 j.                    ",
"  k.; ; ; ; l.; ; m.6 n.6 ].].].].].6 ].6 6 6 6 6 6 o.,                 ",
"  p.; ; l.; : q.r.s.6 6 ].].].].].].].].].6 6 6 6 t.l.u.v.              ",
"  w.; ; ; x.y.z.6 6 6 6 6 ].].].].].].].].].].6 6 A.; ; B.C.            ",
"  D.J ; : E.6 6 6 6 F...6 6 6 6 ].].].].].].].6 6 G.H.; ; I.J.          ",
"    K.; ; L.6 E 6 M.N.O.P.6 6 6 6 6 6 ].].].].6 6 6 Q.R.; ; > J.        ",
"    S.; T.U.V.6 6 O.l.; W.X.6 6 6 6 6 6 6 6 m Y.6 6 6 Z.`.; ;  +.+      ",
"    J.++! @+#+$+x ; ; %+&+*+=+l -+6 6 6 ;+>+,+'+6 6 6 )+!+~+; ; {+@     ",
"        ]+^+/+(+_+:+; <+[+}+; H.-+6 6 E |+; ; 1+6 6 E 6 o 2+; ; = 3+    ",
"      4+> ; ; ; ; ; ; 5+6+; ; 7+b.6 6 8+D ; ; 9+0+6 6 6 a+b+; ; c+      ",
"          > ; ; ; ; d+e+f+; ; g+h+6 6 i+j+; ; k+l+6 6 m+n+; o+3         ",
"          p+q+= ; r+s+t+u+; ; v+w+6 6 8+x+; ; ; y+|+z+                  ",
"              A+4 B+  X ; ; ; C+D+x+E+F+G+; ; ; l.H+I+                  ",
"                      J+; ; ; ; ; K+L+M+; ; ; ; = N+O+                  ",
"                      P+Q+R+4 ; ; S+T+U+; ; ; s f+T                     ",
"                          V+          W+X+f+                            ",
"                                                                        ",
"                                                                        ",
"                                                                        "};
